<svg class="typst-doc" viewBox="0 0 338.91999999999996 235.82400000000004" width="338.91999999999996pt" height="235.82400000000004pt" xmlns="http://www.w3.org/2000/svg" xmlns:xlink="http://www.w3.org/1999/xlink" xmlns:h5="http://www.w3.org/1999/xhtml">
    <path class="typst-shape" fill="#ffffff" fill-rule="nonzero" d="M 0 0 L 0 235.824 L 338.92 235.824 L 338.92 0 Z "/>
    <g>
        <g transform="translate(194.77699999999996 20.74)">
            <path class="typst-shape" fill="none" stroke="#000000" stroke-width="0.75" stroke-linecap="butt" stroke-linejoin="miter" stroke-miterlimit="4" d="M 0 0 L 141.518 0 "/>
        </g>
        <g transform="translate(2.625 54.33200000000001)">
            <path class="typst-shape" fill="none" stroke="#000000" stroke-width="0.75" stroke-linecap="butt" stroke-linejoin="miter" stroke-miterlimit="4" d="M 0 0 L 333.67 0 "/>
        </g>
        <g transform="translate(2.5 3)">
            <path class="typst-shape" fill="none" stroke="#000000" stroke-width="1" stroke-linecap="butt" stroke-linejoin="miter" stroke-miterlimit="4" d="M 0 0 L 333.92 0 "/>
        </g>
        <g transform="translate(2.5 232.82400000000004)">
            <path class="typst-shape" fill="none" stroke="#000000" stroke-width="1" stroke-linecap="butt" stroke-linejoin="miter" stroke-miterlimit="4" d="M 0 0 L 333.92 0 "/>
        </g>
        <g transform="translate(256.25399999999996 15.74)">
            <g class="typst-text" transform="scale(1, -1)">
                <use xlink:href="#0" x="0" fill="#000000" fill-rule="nonzero"/>
                <use xlink:href="#1" x="6.048" fill="#000000" fill-rule="nonzero"/>
                <use xlink:href="#2" x="11.832" fill="#000000" fill-rule="nonzero"/>
            </g>
        </g>
        <g transform="translate(3 20.74)">
            <g class="typst-group">
                <g>
                    <g transform="translate(140.736 12.74)">
                        <g class="typst-text" transform="scale(1, -1)">
                            <use xlink:href="#3" x="0" fill="#000000" fill-rule="nonzero"/>
                            <use xlink:href="#4" x="7.068" fill="#000000" fill-rule="nonzero"/>
                            <use xlink:href="#5" x="13.68" fill="#000000" fill-rule="nonzero"/>
                            <use xlink:href="#6" x="17.976" fill="#000000" fill-rule="nonzero"/>
                            <use xlink:href="#7" x="24.048" fill="#000000" fill-rule="nonzero"/>
                        </g>
                    </g>
                    <g transform="translate(137.75999999999996 28.28)">
                        <g class="typst-text" transform="scale(1, -1)">
                            <use xlink:href="#8" x="0" fill="#000000" fill-rule="nonzero"/>
                            <use xlink:href="#9" x="3.78" fill="#000000" fill-rule="nonzero"/>
                            <use xlink:href="#a" x="11.172" fill="#000000" fill-rule="nonzero"/>
                            <use xlink:href="#b" x="17.784" fill="#000000" fill-rule="nonzero"/>
                            <use xlink:href="#c" x="23.951999999999998" fill="#000000" fill-rule="nonzero"/>
                            <use xlink:href="#d" x="30.119999999999997" fill="#000000" fill-rule="nonzero"/>
                        </g>
                    </g>
                    <g transform="translate(224.73399999999998 12.895999999999999)">
                        <g class="typst-text" transform="scale(1, -1)">
                            <use xlink:href="#e" x="0" fill="#000000" fill-rule="nonzero"/>
                        </g>
                    </g>
                    <g transform="translate(213.67599999999996 28.592000000000002)">
                        <g class="typst-text" transform="scale(1, -1)">
                            <use xlink:href="#f" x="0" fill="#000000" fill-rule="nonzero"/>
                            <use xlink:href="#10" x="3.576" fill="#000000" fill-rule="nonzero"/>
                            <use xlink:href="#11" x="10.08" fill="#000000" fill-rule="nonzero"/>
                            <use xlink:href="#12" x="16.68" fill="#000000" fill-rule="nonzero"/>
                            <use xlink:href="#13" x="22.26" fill="#000000" fill-rule="nonzero"/>
                        </g>
                    </g>
                    <g transform="translate(293.738 12.895999999999999)">
                        <g class="typst-text" transform="scale(1, -1)">
                            <use xlink:href="#14" x="0" fill="#000000" fill-rule="nonzero"/>
                        </g>
                    </g>
                    <g transform="translate(285.56 28.592000000000002)">
                        <g class="typst-text" transform="scale(1, -1)">
                            <use xlink:href="#f" x="0" fill="#000000" fill-rule="nonzero"/>
                            <use xlink:href="#10" x="3.576" fill="#000000" fill-rule="nonzero"/>
                            <use xlink:href="#11" x="10.08" fill="#000000" fill-rule="nonzero"/>
                            <use xlink:href="#15" x="16.68" fill="#000000" fill-rule="nonzero"/>
                            <use xlink:href="#13" x="22.26" fill="#000000" fill-rule="nonzero"/>
                        </g>
                    </g>
                </g>
            </g>
        </g>
        <g transform="translate(8 67.072)">
            <g class="typst-text" transform="scale(1, -1)">
                <use xlink:href="#16" x="0" fill="#000000" fill-rule="nonzero"/>
                <use xlink:href="#17" x="8.736" fill="#000000" fill-rule="nonzero"/>
                <use xlink:href="#1" x="14.988" fill="#000000" fill-rule="nonzero"/>
                <use xlink:href="#8" x="23.856" fill="#000000" fill-rule="nonzero"/>
                <use xlink:href="#18" x="27.432000000000002" fill="#000000" fill-rule="nonzero"/>
                <use xlink:href="#1" x="34.032000000000004" fill="#000000" fill-rule="nonzero"/>
                <use xlink:href="#6" x="39.900000000000006" fill="#000000" fill-rule="nonzero"/>
                <use xlink:href="#19" x="45.97200000000001" fill="#000000" fill-rule="nonzero"/>
                <use xlink:href="#1a" x="51.108000000000004" fill="#000000" fill-rule="nonzero"/>
                <use xlink:href="#d" x="56.232000000000006" fill="#000000" fill-rule="nonzero"/>
            </g>
        </g>
        <g transform="translate(20 84.968)">
            <g class="typst-text" transform="scale(1, -1)">
                <use xlink:href="#1b" x="0" fill="#000000" fill-rule="nonzero"/>
                <use xlink:href="#1c" x="10.068" fill="#000000" fill-rule="nonzero"/>
                <use xlink:href="#1d" x="15.432" fill="#000000" fill-rule="nonzero"/>
                <use xlink:href="#10" x="20.916" fill="#000000" fill-rule="nonzero"/>
                <use xlink:href="#f" x="30.42" fill="#000000" fill-rule="nonzero"/>
                <use xlink:href="#1e" x="33.996" fill="#000000" fill-rule="nonzero"/>
                <use xlink:href="#1f" x="39.816" fill="#000000" fill-rule="nonzero"/>
                <use xlink:href="#13" x="48.108000000000004" fill="#000000" fill-rule="nonzero"/>
            </g>
        </g>
        <g transform="translate(133.254 84.968)">
            <g class="typst-text" transform="scale(1, -1)">
                <use xlink:href="#15" x="0" fill="#000000" fill-rule="nonzero"/>
                <use xlink:href="#20" x="5.580000000000001" fill="#000000" fill-rule="nonzero"/>
                <use xlink:href="#21" x="11.160000000000002" fill="#000000" fill-rule="nonzero"/>
                <use xlink:href="#12" x="13.800000000000002" fill="#000000" fill-rule="nonzero"/>
                <use xlink:href="#f" x="22.380000000000003" fill="#000000" fill-rule="nonzero"/>
                <use xlink:href="#22" x="25.956000000000003" fill="#000000" fill-rule="nonzero"/>
                <use xlink:href="#23" x="31.536000000000005" fill="#000000" fill-rule="nonzero"/>
                <use xlink:href="#21" x="37.11600000000001" fill="#000000" fill-rule="nonzero"/>
                <use xlink:href="#24" x="39.75600000000001" fill="#000000" fill-rule="nonzero"/>
                <use xlink:href="#13" x="45.336000000000006" fill="#000000" fill-rule="nonzero"/>
            </g>
        </g>
        <g transform="translate(205.13799999999998 84.968)">
            <g class="typst-text" transform="scale(1, -1)">
                <use xlink:href="#15" x="0" fill="#000000" fill-rule="nonzero"/>
                <use xlink:href="#15" x="5.580000000000001" fill="#000000" fill-rule="nonzero"/>
                <use xlink:href="#21" x="11.160000000000002" fill="#000000" fill-rule="nonzero"/>
                <use xlink:href="#22" x="13.800000000000002" fill="#000000" fill-rule="nonzero"/>
                <use xlink:href="#f" x="22.380000000000003" fill="#000000" fill-rule="nonzero"/>
                <use xlink:href="#25" x="25.956000000000003" fill="#000000" fill-rule="nonzero"/>
                <use xlink:href="#26" x="31.536000000000005" fill="#000000" fill-rule="nonzero"/>
                <use xlink:href="#21" x="37.11600000000001" fill="#000000" fill-rule="nonzero"/>
                <use xlink:href="#25" x="39.75600000000001" fill="#000000" fill-rule="nonzero"/>
                <use xlink:href="#13" x="45.336000000000006" fill="#000000" fill-rule="nonzero"/>
            </g>
        </g>
        <g transform="translate(277.022 84.968)">
            <g class="typst-text" transform="scale(1, -1)">
                <use xlink:href="#15" x="0" fill="#000000" fill-rule="nonzero"/>
                <use xlink:href="#24" x="5.580000000000001" fill="#000000" fill-rule="nonzero"/>
                <use xlink:href="#21" x="11.160000000000002" fill="#000000" fill-rule="nonzero"/>
                <use xlink:href="#27" x="13.800000000000002" fill="#000000" fill-rule="nonzero"/>
                <use xlink:href="#f" x="22.380000000000003" fill="#000000" fill-rule="nonzero"/>
                <use xlink:href="#22" x="25.956000000000003" fill="#000000" fill-rule="nonzero"/>
                <use xlink:href="#20" x="31.536000000000005" fill="#000000" fill-rule="nonzero"/>
                <use xlink:href="#21" x="37.11600000000001" fill="#000000" fill-rule="nonzero"/>
                <use xlink:href="#26" x="39.75600000000001" fill="#000000" fill-rule="nonzero"/>
                <use xlink:href="#13" x="45.336000000000006" fill="#000000" fill-rule="nonzero"/>
            </g>
        </g>
        <g transform="translate(20 102.86399999999999)">
            <g class="typst-text" transform="scale(1, -1)">
                <use xlink:href="#1b" x="0" fill="#000000" fill-rule="nonzero"/>
                <use xlink:href="#1c" x="10.068" fill="#000000" fill-rule="nonzero"/>
                <use xlink:href="#28" x="15.516" fill="#000000" fill-rule="nonzero"/>
                <use xlink:href="#29" x="21.588" fill="#000000" fill-rule="nonzero"/>
                <use xlink:href="#1d" x="24.84" fill="#000000" fill-rule="nonzero"/>
                <use xlink:href="#10" x="30.324" fill="#000000" fill-rule="nonzero"/>
                <use xlink:href="#2a" x="39.828" fill="#000000" fill-rule="nonzero"/>
                <use xlink:href="#1b" x="44.1" fill="#000000" fill-rule="nonzero"/>
                <use xlink:href="#29" x="54.168" fill="#000000" fill-rule="nonzero"/>
                <use xlink:href="#10" x="57.42" fill="#000000" fill-rule="nonzero"/>
                <use xlink:href="#2b" x="63.924" fill="#000000" fill-rule="nonzero"/>
                <use xlink:href="#1b" x="69.564" fill="#000000" fill-rule="nonzero"/>
                <use xlink:href="#1d" x="79.63199999999999" fill="#000000" fill-rule="nonzero"/>
                <use xlink:href="#2c" x="85.11599999999999" fill="#000000" fill-rule="nonzero"/>
                <use xlink:href="#2d" x="90.99599999999998" fill="#000000" fill-rule="nonzero"/>
            </g>
        </g>
        <g transform="translate(128.26799999999997 102.86399999999999)">
            <g class="typst-text" transform="scale(1, -1)">
                <use xlink:href="#15" x="0" fill="#000000" fill-rule="nonzero"/>
                <use xlink:href="#23" x="5.580000000000001" fill="#000000" fill-rule="nonzero"/>
                <use xlink:href="#21" x="11.160000000000002" fill="#000000" fill-rule="nonzero"/>
                <use xlink:href="#20" x="13.800000000000002" fill="#000000" fill-rule="nonzero"/>
                <use xlink:href="#2a" x="22.380000000000003" fill="#000000" fill-rule="nonzero"/>
                <use xlink:href="#22" x="26.652" fill="#000000" fill-rule="nonzero"/>
                <use xlink:href="#15" x="32.232" fill="#000000" fill-rule="nonzero"/>
                <use xlink:href="#2b" x="37.812" fill="#000000" fill-rule="nonzero"/>
                <use xlink:href="#27" x="43.452" fill="#000000" fill-rule="nonzero"/>
                <use xlink:href="#20" x="49.032" fill="#000000" fill-rule="nonzero"/>
                <use xlink:href="#2d" x="54.611999999999995" fill="#000000" fill-rule="nonzero"/>
            </g>
        </g>
        <g transform="translate(200.15199999999996 102.86399999999999)">
            <g class="typst-text" transform="scale(1, -1)">
                <use xlink:href="#15" x="0" fill="#000000" fill-rule="nonzero"/>
                <use xlink:href="#23" x="5.580000000000001" fill="#000000" fill-rule="nonzero"/>
                <use xlink:href="#21" x="11.160000000000002" fill="#000000" fill-rule="nonzero"/>
                <use xlink:href="#20" x="13.800000000000002" fill="#000000" fill-rule="nonzero"/>
                <use xlink:href="#2a" x="22.380000000000003" fill="#000000" fill-rule="nonzero"/>
                <use xlink:href="#22" x="26.652" fill="#000000" fill-rule="nonzero"/>
                <use xlink:href="#15" x="32.232" fill="#000000" fill-rule="nonzero"/>
                <use xlink:href="#2b" x="37.812" fill="#000000" fill-rule="nonzero"/>
                <use xlink:href="#24" x="43.452" fill="#000000" fill-rule="nonzero"/>
                <use xlink:href="#12" x="49.032" fill="#000000" fill-rule="nonzero"/>
                <use xlink:href="#2d" x="54.611999999999995" fill="#000000" fill-rule="nonzero"/>
            </g>
        </g>
        <g transform="translate(272.036 102.86399999999999)">
            <g class="typst-text" transform="scale(1, -1)">
                <use xlink:href="#2e" x="0" fill="#000000" fill-rule="nonzero"/>
                <use xlink:href="#26" x="5.580000000000001" fill="#000000" fill-rule="nonzero"/>
                <use xlink:href="#21" x="11.160000000000002" fill="#000000" fill-rule="nonzero"/>
                <use xlink:href="#20" x="13.800000000000002" fill="#000000" fill-rule="nonzero"/>
                <use xlink:href="#2a" x="22.380000000000003" fill="#000000" fill-rule="nonzero"/>
                <use xlink:href="#22" x="26.652" fill="#000000" fill-rule="nonzero"/>
                <use xlink:href="#24" x="32.232" fill="#000000" fill-rule="nonzero"/>
                <use xlink:href="#2b" x="37.812" fill="#000000" fill-rule="nonzero"/>
                <use xlink:href="#27" x="43.452" fill="#000000" fill-rule="nonzero"/>
                <use xlink:href="#20" x="49.032" fill="#000000" fill-rule="nonzero"/>
                <use xlink:href="#2d" x="54.611999999999995" fill="#000000" fill-rule="nonzero"/>
            </g>
        </g>
        <g transform="translate(8 120.60399999999998)">
            <g class="typst-text" transform="scale(1, -1)">
                <use xlink:href="#2f" x="0" fill="#000000" fill-rule="nonzero"/>
                <use xlink:href="#7" x="7.848" fill="#000000" fill-rule="nonzero"/>
                <use xlink:href="#4" x="11.748" fill="#000000" fill-rule="nonzero"/>
                <use xlink:href="#4" x="18.444" fill="#000000" fill-rule="nonzero"/>
                <use xlink:href="#30" x="25.14" fill="#000000" fill-rule="nonzero"/>
                <use xlink:href="#5" x="34.872" fill="#000000" fill-rule="nonzero"/>
                <use xlink:href="#18" x="39.168" fill="#000000" fill-rule="nonzero"/>
                <use xlink:href="#31" x="45.864" fill="#000000" fill-rule="nonzero"/>
                <use xlink:href="#1" x="52.919999999999995" fill="#000000" fill-rule="nonzero"/>
            </g>
        </g>
        <g transform="translate(20 138.5)">
            <g class="typst-text" transform="scale(1, -1)">
                <use xlink:href="#23" x="0" fill="#000000" fill-rule="nonzero"/>
            </g>
        </g>
        <g transform="translate(140.44199999999998 138.5)">
            <g class="typst-text" transform="scale(1, -1)">
                <use xlink:href="#22" x="0" fill="#000000" fill-rule="nonzero"/>
                <use xlink:href="#f" x="8.580000000000002" fill="#000000" fill-rule="nonzero"/>
                <use xlink:href="#22" x="12.156000000000002" fill="#000000" fill-rule="nonzero"/>
                <use xlink:href="#23" x="17.736000000000004" fill="#000000" fill-rule="nonzero"/>
                <use xlink:href="#32" x="23.316000000000006" fill="#000000" fill-rule="nonzero"/>
                <use xlink:href="#13" x="30.960000000000008" fill="#000000" fill-rule="nonzero"/>
            </g>
        </g>
        <g transform="translate(208.21599999999998 138.5)">
            <g class="typst-text" transform="scale(1, -1)">
                <use xlink:href="#25" x="0" fill="#000000" fill-rule="nonzero"/>
                <use xlink:href="#f" x="8.580000000000002" fill="#000000" fill-rule="nonzero"/>
                <use xlink:href="#25" x="12.156000000000002" fill="#000000" fill-rule="nonzero"/>
                <use xlink:href="#12" x="17.736000000000004" fill="#000000" fill-rule="nonzero"/>
                <use xlink:href="#21" x="23.316000000000006" fill="#000000" fill-rule="nonzero"/>
                <use xlink:href="#24" x="25.956000000000007" fill="#000000" fill-rule="nonzero"/>
                <use xlink:href="#32" x="31.53600000000001" fill="#000000" fill-rule="nonzero"/>
                <use xlink:href="#13" x="39.18000000000001" fill="#000000" fill-rule="nonzero"/>
            </g>
        </g>
        <g transform="translate(284.21 138.5)">
            <g class="typst-text" transform="scale(1, -1)">
                <use xlink:href="#25" x="0" fill="#000000" fill-rule="nonzero"/>
                <use xlink:href="#f" x="8.580000000000002" fill="#000000" fill-rule="nonzero"/>
                <use xlink:href="#22" x="12.156000000000002" fill="#000000" fill-rule="nonzero"/>
                <use xlink:href="#20" x="17.736000000000004" fill="#000000" fill-rule="nonzero"/>
                <use xlink:href="#32" x="23.316000000000006" fill="#000000" fill-rule="nonzero"/>
                <use xlink:href="#13" x="30.960000000000008" fill="#000000" fill-rule="nonzero"/>
            </g>
        </g>
        <g transform="translate(20 156.39600000000002)">
            <g class="typst-text" transform="scale(1, -1)">
                <use xlink:href="#33" x="0" fill="#000000" fill-rule="nonzero"/>
            </g>
        </g>
        <g transform="translate(140.44199999999998 156.39600000000002)">
            <g class="typst-text" transform="scale(1, -1)">
                <use xlink:href="#15" x="0" fill="#000000" fill-rule="nonzero"/>
                <use xlink:href="#f" x="8.580000000000002" fill="#000000" fill-rule="nonzero"/>
                <use xlink:href="#15" x="12.156000000000002" fill="#000000" fill-rule="nonzero"/>
                <use xlink:href="#23" x="17.736000000000004" fill="#000000" fill-rule="nonzero"/>
                <use xlink:href="#32" x="23.316000000000006" fill="#000000" fill-rule="nonzero"/>
                <use xlink:href="#13" x="30.960000000000008" fill="#000000" fill-rule="nonzero"/>
            </g>
        </g>
        <g transform="translate(212.32599999999996 156.39600000000002)">
            <g class="typst-text" transform="scale(1, -1)">
                <use xlink:href="#2e" x="0" fill="#000000" fill-rule="nonzero"/>
                <use xlink:href="#f" x="8.580000000000002" fill="#000000" fill-rule="nonzero"/>
                <use xlink:href="#20" x="12.156000000000002" fill="#000000" fill-rule="nonzero"/>
                <use xlink:href="#23" x="17.736000000000004" fill="#000000" fill-rule="nonzero"/>
                <use xlink:href="#32" x="23.316000000000006" fill="#000000" fill-rule="nonzero"/>
                <use xlink:href="#13" x="30.960000000000008" fill="#000000" fill-rule="nonzero"/>
            </g>
        </g>
        <g transform="translate(284.21 156.39600000000002)">
            <g class="typst-text" transform="scale(1, -1)">
                <use xlink:href="#25" x="0" fill="#000000" fill-rule="nonzero"/>
                <use xlink:href="#f" x="8.580000000000002" fill="#000000" fill-rule="nonzero"/>
                <use xlink:href="#22" x="12.156000000000002" fill="#000000" fill-rule="nonzero"/>
                <use xlink:href="#20" x="17.736000000000004" fill="#000000" fill-rule="nonzero"/>
                <use xlink:href="#32" x="23.316000000000006" fill="#000000" fill-rule="nonzero"/>
                <use xlink:href="#13" x="30.960000000000008" fill="#000000" fill-rule="nonzero"/>
            </g>
        </g>
        <g transform="translate(20 174.29200000000003)">
            <g class="typst-text" transform="scale(1, -1)">
                <use xlink:href="#34" x="0" fill="#000000" fill-rule="nonzero"/>
            </g>
        </g>
        <g transform="translate(140.44199999999998 174.29200000000003)">
            <g class="typst-text" transform="scale(1, -1)">
                <use xlink:href="#15" x="0" fill="#000000" fill-rule="nonzero"/>
                <use xlink:href="#f" x="8.580000000000002" fill="#000000" fill-rule="nonzero"/>
                <use xlink:href="#15" x="12.156000000000002" fill="#000000" fill-rule="nonzero"/>
                <use xlink:href="#23" x="17.736000000000004" fill="#000000" fill-rule="nonzero"/>
                <use xlink:href="#32" x="23.316000000000006" fill="#000000" fill-rule="nonzero"/>
                <use xlink:href="#13" x="30.960000000000008" fill="#000000" fill-rule="nonzero"/>
            </g>
        </g>
        <g transform="translate(208.21599999999998 174.29200000000003)">
            <g class="typst-text" transform="scale(1, -1)">
                <use xlink:href="#22" x="0" fill="#000000" fill-rule="nonzero"/>
                <use xlink:href="#f" x="8.580000000000002" fill="#000000" fill-rule="nonzero"/>
                <use xlink:href="#2e" x="12.156000000000002" fill="#000000" fill-rule="nonzero"/>
                <use xlink:href="#2e" x="17.736000000000004" fill="#000000" fill-rule="nonzero"/>
                <use xlink:href="#21" x="23.316000000000006" fill="#000000" fill-rule="nonzero"/>
                <use xlink:href="#2e" x="25.956000000000007" fill="#000000" fill-rule="nonzero"/>
                <use xlink:href="#32" x="31.53600000000001" fill="#000000" fill-rule="nonzero"/>
                <use xlink:href="#13" x="39.18000000000001" fill="#000000" fill-rule="nonzero"/>
            </g>
        </g>
        <g transform="translate(284.21 174.29200000000003)">
            <g class="typst-text" transform="scale(1, -1)">
                <use xlink:href="#22" x="0" fill="#000000" fill-rule="nonzero"/>
                <use xlink:href="#f" x="8.580000000000002" fill="#000000" fill-rule="nonzero"/>
                <use xlink:href="#20" x="12.156000000000002" fill="#000000" fill-rule="nonzero"/>
                <use xlink:href="#23" x="17.736000000000004" fill="#000000" fill-rule="nonzero"/>
                <use xlink:href="#32" x="23.316000000000006" fill="#000000" fill-rule="nonzero"/>
                <use xlink:href="#13" x="30.960000000000008" fill="#000000" fill-rule="nonzero"/>
            </g>
        </g>
        <g transform="translate(8 192.032)">
            <g class="typst-text" transform="scale(1, -1)">
                <use xlink:href="#0" x="0" fill="#000000" fill-rule="nonzero"/>
                <use xlink:href="#35" x="6.048" fill="#000000" fill-rule="nonzero"/>
                <use xlink:href="#4" x="16.908" fill="#000000" fill-rule="nonzero"/>
                <use xlink:href="#36" x="23.520000000000003" fill="#000000" fill-rule="nonzero"/>
                <use xlink:href="#1" x="30.876000000000005" fill="#000000" fill-rule="nonzero"/>
                <use xlink:href="#19" x="36.74400000000001" fill="#000000" fill-rule="nonzero"/>
            </g>
        </g>
        <g transform="translate(20 209.92800000000003)">
            <g class="typst-text" transform="scale(1, -1)">
                <use xlink:href="#e" x="0" fill="#000000" fill-rule="nonzero"/>
                <use xlink:href="#1d" x="3.72" fill="#000000" fill-rule="nonzero"/>
                <use xlink:href="#37" x="9.204" fill="#000000" fill-rule="nonzero"/>
                <use xlink:href="#38" x="12.372" fill="#000000" fill-rule="nonzero"/>
                <use xlink:href="#1c" x="17.052" fill="#000000" fill-rule="nonzero"/>
            </g>
        </g>
        <g transform="translate(140.44199999999998 209.92800000000003)">
            <g class="typst-text" transform="scale(1, -1)">
                <use xlink:href="#12" x="0" fill="#000000" fill-rule="nonzero"/>
                <use xlink:href="#f" x="8.580000000000002" fill="#000000" fill-rule="nonzero"/>
                <use xlink:href="#12" x="12.156000000000002" fill="#000000" fill-rule="nonzero"/>
                <use xlink:href="#23" x="17.736000000000004" fill="#000000" fill-rule="nonzero"/>
                <use xlink:href="#32" x="23.316000000000006" fill="#000000" fill-rule="nonzero"/>
                <use xlink:href="#13" x="30.960000000000008" fill="#000000" fill-rule="nonzero"/>
            </g>
        </g>
        <g transform="translate(212.32599999999996 209.92800000000003)">
            <g class="typst-text" transform="scale(1, -1)">
                <use xlink:href="#2e" x="0" fill="#000000" fill-rule="nonzero"/>
                <use xlink:href="#f" x="8.580000000000002" fill="#000000" fill-rule="nonzero"/>
                <use xlink:href="#20" x="12.156000000000002" fill="#000000" fill-rule="nonzero"/>
                <use xlink:href="#23" x="17.736000000000004" fill="#000000" fill-rule="nonzero"/>
                <use xlink:href="#32" x="23.316000000000006" fill="#000000" fill-rule="nonzero"/>
                <use xlink:href="#13" x="30.960000000000008" fill="#000000" fill-rule="nonzero"/>
            </g>
        </g>
        <g transform="translate(284.21 209.92800000000003)">
            <g class="typst-text" transform="scale(1, -1)">
                <use xlink:href="#2e" x="0" fill="#000000" fill-rule="nonzero"/>
                <use xlink:href="#f" x="8.580000000000002" fill="#000000" fill-rule="nonzero"/>
                <use xlink:href="#24" x="12.156000000000002" fill="#000000" fill-rule="nonzero"/>
                <use xlink:href="#20" x="17.736000000000004" fill="#000000" fill-rule="nonzero"/>
                <use xlink:href="#32" x="23.316000000000006" fill="#000000" fill-rule="nonzero"/>
                <use xlink:href="#13" x="30.960000000000008" fill="#000000" fill-rule="nonzero"/>
            </g>
        </g>
        <g transform="translate(20 227.82400000000004)">
            <g class="typst-text" transform="scale(1, -1)">
                <use xlink:href="#39" x="0" fill="#000000" fill-rule="nonzero"/>
                <use xlink:href="#3a" x="3.792" fill="#000000" fill-rule="nonzero"/>
                <use xlink:href="#3b" x="8.256" fill="#000000" fill-rule="nonzero"/>
                <use xlink:href="#1c" x="14.628" fill="#000000" fill-rule="nonzero"/>
            </g>
        </g>
        <g transform="translate(140.44199999999998 227.82400000000004)">
            <g class="typst-text" transform="scale(1, -1)">
                <use xlink:href="#15" x="0" fill="#000000" fill-rule="nonzero"/>
                <use xlink:href="#f" x="8.580000000000002" fill="#000000" fill-rule="nonzero"/>
                <use xlink:href="#15" x="12.156000000000002" fill="#000000" fill-rule="nonzero"/>
                <use xlink:href="#23" x="17.736000000000004" fill="#000000" fill-rule="nonzero"/>
                <use xlink:href="#32" x="23.316000000000006" fill="#000000" fill-rule="nonzero"/>
                <use xlink:href="#13" x="30.960000000000008" fill="#000000" fill-rule="nonzero"/>
            </g>
        </g>
        <g transform="translate(212.32599999999996 227.82400000000004)">
            <g class="typst-text" transform="scale(1, -1)">
                <use xlink:href="#2e" x="0" fill="#000000" fill-rule="nonzero"/>
                <use xlink:href="#f" x="8.580000000000002" fill="#000000" fill-rule="nonzero"/>
                <use xlink:href="#20" x="12.156000000000002" fill="#000000" fill-rule="nonzero"/>
                <use xlink:href="#23" x="17.736000000000004" fill="#000000" fill-rule="nonzero"/>
                <use xlink:href="#32" x="23.316000000000006" fill="#000000" fill-rule="nonzero"/>
                <use xlink:href="#13" x="30.960000000000008" fill="#000000" fill-rule="nonzero"/>
            </g>
        </g>
        <g transform="translate(284.21 227.82400000000004)">
            <g class="typst-text" transform="scale(1, -1)">
                <use xlink:href="#25" x="0" fill="#000000" fill-rule="nonzero"/>
                <use xlink:href="#f" x="8.580000000000002" fill="#000000" fill-rule="nonzero"/>
                <use xlink:href="#22" x="12.156000000000002" fill="#000000" fill-rule="nonzero"/>
                <use xlink:href="#20" x="17.736000000000004" fill="#000000" fill-rule="nonzero"/>
                <use xlink:href="#32" x="23.316000000000006" fill="#000000" fill-rule="nonzero"/>
                <use xlink:href="#13" x="30.960000000000008" fill="#000000" fill-rule="nonzero"/>
            </g>
        </g>
    </g>
    <defs id="3c">
        <symbol id="0" overflow="visible">
            <path d="M 5.052 7.572 C 4.392 7.668 4.14 7.896 3.024 7.896 C 2.484 7.896 1.776 7.728 1.272 7.32 C 0.828 6.96 0.492 6.408 0.492 5.82 C 0.492 5.364 0.612 4.788 0.888 4.428 C 1.44 3.684 2.436 3.276 2.9520001 2.9160001 C 3.504 2.532 4.044 2.052 4.044 1.38 C 4.044 0.792 3.528 0.384 2.796 0.384 C 1.992 0.384 1.164 1.044 0.924 2.136 C 0.732 2.208 0.54 2.16 0.36 2.112 C 0.348 2.112 0.336 2.1 0.324 2.1 C 0.324 1.2 0.42000002 0.564 0.552 0.120000005 C 1.2360001 0.120000005 1.272 -0.120000005 2.928 -0.120000005 C 3.66 -0.120000005 4.248 0.096 4.7400002 0.54 C 5.172 0.912 5.556 1.464 5.556 2.208 C 5.556 2.832 5.292 3.252 4.932 3.648 C 4.464 4.164 3.792 4.5360003 3.3240001 4.776 C 2.844 5.0160003 1.992 5.64 1.992 6.324 C 1.992 6.9960003 2.4 7.4040003 3.012 7.4040003 C 4.032 7.4040003 4.368 6.48 4.584 5.688 C 4.752 5.64 5.052 5.64 5.184 5.748 C 5.184 6.384 5.136 6.876 5.052 7.572 Z "/>
        </symbol>
        <symbol id="1" overflow="visible">
            <path d="M 5.172 1.548 C 4.68 1.044 4.032 0.912 3.576 0.912 C 2.64 0.912 2.0640001 1.452 2.0640001 2.628 C 2.0640001 2.7120001 2.076 2.76 2.076 2.82 L 4.956 2.82 C 5.244 2.82 5.304 3.024 5.304 3.192 C 5.304 4.212 4.908 5.328 3.144 5.328 C 1.8840001 5.328 0.444 4.212 0.444 2.376 C 0.444 1.6800001 0.696 0.948 1.212 0.48000002 C 1.668 0.072 2.256 -0.120000005 3.108 -0.120000005 C 3.936 -0.120000005 4.752 0.3 5.352 1.176 C 5.352 1.332 5.292 1.548 5.172 1.548 Z M 2.124 3.3 C 2.136 3.72 2.196 4.176 2.364 4.416 C 2.556 4.704 2.88 4.824 3.012 4.824 C 3.336 4.824 3.78 4.512 3.78 3.552 C 3.78 3.48 3.78 3.3240001 3.756 3.3 Z "/>
        </symbol>
        <symbol id="2" overflow="visible">
            <path d="M 2.196 0.876 L 2.94 1.9200001 C 2.988 1.98 3.024 2.016 3.06 1.956 L 3.636 0.864 C 3.8400002 0.48000002 3.72 0.444 3.3 0.384 C 3.228 0.312 3.228 0.048 3.3 -0.024 C 3.54 -0.012 4.296 0 4.932 0 C 5.556 0 6.3 -0.012 6.54 -0.024 C 6.612 0.048 6.612 0.312 6.54 0.384 C 6.096 0.456 5.688 0.612 5.304 1.188 L 4.248 2.76 C 4.188 2.856 4.188 2.892 4.224 2.94 L 5.292 4.236 C 5.6280003 4.644 6.06 4.788 6.432 4.824 C 6.504 4.896 6.504 5.16 6.432 5.232 C 6.192 5.2200003 5.82 5.208 5.4240003 5.208 C 4.956 5.208 4.464 5.2200003 4.224 5.232 C 4.152 5.16 4.152 4.896 4.224 4.824 C 4.656 4.788 4.752 4.656 4.512 4.308 L 3.864 3.384 C 3.828 3.3240001 3.7680001 3.3240001 3.72 3.408 L 3.18 4.32 C 2.928 4.752 3.084 4.776 3.54 4.824 C 3.612 4.896 3.612 5.16 3.54 5.232 C 3.3 5.2200003 2.52 5.208 1.86 5.208 C 1.272 5.208 0.588 5.2200003 0.348 5.232 C 0.276 5.16 0.276 4.896 0.348 4.824 C 0.888 4.824 1.128 4.5 1.464 4.02 L 2.532 2.496 C 2.568 2.448 2.568 2.4 2.496 2.316 L 1.392 0.948 C 1.092 0.564 0.564 0.432 0.204 0.384 C 0.132 0.312 0.132 0.048 0.204 -0.024 C 0.444 -0.012 0.816 0 1.2 0 C 1.716 0 2.28 -0.012 2.52 -0.024 C 2.592 0.048 2.592 0.312 2.52 0.384 C 2.304 0.432 1.932 0.504 2.196 0.876 Z "/>
        </symbol>
        <symbol id="3" overflow="visible">
            <path d="M 4.86 1.4760001 L 4.86 6.0360003 C 4.86 6.804 4.98 7.248 5.412 7.248 L 5.676 7.248 C 6.576 7.248 7.08 6.948 7.284 6.024 C 7.416 6.024 7.644 6.0360003 7.752 6.084 C 7.668 6.636 7.6080003 7.26 7.596 7.8 C 7.596 7.8120003 7.572 7.836 7.56 7.836 C 7.152 7.8 5.82 7.7400002 4.872 7.7400002 L 3.18 7.7400002 C 2.256 7.7400002 0.84000003 7.8 0.384 7.836 C 0.36 7.836 0.336 7.8120003 0.336 7.8 C 0.288 7.26 0.168 6.624 0.036 6.048 C 0.156 6 0.36 5.988 0.504 5.988 C 0.744 6.948 1.2360001 7.248 2.028 7.248 L 2.616 7.248 C 3.06 7.248 3.18 6.804 3.18 6.072 L 3.18 1.4760001 C 3.18 0.48000002 2.976 0.42000002 2.016 0.384 C 1.944 0.312 1.944 0.048 2.016 -0.024 C 2.604 -0.012 3.228 0 3.996 0 C 4.788 0 5.4240003 -0.012 6.024 -0.024 C 6.096 0.048 6.096 0.312 6.024 0.384 C 5.064 0.42000002 4.86 0.48000002 4.86 1.4760001 Z "/>
        </symbol>
        <symbol id="4" overflow="visible">
            <path d="M 0.444 2.484 C 0.444 0.912 1.692 -0.120000005 3.3 -0.120000005 C 4.152 -0.120000005 4.86 0.120000005 5.352 0.564 C 5.964 1.104 6.168 1.9200001 6.168 2.592 C 6.168 4.164 5.1 5.328 3.312 5.328 C 2.316 5.328 1.572 4.98 1.104 4.44 C 0.648 3.912 0.444 3.192 0.444 2.484 Z M 3.1200001 4.824 C 3.936 4.824 4.488 3.852 4.488 2.208 C 4.488 0.768 3.924 0.384 3.492 0.384 C 2.5080001 0.384 2.124 1.86 2.124 2.748 C 2.124 3.852 2.316 4.824 3.1200001 4.824 Z "/>
        </symbol>
        <symbol id="5" overflow="visible">
            <path d="M 0.756 5.208 C 0.588 5.208 0.408 5.16 0.252 5.028 L 0.252 4.68 C 0.252 4.62 0.264 4.608 0.312 4.608 L 1.092 4.608 C 1.068 3.3960001 1.056 1.86 1.056 1.26 C 1.056 0.84000003 1.164 0.432 1.416 0.216 C 1.692 -0.012 2.124 -0.120000005 2.412 -0.120000005 C 3.072 -0.120000005 3.8040001 0.216 4.044 0.552 C 4.044 0.696 3.9720001 0.768 3.828 0.888 C 3.672 0.768 3.372 0.72 3.144 0.72 C 2.88 0.72 2.616 0.924 2.616 1.524 C 2.616 2.124 2.604 3.408 2.604 4.608 L 3.816 4.608 C 3.936 4.608 4.104 4.656 4.104 4.764 L 4.104 5.136 C 4.104 5.184 4.068 5.208 4.008 5.208 L 2.604 5.208 L 2.616 5.616 C 2.64 6.42 2.676 6.972 2.676 6.972 C 2.676 7.044 2.64 7.08 2.58 7.08 C 2.496 7.08 2.052 6.948 1.86 6.864 C 1.656 6.78 1.308 6.708 1.224 6.6 C 1.14 6.492 1.092 6.168 1.092 5.208 Z "/>
        </symbol>
        <symbol id="6" overflow="visible">
            <path d="M 3.54 0.588 C 3.624 0.096 3.948 -0.120000005 4.476 -0.120000005 C 5.136 -0.120000005 5.604 0.132 6.048 0.552 C 6.024 0.696 5.976 0.792 5.8320003 0.888 C 5.676 0.768 5.556 0.72 5.328 0.72 C 5.064 0.72 4.992 0.936 4.992 1.524 L 5.0160003 3.252 C 5.0160003 4.98 3.948 5.328 2.964 5.328 C 2.088 5.328 0.744 4.824 0.744 4.032 C 0.744 3.696 0.888 3.432 1.3560001 3.432 C 1.788 3.432 2.1 3.696 2.1 3.984 C 2.1 4.044 2.088 4.116 2.076 4.188 C 2.052 4.308 2.028 4.428 2.052 4.548 C 2.0640001 4.68 2.16 4.824 2.556 4.824 C 3.06 4.824 3.48 4.608 3.48 3.084 L 2.676 2.832 C 1.416 2.436 0.528 2.088 0.528 1.14 C 0.528 0.312 0.984 -0.120000005 2.028 -0.120000005 C 2.376 -0.120000005 3.072 0.264 3.468 0.576 Z M 3.48 2.616 L 3.48 1.0320001 C 3.18 0.792 2.88 0.6 2.664 0.6 C 2.148 0.6 1.968 0.948 1.968 1.32 C 1.968 1.764 2.004 2.136 2.856 2.412 Z "/>
        </symbol>
        <symbol id="7" overflow="visible">
            <path d="M 1.2 1.524 C 1.2 0.528 1.008 0.42000002 0.276 0.384 C 0.204 0.312 0.204 0.048 0.276 -0.024 C 0.78000003 -0.012 1.32 0 1.98 0 C 2.64 0 3.168 -0.012 3.684 -0.024 C 3.756 0.048 3.756 0.312 3.684 0.384 C 2.9520001 0.42000002 2.76 0.528 2.76 1.524 L 2.76 6.9960003 C 2.76 7.776 2.796 8.22 2.796 8.22 C 2.796 8.328 2.7120001 8.376 2.604 8.376 C 2.16 8.232 1.2 8.1 0.348 8.064 C 0.312 7.92 0.324 7.788 0.384 7.6800003 C 1.14 7.62 1.2 7.6080003 1.2 6.78 Z "/>
        </symbol>
        <symbol id="8" overflow="visible">
            <path d="M 0.432 3.036 C 0.432 2.496 0.492 -0.204 3.216 -2.556 L 3.576 -2.172 C 3.192 -1.74 1.812 -0.132 1.812 3.036 C 1.812 6.204 3.216 7.8120003 3.576 8.232 L 3.24 8.64 C 1.668 7.284 0.432 5.2200003 0.432 3.036 Z "/>
        </symbol>
        <symbol id="9" overflow="visible">
            <path d="M 2.736 1.464 L 2.736 3.876 C 3.216 4.2 3.696 4.44 3.912 4.44 C 4.392 4.44 4.752 4.224 4.752 3.54 L 4.752 1.536 C 4.752 0.528 4.56 0.42000002 4.068 0.384 C 3.996 0.312 3.996 0.048 4.068 -0.024 C 4.572 -0.012 4.956 0 5.532 0 C 6.192 0 6.7200003 -0.012 7.236 -0.024 C 7.308 0.048 7.308 0.312 7.236 0.384 C 6.504 0.42000002 6.3120003 0.528 6.3120003 1.536 L 6.3120003 3.408 C 6.3120003 4.728 5.748 5.328 4.716 5.328 C 4.236 5.328 3.384 4.8 2.724 4.344 C 2.688 4.764 2.64 5.124 2.64 5.124 C 2.628 5.268 2.532 5.328 2.364 5.328 C 1.9200001 5.208 1.2 5.04 0.372 4.932 C 0.348 4.86 0.372 4.62 0.396 4.548 C 1.056 4.488 1.176 4.392 1.176 3.708 L 1.176 1.464 C 1.176 0.468 1.044 0.444 0.312 0.384 C 0.24000001 0.312 0.24000001 0.048 0.312 -0.024 C 0.816 -0.012 1.32 0 1.956 0 C 2.5080001 0 2.844 -0.012 3.3600001 -0.024 C 3.432 0.048 3.432 0.312 3.3600001 0.384 C 2.856 0.432 2.736 0.468 2.736 1.464 Z "/>
        </symbol>
        <symbol id="a" overflow="visible">
            <path d="M 5.916 3.876 L 0.708 3.876 L 0.708 3.192 L 5.916 3.192 Z M 5.916 2.376 L 0.708 2.376 L 0.708 1.704 L 5.916 1.704 Z "/>
        </symbol>
        <symbol id="b" overflow="visible">
            <path d="M 4.404 1.464 L 4.404 5.796 C 4.404 6.432 4.5 7.116 4.5 7.116 C 4.5 7.272 4.404 7.32 4.296 7.32 C 4.176 7.32 3.9720001 7.272 3.696 7.14 C 2.964 6.804 2.148 6.5160003 1.104 6.084 C 1.116 5.88 1.2 5.688 1.368 5.568 C 2.016 5.844 2.448 5.868 2.616 5.868 C 2.772 5.868 2.844 5.82 2.844 5.2200003 L 2.844 1.464 C 2.844 0.468 2.2680001 0.42000002 1.608 0.384 C 1.488 0.312 1.488 0.048 1.608 -0.024 C 2.592 -0.012 3.1560001 0 3.636 0 C 4.116 0 4.656 -0.012 5.64 -0.024 C 5.76 0.048 5.76 0.312 5.64 0.384 C 4.98 0.42000002 4.404 0.468 4.404 1.464 Z "/>
        </symbol>
        <symbol id="c" overflow="visible">
            <path d="M 3.06 -0.120000005 C 4.248 -0.120000005 5.808 0.828 5.808 3.684 C 5.808 6.5160003 4.3320003 7.32 3.1200001 7.32 C 1.572 7.32 0.36 5.976 0.36 3.576 C 0.36 1.608 1.308 -0.120000005 3.06 -0.120000005 Z M 3.1200001 6.816 C 3.588 6.816 4.104 6.048 4.104 3.924 C 4.104 1.044 3.552 0.384 3.072 0.384 C 2.088 0.384 2.076 2.424 2.076 3.444 C 2.076 6.36 2.64 6.816 3.1200001 6.816 Z "/>
        </symbol>
        <symbol id="d" overflow="visible">
            <path d="M 3.348 3.012 C 3.348 3.552 3.288 6.252 0.564 8.604 L 0.204 8.22 C 0.588 7.788 1.968 6.18 1.968 3.012 C 1.968 -0.156 0.564 -1.764 0.204 -2.184 L 0.54 -2.592 C 2.112 -1.2360001 3.348 0.828 3.348 3.012 Z "/>
        </symbol>
        <symbol id="e" overflow="visible">
            <path d="M 2.1 1.464 L 2.1 4.68 L 3.216 4.68 C 3.3240001 4.68 3.492 4.728 3.492 4.836 L 3.492 5.076 C 3.492 5.124 3.456 5.1480002 3.3960001 5.1480002 L 2.1 5.1480002 L 2.1 5.8320003 C 2.1 7.6800003 2.652 7.968 3.048 7.968 C 3.408 7.968 3.6000001 7.824 3.7680001 7.4040003 C 3.864 7.188 3.996 7.02 4.248 7.02 C 4.452 7.02 4.7400002 7.272 4.7400002 7.512 C 4.7400002 7.716 4.608 7.932 4.356 8.124 C 4.044 8.34 3.732 8.376 3.276 8.376 C 2.2680001 8.376 1.152 7.5 1.152 5.6280003 L 1.152 5.1480002 L 0.54 5.1480002 C 0.324 5.1480002 0.264 5.004 0.264 4.908 L 0.264 4.752 C 0.264 4.692 0.276 4.68 0.324 4.68 L 1.152 4.68 L 1.152 1.464 C 1.152 0.468 0.96000004 0.42000002 0.312 0.372 C 0.24000001 0.3 0.24000001 0.048 0.312 -0.024 C 0.732 -0.012 1.152 0 1.632 0 C 2.112 0 2.688 -0.012 3.108 -0.024 C 3.18 0.048 3.18 0.3 3.108 0.372 C 2.172 0.42000002 2.1 0.468 2.1 1.464 Z "/>
        </symbol>
        <symbol id="f" overflow="visible">
            <path d="M 0.528 3.024 C 0.528 2.484 0.576 -0.288 3.072 -2.448 C 3.192 -2.424 3.288 -2.34 3.3240001 -2.244 C 2.928 -1.788 1.524 -0.132 1.524 3.024 C 1.524 6.18 2.94 7.836 3.3240001 8.268 C 3.288 8.3880005 3.204 8.472 3.072 8.484 C 1.644 7.26 0.528 5.256 0.528 3.024 Z "/>
        </symbol>
        <symbol id="10" overflow="visible">
            <path d="M 2.208 4.296 C 2.136 4.212 2.0640001 4.188 2.0640001 4.296 C 2.052 4.62 2.028 5.088 1.968 5.208 C 1.944 5.268 1.9200001 5.304 1.824 5.304 C 1.488 5.172 1.176 5.064 0.348 4.956 C 0.324 4.884 0.348 4.692 0.372 4.62 C 1.02 4.56 1.152 4.5 1.152 3.8040001 L 1.152 1.464 C 1.152 0.48000002 1.0320001 0.432 0.312 0.372 C 0.24000001 0.3 0.24000001 0.048 0.312 -0.024 C 0.672 -0.012 1.152 0 1.632 0 C 2.112 0 2.4720001 -0.012 2.832 -0.024 C 2.904 0.048 2.904 0.3 2.832 0.372 C 2.22 0.432 2.1 0.48000002 2.1 1.464 L 2.1 3.432 C 2.1 3.684 2.208 3.828 2.304 3.936 C 2.76 4.38 3.3 4.644 3.7680001 4.644 C 4.008 4.644 4.26 4.488 4.404 4.212 C 4.524 3.9720001 4.548 3.648 4.548 3.288 L 4.548 1.464 C 4.548 0.48000002 4.428 0.432 3.8040001 0.372 C 3.744 0.3 3.744 0.048 3.8040001 -0.024 C 4.164 -0.012 4.548 0 5.028 0 C 5.508 0 5.94 -0.012 6.3 -0.024 C 6.36 0.048 6.36 0.3 6.3 0.372 C 5.6280003 0.432 5.496 0.48000002 5.496 1.464 L 5.496 3.252 C 5.496 3.912 5.448 4.488 5.172 4.86 C 4.968 5.124 4.596 5.268 4.176 5.268 C 3.588 5.268 2.9160001 5.112 2.208 4.296 Z "/>
        </symbol>
        <symbol id="11" overflow="visible">
            <path d="M 5.568 3.708 C 5.724 3.708 5.892 3.984 5.892 4.104 C 5.892 4.2 5.844 4.308 5.724 4.308 L 1.02 4.308 C 0.876 4.308 0.72 4.08 0.72 3.9 C 0.72 3.8040001 0.792 3.708 0.90000004 3.708 Z M 5.568 1.716 C 5.724 1.716 5.892 1.992 5.892 2.112 C 5.892 2.208 5.844 2.316 5.724 2.316 L 1.02 2.316 C 0.876 2.316 0.72 2.088 0.72 1.908 C 0.72 1.812 0.792 1.716 0.90000004 1.716 Z "/>
        </symbol>
        <symbol id="12" overflow="visible">
            <path d="M 1.728 4.116 C 2.052 5.208 2.82 6.42 4.416 7.02 C 4.416 7.164 4.368 7.272 4.272 7.3320003 C 3.06 6.972 2.316 6.468 1.644 5.688 C 0.90000004 4.824 0.528 3.732 0.528 2.784 C 0.528 0.348 1.908 -0.132 2.832 -0.132 C 4.404 -0.132 5.052 1.392 5.052 2.424 C 5.052 3.456 4.5 4.38 2.868 4.38 C 2.556 4.38 2.088 4.284 1.728 4.116 Z M 1.62 3.684 C 2.016 3.948 2.412 3.96 2.616 3.96 C 3.792 3.96 4.056 2.808 4.056 2.208 C 4.056 0.888 3.552 0.288 2.964 0.288 C 2.208 0.288 1.524 0.696 1.524 2.748 C 1.524 3.024 1.548 3.336 1.62 3.684 Z "/>
        </symbol>
        <symbol id="13" overflow="visible">
            <path d="M 3.048 3.024 C 3.048 3.5640001 3 6.336 0.504 8.496 C 0.384 8.472 0.288 8.3880005 0.252 8.292 C 0.648 7.836 2.052 6.18 2.052 3.024 C 2.052 -0.132 0.636 -1.788 0.252 -2.22 C 0.288 -2.34 0.372 -2.424 0.504 -2.436 C 1.932 -1.212 3.048 0.792 3.048 3.024 Z "/>
        </symbol>
        <symbol id="14" overflow="visible">
            <path d="M 2.04 4.296 C 2.028 4.656 2.004 5.088 1.944 5.208 C 1.9200001 5.268 1.896 5.304 1.8000001 5.304 C 1.464 5.172 1.152 5.064 0.324 4.956 C 0.3 4.884 0.324 4.692 0.348 4.62 C 0.996 4.56 1.128 4.5 1.128 3.8040001 L 1.128 1.464 C 1.128 0.48000002 0.972 0.42000002 0.312 0.372 C 0.24000001 0.3 0.24000001 0.048 0.312 -0.024 C 0.672 -0.012 1.128 0 1.608 0 C 2.088 0 2.46 -0.012 2.82 -0.024 C 2.892 0.048 2.892 0.3 2.82 0.372 C 2.208 0.432 2.076 0.48000002 2.076 1.464 L 2.076 3.432 C 2.076 3.684 2.184 3.828 2.28 3.936 C 2.76 4.404 3.204 4.644 3.576 4.644 C 4.032 4.644 4.368 4.356 4.368 3.552 L 4.368 1.464 C 4.368 0.48000002 4.272 0.42000002 3.624 0.372 C 3.5640001 0.3 3.5640001 0.048 3.624 -0.024 C 3.924 -0.012 4.368 0 4.848 0 C 5.328 0 5.724 -0.012 6.024 -0.024 C 6.084 0.048 6.084 0.3 6.024 0.372 C 5.4240003 0.42000002 5.316 0.48000002 5.316 1.464 L 5.316 3.372 C 5.316 3.54 5.316 3.708 5.304 3.852 C 5.88 4.488 6.42 4.644 6.888 4.644 C 7.344 4.644 7.6080003 4.38 7.6080003 3.576 L 7.6080003 1.464 C 7.6080003 0.48000002 7.488 0.42000002 6.864 0.372 C 6.804 0.3 6.804 0.048 6.864 -0.024 C 7.164 -0.012 7.6080003 0 8.088 0 C 8.568 0 8.988 -0.012 9.324 -0.024 C 9.384 0.048 9.384 0.3 9.324 0.372 C 8.6640005 0.42000002 8.556 0.48000002 8.556 1.464 L 8.556 3.3600001 C 8.556 4.428 8.376 5.268 7.32 5.268 C 6.708 5.268 5.964 5.04 5.34 4.38 C 5.304 4.344 5.232 4.284 5.208 4.392 C 5.1 4.884 4.632 5.268 4.008 5.268 C 3.312 5.268 2.688 4.86 2.184 4.296 C 2.124 4.236 2.052 4.152 2.04 4.296 Z "/>
        </symbol>
        <symbol id="15" overflow="visible">
            <path d="M 5.16 2.628 L 4.164 2.628 L 4.164 6.132 C 4.164 6.732 4.164 7.2000003 4.188 7.296 L 4.164 7.32 L 3.78 7.32 C 3.696 7.32 3.636 7.248 3.588 7.188 C 2.832 6.264 1.44 4.284 0.336 2.568 C 0.372 2.388 0.444 2.0640001 0.804 2.0640001 L 3.252 2.0640001 L 3.252 0.96000004 C 3.252 0.408 2.796 0.408 2.28 0.372 C 2.208 0.3 2.208 0.048 2.28 -0.024 C 2.664 -0.012 3.144 0 3.696 0 C 4.164 0 4.62 -0.012 5.004 -0.024 C 5.076 0.048 5.076 0.3 5.004 0.372 C 4.416 0.42000002 4.164 0.396 4.164 0.96000004 L 4.164 2.0640001 L 4.992 2.0640001 C 5.16 2.0640001 5.34 2.292 5.34 2.436 C 5.34 2.556 5.292 2.628 5.16 2.628 Z M 3.252 6.084 L 3.252 2.628 L 0.96000004 2.628 C 1.572 3.612 2.424 4.956 3.252 6.084 Z "/>
        </symbol>
        <symbol id="16" overflow="visible">
            <path d="M 1.98 0.948 L 2.616 2.616 C 2.676 2.772 2.748 2.82 3.036 2.82 L 5.316 2.82 L 5.988 0.864 C 6.132 0.432 5.784 0.42000002 5.328 0.396 C 5.256 0.396 5.172 0.384 5.1 0.384 C 5.028 0.312 5.028 0.048 5.1 -0.024 C 5.544 -0.012 6.684 0 7.152 0 C 7.644 0 8.316 -0.012 8.76 -0.024 C 8.832 0.048 8.832 0.312 8.76 0.384 C 8.292 0.432 7.896 0.42000002 7.6800003 1.0320001 L 5.208 7.896 C 5.028 7.788 4.308 7.368 3.888 7.368 L 1.284 1.224 C 0.972 0.48000002 0.612 0.42000002 0.084 0.384 C 0.012 0.312 0.012 0.048 0.084 -0.024 C 0.528 -0.012 0.744 0 1.212 0 C 1.704 0 2.364 -0.012 2.808 -0.024 C 2.88 0.048 2.88 0.312 2.808 0.384 C 2.352 0.42000002 1.788 0.456 1.98 0.948 Z M 3.276 3.3960001 C 3.012 3.3960001 2.928 3.432 2.976 3.552 L 4.032 6.2400002 L 4.116 6.2400002 L 5.1 3.3960001 Z "/>
        </symbol>
        <symbol id="17" overflow="visible">
            <path d="M 5.604 4.728 C 5.94 4.728 6.132 4.872 6.132 5.316 C 6.132 5.544 5.82 5.892 5.364 5.892 C 4.836 5.892 4.14 5.496 3.792 5.184 C 3.576 5.304 3.3240001 5.328 2.784 5.328 C 2.2680001 5.328 1.764 5.208 1.368 4.9440002 C 0.876 4.632 0.552 4.164 0.552 3.552 C 0.552 2.964 0.90000004 2.328 1.4760001 2.016 C 1.104 1.692 0.528 1.056 0.528 0.816 C 0.528 0.588 0.564 0.444 0.684 0.264 C 0.792 0.096 0.936 0 1.176 -0.072 C 0.66 -0.384 0.132 -1.068 0.132 -1.272 C 0.132 -1.716 0.276 -2.232 0.6 -2.46 C 1.068 -2.784 1.86 -2.856 2.436 -2.856 C 4.104 -2.856 6.012 -1.98 6.012 -0.66 C 6.012 -0.408 5.892 0.108 5.412 0.432 C 4.9440002 0.744 3.144 0.828 2.256 0.828 C 2.04 0.828 1.716 0.852 1.716 1.332 C 1.716 1.524 1.836 1.692 1.896 1.836 C 2.148 1.716 2.4 1.704 2.772 1.704 C 3.384 1.704 3.948 1.86 4.356 2.22 C 4.704 2.532 4.9440002 2.9520001 4.9440002 3.492 C 4.9440002 4.164 4.608 4.608 4.2 4.9440002 C 4.296 5.064 4.692 5.28 4.8120003 5.28 C 4.92 5.28 5.004 5.208 5.04 5.136 C 5.088 4.98 5.304 4.728 5.604 4.728 Z M 2.1 -0.3 C 3.024 -0.3 4.8 -0.336 4.8 -0.972 C 4.8 -1.404 4.608 -1.896 4.212 -2.112 C 3.8400002 -2.328 3.228 -2.352 2.772 -2.352 C 1.98 -2.352 1.44 -1.764 1.44 -1.152 C 1.44 -0.744 1.44 -0.468 1.572 -0.228 C 1.692 -0.276 1.848 -0.3 2.1 -0.3 Z M 3.48 3.456 C 3.48 2.304 3.144 2.16 2.832 2.16 C 2.088 2.16 1.992 3.048 1.992 3.66 C 1.992 4.548 2.208 4.872 2.676 4.872 C 3.24 4.872 3.48 4.404 3.48 3.456 Z "/>
        </symbol>
        <symbol id="18" overflow="visible">
            <path d="M 2.904 -2.016 C 3.096 -1.6800001 3.276 -1.248 3.42 -0.888 C 4.38 1.428 4.968 2.724 5.604 4.068 C 5.772 4.416 6.132 4.788 6.576 4.824 C 6.6480002 4.896 6.6480002 5.16 6.576 5.232 C 6.276 5.2200003 6.06 5.208 5.724 5.208 C 5.304 5.208 4.896 5.2200003 4.452 5.232 C 4.38 5.16 4.38 4.896 4.452 4.824 C 4.836 4.788 5.2200003 4.728 5.028 4.296 L 3.792 1.524 C 3.792 1.512 3.792 1.512 3.78 1.5 C 3.78 1.512 3.78 1.524 3.7680001 1.548 L 2.652 4.056 C 2.64 4.068 2.64 4.08 2.64 4.092 C 2.424 4.56 2.34 4.764 3.048 4.824 C 3.1200001 4.896 3.1200001 5.16 3.048 5.232 C 2.604 5.2200003 1.8840001 5.208 1.452 5.208 C 1.044 5.208 0.36 5.2200003 0.120000005 5.232 C 0.048 5.16 0.048 4.896 0.120000005 4.824 C 0.648 4.776 0.744 4.692 1.068 3.936 L 2.616 0.384 C 2.652 0.324 2.7 0.276 2.736 0.228 C 2.892 0.012 3.024 -0.168 2.9520001 -0.336 L 2.664 -0.996 C 2.5080001 -1.368 2.364 -1.584 2.028 -1.584 C 1.812 -1.584 1.776 -1.536 1.608 -1.536 C 1.152 -1.536 0.888 -1.848 0.888 -2.088 C 0.888 -2.244 0.924 -2.436 1.0320001 -2.568 C 1.14 -2.7 1.344 -2.784 1.5 -2.784 C 1.656 -2.784 2.016 -2.736 2.184 -2.664 C 2.436 -2.544 2.772 -2.256 2.904 -2.016 Z "/>
        </symbol>
        <symbol id="19" overflow="visible">
            <path d="M 2.736 3.216 C 2.736 3.648 2.868 3.828 3.024 4.008 C 3.1200001 4.1280003 3.228 4.212 3.408 4.212 C 3.516 4.212 3.648 4.104 3.744 3.984 C 3.828 3.888 4.032 3.792 4.308 3.792 C 4.656 3.792 4.992 4.152 4.992 4.656 C 4.992 4.968 4.632 5.328 4.2 5.328 C 3.78 5.328 3.3240001 4.968 2.772 4.176 L 2.724 4.176 C 2.7 4.5360003 2.64 5.124 2.64 5.124 C 2.628 5.232 2.532 5.328 2.364 5.328 C 1.8000001 5.184 1.164 5.0160003 0.372 4.932 C 0.348 4.86 0.372 4.632 0.396 4.56 C 1.056 4.5 1.176 4.392 1.176 3.708 L 1.176 1.464 C 1.176 0.468 1.044 0.444 0.312 0.384 C 0.24000001 0.312 0.24000001 0.048 0.312 -0.024 C 0.816 -0.012 1.32 0 1.956 0 C 2.592 0 3.084 -0.012 3.6000001 -0.024 C 3.672 0.048 3.672 0.312 3.6000001 0.384 C 2.868 0.432 2.736 0.468 2.736 1.464 Z "/>
        </symbol>
        <symbol id="1a" overflow="visible">
            <path d="M 0.576 1.752 C 0.624 1.164 0.684 0.6 0.78000003 0.144 C 1.008 0.072 1.776 -0.120000005 2.448 -0.120000005 C 3.372 -0.120000005 4.524 0.384 4.524 1.428 C 4.524 1.836 4.428 2.16 4.152 2.46 C 3.816 2.844 3.312 3.144 2.76 3.384 C 2.28 3.588 2.112 3.9720001 2.112 4.32 C 2.112 4.596 2.34 4.824 2.688 4.824 C 3.108 4.824 3.516 4.44 3.816 3.708 C 4.032 3.672 4.164 3.684 4.284 3.7680001 C 4.284 4.2 4.236 4.656 4.1280003 5.04 C 3.744 5.208 3.444 5.328 2.784 5.328 C 2.148 5.328 1.548 5.088 1.164 4.704 C 0.888 4.428 0.756 4.092 0.756 3.7680001 C 0.756 3.408 0.90000004 3.1200001 1.128 2.868 C 1.5 2.46 2.16 2.04 2.52 1.872 C 3 1.656 3.132 1.224 3.132 0.936 C 3.132 0.552 2.748 0.348 2.424 0.348 C 1.8840001 0.348 1.308 0.90000004 1.056 1.776 C 0.864 1.812 0.768 1.8000001 0.576 1.752 Z "/>
        </symbol>
        <symbol id="1b" overflow="visible">
            <path d="M 7.956 1.392 C 8.016 0.42000002 7.968 0.408 7.188 0.372 C 7.116 0.3 7.116 0.048 7.188 -0.024 C 7.632 -0.012 8.112 0 8.472 0 C 8.832 0 9.384 -0.012 9.78 -0.024 C 9.852 0.048 9.852 0.3 9.78 0.372 C 8.964 0.408 8.928 0.456 8.856 1.452 L 8.496 6.504 C 8.448 7.152 8.508 7.32 9.324 7.368 C 9.396 7.44 9.396 7.692 9.324 7.764 L 7.752 7.7400002 L 5.208 1.656 C 5.16 1.536 5.124 1.488 5.1 1.488 C 5.076 1.488 5.04 1.548 5.004 1.644 L 2.544 7.7400002 L 0.804 7.764 C 0.732 7.692 0.732 7.44 0.804 7.368 C 1.632 7.32 1.704 7.296 1.62 6.396 L 1.14 1.452 C 1.068 0.732 0.924 0.432 0.24000001 0.372 C 0.168 0.3 0.168 0.048 0.24000001 -0.024 C 0.6 -0.012 0.984 0 1.272 0 C 1.5600001 0 2.04 -0.012 2.4 -0.024 C 2.4720001 0.048 2.4720001 0.3 2.4 0.372 C 1.608 0.432 1.548 0.804 1.608 1.4760001 L 2.0640001 6.288 L 2.088 6.288 L 4.572 0.060000002 C 4.608 -0.024 4.68 -0.120000005 4.752 -0.120000005 C 4.824 -0.120000005 4.872 -0.036 4.92 0.060000002 L 7.62 6.408 L 7.644 6.408 Z "/>
        </symbol>
        <symbol id="1c" overflow="visible">
            <path d="M 4.632 1.116 C 4.188 0.66 3.8400002 0.468 3.144 0.468 C 2.7120001 0.468 2.208 0.72 1.836 1.332 C 1.596 1.728 1.452 2.28 1.452 2.976 L 4.644 2.9520001 C 4.788 2.9520001 4.872 3.024 4.872 3.1560001 C 4.872 4.164 4.512 5.244 2.844 5.244 C 1.8000001 5.244 0.444 4.248 0.444 2.424 C 0.444 1.752 0.612 1.104 1.008 0.648 C 1.416 0.168 1.98 -0.120000005 2.844 -0.120000005 C 3.756 -0.120000005 4.404 0.3 4.884 0.924 C 4.848 1.044 4.776 1.104 4.632 1.116 Z M 1.488 3.384 C 1.716 4.7400002 2.556 4.848 2.844 4.848 C 3.3 4.848 3.8400002 4.596 3.8400002 3.588 C 3.8400002 3.48 3.792 3.42 3.66 3.42 Z "/>
        </symbol>
        <symbol id="1d" overflow="visible">
            <path d="M 3.516 0.576 C 3.588 0.204 3.72 -0.120000005 4.32 -0.120000005 C 4.776 -0.120000005 5.208 0.084 5.46 0.324 C 5.436 0.468 5.388 0.576 5.256 0.648 C 5.172 0.576 4.968 0.456 4.8120003 0.456 C 4.464 0.456 4.452 0.924 4.452 1.4760001 L 4.452 3.24 C 4.452 4.9440002 3.516 5.268 2.64 5.268 C 1.656 5.268 0.66 4.62 0.66 3.936 C 0.66 3.648 0.804 3.504 1.08 3.504 C 1.428 3.504 1.644 3.756 1.644 3.912 C 1.644 3.996 1.632 4.08 1.608 4.1280003 C 1.596 4.164 1.584 4.236 1.584 4.368 C 1.584 4.7400002 2.088 4.872 2.544 4.872 C 2.9520001 4.872 3.516 4.668 3.516 3.312 C 3.516 3.228 3.48 3.18 3.444 3.168 L 2.412 2.9160001 C 1.26 2.628 0.432 1.992 0.432 1.176 C 0.432 0.192 1.104 -0.120000005 1.944 -0.120000005 C 2.364 -0.120000005 2.724 -0.024 3.252 0.384 L 3.492 0.576 Z M 3.516 2.796 L 3.516 1.212 C 3.516 1.056 3.444 0.972 3.348 0.90000004 C 3.036 0.648 2.628 0.372 2.292 0.372 C 1.692 0.372 1.428 0.852 1.428 1.224 C 1.428 1.764 1.6800001 2.316 2.568 2.544 Z "/>
        </symbol>
        <symbol id="1e" overflow="visible">
            <path d="M 4.7400002 7.572 C 4.044 7.668 4.068 7.896 2.892 7.896 C 1.6800001 7.896 0.612 7.092 0.612 5.82 C 0.612 4.56 1.656 3.984 2.7120001 3.576 C 3.432 3.3 4.32 2.964 4.32 1.788 C 4.32 0.816 3.78 0.312 2.82 0.312 C 1.704 0.312 0.984 0.828 0.72 2.016 C 0.564 2.0640001 0.444 2.04 0.324 1.98 C 0.372 1.056 0.42000002 0.744 0.564 0.156 C 1.32 0.156 1.656 -0.120000005 2.724 -0.120000005 C 3.264 -0.120000005 3.78 0.012 4.2 0.276 C 4.896 0.708 5.328 1.44 5.328 2.208 C 5.328 3.48 4.368 4.044 3.384 4.416 C 2.664 4.68 1.464 5.136 1.464 6.144 C 1.464 6.816 2.076 7.488 2.784 7.488 C 3.948 7.488 4.32 6.744 4.56 5.952 C 4.692 5.928 4.848 5.94 4.956 6.024 C 4.908 6.6 4.86 6.936 4.7400002 7.572 Z "/>
        </symbol>
        <symbol id="1f" overflow="visible">
            <path d="M 1.776 7.7400002 C 1.344 7.7400002 0.708 7.752 0.228 7.764 C 0.156 7.692 0.156 7.44 0.228 7.368 C 1.068 7.3320003 1.272 7.272 1.272 6.276 L 1.272 1.464 C 1.272 0.468 1.068 0.408 0.228 0.372 C 0.156 0.3 0.156 0.048 0.228 -0.024 C 0.696 -0.012 1.332 0 1.788 0 C 2.232 0 2.736 -0.024 3.9720001 -0.024 C 5.664 -0.024 7.896 0.744 7.896 3.696 C 7.896 5.928 6.06 7.764 3.756 7.764 C 2.904 7.764 2.244 7.7400002 1.776 7.7400002 Z M 2.292 1.008 L 2.292 6.768 C 2.292 7.188 2.7120001 7.356 3.3 7.356 C 5.892 7.356 6.744 5.256 6.744 3.408 C 6.744 0.984 5.292 0.384 3.6000001 0.384 C 2.424 0.384 2.292 0.624 2.292 1.008 Z "/>
        </symbol>
        <symbol id="20" overflow="visible">
            <path d="M 3.828 2.2680001 C 3.828 1.128 3.228 0.288 2.5080001 0.288 C 2.052 0.288 1.896 0.588 1.716 0.828 C 1.5600001 1.0320001 1.3560001 1.212 1.104 1.212 C 0.876 1.212 0.648 1.008 0.648 0.768 C 0.648 0.276 1.668 -0.132 2.352 -0.132 C 3.8400002 -0.132 4.896 0.972 4.896 2.484 C 4.896 3.648 4.092 4.692 2.748 4.692 C 2.232 4.692 1.788 4.584 1.572 4.5 L 1.812 6.504 C 2.256 6.456 2.64 6.396 3.216 6.396 C 3.576 6.396 3.984 6.42 4.476 6.468 L 4.668 7.284 L 4.584 7.3320003 C 3.9 7.26 3.252 7.2000003 2.616 7.2000003 C 2.172 7.2000003 1.74 7.224 1.32 7.26 L 0.912 3.8040001 C 1.548 4.044 2.004 4.092 2.436 4.092 C 3.216 4.092 3.828 3.576 3.828 2.2680001 Z "/>
        </symbol>
        <symbol id="21" overflow="visible">
            <path d="M 0.684 0.51600003 C 0.684 0.168 0.972 -0.120000005 1.32 -0.120000005 C 1.668 -0.120000005 1.956 0.168 1.956 0.51600003 C 1.956 0.864 1.668 1.152 1.32 1.152 C 0.972 1.152 0.684 0.864 0.684 0.51600003 Z "/>
        </symbol>
        <symbol id="22" overflow="visible">
            <path d="M 0.732 5.616 C 0.732 5.364 0.96000004 5.1480002 1.212 5.1480002 C 1.416 5.1480002 1.776 5.364 1.776 5.6280003 C 1.776 5.724 1.752 5.796 1.728 5.88 C 1.704 5.964 1.632 6.072 1.632 6.168 C 1.632 6.468 1.944 6.9 2.82 6.9 C 3.252 6.9 3.864 6.6 3.864 5.448 C 3.864 4.68 3.588 4.056 2.88 3.336 L 1.992 2.46 C 0.816 1.26 0.624 0.684 0.624 -0.024 C 0.624 -0.024 1.2360001 0 1.62 0 L 3.72 0 C 4.104 0 4.656 -0.024 4.656 -0.024 C 4.8120003 0.612 4.932 1.512 4.9440002 1.872 C 4.872 1.932 4.716 1.956 4.596 1.932 C 4.392 1.08 4.188 0.78000003 3.756 0.78000003 L 1.62 0.78000003 C 1.62 1.3560001 2.448 2.172 2.5080001 2.232 L 3.72 3.3960001 C 4.404 4.056 4.92 4.584 4.92 5.496 C 4.92 6.7920003 3.864 7.32 2.892 7.32 C 1.5600001 7.32 0.732 6.336 0.732 5.616 Z "/>
        </symbol>
        <symbol id="23" overflow="visible">
            <path d="M 2.736 -0.120000005 C 3.66 -0.120000005 5.064 0.816 5.064 3.636 C 5.064 4.824 4.776 5.844 4.248 6.54 C 3.936 6.96 3.432 7.32 2.784 7.32 C 1.596 7.32 0.468 5.9040003 0.468 3.528 C 0.468 2.244 0.864 1.044 1.524 0.384 C 1.86 0.048 2.2680001 -0.120000005 2.736 -0.120000005 Z M 2.784 6.9 C 2.988 6.9 3.18 6.828 3.3240001 6.696 C 3.696 6.384 4.02 5.472 4.02 3.864 C 4.02 2.76 3.984 2.004 3.816 1.392 C 3.552 0.408 2.964 0.3 2.748 0.3 C 1.632 0.3 1.512 2.352 1.512 3.3960001 C 1.512 6.348 2.244 6.9 2.784 6.9 Z "/>
        </symbol>
        <symbol id="24" overflow="visible">
            <path d="M 2.04 6.42 L 4.188 6.42 C 3.252 4.092 2.304 1.752 1.488 -0.072 L 1.584 -0.156 L 2.4 -0.120000005 C 3.084 1.9200001 3.744 3.912 5.088 7.188 L 4.896 7.3320003 C 4.692 7.272 4.428 7.2000003 3.9720001 7.2000003 L 1.5 7.2000003 C 1.092 7.2000003 1.116 7.32 0.90000004 7.368 C 0.864 7.368 0.852 7.368 0.852 7.3320003 C 0.84000003 6.756 0.708 6.0360003 0.612 5.412 C 0.744 5.376 0.864 5.364 0.996 5.376 C 1.26 6.336 1.656 6.42 2.04 6.42 Z "/>
        </symbol>
        <symbol id="25" overflow="visible">
            <path d="M 3.456 1.464 L 3.456 5.6280003 C 3.456 6.348 3.468 7.08 3.492 7.236 C 3.492 7.296 3.468 7.296 3.42 7.296 C 2.76 6.888 2.124 6.588 1.068 6.096 C 1.092 5.964 1.14 5.844 1.248 5.772 C 1.8000001 6 2.0640001 6.072 2.292 6.072 C 2.496 6.072 2.532 5.784 2.532 5.376 L 2.532 1.464 C 2.532 0.468 2.208 0.408 1.368 0.372 C 1.296 0.3 1.296 0.048 1.368 -0.024 C 1.956 -0.012 2.388 0 3.036 0 C 3.612 0 3.9 -0.012 4.5 -0.024 C 4.572 0.048 4.572 0.3 4.5 0.372 C 3.66 0.408 3.456 0.468 3.456 1.464 Z "/>
        </symbol>
        <symbol id="26" overflow="visible">
            <path d="M 3.924 3.072 C 3.6000001 1.98 2.832 0.768 1.2360001 0.168 C 1.2360001 0.024 1.284 -0.084 1.38 -0.144 C 2.592 0.216 3.336 0.72 4.008 1.5 C 4.752 2.364 5.124 3.456 5.124 4.404 C 5.124 6.84 3.744 7.32 2.82 7.32 C 1.248 7.32 0.6 5.796 0.6 4.764 C 0.6 3.732 1.152 2.808 2.784 2.808 C 3.096 2.808 3.5640001 2.904 3.924 3.072 Z M 4.032 3.504 C 3.636 3.24 3.24 3.228 3.036 3.228 C 1.86 3.228 1.596 4.38 1.596 4.98 C 1.596 6.3 2.1 6.9 2.688 6.9 C 3.444 6.9 4.1280003 6.492 4.1280003 4.44 C 4.1280003 4.176 4.104 3.852 4.032 3.504 Z "/>
        </symbol>
        <symbol id="27" overflow="visible">
            <path d="M 4.716 5.82 C 4.716 6.684 4.044 7.32 2.868 7.32 C 1.644 7.32 0.852 6.588 0.852 5.664 C 0.852 4.992 1.176 4.5 1.908 4.044 L 2.22 3.852 C 1.872 3.672 1.548 3.456 1.248 3.192 C 0.756 2.76 0.552 2.22 0.552 1.752 C 0.552 0.528 1.416 -0.120000005 2.688 -0.120000005 C 4.26 -0.120000005 5.028 1.0320001 5.028 1.944 C 5.028 2.64 4.728 3.252 4.092 3.636 L 3.24 4.152 C 3.8040001 4.428 4.716 5.052 4.716 5.82 Z M 2.7120001 0.3 C 2.172 0.3 1.3560001 0.672 1.3560001 1.752 C 1.3560001 2.112 1.512 2.9520001 2.544 3.636 L 3.108 3.3 C 3.852 2.844 4.152 2.28 4.152 1.704 C 4.152 0.504 3.252 0.3 2.7120001 0.3 Z M 2.808 6.9 C 3.588 6.9 3.876 6.384 3.876 5.8320003 C 3.876 5.184 3.24 4.644 2.9160001 4.404 L 2.544 4.632 C 1.788 5.124 1.704 5.52 1.704 5.892 C 1.704 6.4440002 2.088 6.9 2.808 6.9 Z "/>
        </symbol>
        <symbol id="28" overflow="visible">
            <path d="M 4.008 0.6 C 4.068 0.648 4.176 0.672 4.188 0.588 C 4.224 0.3 4.32 -0.120000005 4.32 -0.120000005 C 4.416 -0.156 4.476 -0.144 4.548 -0.120000005 C 4.8120003 0.096 5.232 0.276 5.964 0.36 C 6.0360003 0.432 6.0360003 0.612 5.964 0.684 C 5.196 0.744 5.088 0.972 5.088 1.5600001 L 5.088 6.9960003 C 5.088 7.776 5.136 8.2560005 5.136 8.2560005 C 5.136 8.34 5.088 8.376 4.98 8.376 C 4.68 8.2560005 3.78 8.088 3.3 8.052 C 3.276 7.956 3.3 7.764 3.372 7.692 C 3.408 7.692 3.444 7.692 3.48 7.692 C 4.008 7.656 4.14 7.656 4.14 6.708 L 4.14 5.172 C 4.14 5.088 4.116 5.064 4.032 5.064 C 3.984 5.064 3.492 5.268 3.096 5.268 C 2.304 5.268 1.776 5.004 1.296 4.548 C 0.78000003 4.032 0.468 3.3240001 0.468 2.436 C 0.468 0.96000004 1.212 -0.120000005 2.5080001 -0.120000005 C 2.976 -0.120000005 3.42 0.120000005 4.008 0.6 Z M 4.14 1.488 C 4.14 1.26 4.116 1.164 3.948 1.02 C 3.504 0.636 3.1200001 0.444 2.82 0.444 C 2.172 0.444 1.5 1.152 1.5 2.652 C 1.5 3.516 1.668 3.996 1.848 4.248 C 2.22 4.8120003 2.724 4.848 2.964 4.848 C 3.3960001 4.848 3.696 4.692 3.936 4.416 C 4.104 4.224 4.14 4.14 4.14 3.7680001 Z "/>
        </symbol>
        <symbol id="29" overflow="visible">
            <path d="M 2.172 1.464 L 2.172 3.852 C 2.172 4.452 2.22 5.2200003 2.22 5.2200003 C 2.22 5.268 2.16 5.304 2.0640001 5.304 C 1.728 5.172 1.248 5.064 0.42000002 4.956 C 0.396 4.884 0.42000002 4.692 0.444 4.62 C 1.104 4.56 1.224 4.488 1.224 3.8040001 L 1.224 1.464 C 1.224 0.468 1.092 0.432 0.36 0.372 C 0.288 0.3 0.288 0.048 0.36 -0.024 C 0.756 -0.012 1.224 0 1.704 0 C 2.184 0 2.64 -0.012 3.036 -0.024 C 3.108 0.048 3.108 0.3 3.036 0.372 C 2.304 0.42000002 2.172 0.468 2.172 1.464 Z M 1.08 7.188 C 1.08 6.876 1.368 6.564 1.656 6.564 C 1.992 6.564 2.28 6.888 2.28 7.14 C 2.28 7.428 2.028 7.764 1.704 7.764 C 1.416 7.764 1.08 7.476 1.08 7.188 Z "/>
        </symbol>
        <symbol id="2a" overflow="visible">
            <path d="M 1.296 -2.316 L 3.8400002 -2.316 C 3.912 -2.244 3.912 -2.028 3.8400002 -1.956 C 2.184 -1.824 2.1 -1.644 2.1 -0.6 L 2.1 6.732 C 2.1 7.776 2.196 7.956 3.8400002 8.076 C 3.912 8.148 3.912 8.364 3.8400002 8.436 L 1.296 8.436 Z "/>
        </symbol>
        <symbol id="2b" overflow="visible">
            <path d="M 1.248 1.14 C 0.876 1.14 0.612 0.888 0.612 0.552 C 0.612 0.18 0.924 0.060000002 1.14 0.024 C 1.368 0 1.572 -0.072 1.572 -0.348 C 1.572 -0.6 1.14 -1.152 0.51600003 -1.308 C 0.51600003 -1.428 0.54 -1.512 0.624 -1.596 C 1.344 -1.464 2.04 -0.888 2.04 -0.048 C 2.04 0.672 1.728 1.14 1.248 1.14 Z "/>
        </symbol>
        <symbol id="2c" overflow="visible">
            <path d="M 2.184 4.296 C 1.908 4.704 1.992 4.716 2.532 4.776 C 2.604 4.848 2.604 5.1 2.532 5.172 C 2.208 5.16 1.6800001 5.1480002 1.32 5.1480002 C 0.96000004 5.1480002 0.6 5.16 0.288 5.172 C 0.216 5.1 0.216 4.848 0.288 4.776 C 0.696 4.7400002 1.0320001 4.5360003 1.368 4.044 L 2.412 2.52 C 2.4720001 2.436 2.4720001 2.4 2.424 2.34 L 1.416 1.044 C 0.936 0.432 0.672 0.396 0.252 0.372 C 0.18 0.3 0.18 0.048 0.252 -0.024 C 0.492 -0.012 0.756 0 1.116 0 C 1.4760001 0 1.812 -0.012 2.124 -0.024 C 2.196 0.048 2.196 0.3 2.124 0.372 C 1.692 0.42000002 1.596 0.468 1.86 0.852 L 2.616 1.944 C 2.7120001 2.088 2.76 2.076 2.832 1.968 L 3.528 1.008 C 3.948 0.432 3.756 0.408 3.372 0.372 C 3.3 0.3 3.3 0.048 3.372 -0.024 C 3.732 -0.012 4.1280003 0 4.56 0 C 5.0160003 0 5.34 -0.012 5.6280003 -0.024 C 5.7000003 0.048 5.7000003 0.3 5.6280003 0.372 C 5.088 0.408 4.908 0.444 4.428 1.128 L 3.348 2.652 C 3.3 2.724 3.288 2.76 3.348 2.832 L 4.356 4.116 C 4.8 4.68 5.088 4.7400002 5.52 4.776 C 5.592 4.848 5.592 5.1 5.52 5.172 C 5.28 5.16 5.004 5.1480002 4.644 5.1480002 C 4.284 5.1480002 3.948 5.16 3.636 5.172 C 3.5640001 5.1 3.5640001 4.848 3.636 4.776 C 4.08 4.728 4.212 4.692 3.924 4.284 L 3.144 3.192 C 3.06 3.072 3.012 3.084 2.9160001 3.216 Z "/>
        </symbol>
        <symbol id="2d" overflow="visible">
            <path d="M 2.976 8.448 L 0.432 8.448 C 0.36 8.376 0.36 8.16 0.432 8.088 C 2.088 7.956 2.172 7.776 2.172 6.732 L 2.172 -0.6 C 2.172 -1.644 2.076 -1.824 0.432 -1.944 C 0.36 -2.016 0.36 -2.232 0.432 -2.304 L 2.976 -2.304 Z "/>
        </symbol>
        <symbol id="2e" overflow="visible">
            <path d="M 2.58 6.9 C 3.096 6.9 3.576 6.588 3.576 5.82 C 3.576 5.2200003 2.88 4.296 1.692 4.1280003 L 1.752 3.744 C 1.956 3.7680001 2.172 3.7680001 2.328 3.7680001 C 3.012 3.7680001 3.9 3.576 3.9 2.22 C 3.9 0.624 2.832 0.3 2.412 0.3 C 1.8000001 0.3 1.692 0.576 1.548 0.792 C 1.428 0.96000004 1.272 1.104 1.0320001 1.104 C 0.78000003 1.104 0.528 0.876 0.528 0.684 C 0.528 0.204 1.536 -0.120000005 2.256 -0.120000005 C 3.684 -0.120000005 4.956 0.804 4.956 2.388 C 4.956 3.696 3.9720001 4.164 3.264 4.284 L 3.252 4.308 C 4.236 4.776 4.512 5.268 4.512 5.9040003 C 4.512 6.264 4.428 6.552 4.14 6.852 C 3.876 7.116 3.456 7.32 2.832 7.32 C 1.068 7.32 0.564 6.168 0.564 5.772 C 0.564 5.604 0.684 5.364 0.972 5.364 C 1.392 5.364 1.44 5.76 1.44 5.988 C 1.44 6.756 2.2680001 6.9 2.58 6.9 Z "/>
        </symbol>
        <symbol id="2f" overflow="visible">
            <path d="M 2.076 7.7400002 C 1.596 7.7400002 0.228 7.764 0.228 7.764 C 0.108 7.692 0.108 7.428 0.228 7.356 C 0.888 7.32 1.224 7.272 1.224 6.276 L 1.224 1.464 C 1.224 0.468 0.888 0.42000002 0.228 0.384 C 0.108 0.312 0.108 0.048 0.228 -0.024 C 0.228 -0.024 1.596 0 2.076 0 C 2.556 0 3.3240001 -0.024 4.044 -0.024 C 6.504 -0.024 7.296 1.008 7.296 2.232 C 7.296 3.288 6.768 3.9720001 5.496 4.308 L 5.496 4.3320003 C 6.144 4.62 6.6480002 5.28 6.6480002 5.892 C 6.6480002 6.7200003 6.204 7.764 3.78 7.764 C 3.18 7.764 2.46 7.7400002 2.076 7.7400002 Z M 2.904 4.008 L 3.756 4.008 C 4.992 4.008 5.532 3.276 5.532 2.244 C 5.532 1.524 5.28 0.48000002 3.696 0.48000002 C 2.976 0.48000002 2.904 0.66 2.904 1.008 Z M 2.904 6.744 C 2.904 7.092 2.964 7.26 3.744 7.26 C 4.296 7.26 4.968 7.044 4.968 5.868 C 4.968 4.908 4.428 4.512 3.576 4.512 L 2.904 4.512 Z "/>
        </symbol>
        <symbol id="30" overflow="visible">
            <path d="M 4.26 0.576 C 4.284 0.288 4.308 0.084 4.308 0.084 C 4.32 -0.060000002 4.416 -0.120000005 4.584 -0.120000005 C 5.028 0 5.748 0.168 6.576 0.276 C 6.6 0.348 6.576 0.588 6.552 0.66 C 5.9040003 0.72 5.772 0.912 5.772 1.596 L 5.772 6.9960003 C 5.772 7.776 5.808 8.22 5.808 8.22 C 5.808 8.328 5.724 8.376 5.616 8.376 C 5.172 8.232 4.212 8.1 3.3600001 8.064 C 3.3240001 7.92 3.336 7.764 3.3960001 7.656 C 4.152 7.596 4.212 7.584 4.212 6.756 L 4.212 5.196 C 3.984 5.268 3.696 5.328 3.348 5.328 C 1.8000001 5.328 0.444 3.9720001 0.444 2.376 C 0.444 1.668 0.696 0.84000003 1.284 0.384 C 1.716 0.048 2.016 -0.120000005 2.688 -0.120000005 C 3.012 -0.120000005 3.9 0.408 4.152 0.576 Z M 4.224 1.14 C 3.9720001 0.936 3.336 0.672 3.192 0.672 C 2.592 0.672 2.124 1.344 2.124 2.748 C 2.124 3.384 2.196 3.936 2.424 4.308 C 2.628 4.632 2.9520001 4.824 3.312 4.824 C 3.624 4.824 3.924 4.788 4.212 4.392 L 4.212 1.44 C 4.212 1.344 4.212 1.2360001 4.224 1.14 Z "/>
        </symbol>
        <symbol id="31" overflow="visible">
            <path d="M 1.14 3.708 L 1.14 -1.32 C 1.14 -2.316 1.008 -2.34 0.276 -2.4 C 0.204 -2.4720001 0.204 -2.736 0.276 -2.808 C 0.78000003 -2.796 1.284 -2.784 1.9200001 -2.784 C 2.556 -2.784 3.048 -2.796 3.5640001 -2.808 C 3.636 -2.736 3.636 -2.4720001 3.5640001 -2.4 C 2.832 -2.352 2.7 -2.316 2.7 -1.32 L 2.7 0.084 C 2.964 -0.048 3.216 -0.120000005 3.504 -0.120000005 C 5.328 -0.120000005 6.5160003 1.08 6.5160003 2.844 C 6.5160003 3.516 6.264 4.26 5.796 4.728 C 5.376 5.1480002 4.776 5.328 4.152 5.328 C 3.8040001 5.328 3.1560001 4.908 2.736 4.524 L 2.664 4.524 C 2.64 4.86 2.604 5.124 2.604 5.124 C 2.592 5.268 2.496 5.328 2.328 5.328 C 1.8840001 5.208 1.164 5.04 0.336 4.932 C 0.312 4.86 0.336 4.62 0.36 4.548 C 1.02 4.488 1.14 4.392 1.14 3.708 Z M 2.7 0.78000003 L 2.7 3.852 C 2.7 3.924 2.7 3.984 2.7 4.056 C 3.048 4.368 3.492 4.524 3.7680001 4.524 C 4.26 4.524 4.836 3.924 4.836 2.52 C 4.836 1.512 4.476 0.384 3.432 0.384 C 3.3 0.384 3 0.456 2.7 0.78000003 Z "/>
        </symbol>
        <symbol id="32" overflow="visible">
            <path d="M 4.368 6.252 C 4.152 6.252 3.732 6.252 3.084 6.552 C 2.964 6.696 2.616 6.852 2.28 6.852 C 1.416 6.852 0.684 6 0.684 4.9440002 C 0.684 4.3320003 1.044 3.636 1.788 3.636 C 2.796 3.636 3.3240001 4.992 3.3240001 5.76 C 3.3240001 5.868 3.312 5.976 3.288 6.06 C 3.516 5.928 3.9720001 5.808 4.248 5.808 C 4.608 5.808 5.076 5.856 5.532 6.0360003 L 1.224 0.036 L 1.632 -0.144 L 6.552 6.708 L 6.168 6.9 C 5.796 6.396 4.872 6.252 4.368 6.252 Z M 4.5360003 1.176 C 4.5360003 0.54 4.92 -0.144 5.652 -0.144 C 6.6480002 -0.144 7.176 1.176 7.176 1.98 C 7.176 2.856 6.624 3.072 6.144 3.072 C 5.256 3.072 4.5360003 2.16 4.5360003 1.176 Z M 1.332 4.776 C 1.332 5.472 1.824 6.48 2.412 6.48 C 2.628 6.48 2.928 6.348 2.928 5.748 C 2.928 5.052 2.52 4.008 1.86 4.008 C 1.644 4.008 1.332 4.152 1.332 4.776 Z M 5.196 0.996 C 5.196 1.692 5.688 2.7 6.276 2.7 C 6.4440002 2.7 6.78 2.592 6.78 1.968 C 6.78 1.296 6.384 0.228 5.724 0.228 C 5.496 0.228 5.196 0.372 5.196 0.996 Z "/>
        </symbol>
        <symbol id="33" overflow="visible">
            <path d="M 1.86 0.948 L 2.52 2.688 C 2.58 2.844 2.652 2.892 2.94 2.892 L 5.472 2.892 L 6.168 0.864 C 6.3120003 0.456 5.856 0.408 5.28 0.372 C 5.208 0.3 5.208 0.048 5.28 -0.024 C 5.724 -0.012 6.384 0 6.852 0 C 7.344 0 7.8 -0.012 8.22 -0.024 C 8.292 0.048 8.292 0.3 8.22 0.372 C 7.752 0.42000002 7.344 0.456 7.14 1.0320001 L 4.668 7.896 C 4.488 7.788 4.164 7.656 4.008 7.656 L 1.284 1.224 C 0.972 0.48000002 0.612 0.408 0.084 0.372 C 0.012 0.3 0.012 0.048 0.084 -0.024 C 0.396 -0.012 0.792 0 1.152 0 C 1.644 0 2.244 -0.012 2.688 -0.024 C 2.76 0.048 2.76 0.3 2.688 0.372 C 2.232 0.408 1.668 0.456 1.86 0.948 Z M 3.1560001 3.3960001 C 2.892 3.3960001 2.808 3.432 2.856 3.552 L 4.08 6.66 L 4.152 6.66 L 5.28 3.3960001 Z "/>
        </symbol>
        <symbol id="34" overflow="visible">
            <path d="M 1.776 7.7400002 C 1.344 7.7400002 0.696 7.752 0.228 7.764 C 0.156 7.692 0.156 7.44 0.228 7.368 C 1.068 7.3320003 1.272 7.272 1.272 6.276 L 1.272 1.464 C 1.272 0.468 1.068 0.408 0.228 0.372 C 0.156 0.3 0.156 0.048 0.228 -0.024 C 0.696 -0.012 1.344 0 1.788 0 C 2.22 0 2.532 -0.024 3.54 -0.024 C 5.928 -0.024 6.564 1.176 6.564 2.208 C 6.564 3.3600001 5.76 4.02 4.716 4.32 L 4.716 4.344 C 5.316 4.644 5.856 5.268 5.856 5.916 C 5.856 6.7200003 5.508 7.764 3.276 7.764 C 2.856 7.764 2.208 7.7400002 1.776 7.7400002 Z M 2.292 3.984 L 3.1200001 3.984 C 4.764 3.984 5.448 3.06 5.448 1.98 C 5.448 1.104 5.112 0.372 3.288 0.372 C 2.448 0.372 2.292 0.684 2.292 1.416 Z M 2.292 6.6 C 2.292 7.236 2.292 7.356 3.336 7.356 C 4.008 7.356 4.884 6.9960003 4.884 5.772 C 4.884 4.752 4.176 4.392 3.18 4.392 L 2.292 4.392 Z "/>
        </symbol>
        <symbol id="35" overflow="visible">
            <path d="M 2.736 1.464 L 2.736 3.852 C 2.736 3.912 2.736 3.9720001 2.736 4.032 C 3.204 4.32 3.624 4.44 3.828 4.44 C 4.308 4.44 4.668 4.224 4.668 3.54 L 4.668 1.536 C 4.668 0.528 4.476 0.42000002 3.984 0.384 C 3.912 0.312 3.912 0.048 3.984 -0.024 C 4.488 -0.012 4.872 0 5.448 0 C 6.024 0 6.396 -0.012 6.912 -0.024 C 6.984 0.048 6.984 0.312 6.912 0.384 C 6.432 0.42000002 6.228 0.528 6.228 1.536 L 6.228 3.408 C 6.228 3.708 6.216 3.948 6.18 4.068 C 6.636 4.296 7.152 4.44 7.344 4.44 C 7.824 4.44 8.16 4.224 8.16 3.54 L 8.16 1.536 C 8.16 0.528 7.968 0.42000002 7.476 0.384 C 7.4040003 0.312 7.4040003 0.048 7.476 -0.024 C 7.98 -0.012 8.364 0 8.940001 0 C 9.6 0 10.128 -0.012 10.644 -0.024 C 10.716001 0.048 10.716001 0.312 10.644 0.384 C 9.912 0.42000002 9.72 0.528 9.72 1.536 L 9.72 3.408 C 9.72 4.728 9.24 5.328 8.208 5.328 C 7.764 5.328 6.756 4.848 6.06 4.464 C 5.88 4.98 5.4 5.328 4.692 5.328 C 4.26 5.328 3.3960001 4.872 2.7120001 4.488 C 2.676 4.848 2.64 5.124 2.64 5.124 C 2.628 5.268 2.532 5.328 2.364 5.328 C 1.9200001 5.208 1.2 5.04 0.372 4.932 C 0.348 4.86 0.372 4.62 0.396 4.548 C 1.056 4.488 1.176 4.392 1.176 3.708 L 1.176 1.464 C 1.176 0.468 1.044 0.444 0.312 0.384 C 0.24000001 0.312 0.24000001 0.048 0.312 -0.024 C 0.816 -0.012 1.32 0 1.956 0 C 2.5080001 0 2.844 -0.012 3.3600001 -0.024 C 3.432 0.048 3.432 0.312 3.3600001 0.384 C 2.856 0.432 2.736 0.468 2.736 1.464 Z "/>
        </symbol>
        <symbol id="36" overflow="visible">
            <path d="M 1.2 1.524 C 1.2 0.528 1.008 0.42000002 0.276 0.384 C 0.204 0.312 0.204 0.048 0.276 -0.024 C 0.78000003 -0.012 1.32 0 1.98 0 C 2.5080001 0 3.036 -0.012 3.3240001 -0.024 C 3.3960001 0.048 3.3960001 0.312 3.3240001 0.384 C 2.964 0.432 2.76 0.528 2.76 1.524 L 2.76 2.5080001 C 3.096 2.5080001 3.468 2.4720001 3.588 2.28 C 3.864 1.872 4.2 1.38 4.404 0.936 C 4.56 0.6 4.596 0.492 4.596 0.312 L 4.596 0 L 4.62 -0.024 C 4.62 -0.024 5.16 0 5.58 0 C 6.072 0 6.744 -0.012 7.188 -0.024 C 7.26 0.048 7.26 0.312 7.188 0.384 C 6.7200003 0.432 6.456 0.396 6.096 0.936 L 4.704 2.988 C 4.644 3.072 4.62 3.168 4.668 3.228 L 5.268 3.888 C 5.652 4.308 5.976 4.728 6.888 4.824 C 6.96 4.896 6.96 5.16 6.888 5.232 C 6.624 5.2200003 5.868 5.208 5.556 5.208 C 5.112 5.208 4.548 5.2200003 4.104 5.232 C 4.032 5.16 4.032 4.896 4.104 4.824 C 4.752 4.776 4.9440002 4.668 4.596 4.188 C 4.3320003 3.828 4.068 3.54 3.828 3.3240001 C 3.672 3.192 3.1200001 2.988 2.76 2.988 L 2.76 6.9960003 C 2.76 7.776 2.796 8.22 2.796 8.22 C 2.796 8.328 2.7120001 8.376 2.604 8.376 C 2.16 8.232 1.2 8.1 0.348 8.064 C 0.312 7.92 0.324 7.788 0.384 7.6800003 C 1.14 7.62 1.2 7.6080003 1.2 6.78 Z "/>
        </symbol>
        <symbol id="37" overflow="visible">
            <path d="M 1.14 1.464 C 1.14 0.468 1.008 0.408 0.276 0.372 C 0.204 0.3 0.204 0.048 0.276 -0.024 C 0.696 -0.012 1.14 0 1.62 0 C 2.1 0 2.556 -0.012 2.9520001 -0.024 C 3.024 0.048 3.024 0.3 2.9520001 0.372 C 2.22 0.408 2.088 0.468 2.088 1.464 L 2.088 6.9960003 C 2.088 7.776 2.136 8.2560005 2.136 8.2560005 C 2.136 8.34 2.088 8.376 1.98 8.376 C 1.6800001 8.2560005 0.78000003 8.088 0.3 8.052 C 0.276 7.956 0.3 7.764 0.372 7.692 C 1.068 7.644 1.14 7.6080003 1.14 6.708 Z "/>
        </symbol>
        <symbol id="38" overflow="visible">
            <path d="M 0.576 1.656 C 0.624 1.068 0.66 0.504 0.66 0 C 0.78000003 0.024 0.90000004 0.036 0.96000004 0.036 C 1.044 0.036 1.116 0.036 1.2 0.012 C 1.524 -0.072 1.848 -0.120000005 2.292 -0.120000005 C 2.964 -0.120000005 4.2 0.204 4.2 1.392 C 4.2 2.208 3.612 2.688 2.796 2.988 C 2.076 3.264 1.596 3.444 1.596 4.104 C 1.596 4.596 2.028 4.872 2.436 4.872 C 2.7 4.872 3.3960001 4.776 3.552 3.756 C 3.624 3.684 3.864 3.696 3.936 3.7680001 C 3.9720001 4.2 3.996 4.644 4.008 5.04 C 3.636 5.1 3.06 5.268 2.436 5.268 C 1.548 5.268 0.744 4.692 0.744 3.924 C 0.744 3.048 1.14 2.676 2.0640001 2.292 C 3.06 1.8840001 3.288 1.632 3.288 1.116 C 3.288 0.528 2.7120001 0.276 2.2680001 0.276 C 1.8000001 0.276 1.536 0.432 1.416 0.564 C 1.152 0.84000003 1.02 1.368 0.948 1.668 C 0.876 1.74 0.648 1.728 0.576 1.656 Z "/>
        </symbol>
        <symbol id="39" overflow="visible">
            <path d="M 0.51600003 5.1480002 C 0.348 5.1480002 0.3 5.004 0.3 4.908 L 0.3 4.752 C 0.3 4.692 0.312 4.68 0.36 4.68 L 1.068 4.68 L 1.068 1.068 C 1.068 0.216 1.44 -0.120000005 1.992 -0.120000005 C 2.544 -0.120000005 3.144 0.144 3.612 0.672 C 3.588 0.792 3.516 0.864 3.3960001 0.876 C 3.084 0.636 2.724 0.54 2.412 0.54 C 2.088 0.54 2.016 0.90000004 2.016 1.644 L 2.016 4.68 L 3.264 4.68 C 3.384 4.68 3.552 4.728 3.552 4.836 L 3.552 5.076 C 3.552 5.124 3.516 5.1480002 3.456 5.1480002 L 2.016 5.1480002 L 2.016 5.616 C 2.016 6.396 2.0640001 6.876 2.0640001 6.876 C 2.0640001 6.948 2.028 6.984 1.968 6.984 C 1.9200001 6.984 1.812 6.936 1.704 6.876 C 1.572 6.804 1.452 6.744 1.296 6.708 C 1.152 6.66 1.0320001 6.624 1.0320001 6.54 C 1.0320001 6.396 1.068 6.48 1.068 5.1480002 Z "/>
        </symbol>
        <symbol id="3a" overflow="visible">
            <path d="M 2.112 4.296 C 2.088 4.776 2.076 5.088 2.016 5.208 C 1.992 5.268 1.968 5.304 1.872 5.304 C 1.536 5.172 1.224 5.064 0.396 4.956 C 0.372 4.884 0.396 4.692 0.42000002 4.62 C 1.068 4.56 1.2 4.5 1.2 3.8040001 L 1.2 1.464 C 1.2 0.468 1.056 0.42000002 0.312 0.372 C 0.24000001 0.3 0.24000001 0.048 0.312 -0.024 C 0.732 -0.012 1.2 0 1.6800001 0 C 2.16 0 2.7120001 -0.012 3.132 -0.024 C 3.204 0.048 3.204 0.3 3.132 0.372 C 2.292 0.432 2.148 0.468 2.148 1.464 L 2.148 3.132 C 2.148 3.444 2.292 3.72 2.436 3.936 C 2.568 4.1280003 2.844 4.524 2.988 4.524 C 3.096 4.524 3.204 4.5 3.3 4.368 C 3.384 4.248 3.528 4.092 3.732 4.092 C 4.02 4.092 4.296 4.392 4.296 4.692 C 4.296 4.92 4.08 5.268 3.576 5.268 C 3.012 5.268 2.52 4.7400002 2.244 4.272 C 2.172 4.14 2.112 4.236 2.112 4.296 Z "/>
        </symbol>
        <symbol id="3b" overflow="visible">
            <path d="M 2.604 -0.120000005 C 3.072 -0.120000005 3.636 0.120000005 4.224 0.6 C 4.284 0.648 4.392 0.672 4.404 0.588 C 4.44 0.288 4.5360003 -0.120000005 4.5360003 -0.120000005 C 4.632 -0.156 4.692 -0.144 4.764 -0.120000005 C 5.028 0.096 5.448 0.276 6.18 0.36 C 6.252 0.432 6.252 0.612 6.18 0.684 C 5.412 0.744 5.304 0.972 5.304 1.5600001 L 5.304 3.864 C 5.304 4.224 5.352 5.1 5.352 5.1 C 5.352 5.136 5.316 5.172 5.256 5.172 C 5.196 5.16 5.0160003 5.1480002 4.836 5.1480002 C 4.452 5.1480002 4.02 5.16 3.612 5.172 C 3.54 5.1 3.54 4.848 3.612 4.776 C 4.2 4.7400002 4.356 4.596 4.356 3.8040001 L 4.356 1.488 C 4.356 1.26 4.3320003 1.164 4.164 1.02 C 3.72 0.636 3.264 0.444 2.964 0.444 C 2.604 0.444 2.004 0.612 2.004 1.6800001 L 2.004 3.864 C 2.004 4.224 2.052 5.1 2.052 5.1 C 2.052 5.136 2.016 5.172 1.956 5.172 C 1.896 5.16 1.716 5.1480002 1.536 5.1480002 C 1.152 5.1480002 0.72 5.16 0.312 5.172 C 0.24000001 5.1 0.24000001 4.848 0.312 4.776 C 0.888 4.728 1.056 4.596 1.056 3.816 L 1.056 1.512 C 1.056 0.684 1.416 -0.120000005 2.604 -0.120000005 Z "/>
        </symbol>
    </defs>
</svg>
