<svg class="typst-doc" viewBox="0 0 314.164 238.33600000000004" width="314.164pt" height="238.33600000000004pt" xmlns="http://www.w3.org/2000/svg" xmlns:xlink="http://www.w3.org/1999/xlink" xmlns:h5="http://www.w3.org/1999/xhtml">
    <path class="typst-shape" fill="#ffffff" fill-rule="nonzero" d="M 0 0v 238.336 h 314.164 v -238.336 Z "/>
    <g>
        <g class="typst-group">
            <g>
                <path class="typst-shape" fill="none" stroke="#000000" stroke-width="0.75" stroke-linecap="butt" stroke-linejoin="miter" stroke-miterlimit="4" transform="matrix(1 0 0 1 112.82900000000001 20.74)" d="M 0 0h 198.71 "/>
                <path class="typst-shape" fill="none" stroke="#000000" stroke-width="0.75" stroke-linecap="butt" stroke-linejoin="miter" stroke-miterlimit="4" transform="matrix(1 0 0 1 2.625 56.376000000000005)" d="M 0 0h 308.914 "/>
                <path class="typst-shape" fill="none" stroke="#000000" stroke-width="1" stroke-linecap="butt" stroke-linejoin="miter" stroke-miterlimit="4" transform="matrix(1 0 0 1 2.5 3)" d="M 0 0h 309.164 "/>
                <path class="typst-shape" fill="none" stroke="#000000" stroke-width="1" stroke-linecap="butt" stroke-linejoin="miter" stroke-miterlimit="4" transform="matrix(1 0 0 1 2.5 235.33600000000004)" d="M 0 0h 309.164 "/>
                <g class="typst-text" transform="matrix(1 0 0 -1 186.444 15.74)">
                    <use xlink:href="#0" x="0" y="0" fill="#000000" fill-rule="nonzero"/>
                    <use xlink:href="#1" x="7.824" y="0" fill="#000000" fill-rule="nonzero"/>
                    <use xlink:href="#2" x="11.687999999999999" y="0" fill="#000000" fill-rule="nonzero"/>
                    <use xlink:href="#3" x="22.548" y="0" fill="#000000" fill-rule="nonzero"/>
                    <use xlink:href="#4" x="31.415999999999997" y="0" fill="#000000" fill-rule="nonzero"/>
                    <use xlink:href="#5" x="35.339999999999996" y="0" fill="#000000" fill-rule="nonzero"/>
                    <use xlink:href="#6" x="42.767999999999994" y="0" fill="#000000" fill-rule="nonzero"/>
                    <use xlink:href="#7" x="47.699999999999996" y="0" fill="#000000" fill-rule="nonzero"/>
                </g>
                <g class="typst-group">
                    <g>
                        <g class="typst-text" transform="matrix(1 0 0 -1 127.894 33.636)">
                            <use xlink:href="#8" x="0" y="0" fill="#000000" fill-rule="nonzero"/>
                        </g>
                        <g class="typst-text" transform="matrix(1 0 0 -1 161.744 33.636)">
                            <use xlink:href="#8" x="0" y="0" fill="#000000" fill-rule="nonzero"/>
                            <use xlink:href="#9" x="5.580000000000001" y="0" fill="#000000" fill-rule="nonzero"/>
                            <use xlink:href="#a" x="8.22" y="0" fill="#000000" fill-rule="nonzero"/>
                        </g>
                        <g class="typst-text" transform="matrix(1 0 0 -1 203.814 33.636)">
                            <use xlink:href="#b" x="0" y="0" fill="#000000" fill-rule="nonzero"/>
                        </g>
                        <g class="typst-text" transform="matrix(1 0 0 -1 244.56399999999996 33.636)">
                            <use xlink:href="#c" x="0" y="0" fill="#000000" fill-rule="nonzero"/>
                        </g>
                        <g class="typst-text" transform="matrix(1 0 0 -1 288.104 33.636)">
                            <use xlink:href="#d" x="0" y="0" fill="#000000" fill-rule="nonzero"/>
                        </g>
                    </g>
                </g>
                <g class="typst-group">
                    <g>
                        <g class="typst-text" transform="matrix(1 0 0 -1 8 51.376000000000005)">
                            <use xlink:href="#e" x="0" y="0" fill="#000000" fill-rule="nonzero"/>
                            <use xlink:href="#f" x="8.808" y="0" fill="#000000" fill-rule="nonzero"/>
                            <use xlink:href="#10" x="15.42" y="0" fill="#000000" fill-rule="nonzero"/>
                            <use xlink:href="#3" x="20.544" y="0" fill="#000000" fill-rule="nonzero"/>
                            <use xlink:href="#4" x="29.412" y="0" fill="#000000" fill-rule="nonzero"/>
                            <use xlink:href="#2" x="33.192" y="0" fill="#000000" fill-rule="nonzero"/>
                            <use xlink:href="#11" x="44.052" y="0" fill="#000000" fill-rule="nonzero"/>
                            <use xlink:href="#7" x="50.304" y="0" fill="#000000" fill-rule="nonzero"/>
                        </g>
                        <g class="typst-text" transform="matrix(1 0 0 -1 75.08400000000002 51.376000000000005)">
                            <use xlink:href="#12" x="0" y="0" fill="#000000" fill-rule="nonzero"/>
                            <use xlink:href="#e" x="4.404" y="0" fill="#000000" fill-rule="nonzero"/>
                        </g>
                        <g class="typst-text" transform="matrix(1 0 0 -1 149.856 51.376000000000005)">
                            <use xlink:href="#13" x="0" y="0" fill="#000000" fill-rule="nonzero"/>
                            <use xlink:href="#f" x="8.472" y="0" fill="#000000" fill-rule="nonzero"/>
                            <use xlink:href="#14" x="15.084" y="0" fill="#000000" fill-rule="nonzero"/>
                            <use xlink:href="#15" x="22.476" y="0" fill="#000000" fill-rule="nonzero"/>
                            <use xlink:href="#3" x="27.948" y="0" fill="#000000" fill-rule="nonzero"/>
                            <use xlink:href="#14" x="33.816" y="0" fill="#000000" fill-rule="nonzero"/>
                            <use xlink:href="#16" x="41.208000000000006" y="0" fill="#000000" fill-rule="nonzero"/>
                            <use xlink:href="#6" x="45.504000000000005" y="0" fill="#000000" fill-rule="nonzero"/>
                            <use xlink:href="#17" x="50.64" y="0" fill="#000000" fill-rule="nonzero"/>
                            <use xlink:href="#16" x="56.712" y="0" fill="#000000" fill-rule="nonzero"/>
                            <use xlink:href="#1" x="61.008" y="0" fill="#000000" fill-rule="nonzero"/>
                            <use xlink:href="#f" x="64.872" y="0" fill="#000000" fill-rule="nonzero"/>
                            <use xlink:href="#14" x="71.484" y="0" fill="#000000" fill-rule="nonzero"/>
                            <use xlink:href="#4" x="81.87599999999999" y="0" fill="#000000" fill-rule="nonzero"/>
                            <use xlink:href="#14" x="85.65599999999999" y="0" fill="#000000" fill-rule="nonzero"/>
                            <use xlink:href="#11" x="93.04799999999999" y="0" fill="#000000" fill-rule="nonzero"/>
                            <use xlink:href="#18" x="99.29999999999998" y="0" fill="#000000" fill-rule="nonzero"/>
                            <use xlink:href="#2" x="103.09199999999998" y="0" fill="#000000" fill-rule="nonzero"/>
                            <use xlink:href="#19" x="113.95199999999998" y="0" fill="#000000" fill-rule="nonzero"/>
                            <use xlink:href="#7" x="120.87599999999998" y="0" fill="#000000" fill-rule="nonzero"/>
                        </g>
                    </g>
                </g>
                <g class="typst-group">
                    <g>
                        <g class="typst-text" transform="matrix(1 0 0 -1 75.08400000000002 69.272)">
                            <use xlink:href="#b" x="0" y="0" fill="#000000" fill-rule="nonzero"/>
                        </g>
                        <g class="typst-text" transform="matrix(1 0 0 -1 123.784 69.272)">
                            <use xlink:href="#b" x="0" y="0" fill="#000000" fill-rule="nonzero"/>
                            <use xlink:href="#9" x="5.580000000000001" y="0" fill="#000000" fill-rule="nonzero"/>
                            <use xlink:href="#c" x="8.22" y="0" fill="#000000" fill-rule="nonzero"/>
                        </g>
                        <g class="typst-text" transform="matrix(1 0 0 -1 161.744 69.272)">
                            <use xlink:href="#1a" x="0" y="0" fill="#000000" fill-rule="nonzero"/>
                            <use xlink:href="#9" x="5.580000000000001" y="0" fill="#000000" fill-rule="nonzero"/>
                            <use xlink:href="#a" x="8.22" y="0" fill="#000000" fill-rule="nonzero"/>
                        </g>
                        <g class="typst-text" transform="matrix(1 0 0 -1 203.814 69.272)">
                            <use xlink:href="#c" x="0" y="0" fill="#000000" fill-rule="nonzero"/>
                        </g>
                        <g class="typst-text" transform="matrix(1 0 0 -1 240.45399999999998 69.272)">
                            <use xlink:href="#b" x="0" y="0" fill="#000000" fill-rule="nonzero"/>
                            <use xlink:href="#9" x="5.580000000000001" y="0" fill="#000000" fill-rule="nonzero"/>
                            <use xlink:href="#a" x="8.22" y="0" fill="#000000" fill-rule="nonzero"/>
                        </g>
                        <g class="typst-text" transform="matrix(1 0 0 -1 283.99399999999997 69.272)">
                            <use xlink:href="#8" x="0" y="0" fill="#000000" fill-rule="nonzero"/>
                            <use xlink:href="#9" x="5.580000000000001" y="0" fill="#000000" fill-rule="nonzero"/>
                            <use xlink:href="#b" x="8.22" y="0" fill="#000000" fill-rule="nonzero"/>
                        </g>
                    </g>
                </g>
                <g class="typst-text" transform="matrix(1 0 0 -1 8 69.272)">
                    <use xlink:href="#b" x="0" y="0" fill="#000000" fill-rule="nonzero"/>
                    <use xlink:href="#8" x="5.580000000000001" y="0" fill="#000000" fill-rule="nonzero"/>
                    <use xlink:href="#8" x="11.160000000000002" y="0" fill="#000000" fill-rule="nonzero"/>
                </g>
                <g class="typst-group">
                    <g>
                        <g class="typst-text" transform="matrix(1 0 0 -1 75.08400000000002 87.16799999999999)">
                            <use xlink:href="#c" x="0" y="0" fill="#000000" fill-rule="nonzero"/>
                        </g>
                        <g class="typst-text" transform="matrix(1 0 0 -1 123.784 87.16799999999999)">
                            <use xlink:href="#b" x="0" y="0" fill="#000000" fill-rule="nonzero"/>
                            <use xlink:href="#9" x="5.580000000000001" y="0" fill="#000000" fill-rule="nonzero"/>
                            <use xlink:href="#1b" x="8.22" y="0" fill="#000000" fill-rule="nonzero"/>
                        </g>
                        <g class="typst-text" transform="matrix(1 0 0 -1 161.744 87.16799999999999)">
                            <use xlink:href="#d" x="0" y="0" fill="#000000" fill-rule="nonzero"/>
                            <use xlink:href="#9" x="5.580000000000001" y="0" fill="#000000" fill-rule="nonzero"/>
                            <use xlink:href="#c" x="8.22" y="0" fill="#000000" fill-rule="nonzero"/>
                        </g>
                        <g class="typst-text" transform="matrix(1 0 0 -1 199.704 87.16799999999999)">
                            <use xlink:href="#b" x="0" y="0" fill="#000000" fill-rule="nonzero"/>
                            <use xlink:href="#9" x="5.580000000000001" y="0" fill="#000000" fill-rule="nonzero"/>
                            <use xlink:href="#1b" x="8.22" y="0" fill="#000000" fill-rule="nonzero"/>
                        </g>
                        <g class="typst-text" transform="matrix(1 0 0 -1 240.45399999999998 87.16799999999999)">
                            <use xlink:href="#b" x="0" y="0" fill="#000000" fill-rule="nonzero"/>
                            <use xlink:href="#9" x="5.580000000000001" y="0" fill="#000000" fill-rule="nonzero"/>
                            <use xlink:href="#c" x="8.22" y="0" fill="#000000" fill-rule="nonzero"/>
                        </g>
                        <g class="typst-text" transform="matrix(1 0 0 -1 283.99399999999997 87.16799999999999)">
                            <use xlink:href="#8" x="0" y="0" fill="#000000" fill-rule="nonzero"/>
                            <use xlink:href="#9" x="5.580000000000001" y="0" fill="#000000" fill-rule="nonzero"/>
                            <use xlink:href="#c" x="8.22" y="0" fill="#000000" fill-rule="nonzero"/>
                        </g>
                    </g>
                </g>
                <g class="typst-group">
                    <g>
                        <g class="typst-text" transform="matrix(1 0 0 -1 75.08400000000002 104.90799999999999)">
                            <use xlink:href="#1c" x="0" y="0" fill="#000000" fill-rule="nonzero"/>
                        </g>
                        <g class="typst-text" transform="matrix(1 0 0 -1 127.894 105.064)">
                            <use xlink:href="#c" x="0" y="0" fill="#000000" fill-rule="nonzero"/>
                        </g>
                        <g class="typst-text" transform="matrix(1 0 0 -1 165.854 105.064)">
                            <use xlink:href="#c" x="0" y="0" fill="#000000" fill-rule="nonzero"/>
                        </g>
                        <g class="typst-text" transform="matrix(1 0 0 -1 203.814 105.064)">
                            <use xlink:href="#c" x="0" y="0" fill="#000000" fill-rule="nonzero"/>
                        </g>
                        <g class="typst-text" transform="matrix(1 0 0 -1 244.56399999999996 105.064)">
                            <use xlink:href="#c" x="0" y="0" fill="#000000" fill-rule="nonzero"/>
                        </g>
                        <g class="typst-text" transform="matrix(1 0 0 -1 288.104 105.064)">
                            <use xlink:href="#c" x="0" y="0" fill="#000000" fill-rule="nonzero"/>
                        </g>
                    </g>
                </g>
                <g class="typst-group">
                    <g>
                        <g class="typst-text" transform="matrix(1 0 0 -1 75.08400000000002 122.80399999999999)">
                            <use xlink:href="#1d" x="0" y="0" fill="#000000" fill-rule="nonzero"/>
                            <use xlink:href="#3" x="10.788" y="0" fill="#000000" fill-rule="nonzero"/>
                            <use xlink:href="#17" x="16.656" y="0" fill="#000000" fill-rule="nonzero"/>
                            <use xlink:href="#14" x="22.727999999999998" y="0" fill="#000000" fill-rule="nonzero"/>
                        </g>
                        <g class="typst-text" transform="matrix(1 0 0 -1 123.784 122.95999999999998)">
                            <use xlink:href="#b" x="0" y="0" fill="#000000" fill-rule="nonzero"/>
                            <use xlink:href="#9" x="5.580000000000001" y="0" fill="#000000" fill-rule="nonzero"/>
                            <use xlink:href="#a" x="8.22" y="0" fill="#000000" fill-rule="nonzero"/>
                        </g>
                        <g class="typst-text" transform="matrix(1 0 0 -1 158.95400000000004 122.95999999999998)">
                            <use xlink:href="#d" x="0" y="0" fill="#000000" fill-rule="nonzero"/>
                            <use xlink:href="#9" x="5.580000000000001" y="0" fill="#000000" fill-rule="nonzero"/>
                            <use xlink:href="#1b" x="8.22" y="0" fill="#000000" fill-rule="nonzero"/>
                            <use xlink:href="#a" x="13.8" y="0" fill="#000000" fill-rule="nonzero"/>
                        </g>
                        <g class="typst-text" transform="matrix(1 0 0 -1 199.704 122.95999999999998)">
                            <use xlink:href="#b" x="0" y="0" fill="#000000" fill-rule="nonzero"/>
                            <use xlink:href="#9" x="5.580000000000001" y="0" fill="#000000" fill-rule="nonzero"/>
                            <use xlink:href="#1e" x="8.22" y="0" fill="#000000" fill-rule="nonzero"/>
                        </g>
                        <g class="typst-text" transform="matrix(1 0 0 -1 237.664 122.95999999999998)">
                            <use xlink:href="#b" x="0" y="0" fill="#000000" fill-rule="nonzero"/>
                            <use xlink:href="#9" x="5.580000000000001" y="0" fill="#000000" fill-rule="nonzero"/>
                            <use xlink:href="#d" x="8.22" y="0" fill="#000000" fill-rule="nonzero"/>
                            <use xlink:href="#a" x="13.8" y="0" fill="#000000" fill-rule="nonzero"/>
                        </g>
                        <g class="typst-text" transform="matrix(1 0 0 -1 281.20399999999995 122.95999999999998)">
                            <use xlink:href="#8" x="0" y="0" fill="#000000" fill-rule="nonzero"/>
                            <use xlink:href="#9" x="5.580000000000001" y="0" fill="#000000" fill-rule="nonzero"/>
                            <use xlink:href="#b" x="8.22" y="0" fill="#000000" fill-rule="nonzero"/>
                            <use xlink:href="#a" x="13.8" y="0" fill="#000000" fill-rule="nonzero"/>
                        </g>
                    </g>
                </g>
                <g class="typst-group">
                    <g>
                        <g class="typst-text" transform="matrix(1 0 0 -1 75.08400000000002 140.7)">
                            <use xlink:href="#1f" x="0" y="0" fill="#000000" fill-rule="nonzero"/>
                            <use xlink:href="#e" x="6.048" y="0" fill="#000000" fill-rule="nonzero"/>
                        </g>
                        <g class="typst-text" transform="matrix(1 0 0 -1 118.20400000000001 140.856)">
                            <use xlink:href="#8" x="0" y="0" fill="#000000" fill-rule="nonzero"/>
                            <use xlink:href="#9" x="5.580000000000001" y="0" fill="#000000" fill-rule="nonzero"/>
                            <use xlink:href="#1a" x="8.22" y="0" fill="#000000" fill-rule="nonzero"/>
                            <use xlink:href="#c" x="13.8" y="0" fill="#000000" fill-rule="nonzero"/>
                            <use xlink:href="#1a" x="19.380000000000003" y="0" fill="#000000" fill-rule="nonzero"/>
                        </g>
                        <g class="typst-text" transform="matrix(1 0 0 -1 156.16400000000002 140.856)">
                            <use xlink:href="#8" x="0" y="0" fill="#000000" fill-rule="nonzero"/>
                            <use xlink:href="#9" x="5.580000000000001" y="0" fill="#000000" fill-rule="nonzero"/>
                            <use xlink:href="#1e" x="8.22" y="0" fill="#000000" fill-rule="nonzero"/>
                            <use xlink:href="#b" x="13.8" y="0" fill="#000000" fill-rule="nonzero"/>
                            <use xlink:href="#1e" x="19.380000000000003" y="0" fill="#000000" fill-rule="nonzero"/>
                        </g>
                        <g class="typst-text" transform="matrix(1 0 0 -1 194.124 140.856)">
                            <use xlink:href="#8" x="0" y="0" fill="#000000" fill-rule="nonzero"/>
                            <use xlink:href="#9" x="5.580000000000001" y="0" fill="#000000" fill-rule="nonzero"/>
                            <use xlink:href="#b" x="8.22" y="0" fill="#000000" fill-rule="nonzero"/>
                            <use xlink:href="#1a" x="13.8" y="0" fill="#000000" fill-rule="nonzero"/>
                            <use xlink:href="#b" x="19.380000000000003" y="0" fill="#000000" fill-rule="nonzero"/>
                        </g>
                        <g class="typst-text" transform="matrix(1 0 0 -1 234.874 140.856)">
                            <use xlink:href="#8" x="0" y="0" fill="#000000" fill-rule="nonzero"/>
                            <use xlink:href="#9" x="5.580000000000001" y="0" fill="#000000" fill-rule="nonzero"/>
                            <use xlink:href="#c" x="8.22" y="0" fill="#000000" fill-rule="nonzero"/>
                            <use xlink:href="#b" x="13.8" y="0" fill="#000000" fill-rule="nonzero"/>
                            <use xlink:href="#c" x="19.380000000000003" y="0" fill="#000000" fill-rule="nonzero"/>
                        </g>
                        <g class="typst-text" transform="matrix(1 0 0 -1 275.624 140.856)">
                            <use xlink:href="#8" x="0" y="0" fill="#000000" fill-rule="nonzero"/>
                            <use xlink:href="#9" x="5.580000000000001" y="0" fill="#000000" fill-rule="nonzero"/>
                            <use xlink:href="#8" x="8.22" y="0" fill="#000000" fill-rule="nonzero"/>
                            <use xlink:href="#20" x="13.8" y="0" fill="#000000" fill-rule="nonzero"/>
                            <use xlink:href="#8" x="19.380000000000003" y="0" fill="#000000" fill-rule="nonzero"/>
                            <use xlink:href="#20" x="24.960000000000004" y="0" fill="#000000" fill-rule="nonzero"/>
                        </g>
                    </g>
                </g>
                <g class="typst-group">
                    <g>
                        <g class="typst-text" transform="matrix(1 0 0 -1 75.08400000000002 158.752)">
                            <use xlink:href="#d" x="0" y="0" fill="#000000" fill-rule="nonzero"/>
                        </g>
                        <g class="typst-text" transform="matrix(1 0 0 -1 123.784 158.752)">
                            <use xlink:href="#b" x="0" y="0" fill="#000000" fill-rule="nonzero"/>
                            <use xlink:href="#9" x="5.580000000000001" y="0" fill="#000000" fill-rule="nonzero"/>
                            <use xlink:href="#20" x="8.22" y="0" fill="#000000" fill-rule="nonzero"/>
                        </g>
                        <g class="typst-text" transform="matrix(1 0 0 -1 161.744 158.752)">
                            <use xlink:href="#1a" x="0" y="0" fill="#000000" fill-rule="nonzero"/>
                            <use xlink:href="#9" x="5.580000000000001" y="0" fill="#000000" fill-rule="nonzero"/>
                            <use xlink:href="#c" x="8.22" y="0" fill="#000000" fill-rule="nonzero"/>
                        </g>
                        <g class="typst-text" transform="matrix(1 0 0 -1 203.814 158.752)">
                            <use xlink:href="#b" x="0" y="0" fill="#000000" fill-rule="nonzero"/>
                        </g>
                        <g class="typst-text" transform="matrix(1 0 0 -1 240.45399999999998 158.752)">
                            <use xlink:href="#8" x="0" y="0" fill="#000000" fill-rule="nonzero"/>
                            <use xlink:href="#9" x="5.580000000000001" y="0" fill="#000000" fill-rule="nonzero"/>
                            <use xlink:href="#1e" x="8.22" y="0" fill="#000000" fill-rule="nonzero"/>
                        </g>
                        <g class="typst-text" transform="matrix(1 0 0 -1 283.99399999999997 158.752)">
                            <use xlink:href="#8" x="0" y="0" fill="#000000" fill-rule="nonzero"/>
                            <use xlink:href="#9" x="5.580000000000001" y="0" fill="#000000" fill-rule="nonzero"/>
                            <use xlink:href="#d" x="8.22" y="0" fill="#000000" fill-rule="nonzero"/>
                        </g>
                    </g>
                </g>
                <g class="typst-text" transform="matrix(1 0 0 -1 8 158.752)">
                    <use xlink:href="#c" x="0" y="0" fill="#000000" fill-rule="nonzero"/>
                    <use xlink:href="#8" x="5.580000000000001" y="0" fill="#000000" fill-rule="nonzero"/>
                    <use xlink:href="#8" x="11.160000000000002" y="0" fill="#000000" fill-rule="nonzero"/>
                </g>
                <g class="typst-group">
                    <g>
                        <g class="typst-text" transform="matrix(1 0 0 -1 75.08400000000002 176.64800000000002)">
                            <use xlink:href="#1a" x="0" y="0" fill="#000000" fill-rule="nonzero"/>
                        </g>
                        <g class="typst-text" transform="matrix(1 0 0 -1 123.784 176.64800000000002)">
                            <use xlink:href="#b" x="0" y="0" fill="#000000" fill-rule="nonzero"/>
                            <use xlink:href="#9" x="5.580000000000001" y="0" fill="#000000" fill-rule="nonzero"/>
                            <use xlink:href="#20" x="8.22" y="0" fill="#000000" fill-rule="nonzero"/>
                        </g>
                        <g class="typst-text" transform="matrix(1 0 0 -1 161.744 176.64800000000002)">
                            <use xlink:href="#d" x="0" y="0" fill="#000000" fill-rule="nonzero"/>
                            <use xlink:href="#9" x="5.580000000000001" y="0" fill="#000000" fill-rule="nonzero"/>
                            <use xlink:href="#20" x="8.22" y="0" fill="#000000" fill-rule="nonzero"/>
                        </g>
                        <g class="typst-text" transform="matrix(1 0 0 -1 199.704 176.64800000000002)">
                            <use xlink:href="#b" x="0" y="0" fill="#000000" fill-rule="nonzero"/>
                            <use xlink:href="#9" x="5.580000000000001" y="0" fill="#000000" fill-rule="nonzero"/>
                            <use xlink:href="#c" x="8.22" y="0" fill="#000000" fill-rule="nonzero"/>
                        </g>
                        <g class="typst-text" transform="matrix(1 0 0 -1 244.56399999999996 176.64800000000002)">
                            <use xlink:href="#b" x="0" y="0" fill="#000000" fill-rule="nonzero"/>
                        </g>
                        <g class="typst-text" transform="matrix(1 0 0 -1 283.99399999999997 176.64800000000002)">
                            <use xlink:href="#8" x="0" y="0" fill="#000000" fill-rule="nonzero"/>
                            <use xlink:href="#9" x="5.580000000000001" y="0" fill="#000000" fill-rule="nonzero"/>
                            <use xlink:href="#c" x="8.22" y="0" fill="#000000" fill-rule="nonzero"/>
                        </g>
                    </g>
                </g>
                <g class="typst-group">
                    <g>
                        <g class="typst-text" transform="matrix(1 0 0 -1 75.08400000000002 194.388)">
                            <use xlink:href="#1c" x="0" y="0" fill="#000000" fill-rule="nonzero"/>
                        </g>
                        <g class="typst-text" transform="matrix(1 0 0 -1 127.894 194.54400000000004)">
                            <use xlink:href="#c" x="0" y="0" fill="#000000" fill-rule="nonzero"/>
                        </g>
                        <g class="typst-text" transform="matrix(1 0 0 -1 165.854 194.54400000000004)">
                            <use xlink:href="#c" x="0" y="0" fill="#000000" fill-rule="nonzero"/>
                        </g>
                        <g class="typst-text" transform="matrix(1 0 0 -1 203.814 194.54400000000004)">
                            <use xlink:href="#c" x="0" y="0" fill="#000000" fill-rule="nonzero"/>
                        </g>
                        <g class="typst-text" transform="matrix(1 0 0 -1 244.56399999999996 194.54400000000004)">
                            <use xlink:href="#c" x="0" y="0" fill="#000000" fill-rule="nonzero"/>
                        </g>
                        <g class="typst-text" transform="matrix(1 0 0 -1 288.104 194.54400000000004)">
                            <use xlink:href="#c" x="0" y="0" fill="#000000" fill-rule="nonzero"/>
                        </g>
                    </g>
                </g>
                <g class="typst-group">
                    <g>
                        <g class="typst-text" transform="matrix(1 0 0 -1 75.08400000000002 212.28400000000002)">
                            <use xlink:href="#1d" x="0" y="0" fill="#000000" fill-rule="nonzero"/>
                            <use xlink:href="#3" x="10.788" y="0" fill="#000000" fill-rule="nonzero"/>
                            <use xlink:href="#17" x="16.656" y="0" fill="#000000" fill-rule="nonzero"/>
                            <use xlink:href="#14" x="22.727999999999998" y="0" fill="#000000" fill-rule="nonzero"/>
                        </g>
                        <g class="typst-text" transform="matrix(1 0 0 -1 123.784 212.44000000000003)">
                            <use xlink:href="#b" x="0" y="0" fill="#000000" fill-rule="nonzero"/>
                            <use xlink:href="#9" x="5.580000000000001" y="0" fill="#000000" fill-rule="nonzero"/>
                            <use xlink:href="#20" x="8.22" y="0" fill="#000000" fill-rule="nonzero"/>
                        </g>
                        <g class="typst-text" transform="matrix(1 0 0 -1 158.95400000000004 212.44000000000003)">
                            <use xlink:href="#d" x="0" y="0" fill="#000000" fill-rule="nonzero"/>
                            <use xlink:href="#9" x="5.580000000000001" y="0" fill="#000000" fill-rule="nonzero"/>
                            <use xlink:href="#1e" x="8.22" y="0" fill="#000000" fill-rule="nonzero"/>
                            <use xlink:href="#a" x="13.8" y="0" fill="#000000" fill-rule="nonzero"/>
                        </g>
                        <g class="typst-text" transform="matrix(1 0 0 -1 199.704 212.44000000000003)">
                            <use xlink:href="#b" x="0" y="0" fill="#000000" fill-rule="nonzero"/>
                            <use xlink:href="#9" x="5.580000000000001" y="0" fill="#000000" fill-rule="nonzero"/>
                            <use xlink:href="#b" x="8.22" y="0" fill="#000000" fill-rule="nonzero"/>
                        </g>
                        <g class="typst-text" transform="matrix(1 0 0 -1 237.664 212.44000000000003)">
                            <use xlink:href="#8" x="0" y="0" fill="#000000" fill-rule="nonzero"/>
                            <use xlink:href="#9" x="5.580000000000001" y="0" fill="#000000" fill-rule="nonzero"/>
                            <use xlink:href="#1e" x="8.22" y="0" fill="#000000" fill-rule="nonzero"/>
                            <use xlink:href="#a" x="13.8" y="0" fill="#000000" fill-rule="nonzero"/>
                        </g>
                        <g class="typst-text" transform="matrix(1 0 0 -1 281.20399999999995 212.44000000000003)">
                            <use xlink:href="#8" x="0" y="0" fill="#000000" fill-rule="nonzero"/>
                            <use xlink:href="#9" x="5.580000000000001" y="0" fill="#000000" fill-rule="nonzero"/>
                            <use xlink:href="#c" x="8.22" y="0" fill="#000000" fill-rule="nonzero"/>
                            <use xlink:href="#a" x="13.8" y="0" fill="#000000" fill-rule="nonzero"/>
                        </g>
                    </g>
                </g>
                <g class="typst-group">
                    <g>
                        <g class="typst-text" transform="matrix(1 0 0 -1 75.08400000000002 230.18000000000004)">
                            <use xlink:href="#1f" x="0" y="0" fill="#000000" fill-rule="nonzero"/>
                            <use xlink:href="#e" x="6.048" y="0" fill="#000000" fill-rule="nonzero"/>
                        </g>
                        <g class="typst-text" transform="matrix(1 0 0 -1 127.894 230.33600000000004)">
                            <use xlink:href="#8" x="0" y="0" fill="#000000" fill-rule="nonzero"/>
                        </g>
                        <g class="typst-text" transform="matrix(1 0 0 -1 156.16400000000002 230.33600000000004)">
                            <use xlink:href="#8" x="0" y="0" fill="#000000" fill-rule="nonzero"/>
                            <use xlink:href="#9" x="5.580000000000001" y="0" fill="#000000" fill-rule="nonzero"/>
                            <use xlink:href="#d" x="8.22" y="0" fill="#000000" fill-rule="nonzero"/>
                            <use xlink:href="#a" x="13.8" y="0" fill="#000000" fill-rule="nonzero"/>
                            <use xlink:href="#1a" x="19.380000000000003" y="0" fill="#000000" fill-rule="nonzero"/>
                        </g>
                        <g class="typst-text" transform="matrix(1 0 0 -1 194.124 230.33600000000004)">
                            <use xlink:href="#8" x="0" y="0" fill="#000000" fill-rule="nonzero"/>
                            <use xlink:href="#9" x="5.580000000000001" y="0" fill="#000000" fill-rule="nonzero"/>
                            <use xlink:href="#b" x="8.22" y="0" fill="#000000" fill-rule="nonzero"/>
                            <use xlink:href="#1a" x="13.8" y="0" fill="#000000" fill-rule="nonzero"/>
                            <use xlink:href="#b" x="19.380000000000003" y="0" fill="#000000" fill-rule="nonzero"/>
                        </g>
                        <g class="typst-text" transform="matrix(1 0 0 -1 232.08399999999997 230.33600000000004)">
                            <use xlink:href="#8" x="0" y="0" fill="#000000" fill-rule="nonzero"/>
                            <use xlink:href="#9" x="5.580000000000001" y="0" fill="#000000" fill-rule="nonzero"/>
                            <use xlink:href="#8" x="8.22" y="0" fill="#000000" fill-rule="nonzero"/>
                            <use xlink:href="#20" x="13.8" y="0" fill="#000000" fill-rule="nonzero"/>
                            <use xlink:href="#8" x="19.380000000000003" y="0" fill="#000000" fill-rule="nonzero"/>
                            <use xlink:href="#20" x="24.960000000000004" y="0" fill="#000000" fill-rule="nonzero"/>
                        </g>
                        <g class="typst-text" transform="matrix(1 0 0 -1 275.624 230.33600000000004)">
                            <use xlink:href="#8" x="0" y="0" fill="#000000" fill-rule="nonzero"/>
                            <use xlink:href="#9" x="5.580000000000001" y="0" fill="#000000" fill-rule="nonzero"/>
                            <use xlink:href="#8" x="8.22" y="0" fill="#000000" fill-rule="nonzero"/>
                            <use xlink:href="#20" x="13.8" y="0" fill="#000000" fill-rule="nonzero"/>
                            <use xlink:href="#8" x="19.380000000000003" y="0" fill="#000000" fill-rule="nonzero"/>
                            <use xlink:href="#20" x="24.960000000000004" y="0" fill="#000000" fill-rule="nonzero"/>
                        </g>
                    </g>
                </g>
            </g>
        </g>
    </g>
    <defs id="21">
        <symbol id="0" overflow="visible">
            <path d="M 0 0m 4.86 1.4760001 v 4.5600004 c 0 0.76799965 0.119999886 1.2119999 0.55200005 1.2119999 h 0.26399994 c 0.9000001 0 1.4039998 -0.3000002 1.6079998 -1.224 c 0.13199997 0 0.36000013 0.012000084 0.46799994 0.059999943 c -0.083999634 0.55200005 -0.14399958 1.1760001 -0.15599966 1.7160001 c 0 0.012000084 -0.024000168 0.035999775 -0.03600025 0.035999775 c -0.408 -0.035999775 -1.7399998 -0.09599972 -2.6879997 -0.09599972 h -1.6920002 c -0.924 0 -2.3400002 0.059999943 -2.796 0.09599972 c -0.023999989 0 -0.048000008 -0.023999691 -0.048000008 -0.035999775 c -0.048000008 -0.53999996 -0.168 -1.1760001 -0.3 -1.7520003 c 0.120000005 -0.04799986 0.324 -0.059999943 0.468 -0.059999943 c 0.24000001 0.96000004 0.73200005 1.2600002 1.5240002 1.2600002 h 0.5879998 c 0.444 0 0.5640001 -0.44400024 0.5640001 -1.1760001 v -4.5959997 c 0 -0.99600005 -0.204 -1.056 -1.164 -1.092 c -0.07200003 -0.072 -0.07200003 -0.336 0 -0.408 c 0.58800006 0.012 1.2119999 0.024 1.98 0.024 c 0.79200006 0 1.4280002 -0.012 2.028 -0.024 c 0.07200003 0.072 0.07200003 0.336 0 0.408 c -0.96000004 0.036000013 -1.164 0.096000016 -1.164 1.092 Z "/>
        </symbol>
        <symbol id="1" overflow="visible">
            <path d="M 0 0m 2.784 1.464 v 2.388 c 0 0.60000014 0.048000097 1.2720001 0.048000097 1.2720001 c 0 0.13199997 -0.10800004 0.204 -0.27600002 0.204 c -0.33599997 -0.13199997 -1.308 -0.22800016 -2.136 -0.33599997 c -0.024000019 -0.07200003 0 -0.31200027 0.023999989 -0.3840003 c 0.65999997 -0.059999943 0.78 -0.15599966 0.78 -0.8399997 v -2.3040001 c 0 -0.996 -0.13199997 -1.02 -0.86399996 -1.0799999 c -0.07200003 -0.072 -0.07200003 -0.336 0 -0.408 c 0.504 0.012 1.008 0.024 1.6439999 0.024 c 0.63600016 0 1.128 -0.012 1.644 -0.024 c 0.07200003 0.072 0.07200003 0.336 0 0.408 c -0.7319999 0.048000008 -0.8640001 0.08399999 -0.8640001 1.0799999 Z m -1.6199999 5.6879997 c 0 -0.3959999 0.288 -0.7919998 0.768 -0.7919998 c 0.5400001 0 0.8519999 0.43200016 0.8519999 0.74399996 c 0 0.36000013 -0.27599978 0.7919998 -0.78 0.7919998 c -0.5639999 0 -0.8399999 -0.38399982 -0.8399999 -0.74399996 Z "/>
        </symbol>
        <symbol id="2" overflow="visible">
            <path d="M 0 0m 2.736 1.464 v 2.388 c 0 0.059999943 0 0.120000124 0 0.18000007 c 0.46799994 0.2880001 0.888 0.408 1.092 0.408 c 0.48000002 0 0.84000015 -0.21600008 0.84000015 -0.9000001 v -2.004 c 0 -1.008 -0.19200039 -1.1159999 -0.68400025 -1.152 c -0.07200003 -0.072 -0.07200003 -0.336 0 -0.408 c 0.50399995 0.012 0.88800025 0.024 1.464 0.024 c 0.5760002 0 0.94799995 -0.012 1.4640002 -0.024 c 0.07200003 0.072 0.07200003 0.336 0 0.408 c -0.48000002 0.036000013 -0.684 0.144 -0.684 1.152 v 1.872 c 0 0.29999995 -0.012000084 0.53999996 -0.048000336 0.65999985 c 0.45600033 0.22800016 0.9720001 0.37200022 1.164 0.37200022 c 0.48000002 0 0.816 -0.21600008 0.816 -0.9000001 v -2.004 c 0 -1.008 -0.19199991 -1.1159999 -0.684 -1.152 c -0.07199955 -0.072 -0.07199955 -0.336 0 -0.408 c 0.5040002 0.012 0.8880005 0.024 1.4640007 0.024 c 0.65999985 0 1.1879997 -0.012 1.7039995 -0.024 c 0.0720005 0.072 0.0720005 0.336 0 0.408 c -0.73200035 0.036000013 -0.9239998 0.144 -0.9239998 1.152 v 1.872 c 0 1.3200002 -0.4800005 1.9200001 -1.5120001 1.9200001 c -0.44400024 0 -1.4520001 -0.48000002 -2.1480002 -0.86399984 c -0.17999983 0.5159998 -0.65999985 0.86399984 -1.368 0.86399984 c -0.43199968 0 -1.2959998 -0.45599985 -1.9799998 -0.84000015 c -0.036000013 0.36000013 -0.07200003 0.63600016 -0.07200003 0.63600016 c -0.012000084 0.14400005 -0.10800004 0.204 -0.27600002 0.204 c -0.444 -0.119999886 -1.164 -0.2880001 -1.9920001 -0.3959999 c -0.024000019 -0.07200003 0 -0.31200027 0.023999989 -0.3840003 c 0.65999997 -0.059999943 0.78 -0.15599966 0.78 -0.8399999 v -2.244 c 0 -0.996 -0.13199997 -1.02 -0.86399996 -1.0799999 c -0.072 -0.072 -0.072 -0.336 0 -0.408 c 0.50399995 0.012 1.008 0.024 1.6439999 0.024 c 0.55200016 0 0.88800013 -0.012 1.4040002 -0.024 c 0.07199979 0.072 0.07199979 0.336 0 0.408 c -0.5040002 0.048000008 -0.6240001 0.08399999 -0.6240001 1.0799999 Z "/>
        </symbol>
        <symbol id="3" overflow="visible">
            <path d="M 0 0m 5.172 1.548 c -0.4920001 -0.50399995 -1.1399999 -0.636 -1.596 -0.636 c -0.9359999 0 -1.5119998 0.54 -1.5119998 1.7160001 c 0 0.08400011 0.0119998455 0.13199997 0.0119998455 0.19199991 h 2.8799999 c 0.2880001 0 0.34800005 0.204 0.34800005 0.37199998 c 0 1.02 -0.3959999 2.1360002 -2.1599998 2.1360002 c -1.26 0 -2.7 -1.1160002 -2.7 -2.9520001 c 0 -0.69599986 0.25199997 -1.428 0.768 -1.8959999 c 0.45599997 -0.40800002 1.044 -0.6 1.896 -0.6 c 0.82800007 0 1.6439998 0.42000002 2.2440002 1.296 c 0 0.15600002 -0.06000042 0.37199998 -0.1800003 0.37199998 Z m -3.0479999 1.752 c 0.0119998455 0.42000008 0.07200003 0.87600017 0.24000001 1.1159999 c 0.19199991 0.2880001 0.51600003 0.408 0.648 0.408 c 0.32399988 0 0.7679999 -0.3119998 0.7679999 -1.2719998 c 0 -0.07200003 0 -0.22799993 -0.02399993 -0.2520001 Z "/>
        </symbol>
        <symbol id="4" overflow="visible">
            <path d="M 0 0m 0.432 3.036 c 0 -0.53999996 0.060000002 -3.24 2.7840002 -5.592 l 0.3599999 0.38400006 c -0.38400006 0.43199992 -1.7639999 2.04 -1.7639999 5.208 c 0 3.168 1.404 4.776 1.7639999 5.196 l -0.33599997 0.408 c -1.572 -1.3560004 -2.808 -3.42 -2.808 -5.604 Z "/>
        </symbol>
        <symbol id="5" overflow="visible">
            <path d="M 0 0m 6.336 1.536 v 1.872 c 0 1.3200002 -0.5640001 1.9200001 -1.5959997 1.9200001 c -0.44400024 0 -1.2960002 -0.44400024 -1.9800003 -0.86399984 v 2.532 c 0 0.77999973 0.036000013 1.224 0.036000013 1.224 c 0 0.1079998 -0.08399987 0.15600014 -0.19199991 0.15600014 c -0.444 -0.14400005 -1.404 -0.27600002 -2.256 -0.31200027 c -0.035999984 -0.14400005 -0.023999989 -0.27600002 0.036000013 -0.38399982 c 0.756 -0.06000042 0.81600004 -0.07200003 0.81600004 -0.9000001 v -5.256 c 0 -0.99600005 -0.19200003 -1.1040001 -0.924 -1.1400001 c -0.072 -0.072 -0.072 -0.336 0 -0.408 c 0.50400007 0.012 1.044 0.024 1.704 0.024 c 0.576 0 0.94799995 -0.012 1.464 -0.024 c 0.07200003 0.072 0.07200003 0.336 0 0.408 c -0.50399995 0.036000013 -0.684 0.144 -0.684 1.1400001 v 2.46 c 0.50399995 0.31200004 0.9000001 0.4560001 1.1159999 0.4560001 c 0.48000002 0 0.9000001 -0.21600008 0.9000001 -0.9000001 v -2.004 c 0 -1.008 -0.19199991 -1.1159999 -0.684 -1.152 c -0.07200003 -0.072 -0.07200003 -0.336 0 -0.408 c 0.5040002 0.012 0.888 0.024 1.4640002 0.024 c 0.65999985 0 1.1879997 -0.012 1.704 -0.024 c 0.07200003 0.072 0.07200003 0.336 0 0.408 c -0.73200035 0.036000013 -0.92400026 0.144 -0.92400026 1.152 Z "/>
        </symbol>
        <symbol id="6" overflow="visible">
            <path d="M 0 0m 2.736 3.216 c 0 0.43199992 0.13199997 0.612 0.28799987 0.7919998 c 0.096000195 0.12000036 0.204 0.204 0.38400006 0.204 c 0.10800004 0 0.24000001 -0.1079998 0.33599997 -0.22799993 c 0.08400011 -0.095999956 0.2880001 -0.19199991 0.5640001 -0.19199991 c 0.34800005 0 0.684 0.3599999 0.684 0.8640001 c 0 0.3119998 -0.36000013 0.67199993 -0.7920003 0.67199993 c -0.41999984 0 -0.8759997 -0.36000013 -1.4279997 -1.152 h -0.048000097 c -0.02399993 0.36000013 -0.08399987 0.94799995 -0.08399987 0.94799995 c -0.012000084 0.1079998 -0.10800004 0.204 -0.27600002 0.204 c -0.564 -0.14400005 -1.2 -0.3119998 -1.9920001 -0.3959999 c -0.024000019 -0.07200003 0 -0.3000002 0.023999989 -0.37200022 c 0.65999997 -0.059999943 0.78 -0.16799974 0.78 -0.852 v -2.244 c 0 -0.996 -0.13199997 -1.02 -0.86399996 -1.0799999 c -0.072 -0.072 -0.072 -0.336 0 -0.408 c 0.50399995 0.012 1.008 0.024 1.6439999 0.024 c 0.63600004 0 1.1280001 -0.012 1.6440002 -0.024 c 0.07199979 0.072 0.07199979 0.336 0 0.408 c -0.7320001 0.048000008 -0.8640001 0.08399999 -0.8640001 1.0799999 Z "/>
        </symbol>
        <symbol id="7" overflow="visible">
            <path d="M 0 0m 3.348 3.012 c 0 0.53999996 -0.059999943 3.2399998 -2.784 5.592 l -0.36 -0.38399982 c 0.384 -0.43200016 1.764 -2.0400004 1.764 -5.208 c 0 -3.168 -1.404 -4.776 -1.764 -5.196 l 0.33600003 -0.408 c 1.572 1.356 2.808 3.42 2.808 5.604 Z "/>
        </symbol>
        <symbol id="8" overflow="visible">
            <path d="M 0 0m 2.736 -0.120000005 c 0.924 0 2.328 0.936 2.328 3.756 c 0 1.188 -0.2880001 2.208 -0.816 2.904 c -0.31200004 0.42000008 -0.8160002 0.7800002 -1.4640002 0.7800002 c -1.188 0 -2.316 -1.4159999 -2.316 -3.792 c 0 -1.2840002 0.39600003 -2.4840002 1.056 -3.144 c 0.33599997 -0.336 0.7440001 -0.504 1.212 -0.504 Z m 0.04799986 7.02 c 0.204 0 0.39600015 -0.07200003 0.5400002 -0.204 c 0.37199998 -0.31200027 0.69599986 -1.224 0.69599986 -2.832 c 0 -1.1040001 -0.036000013 -1.8600001 -0.204 -2.4720001 c -0.26399994 -0.98399997 -0.852 -1.092 -1.0680001 -1.092 c -1.1159999 0 -1.236 2.052 -1.236 3.0960002 c 0 2.952 0.732 3.504 1.272 3.504 Z "/>
        </symbol>
        <symbol id="9" overflow="visible">
            <path d="M 0 0m 0.684 0.51600003 c 0 -0.34800005 0.288 -0.63600004 0.63600004 -0.63600004 c 0.34799993 0 0.6359999 0.288 0.6359999 0.63600004 c 0 0.348 -0.288 0.6359999 -0.6359999 0.6359999 c -0.34800005 0 -0.63600004 -0.28799993 -0.63600004 -0.6359999 Z "/>
        </symbol>
        <symbol id="a" overflow="visible">
            <path d="M 0 0m 3.828 2.2680001 c 0 -1.1400001 -0.60000014 -1.9800001 -1.3199999 -1.9800001 c -0.4560001 0 -0.6120001 0.3 -0.7920002 0.54 c -0.1559999 0.20400006 -0.3599999 0.384 -0.612 0.384 c -0.22799999 0 -0.45599997 -0.204 -0.45599997 -0.444 c 0 -0.492 1.02 -0.9 1.704 -0.9 c 1.4880002 0 2.544 1.104 2.544 2.616 c 0 1.164 -0.8039999 2.208 -2.148 2.208 c -0.5159998 0 -0.9599999 -0.1079998 -1.1759999 -0.19199991 l 0.24000001 2.0040002 c 0.444 -0.048000336 0.82800007 -0.10800028 1.404 -0.10800028 c 0.3599999 0 0.7679999 0.024000168 1.2599998 0.07200003 l 0.19200039 0.816 l -0.08400011 0.048000336 c -0.684 -0.07200003 -1.332 -0.13199997 -1.9680002 -0.13199997 c -0.444 0 -0.8759999 0.023999691 -1.2959999 0.059999943 l -0.40800005 -3.456 c 0.636 0.24000001 1.092 0.28799987 1.5240002 0.28799987 c 0.78 0 1.392 -0.51600003 1.392 -1.8239999 Z "/>
        </symbol>
        <symbol id="b" overflow="visible">
            <path d="M 0 0m 3.456 1.464 v 4.1640005 c 0 0.7199998 0.0119998455 1.4519997 0.036000013 1.6079998 c 0 0.059999943 -0.024000168 0.059999943 -0.07200003 0.059999943 c -0.6600001 -0.408 -1.296 -0.7080002 -2.3520002 -1.1999998 c 0.024000049 -0.13199997 0.07200003 -0.25200033 0.18000007 -0.32400036 c 0.55200005 0.22800016 0.8160001 0.3000002 1.044 0.3000002 c 0.204 0 0.24000001 -0.2880001 0.24000001 -0.6960001 v -3.912 c 0 -0.996 -0.32400012 -1.056 -1.164 -1.092 c -0.07200003 -0.072 -0.07200003 -0.324 0 -0.396 c 0.58799994 0.012 1.02 0.024 1.668 0.024 c 0.576 0 0.8640001 -0.012 1.464 -0.024 c 0.07200003 0.072 0.07200003 0.324 0 0.396 c -0.8399999 0.035999984 -1.0439999 0.095999986 -1.0439999 1.092 Z "/>
        </symbol>
        <symbol id="c" overflow="visible">
            <path d="M 0 0m 0.732 5.616 c 0 -0.25200033 0.22800004 -0.46799994 0.48000002 -0.46799994 c 0.204 0 0.564 0.2159996 0.564 0.48000002 c 0 0.09599972 -0.024000049 0.16799974 -0.047999978 0.25199986 c -0.024000049 0.08400011 -0.096000075 0.19199991 -0.096000075 0.2880001 c 0 0.2999997 0.31200004 0.7319999 1.188 0.7319999 c 0.43200016 0 1.0440001 -0.3000002 1.0440001 -1.4520001 c 0 -0.7680001 -0.27600002 -1.3919997 -0.98399997 -2.112 l -0.88800013 -0.8759999 c -1.176 -1.2 -1.368 -1.776 -1.368 -2.484 c 0 0 0.61200005 0.024 0.996 0.024 h 2.1 c 0.38400006 0 0.9360001 -0.024 0.9360001 -0.024 c 0.15600014 0.636 0.27600002 1.536 0.2880001 1.896 c -0.07200003 0.060000062 -0.22800016 0.08399999 -0.34800005 0.060000062 c -0.204 -0.852 -0.408 -1.152 -0.84000015 -1.152 h -2.1360002 c 0 0.57600003 0.82799995 1.392 0.88800013 1.4520001 l 1.2119999 1.164 c 0.6839998 0.6600001 1.2 1.188 1.2 2.0999997 c 0 1.2960005 -1.056 1.8240004 -2.028 1.8240004 c -1.3319999 0 -2.1599998 -0.9840002 -2.1599998 -1.704 Z "/>
        </symbol>
        <symbol id="d" overflow="visible">
            <path d="M 0 0m 2.58 6.9 c 0.51600003 0 0.99600005 -0.31200027 0.99600005 -1.0799999 c 0 -0.5999999 -0.69599986 -1.5240002 -1.884 -1.6919999 l 0.059999943 -0.3840003 c 0.204 0.024000168 0.41999996 0.024000168 0.5760001 0.024000168 c 0.684 0 1.572 -0.19200015 1.572 -1.5480001 c 0 -1.596 -1.0680001 -1.9200001 -1.4880002 -1.9200001 c -0.61199987 0 -0.7199999 0.27599996 -0.86399996 0.49199998 c -0.120000005 0.16800004 -0.27600002 0.31199998 -0.5159999 0.31199998 c -0.25200003 0 -0.50400007 -0.22799999 -0.50400007 -0.41999996 c 0 -0.48000002 1.008 -0.804 1.728 -0.804 c 1.428 0 2.6999998 0.924 2.6999998 2.508 c 0 1.3080001 -0.9839997 1.776 -1.6919999 1.8959999 l -0.0119998455 0.024000168 c 0.98399997 0.46799994 1.26 0.96000004 1.26 1.5960002 c 0 0.35999966 -0.08400011 0.64799976 -0.37200022 0.94799995 c -0.26399994 0.26399994 -0.6839998 0.46799994 -1.3079998 0.46799994 c -1.764 0 -2.2680001 -1.152 -2.2680001 -1.5480003 c 0 -0.16799974 0.120000005 -0.408 0.408 -0.408 c 0.41999996 0 0.46800005 0.3960004 0.46800005 0.6240001 c 0 0.7680001 0.82800007 0.9120002 1.1399999 0.9120002 Z "/>
        </symbol>
        <symbol id="e" overflow="visible">
            <path d="M 0 0m 2.22 0 c 0.48000002 0 1.464 -0.024 1.944 -0.024 c 1.0560002 0 2.244 0.264 3.0960002 1.008 c 0.57599974 0.504 0.9720001 1.5 0.9720001 2.724 c 0 2.22 -1.44 4.0439997 -4.392 4.0439997 c -0.63600016 0 -1.1400001 -0.011999607 -1.6200001 -0.011999607 c -0.48000002 0 -1.848 0.023999691 -1.848 0.023999691 c -0.120000005 -0.07200003 -0.120000005 -0.33599997 0 -0.408 c 0.6600001 -0.035999775 0.99600005 -0.08400011 0.99600005 -1.0799999 v -4.8120003 c 0 -0.996 -0.33599997 -1.0439999 -0.99600005 -1.0799999 c -0.120000005 -0.072 -0.120000005 -0.336 0 -0.408 c 0 0 1.368 0.024 1.848 0.024 Z m 0.82800007 1.428 v 4.92 c 0 0.65999985 0.31200004 0.9000001 0.74399996 0.9000001 c 2.364 0 2.628 -2.0279999 2.628 -3.8400002 c 0 -2.184 -1.3080001 -2.928 -2.2200003 -2.928 c -0.8399997 0 -1.1519997 0.144 -1.1519997 0.94799995 Z "/>
        </symbol>
        <symbol id="f" overflow="visible">
            <path d="M 0 0m 0.444 2.484 c 0 -1.572 1.248 -2.604 2.856 -2.604 c 0.852 0 1.5600002 0.24000001 2.0520003 0.684 c 0.612 0.53999996 0.816 1.3560001 0.816 2.0279999 c 0 1.572 -1.0680003 2.736 -2.8560002 2.736 c -0.99600005 0 -1.74 -0.34800005 -2.2080002 -0.888 c -0.45599997 -0.5280001 -0.65999997 -1.2480001 -0.65999997 -1.9560001 Z m 2.676 2.34 c 0.816 0 1.3679998 -0.9719999 1.3679998 -2.616 c 0 -1.4399999 -0.5639999 -1.8239999 -0.9959998 -1.8239999 c -0.98399997 0 -1.368 1.4760001 -1.368 2.3639998 c 0 1.1040001 0.19199991 2.076 0.99600005 2.076 Z "/>
        </symbol>
        <symbol id="10" overflow="visible">
            <path d="M 0 0m 0.576 1.752 c 0.048000038 -0.58799994 0.10800004 -1.152 0.20400006 -1.608 c 0.22799999 -0.072 0.996 -0.264 1.668 -0.264 c 0.924 0 2.0760002 0.504 2.0760002 1.548 c 0 0.408 -0.096000195 0.7320001 -0.37200022 1.0320001 c -0.33599997 0.38400006 -0.8399999 0.684 -1.392 0.924 c -0.48000002 0.204 -0.648 0.58800006 -0.648 0.9360001 c 0 0.27600002 0.22799993 0.5039997 0.576 0.5039997 c 0.42000008 0 0.82800007 -0.38399982 1.128 -1.1159999 c 0.21600008 -0.036000013 0.34800005 -0.02399993 0.46799994 0.06000018 c 0 0.43199968 -0.04799986 0.888 -0.15599966 1.2719998 c -0.3840003 0.16800022 -0.68400025 0.2880001 -1.3440003 0.2880001 c -0.6359999 0 -1.236 -0.24000025 -1.6199999 -0.6240001 c -0.27600002 -0.27600002 -0.40800005 -0.612 -0.40800005 -0.9359999 c 0 -0.36000013 0.14400005 -0.648 0.37200004 -0.9000001 c 0.37199998 -0.408 1.0320001 -0.82800007 1.392 -0.99600005 c 0.48000002 -0.21599996 0.612 -0.648 0.612 -0.936 c 0 -0.384 -0.38400006 -0.588 -0.70799994 -0.588 c -0.53999996 0 -1.116 0.55200005 -1.368 1.428 c -0.19199997 0.036000013 -0.288 0.024000049 -0.48000002 -0.024000049 Z "/>
        </symbol>
        <symbol id="11" overflow="visible">
            <path d="M 0 0m 5.604 4.728 c 0.33599997 0 0.5279999 0.14400005 0.5279999 0.5879998 c 0 0.22800016 -0.3119998 0.5760002 -0.7680001 0.5760002 c -0.5279999 0 -1.224 -0.3960004 -1.5719998 -0.7080002 c -0.21600008 0.119999886 -0.46799994 0.14400005 -1.0080001 0.14400005 c -0.5159998 0 -1.0199999 -0.119999886 -1.4159999 -0.38399982 c -0.49200004 -0.31200027 -0.81600004 -0.7800002 -0.81600004 -1.3920002 c 0 -0.58800006 0.34800005 -1.224 0.9240001 -1.536 c -0.3720001 -0.324 -0.9480001 -0.96000004 -0.9480001 -1.2 c 0 -0.22799999 0.036000013 -0.37199998 0.15600002 -0.552 c 0.10799998 -0.168 0.25199997 -0.264 0.49199998 -0.336 c -0.516 -0.312 -1.044 -0.99599993 -1.044 -1.1999999 c 0 -0.444 0.144 -0.96000016 0.46800002 -1.1880001 c 0.46799994 -0.32399988 1.26 -0.3959999 1.8360001 -0.3959999 c 1.668 0 3.576 0.8759999 3.576 2.1959999 c 0 0.25200003 -0.119999886 0.768 -0.5999999 1.092 c -0.46799994 0.312 -2.2680001 0.396 -3.1560001 0.396 c -0.21600008 0 -0.5400001 0.023999989 -0.5400001 0.504 c 0 0.19200003 0.120000005 0.36 0.18000007 0.50399995 c 0.25199997 -0.120000005 0.50400007 -0.13199997 0.87600005 -0.13199997 c 0.612 0 1.1759999 0.15600002 1.5839999 0.51600003 c 0.34800005 0.31200004 0.5880003 0.7320001 0.5880003 1.2720001 c 0 0.67199993 -0.33600044 1.1159997 -0.74400043 1.4520001 c 0.096000195 0.119999886 0.4920001 0.33599997 0.61200047 0.33599997 c 0.1079998 0 0.19199991 -0.07200003 0.22799969 -0.14400005 c 0.04799986 -0.15600014 0.26399994 -0.408 0.5640001 -0.408 Z m -3.5040002 -5.0280004 c 0.924 0 2.7000003 -0.035999984 2.7000003 -0.672 c 0 -0.43200004 -0.19200039 -0.924 -0.5880003 -1.14 c -0.37199974 -0.21600008 -0.98399997 -0.24000001 -1.4399998 -0.24000001 c -0.79200006 0 -1.332 0.58799994 -1.332 1.2 c 0 0.40799993 0 0.68399996 0.13199997 0.92399997 c 0.120000005 -0.047999993 0.27600002 -0.07200001 0.5279999 -0.07200001 Z m 1.3800001 3.756 c 0 -1.1520002 -0.33599997 -1.296 -0.648 -1.296 c -0.74399996 0 -0.84000003 0.888 -0.84000003 1.5 c 0 0.8879998 0.21599996 1.2120001 0.68400013 1.2120001 c 0.5639999 0 0.8039999 -0.4680004 0.8039999 -1.4160001 Z "/>
        </symbol>
        <symbol id="12" overflow="visible">
            <path d="M 0 0m 1.368 6.276 v -4.8120003 c 0 -0.996 -0.33599997 -1.0439999 -0.99600005 -1.0799999 c -0.120000005 -0.072 -0.120000005 -0.336 0 -0.408 c 0.48 0.012 1.368 0.024 1.848 0.024 c 0.48000002 0 1.3440001 -0.012 1.8240001 -0.024 c 0.119999886 0.072 0.119999886 0.336 0 0.408 c -0.6600001 0.036000013 -0.99600005 0.08399999 -0.99600005 1.0799999 v 4.8120003 c 0 0.9959998 0.33599997 1.0440001 0.99600005 1.0799999 c 0.119999886 0.07200003 0.119999886 0.33599997 0 0.408 c -0.48000002 -0.012000084 -1.3440001 -0.023999691 -1.8240001 -0.023999691 c -0.48000002 0 -1.368 0.011999607 -1.848 0.023999691 c -0.120000005 -0.07200003 -0.120000005 -0.33599997 0 -0.408 c 0.6600001 -0.035999775 0.99600005 -0.08400011 0.99600005 -1.0799999 Z "/>
        </symbol>
        <symbol id="13" overflow="visible">
            <path d="M 0 0m 4.764 -0.120000005 c 1.164 0 2.2320004 0.55200005 3.0480003 1.62 c -0.06000042 0.10800004 -0.26400042 0.25199997 -0.3960004 0.25199997 c -0.85199976 -0.936 -1.8239999 -1.2479999 -2.664 -1.2479999 c -1.3919997 0 -2.4959998 1.632 -2.4959998 3.504 c 0 1.8600001 0.96000004 3.3960004 2.388 3.3960004 c 1.6560001 0 2.196 -0.93600035 2.508 -1.9680004 c 0.14400005 -0.04799986 0.3840003 -0.011999607 0.5160003 0.059999943 c -0.059999943 0.6240001 -0.15600014 1.2000003 -0.26399994 1.8600001 c -0.612 0.059999943 -1.1520004 0.53999996 -2.6280003 0.53999996 c -2.352 0 -4.332 -1.4759998 -4.332 -4.116 c 0 -1.128 0.49199998 -2.448 1.452 -3.144 c 0.768 -0.552 1.7040001 -0.756 2.868 -0.756 Z "/>
        </symbol>
        <symbol id="14" overflow="visible">
            <path d="M 0 0m 2.736 1.464 v 2.412 c 0.48000002 0.32399988 0.96000004 0.5640001 1.1759999 0.5640001 c 0.48000026 0 0.8399999 -0.21600008 0.8399999 -0.9000001 v -2.004 c 0 -1.008 -0.19199991 -1.1159999 -0.684 -1.152 c -0.07199979 -0.072 -0.07199979 -0.336 0 -0.408 c 0.5040002 0.012 0.888 0.024 1.4640002 0.024 c 0.65999985 0 1.1880002 -0.012 1.704 -0.024 c 0.07200003 0.072 0.07200003 0.336 0 0.408 c -0.7319999 0.036000013 -0.9239998 0.144 -0.9239998 1.152 v 1.872 c 0 1.3200002 -0.5640001 1.9200001 -1.5960002 1.9200001 c -0.48000002 0 -1.332 -0.5279999 -1.9920001 -0.9840002 c -0.036000013 0.42000008 -0.08399987 0.7800002 -0.08399987 0.7800002 c -0.012000084 0.14400005 -0.10800004 0.204 -0.27600002 0.204 c -0.444 -0.119999886 -1.164 -0.2880001 -1.9920001 -0.3959999 c -0.024000019 -0.07200003 0 -0.31200027 0.023999989 -0.3840003 c 0.65999997 -0.059999943 0.78 -0.15599966 0.78 -0.8399999 v -2.244 c 0 -0.996 -0.13199997 -1.02 -0.86399996 -1.0799999 c -0.072 -0.072 -0.072 -0.336 0 -0.408 c 0.50399995 0.012 1.008 0.024 1.6439999 0.024 c 0.55200016 0 0.88800013 -0.012 1.4040002 -0.024 c 0.07199979 0.072 0.07199979 0.336 0 0.408 c -0.5040002 0.048000008 -0.6240001 0.08399999 -0.6240001 1.0799999 Z "/>
        </symbol>
        <symbol id="15" overflow="visible">
            <path d="M 0 0m 5.064 1.044 c 0 0.14399993 -0.024000168 0.37199998 -0.15600014 0.37199998 c -0.48000002 -0.444 -0.888 -0.672 -1.2360001 -0.672 c -0.89999986 0 -1.6079998 0.64799994 -1.6079998 2.088 c 0 1.332 0.29999995 1.9919999 0.9359999 1.9919999 c 0.444 0 0.6240001 -0.46799994 0.6600001 -0.85199976 c 0.036000013 -0.32400012 0.3599999 -0.5640001 0.7439997 -0.5640001 c 0.3840003 0 0.6600003 0.29999995 0.6600003 0.67199993 c 0 0.53999996 -0.64800024 1.2480001 -1.9560001 1.2480001 c -1.416 0 -2.664 -1.1399999 -2.664 -2.9160001 c 0 -0.78 0.27600002 -1.464 0.74399996 -1.908 c 0.46800005 -0.444 1.02 -0.624 1.872 -0.624 c 0.72 0 1.5479999 0.504 2.0040002 1.164 Z "/>
        </symbol>
        <symbol id="16" overflow="visible">
            <path d="M 0 0m 0.756 5.208 c -0.16799998 0 -0.348 -0.048000336 -0.50399995 -0.1800003 v -0.34800005 c 0 -0.059999943 0.0119999945 -0.07200003 0.060000002 -0.07200003 h 0.78 c -0.024000049 -1.2119997 -0.036000013 -2.7479997 -0.036000013 -3.3479998 c 0 -0.41999996 0.10800004 -0.82799995 0.36 -1.044 c 0.27600002 -0.228 0.70800006 -0.33600003 0.99599993 -0.33600003 c 0.6600001 0 1.3920002 0.33600003 1.6320002 0.672 c 0 0.144 -0.07200003 0.21600002 -0.21600008 0.33600003 c -0.15600014 -0.120000005 -0.4560001 -0.16799998 -0.684 -0.16799998 c -0.26399994 0 -0.5280001 0.204 -0.5280001 0.804 c 0 0.6 -0.0119998455 1.884 -0.0119998455 3.0839996 h 1.2119999 c 0.120000124 0 0.2880001 0.048000336 0.2880001 0.15600014 v 0.37200022 c 0 0.04799986 -0.03600025 0.07200003 -0.096000195 0.07200003 h -1.4039998 l 0.0119998455 0.408 c 0.024000168 0.8039999 0.06000018 1.356 0.06000018 1.356 c 0 0.07200003 -0.036000013 0.1079998 -0.096000195 0.1079998 c -0.08399987 0 -0.5279999 -0.13199997 -0.7199999 -0.21600008 c -0.204 -0.083999634 -0.55200005 -0.15599966 -0.63600004 -0.26399994 c -0.08399999 -0.1079998 -0.13199997 -0.43199968 -0.13199997 -1.3919997 Z "/>
        </symbol>
        <symbol id="17" overflow="visible">
            <path d="M 0 0m 3.54 0.588 c 0.08400011 -0.49199998 0.408 -0.708 0.9359999 -0.708 c 0.6600003 0 1.1280003 0.252 1.572 0.672 c -0.023999691 0.144 -0.07200003 0.24000001 -0.2159996 0.33600003 c -0.15600014 -0.120000005 -0.27600002 -0.16799998 -0.5040002 -0.16799998 c -0.26399994 0 -0.33599997 0.21599996 -0.33599997 0.804 l 0.024000168 1.728 c 0 1.7279999 -1.0680003 2.076 -2.0520003 2.076 c -0.8759999 0 -2.22 -0.5040002 -2.22 -1.296 c 0 -0.33599997 0.144 -0.60000014 0.61200005 -0.60000014 c 0.43199992 0 0.74399984 0.26400018 0.74399984 0.55200005 c 0 0.06000018 -0.0119998455 0.13200021 -0.02399993 0.20400023 c -0.02399993 0.119999886 -0.04799986 0.23999977 -0.02399993 0.35999966 c 0.012000084 0.13199997 0.10800004 0.27600002 0.50399995 0.27600002 c 0.50399995 0 0.924 -0.21600008 0.924 -1.7399998 l -0.8039999 -0.2520001 c -1.2600001 -0.3959999 -2.1480002 -0.74399996 -2.1480002 -1.692 c 0 -0.82799995 0.45600003 -1.26 1.5000001 -1.26 c 0.3479998 0 1.0439999 0.384 1.4399998 0.696 Z m -0.059999943 2.0279999 v -1.5839999 c -0.29999995 -0.24000007 -0.5999999 -0.43200004 -0.816 -0.43200004 c -0.51600003 0 -0.696 0.348 -0.696 0.72 c 0 0.444 0.035999894 0.81599987 0.8879999 1.0919999 Z "/>
        </symbol>
        <symbol id="18" overflow="visible">
            <path d="M 0 0m 3.624 8.184 h -0.75600004 l -2.844 -8.436 h 0.75600004 Z "/>
        </symbol>
        <symbol id="19" overflow="visible">
            <path d="M 0 0m 4.188 0.504 h -0.72000027 c -0.25199986 0 -0.41999984 0.22799999 -0.41999984 0.948 v 4.824 c 0 0.9959998 0.33599997 1.0440001 0.99600005 1.0799999 c 0.119999886 0.07200003 0.119999886 0.33599997 0 0.408 c -0.9840002 -0.012000084 -1.3440001 -0.023999691 -1.8240001 -0.023999691 c -0.48000002 0 -1.848 0.023999691 -1.848 0.023999691 c -0.120000005 -0.07200003 -0.120000005 -0.33599997 0 -0.408 c 0.6600001 -0.035999775 0.99600005 -0.08400011 0.99600005 -1.0799999 v -4.8120003 c 0 -0.996 -0.33599997 -1.0439999 -0.99600005 -1.0799999 c -0.120000005 -0.072 -0.120000005 -0.336 0 -0.408 c 0 0 1.38 0.024 1.848 0.024 h 2.6759999 c 0.34800005 0 1.44 -0.024 1.44 -0.024 c 0.119999886 0.59999996 0.24000025 1.3800001 0.31200027 2.004 c -0.12000036 0.059999943 -0.37200022 0.08400011 -0.5160003 0.059999943 c -0.23999977 -0.86399996 -0.684 -1.536 -1.9439998 -1.536 Z "/>
        </symbol>
        <symbol id="1a" overflow="visible">
            <path d="M 0 0m 5.16 2.628 h -0.9959998 v 3.504 c 0 0.5999999 0 1.0680003 0.024000168 1.164 l -0.024000168 0.024000168 h -0.38400006 c -0.08399987 0 -0.14400005 -0.07200003 -0.19199991 -0.13199997 c -0.75600004 -0.92400026 -2.148 -2.9040003 -3.252 -4.62 c 0.036000013 -0.18000007 0.10800001 -0.50399995 0.46800002 -0.50399995 h 2.448 v -1.1040001 c 0 -0.55200005 -0.4560001 -0.55200005 -0.9720001 -0.58800006 c -0.07200003 -0.072 -0.07200003 -0.324 0 -0.396 c 0.38400006 0.012 0.8640001 0.024 1.4160001 0.024 c 0.46799994 0 0.9239998 -0.012 1.3080001 -0.024 c 0.07200003 0.072 0.07200003 0.324 0 0.396 c -0.5880003 0.048000008 -0.84000015 0.023999989 -0.84000015 0.58800006 v 1.1040001 h 0.82800007 c 0.16799974 0 0.34800005 0.22799993 0.34800005 0.37199998 c 0 0.119999886 -0.048000336 0.19199991 -0.1800003 0.19199991 Z m -1.9079998 3.456 v -3.456 h -2.292 c 0.612 0.98399997 1.464 2.3279998 2.292 3.456 Z "/>
        </symbol>
        <symbol id="1b" overflow="visible">
            <path d="M 0 0m 4.716 5.82 c 0 0.86399984 -0.67199993 1.5 -1.848 1.5 c -1.224 0 -2.016 -0.73200035 -2.016 -1.6560001 c 0 -0.67199993 0.324 -1.164 1.056 -1.6199999 l 0.31200004 -0.19200015 c -0.34800005 -0.18000007 -0.67200005 -0.3959999 -0.972 -0.6600001 c -0.49200004 -0.43199992 -0.69600004 -0.9719999 -0.69600004 -1.4399999 c 0 -1.224 0.864 -1.872 2.136 -1.872 c 1.5720003 0 2.34 1.1520001 2.34 2.0640001 c 0 0.6960001 -0.2999997 1.3080001 -0.9359999 1.6919999 l -0.852 0.51600003 c 0.5640001 0.27600002 1.4760001 0.9000001 1.4760001 1.6680002 Z m -2.004 -5.52 c -0.5400002 0 -1.3560001 0.37199998 -1.3560001 1.4519999 c 0 0.36 0.1559999 1.2000002 1.1879998 1.884 l 0.5640001 -0.33599997 c 0.74399996 -0.45599985 1.0439999 -1.02 1.0439999 -1.596 c 0 -1.2 -0.89999986 -1.404 -1.4399998 -1.404 Z m 0.095999956 6.6 c 0.78 0 1.0679998 -0.5160003 1.0679998 -1.0679998 c 0 -0.64800024 -0.6359999 -1.1880002 -0.9599998 -1.4280005 l -0.37200022 0.22800016 c -0.7559999 0.4920001 -0.8399999 0.888 -0.8399999 1.2600002 c 0 0.55200005 0.38400006 1.0079999 1.1040001 1.0079999 Z "/>
        </symbol>
        <symbol id="1c" overflow="visible">
            <path d="M 0 0m 7.572 0 c 0 0 -0.059999943 0.852 -0.059999943 1.224 v 4.92 c 0 1.0679998 0.204 1.1279998 1.0439997 1.2119999 c 0.0720005 0.07200003 0.0720005 0.33599997 0 0.408 c -0.5879998 -0.012000084 -0.7919998 -0.023999691 -1.2959995 -0.023999691 c -0.53999996 0 -0.7920003 0.011999607 -1.3920002 0.023999691 c -0.07200003 -0.07200003 -0.07200003 -0.33599997 0 -0.408 c 0.84000015 -0.08400011 1.0440001 -0.119999886 1.0440001 -1.2119999 v -3.372 c 0 -0.29999995 -0.15600014 -0.24000001 -0.32400036 -0.036000013 l -3.1799998 3.744 l -1.0680001 1.2600002 l -1.9559999 0.023999691 c -0.072 -0.07200003 -0.072 -0.33599997 0 -0.408 c 0.51600003 -0.035999775 0.876 -0.44399977 0.948 -0.75600004 v -5.0039997 c 0 -1.068 -0.204 -1.128 -1.044 -1.2119999 c -0.07199998 -0.072 -0.07199998 -0.336 0 -0.408 c 0.588 0.012 0.816 0.024 1.344 0.024 c 0.5280001 0 0.74399996 -0.012 1.3440001 -0.024 c 0.07200003 0.072 0.07200003 0.336 0 0.408 c -0.84000015 0.08399999 -1.044 0.120000005 -1.044 1.2119999 v 3.564 c 0 0.12000036 0.02399993 0.24000025 0.096000075 0.24000025 c 0.059999943 0 0.1559999 -0.08400011 0.28799987 -0.24000025 l 4.02 -4.776 c 0.24000025 -0.3 0.48000002 -0.528 0.48000002 -0.528 c 0.42000008 0 0.53999996 0.03599999 0.75600004 0.144 Z "/>
        </symbol>
        <symbol id="1d" overflow="visible">
            <path d="M 0 0m 7.956 1.392 c 0.059999943 -0.97199994 0.012000084 -0.97199994 -0.76799965 -1.0079999 c -0.07200003 -0.072 -0.07200003 -0.336 0 -0.408 c 0.56399965 0.012 1.6439996 0.024 2.0040002 0.024 c 0.35999966 0 0.9119997 -0.012 1.3079996 -0.024 c 0.0720005 0.072 0.0720005 0.336 0 0.408 c -0.816 0.036000013 -0.85200024 0.072 -0.9239998 1.0680001 l -0.3600006 5.052 c -0.047999382 0.64799976 0.012000084 0.8039999 0.82800007 0.85199976 c 0.0720005 0.07200003 0.0720005 0.33599997 0 0.408 l -2.4119997 -0.023999691 l -2.2799997 -5.328 h -0.06000042 l -2.1479998 5.328 l -2.46 0.023999691 c -0.07200003 -0.07200003 -0.07200003 -0.33599997 0 -0.408 c 0.82799995 -0.04799986 0.9 -0.059999943 0.816 -0.96000004 l -0.48000002 -4.944 c -0.07199997 -0.72 -0.21599996 -1.008 -0.9 -1.0680001 c -0.072000004 -0.072 -0.072000004 -0.336 0 -0.408 c 0.36 0.012 0.744 0.024 1.032 0.024 c 0.2880001 0 1.0080001 -0.012 1.368 -0.024 c 0.07200003 0.072 0.07200003 0.336 0 0.408 c -0.79199994 0.060000002 -0.852 0.42000002 -0.79199994 1.092 l 0.31199992 4.5 h 0.048000097 l 2.364 -5.916 c 0.035999775 -0.08400001 0.16799974 -0.156 0.23999977 -0.156 c 0.07200003 0 0.1800003 0.048 0.22800016 0.156 l 2.6999998 6.348 h 0.024000168 Z "/>
        </symbol>
        <symbol id="1e" overflow="visible">
            <path d="M 0 0m 3.924 3.072 c -0.32399988 -1.092 -1.092 -2.304 -2.688 -2.904 c 0 -0.144 0.047999978 -0.252 0.14399993 -0.31199998 c 1.212 0.36 1.956 0.864 2.6279998 1.644 c 0.74399996 0.8640001 1.1160002 1.9560001 1.1160002 2.9039998 c 0 2.4360003 -1.3800001 2.9160004 -2.3040001 2.9160004 c -1.5719999 0 -2.2199998 -1.5240002 -2.2199998 -2.5560002 c 0 -1.0319998 0.5519999 -1.9559999 2.184 -1.9559999 c 0.31200004 0 0.7800002 0.095999956 1.1400001 0.26399994 Z m 0.10800004 0.43199992 c -0.39600015 -0.26399994 -0.79200006 -0.27600002 -0.99600005 -0.27600002 c -1.176 0 -1.44 1.1520002 -1.44 1.7520001 c 0 1.3200002 0.50399995 1.9200001 1.092 1.9200001 c 0.75600004 0 1.4400003 -0.408 1.4400003 -2.46 c 0 -0.26399994 -0.024000168 -0.58800006 -0.096000195 -0.9360001 Z "/>
        </symbol>
        <symbol id="1f" overflow="visible">
            <path d="M 0 0m 5.052 7.572 c -0.65999985 0.096000195 -0.9120002 0.32399988 -2.028 0.32399988 c -0.53999996 0 -1.2479999 -0.16799974 -1.752 -0.57599974 c -0.44399995 -0.36000013 -0.78 -0.9120002 -0.78 -1.5 c 0 -0.45600033 0.119999975 -1.0320001 0.396 -1.3920002 c 0.55200005 -0.74399996 1.5480001 -1.152 2.0640001 -1.5119998 c 0.5519998 -0.38400006 1.092 -0.8640001 1.092 -1.5360001 c 0 -0.588 -0.51600003 -0.996 -1.2480001 -0.996 c -0.804 0 -1.632 0.66 -1.872 1.7519999 c -0.19200003 0.07200003 -0.384 0.024000168 -0.564 -0.02399993 c -0.012000024 0 -0.024000019 -0.012000084 -0.036000013 -0.012000084 c 0 -0.89999986 0.096000016 -1.5359999 0.22799999 -1.9799999 c 0.6840001 0 0.71999997 -0.24000001 2.376 -0.24000001 c 0.7320001 0 1.3200002 0.216 1.8120003 0.66 c 0.43199968 0.37199998 0.816 0.92399997 0.816 1.668 c 0 0.6240001 -0.26400042 1.0440001 -0.6240001 1.44 c -0.46799994 0.51600003 -1.1400001 0.88800025 -1.608 1.128 c -0.48000002 0.24000025 -1.3320001 0.86399984 -1.3320001 1.5479999 c 0 0.6720004 0.4080001 1.0800004 1.0200001 1.0800004 c 1.02 0 1.356 -0.92400026 1.572 -1.7160001 c 0.16799974 -0.048000336 0.46799994 -0.048000336 0.5999999 0.059999943 c 0 0.6359997 -0.04799986 1.1279998 -0.13199997 1.8239999 Z "/>
        </symbol>
        <symbol id="20" overflow="visible">
            <path d="M 0 0m 2.04 6.42 h 2.1480002 c -0.9360001 -2.328 -1.8840003 -4.668 -2.7000003 -6.492 l 0.095999956 -0.08400001 l 0.8160001 0.036 c 0.684 2.04 1.3439999 4.032 2.6879997 7.308 l -0.19199991 0.14400005 c -0.204 -0.06000042 -0.46799994 -0.13199997 -0.9239998 -0.13199997 h -2.4720001 c -0.408 0 -0.38399994 0.119999886 -0.59999996 0.16799974 c -0.036000013 0 -0.048000038 0 -0.048000038 -0.035999775 c -0.011999965 -0.5760002 -0.144 -1.296 -0.24000001 -1.9200001 c 0.13200003 -0.03600025 0.25200003 -0.048000336 0.384 -0.03600025 c 0.264 0.96000004 0.66 1.0440001 1.0439999 1.0440001 Z "/>
        </symbol>
    </defs>
</svg>
