<svg viewBox="0 0 322.14 129.5368" width="322.14pt" height="129.5368pt" xmlns="http://www.w3.org/2000/svg" xmlns:xlink="http://www.w3.org/1999/xlink" xmlns:h5="http://www.w3.org/1999/xhtml"><path fill="#ffffff" fill-rule="nonzero" d="M 0 0v 129.5368h 322.14v -129.5368Z "/><path fill="none" stroke="#000000" stroke-width="0.75" stroke-linecap="butt" stroke-linejoin="miter" stroke-miterlimit="4" transform="translate(111.685 20.74)" d="M 0 0h 80.678"/><path fill="none" stroke="#000000" stroke-width="0.75" stroke-linecap="butt" stroke-linejoin="miter" stroke-miterlimit="4" transform="translate(194.613 20.74)" d="M 0 0h 124.902"/><path fill="none" stroke="#000000" stroke-width="1" stroke-linecap="butt" stroke-linejoin="miter" stroke-miterlimit="4" transform="translate(2.5 3)" d="M 0 0h 317.14"/><path fill="none" stroke="#000000" stroke-width="1" stroke-linecap="butt" stroke-linejoin="miter" stroke-miterlimit="4" transform="translate(2.5 110.22)" d="M 0 0h 317.14"/><g transform="matrix(1 0 0 -1 123.566 15.74)"><use xlink:href="#0" x="0" y="0" fill="#000000" fill-rule="nonzero"/><use xlink:href="#1" x="8.808" y="0" fill="#000000" fill-rule="nonzero"/><use xlink:href="#2" x="14.76" y="0" fill="#000000" fill-rule="nonzero"/><use xlink:href="#3" x="20.232" y="0" fill="#000000" fill-rule="nonzero"/><use xlink:href="#4" x="24.096" y="0" fill="#000000" fill-rule="nonzero"/><use xlink:href="#5" x="30.828" y="0" fill="#000000" fill-rule="nonzero"/><use xlink:href="#6" x="38.004" y="0" fill="#000000" fill-rule="nonzero"/><use xlink:href="#5" x="44.616" y="0" fill="#000000" fill-rule="nonzero"/><use xlink:href="#7" x="51.792" y="0" fill="#000000" fill-rule="nonzero"/></g><g transform="matrix(1 0 0 -1 229.53 15.74)"><use xlink:href="#8" x="0" y="0" fill="#000000" fill-rule="nonzero"/><use xlink:href="#9" x="7.308" y="0" fill="#000000" fill-rule="nonzero"/><use xlink:href="#1" x="13.56" y="0" fill="#000000" fill-rule="nonzero"/><use xlink:href="#a" x="19.428" y="0" fill="#000000" fill-rule="nonzero"/><use xlink:href="#b" x="24.564" y="0" fill="#000000" fill-rule="nonzero"/><use xlink:href="#a" x="30.816" y="0" fill="#000000" fill-rule="nonzero"/><use xlink:href="#1" x="35.856" y="0" fill="#000000" fill-rule="nonzero"/><use xlink:href="#1" x="41.808" y="0" fill="#000000" fill-rule="nonzero"/><use xlink:href="#c" x="47.676" y="0" fill="#000000" fill-rule="nonzero"/></g><g transform="matrix(1 0 0 -1 117.06 33.636)"><use xlink:href="#d" x="0" y="0" fill="#000000" fill-rule="nonzero"/><use xlink:href="#e" x="7.056" y="0" fill="#000000" fill-rule="nonzero"/><use xlink:href="#e" x="12.504" y="0" fill="#000000" fill-rule="nonzero"/><use xlink:href="#f" x="17.952" y="0" fill="#000000" fill-rule="nonzero"/><use xlink:href="#10" x="23.088" y="0" fill="#000000" fill-rule="nonzero"/></g><g transform="matrix(1 0 0 -1 163.27 33.636)"><use xlink:href="#11" x="0" y="0" fill="#000000" fill-rule="nonzero"/><use xlink:href="#12" x="8.424" y="0" fill="#000000" fill-rule="nonzero"/><use xlink:href="#13" x="13.908" y="0" fill="#000000" fill-rule="nonzero"/></g><g transform="matrix(1 0 0 -1 206.912 33.636)"><use xlink:href="#14" x="0" y="0" fill="#000000" fill-rule="nonzero"/><use xlink:href="#15" x="5.82" y="0" fill="#000000" fill-rule="nonzero"/><use xlink:href="#16" x="9.072" y="0" fill="#000000" fill-rule="nonzero"/></g><g transform="matrix(1 0 0 -1 240.372 33.636)"><use xlink:href="#17" x="0" y="0" fill="#000000" fill-rule="nonzero"/><use xlink:href="#18" x="5.82" y="0" fill="#000000" fill-rule="nonzero"/><use xlink:href="#16" x="12.048" y="0" fill="#000000" fill-rule="nonzero"/><use xlink:href="#19" x="16.512" y="0" fill="#000000" fill-rule="nonzero"/><use xlink:href="#f" x="22.884" y="0" fill="#000000" fill-rule="nonzero"/><use xlink:href="#e" x="28.02" y="0" fill="#000000" fill-rule="nonzero"/></g><g transform="matrix(1 0 0 -1 289.642 33.636)"><use xlink:href="#1a" x="0" y="0" fill="#000000" fill-rule="nonzero"/><use xlink:href="#15" x="6.492" y="0" fill="#000000" fill-rule="nonzero"/><use xlink:href="#1b" x="9.744" y="0" fill="#000000" fill-rule="nonzero"/><use xlink:href="#e" x="16.248" y="0" fill="#000000" fill-rule="nonzero"/></g><g transform="matrix(1 0 0 -1 85.256 51.376)"><use xlink:href="#1c" x="0" y="0" fill="#000000" fill-rule="nonzero"/><use xlink:href="#1d" x="5.448" y="0" fill="#000000" fill-rule="nonzero"/><use xlink:href="#1e" x="8.76" y="0" fill="#000000" fill-rule="nonzero"/><use xlink:href="#1f" x="13.992" y="0" fill="#000000" fill-rule="nonzero"/></g><g transform="matrix(1 0 0 -1 121.512 51.532)"><use xlink:href="#20" x="0" y="0" fill="#000000" fill-rule="nonzero"/><use xlink:href="#21" x="5.58" y="0" fill="#000000" fill-rule="nonzero"/><use xlink:href="#22" x="11.16" y="0" fill="#000000" fill-rule="nonzero"/></g><g transform="matrix(1 0 0 -1 162.976 51.532)"><use xlink:href="#23" x="0" y="0" fill="#000000" fill-rule="nonzero"/><use xlink:href="#24" x="5.58" y="0" fill="#000000" fill-rule="nonzero"/><use xlink:href="#22" x="11.16" y="0" fill="#000000" fill-rule="nonzero"/></g><g transform="matrix(1 0 0 -1 203.36 51.532)"><use xlink:href="#20" x="0" y="0" fill="#000000" fill-rule="nonzero"/><use xlink:href="#25" x="5.58" y="0" fill="#000000" fill-rule="nonzero"/><use xlink:href="#22" x="11.16" y="0" fill="#000000" fill-rule="nonzero"/></g><g transform="matrix(1 0 0 -1 246.744 51.532)"><use xlink:href="#26" x="0" y="0" fill="#000000" fill-rule="nonzero"/><use xlink:href="#27" x="5.58" y="0" fill="#000000" fill-rule="nonzero"/><use xlink:href="#22" x="11.16" y="0" fill="#000000" fill-rule="nonzero"/></g><g transform="matrix(1 0 0 -1 290.128 51.532)"><use xlink:href="#26" x="0" y="0" fill="#000000" fill-rule="nonzero"/><use xlink:href="#28" x="5.58" y="0" fill="#000000" fill-rule="nonzero"/><use xlink:href="#22" x="11.16" y="0" fill="#000000" fill-rule="nonzero"/></g><g transform="matrix(1 0 0 -1 8 69.272)"><use xlink:href="#29" x="0" y="0" fill="#000000" fill-rule="nonzero"/><use xlink:href="#2a" x="10.188" y="0" fill="#000000" fill-rule="nonzero"/><use xlink:href="#2b" x="16.02" y="0" fill="#000000" fill-rule="nonzero"/><use xlink:href="#1f" x="19.704" y="0" fill="#000000" fill-rule="nonzero"/><use xlink:href="#2c" x="24.516" y="0" fill="#000000" fill-rule="nonzero"/><use xlink:href="#2d" x="31.8" y="0" fill="#000000" fill-rule="nonzero"/><use xlink:href="#2e" x="36.468" y="0" fill="#000000" fill-rule="nonzero"/><use xlink:href="#2f" x="41.832" y="0" fill="#000000" fill-rule="nonzero"/><use xlink:href="#30" x="48.048" y="0" fill="#000000" fill-rule="nonzero"/><use xlink:href="#31" x="52.284" y="0" fill="#000000" fill-rule="nonzero"/><use xlink:href="#32" x="58.536" y="0" fill="#000000" fill-rule="nonzero"/><use xlink:href="#33" x="67.932" y="0" fill="#000000" fill-rule="nonzero"/><use xlink:href="#2b" x="73.8" y="0" fill="#000000" fill-rule="nonzero"/><use xlink:href="#1d" x="77.484" y="0" fill="#000000" fill-rule="nonzero"/><use xlink:href="#2e" x="80.796" y="0" fill="#000000" fill-rule="nonzero"/><use xlink:href="#2f" x="86.16" y="0" fill="#000000" fill-rule="nonzero"/></g><g transform="matrix(1 0 0 -1 100.376 69.272)"><use xlink:href="#34" x="0" y="0" fill="#000000" fill-rule="nonzero"/></g><g transform="matrix(1 0 0 -1 123.18 69.428)"><use xlink:href="#35" x="0" y="0" fill="#000000" fill-rule="nonzero"/><use xlink:href="#24" x="5.58" y="0" fill="#000000" fill-rule="nonzero"/><use xlink:href="#13" x="11.16" y="0" fill="#000000" fill-rule="nonzero"/></g><g transform="matrix(1 0 0 -1 164.644 69.428)"><use xlink:href="#35" x="0" y="0" fill="#000000" fill-rule="nonzero"/><use xlink:href="#26" x="5.58" y="0" fill="#000000" fill-rule="nonzero"/><use xlink:href="#13" x="11.16" y="0" fill="#000000" fill-rule="nonzero"/></g><g transform="matrix(1 0 0 -1 205.028 69.428)"><use xlink:href="#35" x="0" y="0" fill="#000000" fill-rule="nonzero"/><use xlink:href="#25" x="5.58" y="0" fill="#000000" fill-rule="nonzero"/><use xlink:href="#13" x="11.16" y="0" fill="#000000" fill-rule="nonzero"/></g><g transform="matrix(1 0 0 -1 251.202 69.428)"><use xlink:href="#28" x="0" y="0" fill="#000000" fill-rule="nonzero"/><use xlink:href="#13" x="5.58" y="0" fill="#000000" fill-rule="nonzero"/></g><g transform="matrix(1 0 0 -1 294.586 69.428)"><use xlink:href="#27" x="0" y="0" fill="#000000" fill-rule="nonzero"/><use xlink:href="#13" x="5.58" y="0" fill="#000000" fill-rule="nonzero"/></g><g transform="matrix(1 0 0 -1 85.664 87.168)"><use xlink:href="#36" x="0" y="0" fill="#000000" fill-rule="nonzero"/><use xlink:href="#37" x="7.86" y="0" fill="#000000" fill-rule="nonzero"/><use xlink:href="#1f" x="13.584" y="0" fill="#000000" fill-rule="nonzero"/></g><g transform="matrix(1 0 0 -1 118.14 87.324)"><use xlink:href="#21" x="0" y="0" fill="#000000" fill-rule="nonzero"/><use xlink:href="#24" x="5.58" y="0" fill="#000000" fill-rule="nonzero"/><use xlink:href="#24" x="11.16" y="0" fill="#000000" fill-rule="nonzero"/><use xlink:href="#38" x="16.74" y="0" fill="#000000" fill-rule="nonzero"/><use xlink:href="#16" x="22.92" y="0" fill="#000000" fill-rule="nonzero"/></g><g transform="matrix(1 0 0 -1 159.604 87.324)"><use xlink:href="#25" x="0" y="0" fill="#000000" fill-rule="nonzero"/><use xlink:href="#24" x="5.58" y="0" fill="#000000" fill-rule="nonzero"/><use xlink:href="#24" x="11.16" y="0" fill="#000000" fill-rule="nonzero"/><use xlink:href="#38" x="16.74" y="0" fill="#000000" fill-rule="nonzero"/><use xlink:href="#16" x="22.92" y="0" fill="#000000" fill-rule="nonzero"/></g><g transform="matrix(1 0 0 -1 199.988 87.324)"><use xlink:href="#39" x="0" y="0" fill="#000000" fill-rule="nonzero"/><use xlink:href="#24" x="5.58" y="0" fill="#000000" fill-rule="nonzero"/><use xlink:href="#24" x="11.16" y="0" fill="#000000" fill-rule="nonzero"/><use xlink:href="#38" x="16.74" y="0" fill="#000000" fill-rule="nonzero"/><use xlink:href="#16" x="22.92" y="0" fill="#000000" fill-rule="nonzero"/></g><g transform="matrix(1 0 0 -1 243.372 87.324)"><use xlink:href="#27" x="0" y="0" fill="#000000" fill-rule="nonzero"/><use xlink:href="#24" x="5.58" y="0" fill="#000000" fill-rule="nonzero"/><use xlink:href="#24" x="11.16" y="0" fill="#000000" fill-rule="nonzero"/><use xlink:href="#38" x="16.74" y="0" fill="#000000" fill-rule="nonzero"/><use xlink:href="#16" x="22.92" y="0" fill="#000000" fill-rule="nonzero"/></g><g transform="matrix(1 0 0 -1 286.756 87.324)"><use xlink:href="#23" x="0" y="0" fill="#000000" fill-rule="nonzero"/><use xlink:href="#24" x="5.58" y="0" fill="#000000" fill-rule="nonzero"/><use xlink:href="#24" x="11.16" y="0" fill="#000000" fill-rule="nonzero"/><use xlink:href="#38" x="16.74" y="0" fill="#000000" fill-rule="nonzero"/><use xlink:href="#16" x="22.92" y="0" fill="#000000" fill-rule="nonzero"/></g><g transform="matrix(1 0 0 -1 77.528 105.064)"><use xlink:href="#3a" x="0" y="0" fill="#000000" fill-rule="nonzero"/><use xlink:href="#2a" x="6.444" y="0" fill="#000000" fill-rule="nonzero"/><use xlink:href="#3b" x="12.276" y="0" fill="#000000" fill-rule="nonzero"/><use xlink:href="#31" x="15.468" y="0" fill="#000000" fill-rule="nonzero"/><use xlink:href="#1f" x="21.72" y="0" fill="#000000" fill-rule="nonzero"/></g><g transform="matrix(1 0 0 -1 123.462 105.22)"><use xlink:href="#25" x="0" y="0" fill="#000000" fill-rule="nonzero"/><use xlink:href="#24" x="5.58" y="0" fill="#000000" fill-rule="nonzero"/><use xlink:href="#3c" x="11.16" y="0" fill="#000000" fill-rule="nonzero"/></g><g transform="matrix(1 0 0 -1 162.136 105.22)"><use xlink:href="#35" x="0" y="0" fill="#000000" fill-rule="nonzero"/><use xlink:href="#21" x="5.58" y="0" fill="#000000" fill-rule="nonzero"/><use xlink:href="#24" x="11.16" y="0" fill="#000000" fill-rule="nonzero"/><use xlink:href="#3c" x="16.74" y="0" fill="#000000" fill-rule="nonzero"/></g><g transform="matrix(1 0 0 -1 205.31 105.22)"><use xlink:href="#23" x="0" y="0" fill="#000000" fill-rule="nonzero"/><use xlink:href="#24" x="5.58" y="0" fill="#000000" fill-rule="nonzero"/><use xlink:href="#3c" x="11.16" y="0" fill="#000000" fill-rule="nonzero"/></g><g transform="matrix(1 0 0 -1 248.694 105.22)"><use xlink:href="#27" x="0" y="0" fill="#000000" fill-rule="nonzero"/><use xlink:href="#24" x="5.58" y="0" fill="#000000" fill-rule="nonzero"/><use xlink:href="#3c" x="11.16" y="0" fill="#000000" fill-rule="nonzero"/></g><g transform="matrix(1 0 0 -1 292.078 105.22)"><use xlink:href="#21" x="0" y="0" fill="#000000" fill-rule="nonzero"/><use xlink:href="#24" x="5.58" y="0" fill="#000000" fill-rule="nonzero"/><use xlink:href="#3c" x="11.16" y="0" fill="#000000" fill-rule="nonzero"/></g><g transform="matrix(1 0 0 -1 8 121.5368)"><use xlink:href="#3d" x="0" y="0" fill="#000000" fill-rule="nonzero"/></g><g transform="matrix(1 0 0 -1 10.9472 121.5368)"><use xlink:href="#3e" x="0" y="0" fill="#000000" fill-rule="nonzero"/><use xlink:href="#3f" x="5.0688" y="0" fill="#000000" fill-rule="nonzero"/><use xlink:href="#40" x="7.6704" y="0" fill="#000000" fill-rule="nonzero"/><use xlink:href="#41" x="10.704" y="0" fill="#000000" fill-rule="nonzero"/><use xlink:href="#42" x="14.9952" y="0" fill="#000000" fill-rule="nonzero"/><use xlink:href="#43" x="18.5664" y="0" fill="#000000" fill-rule="nonzero"/><use xlink:href="#44" x="24.7104" y="0" fill="#000000" fill-rule="nonzero"/><use xlink:href="#41" x="29.76" y="0" fill="#000000" fill-rule="nonzero"/><use xlink:href="#42" x="34.0512" y="0" fill="#000000" fill-rule="nonzero"/><use xlink:href="#45" x="40.0224" y="0" fill="#000000" fill-rule="nonzero"/><use xlink:href="#41" x="44.8896" y="0" fill="#000000" fill-rule="nonzero"/><use xlink:href="#46" x="49.1808" y="0" fill="#000000" fill-rule="nonzero"/><use xlink:href="#42" x="53.568" y="0" fill="#000000" fill-rule="nonzero"/></g><defs><symbol id="0" overflow="visible"><path d="M 0 0m 2.22 0c 0.48 0 1.464 -0.024 1.944 -0.024c 1.056 0 2.244 0.264 3.096 1.008c 0.576 0.504 0.972 1.5 0.972 2.724c 0 2.22 -1.44 4.044 -4.392 4.044c -0.636 0 -1.14 -0.012 -1.62 -0.012c -0.48 0 -1.848 0.024 -1.848 0.024c -0.12 -0.072 -0.12 -0.336 0 -0.408c 0.66 -0.036 0.996 -0.084 0.996 -1.08v -4.812c 0 -0.996 -0.336 -1.044 -0.996 -1.08c -0.12 -0.072 -0.12 -0.336 0 -0.408c 0 0 1.368 0.024 1.848 0.024Z m 0.828 1.428v 4.92c 0 0.66 0.312 0.9 0.744 0.9c 2.364 0 2.628 -2.028 2.628 -3.84c 0 -2.184 -1.308 -2.928 -2.22 -2.928c -0.84 0 -1.152 0.144 -1.152 0.948Z "/></symbol><symbol id="1" overflow="visible"><path d="M 0 0m 5.172 1.548c -0.492 -0.504 -1.14 -0.636 -1.596 -0.636c -0.936 0 -1.512 0.54 -1.512 1.716c 0 0.084 0.012 0.132 0.012 0.192h 2.88c 0.288 0 0.348 0.204 0.348 0.372c 0 1.02 -0.396 2.136 -2.16 2.136c -1.26 0 -2.7 -1.116 -2.7 -2.952c 0 -0.696 0.252 -1.428 0.768 -1.896c 0.456 -0.408 1.044 -0.6 1.896 -0.6c 0.828 0 1.644 0.42 2.244 1.296c 0 0.156 -0.06 0.372 -0.18 0.372Z m -3.048 1.752c 0.012 0.42 0.072 0.876 0.24 1.116c 0.192 0.288 0.516 0.408 0.648 0.408c 0.324 0 0.768 -0.312 0.768 -1.272c 0 -0.072 0 -0.228 -0.024 -0.252Z "/></symbol><symbol id="2" overflow="visible"><path d="M 0 0m 5.064 1.044c 0 0.144 -0.024 0.372 -0.156 0.372c -0.48 -0.444 -0.888 -0.672 -1.236 -0.672c -0.9 0 -1.608 0.648 -1.608 2.088c 0 1.332 0.3 1.992 0.936 1.992c 0.444 0 0.624 -0.468 0.66 -0.852c 0.036 -0.324 0.36 -0.564 0.744 -0.564c 0.384 0 0.66 0.3 0.66 0.672c 0 0.54 -0.648 1.248 -1.956 1.248c -1.416 0 -2.664 -1.14 -2.664 -2.916c 0 -0.78 0.276 -1.464 0.744 -1.908c 0.468 -0.444 1.02 -0.624 1.872 -0.624c 0.72 0 1.548 0.504 2.004 1.164Z "/></symbol><symbol id="3" overflow="visible"><path d="M 0 0m 2.784 1.464v 2.388c 0 0.6 0.048 1.272 0.048 1.272c 0 0.132 -0.108 0.204 -0.276 0.204c -0.336 -0.132 -1.308 -0.228 -2.136 -0.336c -0.024 -0.072 0 -0.312 0.024 -0.384c 0.66 -0.06 0.78 -0.156 0.78 -0.84v -2.304c 0 -0.996 -0.132 -1.02 -0.864 -1.08c -0.072 -0.072 -0.072 -0.336 0 -0.408c 0.504 0.012 1.008 0.024 1.644 0.024c 0.636 0 1.128 -0.012 1.644 -0.024c 0.072 0.072 0.072 0.336 0 0.408c -0.732 0.048 -0.864 0.084 -0.864 1.08Z m -1.62 5.688c 0 -0.396 0.288 -0.792 0.768 -0.792c 0.54 0 0.852 0.432 0.852 0.744c 0 0.36 -0.276 0.792 -0.78 0.792c -0.564 0 -0.84 -0.384 -0.84 -0.744Z "/></symbol><symbol id="4" overflow="visible"><path d="M 0 0m 4.26 0.576c 0.024 -0.288 0.048 -0.492 0.048 -0.492c 0.012 -0.144 0.108 -0.204 0.276 -0.204c 0.444 0.12 1.164 0.288 1.992 0.396c 0.024 0.072 0 0.312 -0.024 0.384c -0.648 0.06 -0.78 0.252 -0.78 0.936v 5.4c 0 0.78 0.036 1.224 0.036 1.224c 0 0.108 -0.084 0.156 -0.192 0.156c -0.444 -0.144 -1.404 -0.276 -2.256 -0.312c -0.036 -0.144 -0.024 -0.3 0.036 -0.408c 0.756 -0.06 0.816 -0.072 0.816 -0.9v -1.56c -0.228 0.072 -0.516 0.132 -0.864 0.132c -1.548 0 -2.904 -1.356 -2.904 -2.952c 0 -0.708 0.252 -1.536 0.84 -1.992c 0.432 -0.336 0.732 -0.504 1.404 -0.504c 0.324 0 1.212 0.528 1.464 0.696Z m -0.036 0.564c -0.252 -0.204 -0.888 -0.468 -1.032 -0.468c -0.6 0 -1.068 0.672 -1.068 2.076c 0 0.636 0.072 1.188 0.3 1.56c 0.204 0.324 0.528 0.516 0.888 0.516c 0.312 0 0.612 -0.036 0.9 -0.432v -2.952c 0 -0.096 0 -0.204 0.012 -0.3Z "/></symbol><symbol id="5" overflow="visible"><path d="M 0 0m 6.12 1.596v 2.076c 0 1.008 0.024 0.864 0.024 1.152c 0 0.204 -0.048 0.336 -0.12 0.408c -0.216 -0.012 -0.456 -0.024 -0.684 -0.024c -0.336 0 -1.116 0.012 -1.584 0.024c -0.072 -0.072 -0.072 -0.336 0 -0.408c 0.612 -0.06 0.804 -0.144 0.804 -1.152v -2.22c 0 -0.12 0 -0.24 0.012 -0.36c -0.492 -0.3 -0.888 -0.324 -1.104 -0.324c -0.48 0 -0.84 0.06 -0.84 0.9v 2.004c 0 1.008 0.024 0.864 0.024 1.152c 0 0.204 -0.048 0.336 -0.12 0.408c -0.216 -0.012 -0.468 -0.024 -0.684 -0.024c -0.612 0 -1.068 0.012 -1.584 0.024c -0.072 -0.072 -0.072 -0.336 0 -0.408c 0.552 -0.024 0.804 -0.144 0.804 -1.152v -1.872c 0 -1.272 0.504 -1.92 1.536 -1.92c 0.432 0 1.308 0.348 2.004 0.732c 0.024 -0.3 0.048 -0.528 0.048 -0.528c 0.012 -0.144 0.108 -0.204 0.276 -0.204c 0.444 0.12 1.164 0.288 1.992 0.396c 0.024 0.072 0 0.312 -0.024 0.384c -0.648 0.06 -0.78 0.252 -0.78 0.936Z "/></symbol><symbol id="6" overflow="visible"><path d="M 0 0m 0.444 2.484c 0 -1.572 1.248 -2.604 2.856 -2.604c 0.852 0 1.56 0.24 2.052 0.684c 0.612 0.54 0.816 1.356 0.816 2.028c 0 1.572 -1.068 2.736 -2.856 2.736c -0.996 0 -1.74 -0.348 -2.208 -0.888c -0.456 -0.528 -0.66 -1.248 -0.66 -1.956Z m 2.676 2.34c 0.816 0 1.368 -0.972 1.368 -2.616c 0 -1.44 -0.564 -1.824 -0.996 -1.824c -0.984 0 -1.368 1.476 -1.368 2.364c 0 1.104 0.192 2.076 0.996 2.076Z "/></symbol><symbol id="7" overflow="visible"><path d="M 0 0m 0.576 1.752c 0.048 -0.588 0.108 -1.152 0.204 -1.608c 0.228 -0.072 0.996 -0.264 1.668 -0.264c 0.924 0 2.076 0.504 2.076 1.548c 0 0.408 -0.096 0.732 -0.372 1.032c -0.336 0.384 -0.84 0.684 -1.392 0.924c -0.48 0.204 -0.648 0.588 -0.648 0.936c 0 0.276 0.228 0.504 0.576 0.504c 0.42 0 0.828 -0.384 1.128 -1.116c 0.216 -0.036 0.348 -0.024 0.468 0.06c 0 0.432 -0.048 0.888 -0.156 1.272c -0.384 0.168 -0.684 0.288 -1.344 0.288c -0.636 0 -1.236 -0.24 -1.62 -0.624c -0.276 -0.276 -0.408 -0.612 -0.408 -0.936c 0 -0.36 0.144 -0.648 0.372 -0.9c 0.372 -0.408 1.032 -0.828 1.392 -0.996c 0.48 -0.216 0.612 -0.648 0.612 -0.936c 0 -0.384 -0.384 -0.588 -0.708 -0.588c -0.54 0 -1.116 0.552 -1.368 1.428c -0.192 0.036 -0.288 0.024 -0.48 -0.024Z "/></symbol><symbol id="8" overflow="visible"><path d="M 0 0m 3.876 4.38h -0.972v 2.268c 0 0.288 0.204 0.588 0.492 0.588h 1.02c 0.9 0 1.152 -0.456 1.416 -1.284c 0.144 -0.024 0.396 0 0.516 0.06c -0.06 0.492 -0.12 1.644 -0.144 1.74c 0 0.024 -0.012 0.036 -0.048 0.036c -0.204 -0.036 -0.3 -0.048 -0.588 -0.048h -3.54c 0 0 -1.248 0.012 -1.848 0.024c -0.072 -0.072 -0.072 -0.336 0 -0.408c 0.84 -0.036 1.044 -0.096 1.044 -1.092v -4.8c 0 -0.996 -0.204 -1.044 -1.044 -1.08c -0.072 -0.072 -0.072 -0.336 0 -0.408c 0.588 0.012 1.86 0.024 1.86 0.024h 2.82c 0.576 0 1.656 -0.024 1.656 -0.024c 0.168 0.6 0.228 1.392 0.324 2.004c -0.12 0.072 -0.384 0.096 -0.54 0.06c -0.24 -0.864 -0.78 -1.536 -1.692 -1.536h -1.212c -0.264 0 -0.492 0.252 -0.492 0.576v 2.748h 0.972c 0.828 0 1.056 -0.228 1.092 -0.768c 0.072 -0.072 0.444 -0.072 0.516 0c -0.012 0.42 -0.024 0.648 -0.024 1.056c 0 0.408 0.012 0.672 0.024 1.032c -0.072 0.072 -0.444 0.072 -0.516 0c -0.036 -0.66 -0.288 -0.768 -1.092 -0.768Z "/></symbol><symbol id="9" overflow="visible"><path d="M 0 0m 4.104 4.824c 0.648 -0.048 0.732 -0.24 0.468 -0.852l -0.948 -2.196c -0.048 -0.108 -0.096 -0.024 -0.132 0.06l -0.756 2.136c -0.024 0.06 -0.048 0.12 -0.06 0.168c -0.168 0.456 -0.24 0.624 0.432 0.684c 0.072 0.072 0.072 0.336 0 0.408c -0.444 -0.012 -0.924 -0.024 -1.512 -0.024c -0.42 0 -1.032 0.012 -1.476 0.024c -0.072 -0.072 -0.072 -0.336 0 -0.408c 0.696 -0.084 0.72 -0.324 0.96 -0.924l 1.572 -3.792c 0.072 -0.18 0.276 -0.252 0.432 -0.252c 0.12 0 0.36 0.024 0.468 0.276l 1.644 3.756c 0.24 0.54 0.396 0.876 1.032 0.936c 0.072 0.072 0.072 0.336 0 0.408c -0.264 -0.012 -0.648 -0.024 -0.912 -0.024c -0.444 0 -0.888 0.012 -1.212 0.024c -0.072 -0.072 -0.072 -0.336 0 -0.408Z "/></symbol><symbol id="a" overflow="visible"><path d="M 0 0m 2.736 3.216c 0 0.432 0.132 0.612 0.288 0.792c 0.096 0.12 0.204 0.204 0.384 0.204c 0.108 0 0.24 -0.108 0.336 -0.228c 0.084 -0.096 0.288 -0.192 0.564 -0.192c 0.348 0 0.684 0.36 0.684 0.864c 0 0.312 -0.36 0.672 -0.792 0.672c -0.42 0 -0.876 -0.36 -1.428 -1.152h -0.048c -0.024 0.36 -0.084 0.948 -0.084 0.948c -0.012 0.108 -0.108 0.204 -0.276 0.204c -0.564 -0.144 -1.2 -0.312 -1.992 -0.396c -0.024 -0.072 0 -0.3 0.024 -0.372c 0.66 -0.06 0.78 -0.168 0.78 -0.852v -2.244c 0 -0.996 -0.132 -1.02 -0.864 -1.08c -0.072 -0.072 -0.072 -0.336 0 -0.408c 0.504 0.012 1.008 0.024 1.644 0.024c 0.636 0 1.128 -0.012 1.644 -0.024c 0.072 0.072 0.072 0.336 0 0.408c -0.732 0.048 -0.864 0.084 -0.864 1.08Z "/></symbol><symbol id="b" overflow="visible"><path d="M 0 0m 5.604 4.728c 0.336 0 0.528 0.144 0.528 0.588c 0 0.228 -0.312 0.576 -0.768 0.576c -0.528 0 -1.224 -0.396 -1.572 -0.708c -0.216 0.12 -0.468 0.144 -1.008 0.144c -0.516 0 -1.02 -0.12 -1.416 -0.384c -0.492 -0.312 -0.816 -0.78 -0.816 -1.392c 0 -0.588 0.348 -1.224 0.924 -1.536c -0.372 -0.324 -0.948 -0.96 -0.948 -1.2c 0 -0.228 0.036 -0.372 0.156 -0.552c 0.108 -0.168 0.252 -0.264 0.492 -0.336c -0.516 -0.312 -1.044 -0.996 -1.044 -1.2c 0 -0.444 0.144 -0.96 0.468 -1.188c 0.468 -0.324 1.26 -0.396 1.836 -0.396c 1.668 0 3.576 0.876 3.576 2.196c 0 0.252 -0.12 0.768 -0.6 1.092c -0.468 0.312 -2.268 0.396 -3.156 0.396c -0.216 0 -0.54 0.024 -0.54 0.504c 0 0.192 0.12 0.36 0.18 0.504c 0.252 -0.12 0.504 -0.132 0.876 -0.132c 0.612 0 1.176 0.156 1.584 0.516c 0.348 0.312 0.588 0.732 0.588 1.272c 0 0.672 -0.336 1.116 -0.744 1.452c 0.096 0.12 0.492 0.336 0.612 0.336c 0.108 0 0.192 -0.072 0.228 -0.144c 0.048 -0.156 0.264 -0.408 0.564 -0.408Z m -3.504 -5.028c 0.924 0 2.7 -0.036 2.7 -0.672c 0 -0.432 -0.192 -0.924 -0.588 -1.14c -0.372 -0.216 -0.984 -0.24 -1.44 -0.24c -0.792 0 -1.332 0.588 -1.332 1.2c 0 0.408 0 0.684 0.132 0.924c 0.12 -0.048 0.276 -0.072 0.528 -0.072Z m 1.38 3.756c 0 -1.152 -0.336 -1.296 -0.648 -1.296c -0.744 0 -0.84 0.888 -0.84 1.5c 0 0.888 0.216 1.212 0.684 1.212c 0.564 0 0.804 -0.468 0.804 -1.416Z "/></symbol><symbol id="c" overflow="visible"><path d="M 0 0m 2.736 1.464v 2.412c 0.48 0.324 0.96 0.564 1.176 0.564c 0.48 0 0.84 -0.216 0.84 -0.9v -2.004c 0 -1.008 -0.192 -1.116 -0.684 -1.152c -0.072 -0.072 -0.072 -0.336 0 -0.408c 0.504 0.012 0.888 0.024 1.464 0.024c 0.66 0 1.188 -0.012 1.704 -0.024c 0.072 0.072 0.072 0.336 0 0.408c -0.732 0.036 -0.924 0.144 -0.924 1.152v 1.872c 0 1.32 -0.564 1.92 -1.596 1.92c -0.48 0 -1.332 -0.528 -1.992 -0.984c -0.036 0.42 -0.084 0.78 -0.084 0.78c -0.012 0.144 -0.108 0.204 -0.276 0.204c -0.444 -0.12 -1.164 -0.288 -1.992 -0.396c -0.024 -0.072 0 -0.312 0.024 -0.384c 0.66 -0.06 0.78 -0.156 0.78 -0.84v -2.244c 0 -0.996 -0.132 -1.02 -0.864 -1.08c -0.072 -0.072 -0.072 -0.336 0 -0.408c 0.504 0.012 1.008 0.024 1.644 0.024c 0.552 0 0.888 -0.012 1.404 -0.024c 0.072 0.072 0.072 0.336 0 0.408c -0.504 0.048 -0.624 0.084 -0.624 1.08Z "/></symbol><symbol id="d" overflow="visible"><path d="M 0 0m 1.776 7.74c -0.432 0 -1.08 0.012 -1.548 0.024c -0.072 -0.072 -0.072 -0.324 0 -0.396c 0.84 -0.036 1.044 -0.096 1.044 -1.092v -4.812c 0 -0.996 -0.204 -1.056 -1.044 -1.092c -0.072 -0.072 -0.072 -0.324 0 -0.396c 0.468 0.012 1.116 0.024 1.56 0.024c 0.432 0 0.744 -0.024 1.752 -0.024c 2.388 0 3.024 1.2 3.024 2.232c 0 1.152 -0.804 1.812 -1.848 2.112v 0.024c 0.6 0.3 1.14 0.924 1.14 1.572c 0 0.804 -0.348 1.848 -2.58 1.848c -0.42 0 -1.068 -0.024 -1.5 -0.024Z m 0.516 -3.756h 0.828c 1.644 0 2.328 -0.924 2.328 -2.004c 0 -0.876 -0.336 -1.608 -2.16 -1.608c -0.84 0 -0.996 0.312 -0.996 1.044Z m 0 2.616c 0 0.636 0 0.756 1.044 0.756c 0.672 0 1.548 -0.36 1.548 -1.584c 0 -1.02 -0.708 -1.38 -1.704 -1.38h -0.888Z "/></symbol><symbol id="e" overflow="visible"><path d="M 0 0m 4.632 1.116c -0.444 -0.456 -0.792 -0.648 -1.488 -0.648c -0.432 0 -0.936 0.252 -1.308 0.864c -0.24 0.396 -0.384 0.948 -0.384 1.644l 3.192 -0.024c 0.144 0 0.228 0.072 0.228 0.204c 0 1.008 -0.36 2.088 -2.028 2.088c -1.044 0 -2.4 -0.996 -2.4 -2.82c 0 -0.672 0.168 -1.32 0.564 -1.776c 0.408 -0.48 0.972 -0.768 1.836 -0.768c 0.912 0 1.56 0.42 2.04 1.044c -0.036 0.12 -0.108 0.18 -0.252 0.192Z m -3.144 2.268c 0.228 1.356 1.068 1.464 1.356 1.464c 0.456 0 0.996 -0.252 0.996 -1.26c 0 -0.108 -0.048 -0.168 -0.18 -0.168Z "/></symbol><symbol id="f" overflow="visible"><path d="M 0 0m 4.776 1.092c -0.048 0.108 -0.144 0.156 -0.252 0.168c -0.408 -0.528 -0.924 -0.792 -1.44 -0.792c -0.876 0 -1.608 0.888 -1.608 2.292c 0 1.32 0.576 2.112 1.368 2.112c 0.708 0 0.804 -0.42 0.852 -0.84c 0.036 -0.324 0.204 -0.432 0.456 -0.432c 0.252 0 0.588 0.156 0.588 0.528c 0 0.66 -0.684 1.14 -1.836 1.14c -1.188 0 -2.46 -1.068 -2.46 -2.772c 0 -1.548 0.864 -2.616 2.376 -2.616c 0.72 0 1.356 0.228 1.956 1.212Z "/></symbol><symbol id="10" overflow="visible"><path d="M 0 0m 2.004 3.432c 0 0.252 0.108 0.396 0.204 0.504c 0.456 0.444 1.068 0.708 1.536 0.708c 0.24 0 0.492 -0.156 0.636 -0.432c 0.12 -0.24 0.144 -0.564 0.144 -0.924v -1.824c 0 -0.984 -0.12 -1.032 -0.744 -1.092c -0.06 -0.072 -0.06 -0.324 0 -0.396c 0.336 0.012 0.744 0.024 1.224 0.024c 0.48 0 0.876 -0.012 1.272 -0.024c 0.06 0.072 0.06 0.324 0 0.396c -0.672 0.06 -0.804 0.108 -0.804 1.092v 1.788c 0 0.66 -0.048 1.248 -0.324 1.608c -0.204 0.264 -0.576 0.408 -0.996 0.408c -0.588 0 -1.308 -0.156 -2.04 -0.972c 0 -0.012 -0.012 -0.012 -0.024 -0.024c -0.036 -0.048 -0.096 -0.12 -0.096 0.024l 0.012 2.7c 0 0.78 0.048 1.26 0.048 1.26c 0 0.084 -0.048 0.12 -0.156 0.12c -0.3 -0.12 -1.2 -0.288 -1.68 -0.324c -0.024 -0.096 0 -0.288 0.072 -0.36c 0.036 0 0.072 0 0.108 0c 0.528 -0.036 0.66 -0.036 0.66 -0.984v -5.244c 0 -0.996 -0.144 -1.044 -0.84 -1.092c -0.072 -0.072 -0.072 -0.324 0 -0.396c 0.396 0.012 0.84 0.024 1.32 0.024c 0.456 0 0.852 -0.012 1.188 -0.024c 0.072 0.072 0.072 0.324 0 0.396c -0.612 0.048 -0.72 0.096 -0.72 1.092Z "/></symbol><symbol id="11" overflow="visible"><path d="M 0 0m 7.992 3.948c 0 2.484 -1.716 3.948 -3.864 3.948c -2.328 0 -3.684 -1.848 -3.684 -4.176c 0 -2.364 1.716 -3.84 3.756 -3.84c 1.332 0 2.388 0.576 3.048 1.512c 0.48 0.684 0.744 1.548 0.744 2.556Z m -4.02 3.516c 1.584 0 2.868 -1.32 2.868 -3.744c 0 -2.148 -1.032 -3.408 -2.4 -3.408c -1.464 0 -2.844 1.308 -2.844 3.612c 0 2.52 1.188 3.54 2.376 3.54Z "/></symbol><symbol id="12" overflow="visible"><path d="M 0 0m 3.516 0.576c 0.072 -0.372 0.204 -0.696 0.804 -0.696c 0.456 0 0.888 0.204 1.14 0.444c -0.024 0.144 -0.072 0.252 -0.204 0.324c -0.084 -0.072 -0.288 -0.192 -0.444 -0.192c -0.348 0 -0.36 0.468 -0.36 1.02v 1.764c 0 1.704 -0.936 2.028 -1.812 2.028c -0.984 0 -1.98 -0.648 -1.98 -1.332c 0 -0.288 0.144 -0.432 0.42 -0.432c 0.348 0 0.564 0.252 0.564 0.408c 0 0.084 -0.012 0.168 -0.036 0.216c -0.012 0.036 -0.024 0.108 -0.024 0.24c 0 0.372 0.504 0.504 0.96 0.504c 0.408 0 0.972 -0.204 0.972 -1.56c 0 -0.084 -0.036 -0.132 -0.072 -0.144l -1.032 -0.252c -1.152 -0.288 -1.98 -0.924 -1.98 -1.74c 0 -0.984 0.672 -1.296 1.512 -1.296c 0.42 0 0.78 0.096 1.308 0.504l 0.24 0.192Z m 0 2.22v -1.584c 0 -0.156 -0.072 -0.24 -0.168 -0.312c -0.312 -0.252 -0.72 -0.528 -1.056 -0.528c -0.6 0 -0.864 0.48 -0.864 0.852c 0 0.54 0.252 1.092 1.14 1.32Z "/></symbol><symbol id="13" overflow="visible"><path d="M 0 0m 1.032 1.464c 0 -0.996 -0.132 -1.044 -0.804 -1.092c -0.072 -0.072 -0.072 -0.324 0 -0.396c 0.396 0.012 0.804 0.024 1.284 0.024c 0.42 0 0.816 -0.012 1.092 -0.024c 0.072 0.072 0.072 0.324 0 0.396c -0.492 0.048 -0.624 0.096 -0.624 1.092v 1.044c 0.228 -0.012 0.396 -0.024 0.516 -0.06c 0.132 -0.096 0.24 -0.204 0.384 -0.396l 0.876 -1.176c 0.348 -0.468 0.492 -0.696 0.504 -0.84c 0 -0.036 0.012 -0.06 0.048 -0.06c 0.24 0.012 0.504 0.024 0.744 0.024c 0.372 0 0.744 -0.012 0.984 -0.024c 0.072 0.072 0.072 0.324 0 0.396c -0.408 0.048 -0.708 0.096 -1.032 0.504l -1.584 1.992c -0.048 0.06 -0.084 0.108 -0.084 0.168c 0 0.048 0 0.072 0.048 0.12l 1.056 1.092c 0.36 0.384 0.78 0.48 1.26 0.528c 0.072 0.072 0.072 0.324 0 0.396c -0.276 -0.012 -0.612 -0.024 -1.044 -0.024c -0.456 0 -0.9 0.012 -1.176 0.024c -0.072 -0.072 -0.072 -0.324 0 -0.396c 0.672 -0.048 0.384 -0.468 0.276 -0.612c -0.276 -0.348 -0.648 -0.756 -0.96 -0.984c -0.264 -0.192 -0.588 -0.336 -0.816 -0.372v 4.188c 0 0.78 0.048 1.26 0.048 1.26c 0 0.084 -0.048 0.12 -0.156 0.12c -0.3 -0.12 -1.2 -0.288 -1.68 -0.324c -0.024 -0.096 0 -0.288 0.072 -0.36c 0.036 0 0.072 0 0.108 0c 0.528 -0.036 0.66 -0.036 0.66 -0.984Z "/></symbol><symbol id="14" overflow="visible"><path d="M 0 0m 3.396 3.876c 1.02 0 1.056 -0.276 1.092 -0.816c 0.072 -0.072 0.324 -0.072 0.396 0c -0.012 0.3 -0.024 0.648 -0.024 1.056c 0 0.408 0.012 0.72 0.024 1.032c -0.072 0.072 -0.324 0.072 -0.396 0c -0.036 -0.66 -0.072 -0.816 -1.092 -0.816h -1.116v 2.16c 0 0.648 0.144 0.768 0.672 0.768h 0.54c 1.272 0 1.572 -0.48 1.836 -1.308c 0.144 0 0.276 0.024 0.372 0.06c -0.06 0.492 -0.24 1.644 -0.264 1.74c 0 0.024 -0.012 0.036 -0.048 0.036c -0.204 -0.036 -0.264 -0.048 -0.564 -0.048h -3.06c -0.384 0 -1.068 0.012 -1.548 0.024c -0.072 -0.072 -0.072 -0.324 0 -0.396c 0.84 -0.036 1.044 -0.096 1.044 -1.092v -4.812c 0 -0.996 -0.204 -1.056 -1.044 -1.092c -0.072 -0.072 -0.072 -0.324 0 -0.396c 0.42 0.012 1.02 0.024 1.56 0.024c 0.54 0 1.128 -0.012 1.548 -0.024c 0.072 0.072 0.072 0.324 0 0.396c -0.84 0.036 -1.044 0.096 -1.044 1.092v 2.412Z "/></symbol><symbol id="15" overflow="visible"><path d="M 0 0m 2.172 1.464v 2.388c 0 0.6 0.048 1.368 0.048 1.368c 0 0.048 -0.06 0.084 -0.156 0.084c -0.336 -0.132 -0.816 -0.24 -1.644 -0.348c -0.024 -0.072 0 -0.264 0.024 -0.336c 0.66 -0.06 0.78 -0.132 0.78 -0.816v -2.34c 0 -0.996 -0.132 -1.032 -0.864 -1.092c -0.072 -0.072 -0.072 -0.324 0 -0.396c 0.396 0.012 0.864 0.024 1.344 0.024c 0.48 0 0.936 -0.012 1.332 -0.024c 0.072 0.072 0.072 0.324 0 0.396c -0.732 0.048 -0.864 0.096 -0.864 1.092Z m -1.092 5.724c 0 -0.312 0.288 -0.624 0.576 -0.624c 0.336 0 0.624 0.324 0.624 0.576c 0 0.288 -0.252 0.624 -0.576 0.624c -0.288 0 -0.624 -0.288 -0.624 -0.576Z "/></symbol><symbol id="16" overflow="visible"><path d="M 0 0m 2.112 4.296c -0.024 0.48 -0.036 0.792 -0.096 0.912c -0.024 0.06 -0.048 0.096 -0.144 0.096c -0.336 -0.132 -0.648 -0.24 -1.476 -0.348c -0.024 -0.072 0 -0.264 0.024 -0.336c 0.648 -0.06 0.78 -0.12 0.78 -0.816v -2.34c 0 -0.996 -0.144 -1.044 -0.888 -1.092c -0.072 -0.072 -0.072 -0.324 0 -0.396c 0.42 0.012 0.888 0.024 1.368 0.024c 0.48 0 1.032 -0.012 1.452 -0.024c 0.072 0.072 0.072 0.324 0 0.396c -0.84 0.06 -0.984 0.096 -0.984 1.092v 1.668c 0 0.312 0.144 0.588 0.288 0.804c 0.132 0.192 0.408 0.588 0.552 0.588c 0.108 0 0.216 -0.024 0.312 -0.156c 0.084 -0.12 0.228 -0.276 0.432 -0.276c 0.288 0 0.564 0.3 0.564 0.6c 0 0.228 -0.216 0.576 -0.72 0.576c -0.564 0 -1.056 -0.528 -1.332 -0.996c -0.072 -0.132 -0.132 -0.036 -0.132 0.024Z "/></symbol><symbol id="17" overflow="visible"><path d="M 0 0m 4.74 7.572c -0.696 0.096 -0.672 0.324 -1.848 0.324c -1.212 0 -2.28 -0.804 -2.28 -2.076c 0 -1.26 1.044 -1.836 2.1 -2.244c 0.72 -0.276 1.608 -0.612 1.608 -1.788c 0 -0.972 -0.54 -1.476 -1.5 -1.476c -1.116 0 -1.836 0.516 -2.1 1.704c -0.156 0.048 -0.276 0.024 -0.396 -0.036c 0.048 -0.924 0.096 -1.236 0.24 -1.824c 0.756 0 1.092 -0.276 2.16 -0.276c 0.54 0 1.056 0.132 1.476 0.396c 0.696 0.432 1.128 1.164 1.128 1.932c 0 1.272 -0.96 1.836 -1.944 2.208c -0.72 0.264 -1.92 0.72 -1.92 1.728c 0 0.672 0.612 1.344 1.32 1.344c 1.164 0 1.536 -0.744 1.776 -1.536c 0.132 -0.024 0.288 -0.012 0.396 0.072c -0.048 0.576 -0.096 0.912 -0.216 1.548Z "/></symbol><symbol id="18" overflow="visible"><path d="M 0 0m 1.872 4.416c -0.012 0.36 -0.036 0.672 -0.096 0.792c -0.024 0.06 -0.048 0.096 -0.144 0.096c -0.336 -0.132 -0.648 -0.24 -1.476 -0.348c -0.024 -0.072 0 -0.264 0.024 -0.336c 0.648 -0.06 0.78 -0.12 0.78 -0.816v -5.124c 0 -0.996 -0.132 -1.056 -0.864 -1.092c -0.072 -0.072 -0.072 -0.324 0 -0.396c 0.42 0.012 0.864 0.024 1.344 0.024c 0.48 0 1.056 -0.012 1.452 -0.024c 0.072 0.072 0.072 0.324 0 0.396c -0.852 0.048 -0.984 0.096 -0.984 1.092v 1.296c 0 0.156 0.048 0.144 0.168 0.096c 0.3 -0.12 0.66 -0.192 1.044 -0.192c 0.672 0 1.272 0.204 1.764 0.672c 0.564 0.552 0.888 1.296 0.888 2.268c 0 1.272 -0.9 2.448 -2.124 2.448c -0.552 0 -1.164 -0.36 -1.644 -0.9c -0.072 -0.072 -0.12 -0.072 -0.132 0.048Z m 0.228 -0.444c 0.312 0.384 0.864 0.744 1.212 0.744c 0.768 0 1.428 -0.864 1.428 -2.22c 0 -0.984 -0.348 -2.208 -1.692 -2.208c -0.216 0 -0.636 0.06 -0.852 0.252c -0.24 0.216 -0.288 0.288 -0.288 0.72v 2.184c 0 0.252 0.048 0.36 0.192 0.528Z "/></symbol><symbol id="19" overflow="visible"><path d="M 0 0m 2.604 -0.12c 0.468 0 1.032 0.24 1.62 0.72c 0.06 0.048 0.168 0.072 0.18 -0.012c 0.036 -0.3 0.132 -0.708 0.132 -0.708c 0.096 -0.036 0.156 -0.024 0.228 0c 0.264 0.216 0.684 0.396 1.416 0.48c 0.072 0.072 0.072 0.252 0 0.324c -0.768 0.06 -0.876 0.288 -0.876 0.876v 2.304c 0 0.36 0.048 1.236 0.048 1.236c 0 0.036 -0.036 0.072 -0.096 0.072c -0.06 -0.012 -0.24 -0.024 -0.42 -0.024c -0.384 0 -0.816 0.012 -1.224 0.024c -0.072 -0.072 -0.072 -0.324 0 -0.396c 0.588 -0.036 0.744 -0.18 0.744 -0.972v -2.316c 0 -0.228 -0.024 -0.324 -0.192 -0.468c -0.444 -0.384 -0.9 -0.576 -1.2 -0.576c -0.36 0 -0.96 0.168 -0.96 1.236v 2.184c 0 0.36 0.048 1.236 0.048 1.236c 0 0.036 -0.036 0.072 -0.096 0.072c -0.06 -0.012 -0.24 -0.024 -0.42 -0.024c -0.384 0 -0.816 0.012 -1.224 0.024c -0.072 -0.072 -0.072 -0.324 0 -0.396c 0.576 -0.048 0.744 -0.18 0.744 -0.96v -2.304c 0 -0.828 0.36 -1.632 1.548 -1.632Z "/></symbol><symbol id="1a" overflow="visible"><path d="M 0 0m 1.248 6.276v -4.812c 0 -0.996 -0.204 -1.056 -1.044 -1.092c -0.072 -0.072 -0.072 -0.324 0 -0.396c 0.54 0.012 1.128 0.024 1.56 0.024c 0.42 0 1.128 -0.012 1.728 -0.024c 0.072 0.072 0.072 0.324 0 0.396c -0.936 0.048 -1.224 0.096 -1.224 1.092v 2.04c 0.264 -0.084 0.552 -0.12 0.972 -0.12c 2.184 0 2.844 1.428 2.844 2.448c 0 0.708 -0.468 1.992 -2.688 1.992c -0.456 0 -1.164 -0.084 -1.644 -0.084c -0.444 0 -1.068 0.012 -1.548 0.024c -0.072 -0.072 -0.072 -0.324 0 -0.396c 0.84 -0.036 1.044 -0.096 1.044 -1.092Z m 1.02 0.372c 0 0.348 0.18 0.768 1.044 0.768c 0.828 0 1.656 -0.276 1.656 -1.8c 0 -1.296 -0.624 -1.824 -1.788 -1.824c -0.3 0 -0.78 0.024 -0.912 0.06Z "/></symbol><symbol id="1b" overflow="visible"><path d="M 0 0m 2.208 4.296c -0.072 -0.084 -0.144 -0.108 -0.144 0c -0.012 0.324 -0.036 0.792 -0.096 0.912c -0.024 0.06 -0.048 0.096 -0.144 0.096c -0.336 -0.132 -0.648 -0.24 -1.476 -0.348c -0.024 -0.072 0 -0.264 0.024 -0.336c 0.648 -0.06 0.78 -0.12 0.78 -0.816v -2.34c 0 -0.984 -0.12 -1.032 -0.84 -1.092c -0.072 -0.072 -0.072 -0.324 0 -0.396c 0.36 0.012 0.84 0.024 1.32 0.024c 0.48 0 0.84 -0.012 1.2 -0.024c 0.072 0.072 0.072 0.324 0 0.396c -0.612 0.06 -0.732 0.108 -0.732 1.092v 1.968c 0 0.252 0.108 0.396 0.204 0.504c 0.456 0.444 0.996 0.708 1.464 0.708c 0.24 0 0.492 -0.156 0.636 -0.432c 0.12 -0.24 0.144 -0.564 0.144 -0.924v -1.824c 0 -0.984 -0.12 -1.032 -0.744 -1.092c -0.06 -0.072 -0.06 -0.324 0 -0.396c 0.36 0.012 0.744 0.024 1.224 0.024c 0.48 0 0.912 -0.012 1.272 -0.024c 0.06 0.072 0.06 0.324 0 0.396c -0.672 0.06 -0.804 0.108 -0.804 1.092v 1.788c 0 0.66 -0.048 1.236 -0.324 1.608c -0.204 0.264 -0.576 0.408 -0.996 0.408c -0.588 0 -1.26 -0.156 -1.968 -0.972Z "/></symbol><symbol id="1c" overflow="visible"><path d="M 0 0m 5.916 7.512c -0.612 0.096 -0.54 0.384 -1.608 0.384c -1.008 0 -2.316 -0.684 -2.568 -1.956c -0.024 -0.144 -0.036 -0.276 -0.036 -0.396c 0 -1.068 0.924 -1.632 1.764 -2.052c 0.552 -0.276 0.996 -0.66 0.996 -1.38c 0 -0.132 -0.012 -0.276 -0.048 -0.444c -0.192 -0.972 -0.78 -1.356 -1.656 -1.356c -1.02 0 -1.62 0.504 -1.632 1.704l -0.36 -0.036c -0.036 -0.912 -0.06 -1.308 -0.156 -1.92c 0.696 0 0.996 -0.18 1.968 -0.18c 1.332 0 2.604 0.984 2.844 2.208c 0.036 0.156 0.048 0.312 0.048 0.456c 0 1.068 -0.828 1.596 -1.632 1.968c -0.396 0.18 -1.272 0.684 -1.272 1.512c 0 0.072 0.012 0.156 0.024 0.24c 0.144 0.732 0.768 1.224 1.524 1.224c 1.104 0 1.26 -0.708 1.332 -1.5l 0.372 -0.024c 0 0.576 0.06 0.9 0.096 1.548Z "/></symbol><symbol id="1d" overflow="visible"><path d="M 0 0m 2.94 3.84c 0.108 0.468 0.252 0.936 0.252 1.14c 0 0.168 -0.096 0.252 -0.252 0.252c -0.384 0 -0.924 -0.084 -1.488 -0.156c -0.084 -0.096 -0.06 -0.228 0.012 -0.336l 0.48 -0.036c 0.144 -0.012 0.216 -0.12 0.216 -0.24c 0 -0.108 -0.024 -0.276 -0.108 -0.612l -0.564 -2.472c -0.084 -0.384 -0.204 -0.876 -0.204 -1.104c 0 -0.228 0.132 -0.396 0.492 -0.396c 0.576 0 1.116 0.408 1.668 1.116c -0.036 0.108 -0.108 0.204 -0.276 0.204c -0.312 -0.36 -0.66 -0.6 -0.78 -0.6c -0.084 0 -0.12 0.06 -0.12 0.204c 0 0.108 0.06 0.372 0.132 0.684Z m -0.528 3c 0 -0.312 0.264 -0.576 0.576 -0.576c 0.312 0 0.576 0.264 0.576 0.576c 0 0.312 -0.264 0.576 -0.576 0.576c -0.312 0 -0.576 -0.264 -0.576 -0.576Z "/></symbol><symbol id="1e" overflow="visible"><path d="M 0 0m 5.256 5.328c -0.276 -0.312 -0.456 -0.384 -0.648 -0.384c -0.216 0 -0.384 0.048 -0.948 0.168c -0.576 0.096 -0.936 0.156 -1.272 0.156c -0.42 0 -0.96 -0.78 -1.164 -1.488c 0.084 -0.084 0.192 -0.096 0.324 -0.096c 0.252 0.552 0.456 0.672 1.008 0.672c 0.54 0 0.996 -0.108 1.344 -0.108c 0.168 0 0.264 0 0.384 0.024l -2.892 -3.18c -0.24 -0.276 -0.696 -0.84 -0.744 -1.008c 0.036 -0.084 0.096 -0.144 0.168 -0.156c 0.096 -0.036 0.18 -0.06 0.276 -0.072c 0.264 0.444 0.564 0.636 0.684 0.636c 0.204 0 0.528 -0.072 0.912 -0.312c 0.3 -0.18 0.696 -0.3 1.032 -0.3c 0.516 0 0.912 0.3 1.476 1.596c -0.072 0.084 -0.156 0.12 -0.3 0.12c -0.456 -0.732 -0.804 -0.792 -1.14 -0.792c -0.612 0 -0.54 0.42 -1.644 0.42c 0.84 0.936 2.16 2.28 2.832 3.12c 0.3 0.36 0.54 0.612 0.66 0.804Z "/></symbol><symbol id="1f" overflow="visible"><path d="M 0 0m 2.004 2.388c 3.084 0.6 3.084 1.512 3.084 1.968c 0 0.012 0 0.012 0 0.024c 0 0.3 -0.276 0.888 -1.14 0.888c -2.088 0 -2.952 -2.04 -2.952 -3.564c 0 -1.02 0.48 -1.824 1.476 -1.824c 0.804 0 1.536 0.42 2.244 1.332c -0.06 0.132 -0.132 0.192 -0.276 0.192c -0.684 -0.696 -0.96 -0.804 -1.536 -0.804c -0.54 0 -0.912 0.288 -0.912 1.38c 0 0.06 0 0.312 0.012 0.408Z m 2.256 2.052c 0 -1.08 -1.26 -1.476 -2.172 -1.596c 0.42 1.704 1.08 2.052 1.584 2.052c 0.432 0 0.588 -0.108 0.588 -0.456Z "/></symbol><symbol id="20" overflow="visible"><path d="M 0 0m 2.58 6.9c 0.516 0 0.996 -0.312 0.996 -1.08c 0 -0.6 -0.696 -1.524 -1.884 -1.692l 0.06 -0.384c 0.204 0.024 0.42 0.024 0.576 0.024c 0.684 0 1.572 -0.192 1.572 -1.548c 0 -1.596 -1.068 -1.92 -1.488 -1.92c -0.612 0 -0.72 0.276 -0.864 0.492c -0.12 0.168 -0.276 0.312 -0.516 0.312c -0.252 0 -0.504 -0.228 -0.504 -0.42c 0 -0.48 1.008 -0.804 1.728 -0.804c 1.428 0 2.7 0.924 2.7 2.508c 0 1.308 -0.984 1.776 -1.692 1.896l -0.012 0.024c 0.984 0.468 1.26 0.96 1.26 1.596c 0 0.36 -0.084 0.648 -0.372 0.948c -0.264 0.264 -0.684 0.468 -1.308 0.468c -1.764 0 -2.268 -1.152 -2.268 -1.548c 0 -0.168 0.12 -0.408 0.408 -0.408c 0.42 0 0.468 0.396 0.468 0.624c 0 0.768 0.828 0.912 1.14 0.912Z "/></symbol><symbol id="21" overflow="visible"><path d="M 0 0m 3.828 2.268c 0 -1.14 -0.6 -1.98 -1.32 -1.98c -0.456 0 -0.612 0.3 -0.792 0.54c -0.156 0.204 -0.36 0.384 -0.612 0.384c -0.228 0 -0.456 -0.204 -0.456 -0.444c 0 -0.492 1.02 -0.9 1.704 -0.9c 1.488 0 2.544 1.104 2.544 2.616c 0 1.164 -0.804 2.208 -2.148 2.208c -0.516 0 -0.96 -0.108 -1.176 -0.192l 0.24 2.004c 0.444 -0.048 0.828 -0.108 1.404 -0.108c 0.36 0 0.768 0.024 1.26 0.072l 0.192 0.816l -0.084 0.048c -0.684 -0.072 -1.332 -0.132 -1.968 -0.132c -0.444 0 -0.876 0.024 -1.296 0.06l -0.408 -3.456c 0.636 0.24 1.092 0.288 1.524 0.288c 0.78 0 1.392 -0.516 1.392 -1.824Z "/></symbol><symbol id="22" overflow="visible"><path d="M 0 0m 2.04 4.296c -0.012 0.36 -0.036 0.792 -0.096 0.912c -0.024 0.06 -0.048 0.096 -0.144 0.096c -0.336 -0.132 -0.648 -0.24 -1.476 -0.348c -0.024 -0.072 0 -0.264 0.024 -0.336c 0.648 -0.06 0.78 -0.12 0.78 -0.816v -2.34c 0 -0.984 -0.156 -1.044 -0.816 -1.092c -0.072 -0.072 -0.072 -0.324 0 -0.396c 0.36 0.012 0.816 0.024 1.296 0.024c 0.48 0 0.852 -0.012 1.212 -0.024c 0.072 0.072 0.072 0.324 0 0.396c -0.612 0.06 -0.744 0.108 -0.744 1.092v 1.968c 0 0.252 0.108 0.396 0.204 0.504c 0.48 0.468 0.924 0.708 1.296 0.708c 0.456 0 0.792 -0.288 0.792 -1.092v -2.088c 0 -0.984 -0.096 -1.044 -0.744 -1.092c -0.06 -0.072 -0.06 -0.324 0 -0.396c 0.3 0.012 0.744 0.024 1.224 0.024c 0.48 0 0.876 -0.012 1.176 -0.024c 0.06 0.072 0.06 0.324 0 0.396c -0.6 0.048 -0.708 0.108 -0.708 1.092v 1.908c 0 0.168 0 0.336 -0.012 0.48c 0.576 0.636 1.116 0.792 1.584 0.792c 0.456 0 0.72 -0.264 0.72 -1.068v -2.112c 0 -0.984 -0.12 -1.044 -0.744 -1.092c -0.06 -0.072 -0.06 -0.324 0 -0.396c 0.3 0.012 0.744 0.024 1.224 0.024c 0.48 0 0.9 -0.012 1.236 -0.024c 0.06 0.072 0.06 0.324 0 0.396c -0.66 0.048 -0.768 0.108 -0.768 1.092v 1.896c 0 1.068 -0.18 1.908 -1.236 1.908c -0.612 0 -1.356 -0.228 -1.98 -0.888c -0.036 -0.036 -0.108 -0.096 -0.132 0.012c -0.108 0.492 -0.576 0.876 -1.2 0.876c -0.696 0 -1.32 -0.408 -1.824 -0.972c -0.06 -0.06 -0.132 -0.144 -0.144 0Z "/></symbol><symbol id="23" overflow="visible"><path d="M 0 0m 5.16 2.628h -0.996v 3.504c 0 0.6 0 1.068 0.024 1.164l -0.024 0.024h -0.384c -0.084 0 -0.144 -0.072 -0.192 -0.132c -0.756 -0.924 -2.148 -2.904 -3.252 -4.62c 0.036 -0.18 0.108 -0.504 0.468 -0.504h 2.448v -1.104c 0 -0.552 -0.456 -0.552 -0.972 -0.588c -0.072 -0.072 -0.072 -0.324 0 -0.396c 0.384 0.012 0.864 0.024 1.416 0.024c 0.468 0 0.924 -0.012 1.308 -0.024c 0.072 0.072 0.072 0.324 0 0.396c -0.588 0.048 -0.84 0.024 -0.84 0.588v 1.104h 0.828c 0.168 0 0.348 0.228 0.348 0.372c 0 0.12 -0.048 0.192 -0.18 0.192Z m -1.908 3.456v -3.456h -2.292c 0.612 0.984 1.464 2.328 2.292 3.456Z "/></symbol><symbol id="24" overflow="visible"><path d="M 0 0m 2.736 -0.12c 0.924 0 2.328 0.936 2.328 3.756c 0 1.188 -0.288 2.208 -0.816 2.904c -0.312 0.42 -0.816 0.78 -1.464 0.78c -1.188 0 -2.316 -1.416 -2.316 -3.792c 0 -1.284 0.396 -2.484 1.056 -3.144c 0.336 -0.336 0.744 -0.504 1.212 -0.504Z m 0.048 7.02c 0.204 0 0.396 -0.072 0.54 -0.204c 0.372 -0.312 0.696 -1.224 0.696 -2.832c 0 -1.104 -0.036 -1.86 -0.204 -2.472c -0.264 -0.984 -0.852 -1.092 -1.068 -1.092c -1.116 0 -1.236 2.052 -1.236 3.096c 0 2.952 0.732 3.504 1.272 3.504Z "/></symbol><symbol id="25" overflow="visible"><path d="M 0 0m 4.716 5.82c 0 0.864 -0.672 1.5 -1.848 1.5c -1.224 0 -2.016 -0.732 -2.016 -1.656c 0 -0.672 0.324 -1.164 1.056 -1.62l 0.312 -0.192c -0.348 -0.18 -0.672 -0.396 -0.972 -0.66c -0.492 -0.432 -0.696 -0.972 -0.696 -1.44c 0 -1.224 0.864 -1.872 2.136 -1.872c 1.572 0 2.34 1.152 2.34 2.064c 0 0.696 -0.3 1.308 -0.936 1.692l -0.852 0.516c 0.564 0.276 1.476 0.9 1.476 1.668Z m -2.004 -5.52c -0.54 0 -1.356 0.372 -1.356 1.452c 0 0.36 0.156 1.2 1.188 1.884l 0.564 -0.336c 0.744 -0.456 1.044 -1.02 1.044 -1.596c 0 -1.2 -0.9 -1.404 -1.44 -1.404Z m 0.096 6.6c 0.78 0 1.068 -0.516 1.068 -1.068c 0 -0.648 -0.636 -1.188 -0.96 -1.428l -0.372 0.228c -0.756 0.492 -0.84 0.888 -0.84 1.26c 0 0.552 0.384 1.008 1.104 1.008Z "/></symbol><symbol id="26" overflow="visible"><path d="M 0 0m 0.732 5.616c 0 -0.252 0.228 -0.468 0.48 -0.468c 0.204 0 0.564 0.216 0.564 0.48c 0 0.096 -0.024 0.168 -0.048 0.252c -0.024 0.084 -0.096 0.192 -0.096 0.288c 0 0.3 0.312 0.732 1.188 0.732c 0.432 0 1.044 -0.3 1.044 -1.452c 0 -0.768 -0.276 -1.392 -0.984 -2.112l -0.888 -0.876c -1.176 -1.2 -1.368 -1.776 -1.368 -2.484c 0 0 0.612 0.024 0.996 0.024h 2.1c 0.384 0 0.936 -0.024 0.936 -0.024c 0.156 0.636 0.276 1.536 0.288 1.896c -0.072 0.06 -0.228 0.084 -0.348 0.06c -0.204 -0.852 -0.408 -1.152 -0.84 -1.152h -2.136c 0 0.576 0.828 1.392 0.888 1.452l 1.212 1.164c 0.684 0.66 1.2 1.188 1.2 2.1c 0 1.296 -1.056 1.824 -2.028 1.824c -1.332 0 -2.16 -0.984 -2.16 -1.704Z "/></symbol><symbol id="27" overflow="visible"><path d="M 0 0m 2.04 6.42h 2.148c -0.936 -2.328 -1.884 -4.668 -2.7 -6.492l 0.096 -0.084l 0.816 0.036c 0.684 2.04 1.344 4.032 2.688 7.308l -0.192 0.144c -0.204 -0.06 -0.468 -0.132 -0.924 -0.132h -2.472c -0.408 0 -0.384 0.12 -0.6 0.168c -0.036 0 -0.048 0 -0.048 -0.036c -0.012 -0.576 -0.144 -1.296 -0.24 -1.92c 0.132 -0.036 0.252 -0.048 0.384 -0.036c 0.264 0.96 0.66 1.044 1.044 1.044Z "/></symbol><symbol id="28" overflow="visible"><path d="M 0 0m 3.924 3.072c -0.324 -1.092 -1.092 -2.304 -2.688 -2.904c 0 -0.144 0.048 -0.252 0.144 -0.312c 1.212 0.36 1.956 0.864 2.628 1.644c 0.744 0.864 1.116 1.956 1.116 2.904c 0 2.436 -1.38 2.916 -2.304 2.916c -1.572 0 -2.22 -1.524 -2.22 -2.556c 0 -1.032 0.552 -1.956 2.184 -1.956c 0.312 0 0.78 0.096 1.14 0.264Z m 0.108 0.432c -0.396 -0.264 -0.792 -0.276 -0.996 -0.276c -1.176 0 -1.44 1.152 -1.44 1.752c 0 1.32 0.504 1.92 1.092 1.92c 0.756 0 1.44 -0.408 1.44 -2.46c 0 -0.264 -0.024 -0.588 -0.096 -0.936Z "/></symbol><symbol id="29" overflow="visible"><path d="M 0 0m 2.604 6.552l 0.72 -6.408c 0.024 -0.204 0.048 -0.264 0.168 -0.264c 0.096 0 0.132 0.048 0.252 0.264l 2.352 4.296c 0.18 0.324 0.36 0.672 0.444 0.804c 0.012 0 0.048 0 0.06 -0.024c 0.024 -0.264 0.06 -0.396 0.108 -0.816l 0.504 -4.26c 0.024 -0.216 0.096 -0.264 0.204 -0.264c 0.096 0 0.132 0.036 0.252 0.252l 3.612 6.504c 0.228 0.396 0.516 0.708 1.152 0.78c 0.072 0.072 0.072 0.276 0 0.348c -0.396 -0.012 -0.864 -0.024 -1.176 -0.024c -0.312 0 -0.876 0.012 -1.356 0.024c -0.072 -0.072 -0.072 -0.276 0 -0.348c 0.6 -0.048 1.032 -0.216 0.768 -0.684l -2.244 -4.152l -0.444 -0.828l -0.084 0.732l -0.384 3.348c -0.048 0.408 -0.132 1.176 -0.132 1.176h -0.516l -2.364 -4.416l -0.456 -0.768l -0.084 0.792l -0.408 4.248c -0.036 0.396 0.432 0.528 0.852 0.552c 0.072 0.072 0.072 0.276 0 0.348c -0.396 -0.012 -0.996 -0.024 -1.44 -0.024c -0.396 0 -0.864 0.012 -1.296 0.024c -0.072 -0.072 -0.072 -0.276 0 -0.348c 0.576 -0.096 0.864 -0.216 0.936 -0.864Z "/></symbol><symbol id="2a" overflow="visible"><path d="M 0 0m 4.92 5.196c -0.324 0.036 -0.48 0.072 -0.96 0.072c -1.284 0 -3.024 -1.884 -3.024 -3.768c 0 -0.672 0.156 -1.62 1.164 -1.62c 0.636 0 1.308 0.66 2.028 1.728l 0.024 -0.024l -0.156 -0.504c -0.084 -0.276 -0.12 -0.516 -0.12 -0.66c 0 -0.228 0.084 -0.54 0.492 -0.54c 0.744 0 1.224 0.48 1.536 1.164c -0.06 0.108 -0.12 0.192 -0.276 0.192c -0.324 -0.444 -0.552 -0.636 -0.672 -0.636c -0.036 0 -0.144 0.024 -0.144 0.168c 0 0.108 0.072 0.444 0.12 0.672l 0.828 3.732c -0.084 0 -0.156 0 -0.24 0c -0.216 -0.012 -0.42 -0.024 -0.6 0.024Z m -0.6 -2.568c -0.588 -1.08 -1.512 -2.088 -1.896 -2.088c -0.408 0 -0.528 0.48 -0.528 1.152c 0 1.272 0.996 3.204 2.1 3.204c 0.252 0 0.516 -0.084 0.744 -0.228c 0 0 -0.12 -1.272 -0.42 -2.04Z "/></symbol><symbol id="2b" overflow="visible"><path d="M 0 0m 2.232 5.148l -0.636 -0.036c -0.228 -0.012 -0.312 -0.108 -0.336 -0.204c -0.012 -0.036 -0.048 -0.18 -0.048 -0.204c 0 -0.024 0.036 -0.024 0.072 -0.024h 0.84l -0.732 -3.264c -0.084 -0.384 -0.168 -0.756 -0.168 -0.984c 0 -0.432 0.216 -0.552 0.588 -0.552c 0.54 0 1.332 0.492 1.74 1.236c -0.036 0.156 -0.12 0.228 -0.264 0.228c -0.552 -0.624 -0.768 -0.744 -0.96 -0.744c -0.036 0 -0.156 0.024 -0.156 0.168c 0 0.108 0.036 0.348 0.132 0.756l 0.708 3.156h 1.176c 0.144 0.06 0.252 0.372 0.12 0.468h -1.188l 0.12 0.54c 0.048 0.228 0.156 0.576 0.156 0.72c 0 0.204 -0.096 0.324 -0.48 0.324c -0.432 0 -0.408 -0.54 -0.528 -0.984Z "/></symbol><symbol id="2c" overflow="visible"><path d="M 0 0m 2.652 3.42l 0.096 0.42c 0.108 0.468 0.216 0.888 0.216 1.092c 0 0.18 -0.108 0.3 -0.264 0.3c -0.384 0 -0.876 -0.084 -1.44 -0.156c -0.084 -0.096 -0.06 -0.228 0.012 -0.336l 0.48 -0.036c 0.144 -0.012 0.216 -0.12 0.216 -0.24c 0 -0.108 0 -0.276 -0.084 -0.612l -0.66 -2.988c -0.06 -0.252 -0.156 -0.468 -0.156 -0.66c 0 -0.192 0.108 -0.324 0.456 -0.324c 0.42 0 0.432 0.516 0.552 0.984l 0.348 1.404c 0.576 1.044 1.248 2.16 1.524 2.16c 0.12 0 0.18 -0.06 0.252 -0.144c 0.084 -0.096 0.24 -0.252 0.408 -0.252c 0.324 0 0.54 0.348 0.54 0.672c 0 0.252 -0.18 0.564 -0.624 0.564c -0.6 0 -1.296 -0.744 -1.824 -1.86Z "/></symbol><symbol id="2d" overflow="visible"><path d="M 0 0m 2.508 -0.12c 0.864 0 1.644 0.624 2.22 1.428c -0.036 0.12 -0.156 0.204 -0.264 0.204c -0.468 -0.528 -0.948 -0.924 -1.584 -0.924c -0.204 0 -0.432 0.048 -0.6 0.276c -0.18 0.228 -0.3 0.468 -0.3 1.188c 0 1.788 0.84 2.844 1.764 2.844c 0.168 0 0.504 -0.06 0.504 -0.456c 0 -0.072 -0.024 -0.168 -0.06 -0.228c -0.036 -0.048 -0.06 -0.18 -0.06 -0.252c 0 -0.192 0.12 -0.384 0.324 -0.384c 0.324 0 0.624 0.24 0.624 0.54c 0 0.468 -0.036 1.152 -1.344 1.152c -0.48 0 -1.248 -0.312 -1.752 -0.84c -0.588 -0.636 -0.984 -1.56 -0.984 -2.64c 0 -0.396 0.084 -0.936 0.36 -1.332c 0.252 -0.348 0.66 -0.576 1.152 -0.576Z "/></symbol><symbol id="2e" overflow="visible"><path d="M 0 0m 0.936 1.944c 0 -0.636 0.156 -2.064 1.68 -2.064c 0.384 0 0.756 0.048 1.104 0.228c 1.044 0.528 1.86 1.8 1.86 3.216c 0 0.864 -0.216 1.944 -1.692 1.944c -2.004 0 -2.952 -1.884 -2.952 -3.324Z m 0.996 0.096c 0 1.08 0.468 2.832 1.74 2.832c 0.36 0 0.552 -0.192 0.732 -0.528c 0.144 -0.3 0.18 -0.744 0.18 -1.104c 0 -0.48 -0.072 -1.512 -0.516 -2.184c -0.336 -0.516 -0.816 -0.732 -1.272 -0.732c -0.348 0 -0.864 0.456 -0.864 1.716Z "/></symbol><symbol id="2f" overflow="visible"><path d="M 0 0m 5.196 1.488l 0.456 1.908c 0.096 0.42 0.156 0.696 0.156 0.912c 0 0.72 -0.324 0.96 -0.792 0.96c -0.624 0 -1.14 -0.252 -2.244 -1.548l -0.012 0.012l 0.036 0.108c 0.156 0.444 0.264 0.96 0.264 1.14c 0 0.168 -0.096 0.252 -0.252 0.252c -0.384 0 -0.948 -0.072 -1.512 -0.156c -0.084 -0.096 -0.06 -0.228 0.012 -0.336l 0.48 -0.036c 0.144 -0.012 0.216 -0.12 0.216 -0.24c 0 -0.096 -0.036 -0.276 -0.108 -0.612l -0.672 -2.988c -0.06 -0.24 -0.156 -0.54 -0.156 -0.66c 0 -0.192 0.132 -0.324 0.516 -0.324c 0.456 0 0.444 0.528 0.552 0.984l 0.456 1.992c 0.756 0.984 1.416 1.692 1.848 1.692c 0.252 0 0.42 -0.06 0.42 -0.432c 0 -0.144 -0.072 -0.48 -0.156 -0.816l -0.456 -1.92c -0.096 -0.384 -0.204 -0.876 -0.204 -1.104c 0 -0.228 0.132 -0.396 0.492 -0.396c 0.576 0 1.152 0.408 1.704 1.116c -0.036 0.108 -0.108 0.204 -0.276 0.204c -0.312 -0.36 -0.66 -0.6 -0.78 -0.6c -0.084 0 -0.12 0.06 -0.12 0.204c 0 0.108 0.06 0.372 0.132 0.684Z "/></symbol><symbol id="30" overflow="visible"><path d="M 0 0m 2.088 -0.12h 0.18c 1.176 0 1.884 0.648 1.884 1.536c 0 0.564 -0.324 1.116 -1.428 1.848c -0.36 0.24 -0.48 0.456 -0.48 0.756c 0 0.42 0.24 0.852 0.756 0.852c 0.3 0 0.504 -0.096 0.54 -0.348c 0.036 -0.288 0.24 -0.624 0.552 -0.624c 0.336 0 0.432 0.216 0.432 0.408c 0 0.432 -0.624 0.96 -1.368 0.96c -1.044 0 -1.68 -0.768 -1.68 -1.5c 0 -0.48 0.264 -0.996 1.044 -1.524c 0.636 -0.432 0.732 -0.828 0.732 -1.08c 0 -0.66 -0.48 -0.888 -1.02 -0.888c -0.312 0 -0.48 0.06 -0.516 0.324c -0.036 0.276 -0.204 0.636 -0.564 0.636c -0.348 0 -0.444 -0.288 -0.444 -0.42c 0 -0.444 0.552 -0.888 1.38 -0.936Z "/></symbol><symbol id="31" overflow="visible"><path d="M 0 0m 6.072 4.224c 0.048 0.216 0.156 0.576 0.156 0.72c 0 0.204 -0.12 0.324 -0.504 0.324c -0.456 0 -0.432 -0.528 -0.552 -0.984l -0.348 -1.32c -0.888 -1.512 -1.476 -2.364 -2.076 -2.364c -0.216 0 -0.36 0.12 -0.36 0.444c 0 0.192 0.024 0.444 0.108 0.768l 0.516 1.956c 0.096 0.384 0.252 0.876 0.252 1.104c 0 0.228 -0.072 0.396 -0.432 0.396c -0.576 0 -1.26 -0.408 -1.812 -1.116c 0.036 -0.108 0.108 -0.204 0.276 -0.204c 0.312 0.36 0.708 0.6 0.828 0.6c 0.084 0 0.12 -0.06 0.12 -0.204c 0 -0.108 -0.072 -0.372 -0.156 -0.684l -0.528 -2.016c -0.084 -0.312 -0.12 -0.576 -0.12 -0.804c 0 -0.684 0.384 -0.96 0.804 -0.96c 0.936 0 1.536 0.744 2.388 1.992l 0.036 -0.024l -0.132 -0.468c -0.108 -0.384 -0.204 -0.876 -0.204 -1.104c 0 -0.228 0.084 -0.396 0.444 -0.396c 0.576 0 1.116 0.408 1.668 1.116c -0.036 0.108 -0.108 0.204 -0.276 0.204c -0.312 -0.36 -0.66 -0.6 -0.78 -0.6c -0.084 0 -0.12 0.06 -0.12 0.204c 0 0.108 0.06 0.372 0.132 0.684Z "/></symbol><symbol id="32" overflow="visible"><path d="M 0 0m 2.184 3.852l -0.684 -2.988c -0.06 -0.24 -0.156 -0.54 -0.156 -0.66c 0 -0.192 0.108 -0.324 0.492 -0.324c 0.456 0 0.432 0.528 0.552 0.984l 0.48 1.932c 0.936 1.356 1.608 1.752 1.992 1.752c 0.24 0 0.312 -0.084 0.312 -0.444c 0 -0.144 -0.012 -0.432 -0.096 -0.804l -0.576 -2.436c -0.06 -0.24 -0.156 -0.54 -0.156 -0.66c 0 -0.192 0.108 -0.324 0.492 -0.324c 0.456 0 0.444 0.528 0.552 0.984l 0.456 1.884c 1.02 1.428 1.488 1.8 1.872 1.8c 0.228 0 0.348 -0.084 0.348 -0.444c 0 -0.132 -0.012 -0.48 -0.108 -0.852l -0.468 -1.884c -0.12 -0.492 -0.216 -0.984 -0.216 -1.092c 0 -0.24 0.216 -0.396 0.384 -0.396c 0.708 0 1.368 0.348 1.776 1.332c -0.024 0.108 -0.108 0.168 -0.264 0.168c -0.288 -0.456 -0.624 -0.78 -0.84 -0.78c -0.06 0 -0.084 0.072 -0.084 0.132c 0 0.048 0.024 0.348 0.06 0.48l 0.564 2.136c 0.072 0.276 0.12 0.648 0.12 0.876c 0 0.756 -0.36 1.044 -0.732 1.044c -0.852 0 -1.512 -0.732 -2.208 -1.608c 0.036 0.192 0.048 0.408 0.048 0.564c 0 0.84 -0.36 1.044 -0.696 1.044c -0.864 0 -1.644 -0.636 -2.352 -1.548l -0.024 0.012l 0.024 0.108c 0.12 0.468 0.276 0.936 0.276 1.14c 0 0.168 -0.096 0.252 -0.252 0.252c -0.384 0 -0.924 -0.084 -1.488 -0.156c -0.084 -0.096 -0.06 -0.228 0.012 -0.336l 0.48 -0.036c 0.144 -0.012 0.216 -0.12 0.216 -0.24c 0 -0.108 -0.036 -0.276 -0.108 -0.612Z "/></symbol><symbol id="33" overflow="visible"><path d="M 0 0m 3.192 4.848c 0.048 0.216 0.156 0.576 0.156 0.72c 0 0.204 -0.12 0.324 -0.504 0.324c -0.456 0 -0.456 -0.528 -0.552 -0.984l -0.156 -0.708c -0.6 -0.432 -1.044 -0.792 -1.38 -1.212c 0.048 -0.168 0.156 -0.252 0.372 -0.252c 0.264 0.348 0.528 0.564 0.864 0.84l -1.236 -5.508c -0.072 -0.336 -0.252 -0.48 -0.636 -0.54l -0.228 -0.036c -0.06 -0.012 -0.12 -0.024 -0.12 -0.096v -0.228l 0.024 -0.024c 0 0 0.816 0.06 1.248 0.06c 0.468 0 1.284 -0.024 1.284 -0.024l 0.024 0.024v 0.24c 0 0.06 -0.024 0.084 -0.072 0.096l -0.228 0.036c -0.18 0.024 -0.492 0.084 -0.396 0.492l 0.528 2.208c 0.18 -0.192 0.528 -0.396 0.876 -0.396c 0.852 0 1.548 0.48 2.076 1.116c 0.648 0.792 0.972 1.608 0.972 2.472c 0 1.008 -0.336 1.8 -1.536 1.8c -0.612 0 -1.056 -0.228 -1.38 -0.42Z m 1.932 -1.572c 0 -0.576 -0.24 -1.416 -0.696 -2.112c -0.312 -0.504 -0.792 -0.864 -1.248 -0.864c -0.312 0 -0.636 0.156 -0.888 0.504l 0.792 3.504c 0.3 0.192 0.648 0.408 1.104 0.408c 0.816 0 0.936 -0.852 0.936 -1.44Z "/></symbol><symbol id="34" overflow="visible"><path d="M 0 0m 2.976 7.452c 0.144 0 0.144 -0.12 0.072 -0.504l -0.348 -1.824c -0.06 -0.264 -0.264 -0.444 -0.456 -0.444h -0.432c -0.048 0 -0.084 -0.036 -0.096 -0.06l -0.048 -0.252c 0 0 0.72 0.012 1.176 0.012c 0.408 0 1.032 -0.012 1.032 -0.012l 0.048 0.252c 0.012 0.048 -0.024 0.06 -0.06 0.06h -0.336c -0.168 0 -0.276 0.18 -0.216 0.444l 0.612 3.132h -0.192c -0.588 -0.324 -0.924 -0.468 -1.524 -0.672l 0.048 -0.324c 0.192 0.084 0.564 0.192 0.72 0.192Z "/></symbol><symbol id="35" overflow="visible"><path d="M 0 0m 3.456 1.464v 4.164c 0 0.72 0.012 1.452 0.036 1.608c 0 0.06 -0.024 0.06 -0.072 0.06c -0.66 -0.408 -1.296 -0.708 -2.352 -1.2c 0.024 -0.132 0.072 -0.252 0.18 -0.324c 0.552 0.228 0.816 0.3 1.044 0.3c 0.204 0 0.24 -0.288 0.24 -0.696v -3.912c 0 -0.996 -0.324 -1.056 -1.164 -1.092c -0.072 -0.072 -0.072 -0.324 0 -0.396c 0.588 0.012 1.02 0.024 1.668 0.024c 0.576 0 0.864 -0.012 1.464 -0.024c 0.072 0.072 0.072 0.324 0 0.396c -0.84 0.036 -1.044 0.096 -1.044 1.092Z "/></symbol><symbol id="36" overflow="visible"><path d="M 0 0m 1.932 0.948l 1.008 1.74c 0.084 0.156 0.168 0.204 0.444 0.204h 2.4l 0.3 -2.028c 0.012 -0.036 0.012 -0.072 0.012 -0.108c 0 -0.264 -0.192 -0.372 -0.588 -0.408l -0.336 -0.024c -0.048 0 -0.084 -0.036 -0.096 -0.096l -0.024 -0.228l 0.012 -0.024c 0.432 0.012 1.08 0.024 1.524 0.024c 0.468 0 0.936 -0.012 1.356 -0.024l 0.024 0.024l 0.024 0.228c 0.012 0.06 -0.036 0.096 -0.096 0.096l -0.12 0.012c -0.456 0.048 -0.648 0.228 -0.72 0.696l -1.104 6.504c -0.036 0.228 -0.072 0.36 -0.24 0.36c -0.168 0 -0.276 -0.108 -0.468 -0.432l -3.78 -6.24c -0.444 -0.744 -0.78 -0.864 -1.284 -0.9c -0.06 0 -0.096 -0.036 -0.108 -0.096l -0.036 -0.228l 0.012 -0.024c 0.432 0.012 0.624 0.024 1.068 0.024c 0.468 0 1.08 -0.012 1.5 -0.024l 0.036 0.024l 0.024 0.228c 0.012 0.06 -0.024 0.096 -0.072 0.096l -0.324 0.024c -0.3 0.024 -0.432 0.144 -0.432 0.324c 0 0.084 0.024 0.18 0.084 0.276Z m 1.752 2.448c -0.192 0 -0.276 0.024 -0.276 0.084c 0 0.024 0.012 0.048 0.024 0.072l 1.74 3.048h 0.024l 0.492 -3.204Z "/></symbol><symbol id="37" overflow="visible"><path d="M 0 0m 4.98 3.492c 0 0.324 -0.072 0.756 -0.24 0.996c 0.18 0.168 0.48 0.3 0.564 0.3c 0.108 0 0.144 -0.06 0.18 -0.12c 0.06 -0.096 0.144 -0.204 0.336 -0.204c 0.216 0 0.372 0.168 0.372 0.396c 0 0.216 -0.192 0.408 -0.468 0.408c -0.312 0 -0.768 -0.12 -1.188 -0.504c -0.264 0.312 -0.648 0.504 -1.176 0.504c -1.344 0 -1.872 -0.912 -1.872 -1.872c 0 -0.528 0.228 -1.032 0.552 -1.416c -0.3 -0.312 -0.648 -0.888 -0.648 -1.308c 0 -0.12 0 -0.396 0.312 -0.576c -0.636 -0.348 -1.62 -1.008 -1.62 -1.728c 0 -0.972 1.332 -1.224 2.304 -1.224c 1.644 0 2.736 0.468 2.736 1.656c 0 0.78 -0.576 1.176 -1.224 1.368c -0.96 0.288 -1.836 0.312 -1.836 0.888c 0 0.24 0.168 0.528 0.276 0.732c 0.192 -0.12 0.48 -0.204 0.816 -0.204c 1.044 0 1.824 0.72 1.824 1.908Z m -3.048 -3.528c 0.216 -0.048 1.056 -0.312 1.452 -0.492c 0.672 -0.312 0.96 -0.576 0.96 -0.996c 0 -0.456 -0.408 -0.936 -1.464 -0.936c -1.344 0 -1.992 0.444 -1.992 1.104c 0 0.576 0.744 1.104 1.044 1.32Z m 2.16 3.528c 0 -0.744 -0.156 -1.548 -0.876 -1.548c -0.732 0 -0.84 0.864 -0.84 1.44c 0 0.864 0.144 1.524 0.936 1.524c 0.516 0 0.78 -0.6 0.78 -1.416Z "/></symbol><symbol id="38" overflow="visible"><path d="M 0 0m 2.448 -1.92c 0.192 0.336 0.348 0.672 0.492 1.032c 0.96 2.316 1.5 3.552 2.124 4.896c 0.24 0.504 0.408 0.696 0.972 0.768c 0.072 0.072 0.072 0.324 0 0.396c -0.24 -0.012 -0.516 -0.024 -0.852 -0.024c -0.36 0 -0.732 0.012 -1.092 0.024c -0.072 -0.072 -0.072 -0.324 0 -0.396c 0.384 -0.036 0.768 -0.108 0.576 -0.54l -1.188 -2.748c -0.084 -0.192 -0.192 -0.228 -0.288 0.012l -1.068 2.496c -0.216 0.504 -0.276 0.732 0.396 0.78c 0.072 0.072 0.072 0.324 0 0.396c -0.444 -0.012 -0.924 -0.024 -1.356 -0.024c -0.408 0 -0.732 0.012 -0.972 0.024c -0.072 -0.072 -0.072 -0.324 0 -0.396c 0.48 -0.06 0.636 -0.168 0.948 -0.9l 1.356 -3.156c 0.108 -0.24 0.288 -0.792 0.168 -1.128c -0.144 -0.396 -0.288 -0.732 -0.468 -1.104c -0.132 -0.24 -0.3 -0.348 -0.6 -0.348c -0.168 0 -0.216 0.036 -0.348 0.036c -0.348 0 -0.528 -0.36 -0.528 -0.516c 0 -0.252 0.24 -0.444 0.564 -0.444c 0.252 0 0.732 0.096 1.164 0.864Z "/></symbol><symbol id="39" overflow="visible"><path d="M 0 0m 1.728 4.116c 0.324 1.092 1.092 2.304 2.688 2.904c 0 0.144 -0.048 0.252 -0.144 0.312c -1.212 -0.36 -1.956 -0.864 -2.628 -1.644c -0.744 -0.864 -1.116 -1.956 -1.116 -2.904c 0 -2.436 1.38 -2.916 2.304 -2.916c 1.572 0 2.22 1.524 2.22 2.556c 0 1.032 -0.552 1.956 -2.184 1.956c -0.312 0 -0.78 -0.096 -1.14 -0.264Z m -0.108 -0.432c 0.396 0.264 0.792 0.276 0.996 0.276c 1.176 0 1.44 -1.152 1.44 -1.752c 0 -1.32 -0.504 -1.92 -1.092 -1.92c -0.756 0 -1.44 0.408 -1.44 2.46c 0 0.276 0.024 0.588 0.096 0.936Z "/></symbol><symbol id="3a" overflow="visible"><path d="M 0 0m 7.404 6.636c 0.228 0.396 0.612 0.708 1.248 0.78c 0.072 0.072 0.072 0.276 0 0.348c -0.444 -0.012 -0.816 -0.024 -1.128 -0.024c -0.312 0 -0.84 0.012 -1.32 0.024c -0.072 -0.072 -0.072 -0.276 0 -0.348c 0.6 -0.048 0.924 -0.216 0.672 -0.684l -2.796 -5.208c -0.024 -0.024 -0.048 -0.036 -0.084 0l -0.768 5.34c -0.06 0.396 0.444 0.528 0.864 0.552c 0.072 0.072 0.072 0.276 0 0.348c -0.396 -0.012 -0.984 -0.024 -1.452 -0.024c -0.48 0 -0.792 0.012 -1.272 0.024c -0.072 -0.072 -0.072 -0.276 0 -0.348c 0.504 -0.06 0.792 -0.072 0.888 -0.744l 0.972 -6.54c 0.024 -0.18 0.096 -0.276 0.216 -0.276c 0.12 0 0.228 0.096 0.324 0.276Z "/></symbol><symbol id="3b" overflow="visible"><path d="M 0 0m 3.432 6.996c 0.18 0.78 0.3 1.26 0.3 1.26c 0 0.084 -0.036 0.12 -0.144 0.12c -0.324 -0.12 -1.188 -0.276 -1.68 -0.312l -0.036 -0.288c 0 -0.036 0.012 -0.06 0.06 -0.06l 0.372 -0.024c 0.156 0 0.252 -0.072 0.252 -0.336c 0 -0.132 -0.024 -0.336 -0.084 -0.6l -1.188 -5.328c -0.084 -0.384 -0.168 -0.792 -0.168 -1.02c 0 -0.228 0.06 -0.528 0.504 -0.528c 0.54 0 1.2 0.312 1.74 1.212c -0.048 0.12 -0.108 0.204 -0.264 0.204c -0.36 -0.432 -0.744 -0.696 -0.888 -0.696c -0.096 0 -0.144 0.072 -0.144 0.168c 0 0.096 0.036 0.276 0.144 0.756Z "/></symbol><symbol id="3c" overflow="visible"><path d="M 0 0m 4.452 7.02c -0.564 0.072 -0.624 0.252 -1.368 0.288l 0.06 1.032c -0.156 0 -0.336 -0.024 -0.444 -0.06l -0.06 -0.96c -1.08 -0.036 -2.028 -0.756 -2.028 -1.908c 0 -1.044 0.756 -1.584 1.62 -1.956c 0.06 -0.024 0.132 -0.048 0.192 -0.084l -0.168 -3.06c -0.804 0.12 -1.332 0.6 -1.548 1.56c -0.132 0.048 -0.252 0.024 -0.36 -0.036c 0.048 -0.864 0.096 -1.14 0.228 -1.692c 0.624 0 0.924 -0.192 1.668 -0.24l -0.06 -1.08c 0.12 0 0.348 0.012 0.444 0.06l 0.048 1.008c 0.468 0.012 0.924 0.132 1.284 0.36c 0.636 0.396 1.044 1.092 1.044 1.8c 0 1.068 -0.732 1.596 -1.536 1.944c -0.132 0.06 -0.336 0.132 -0.552 0.216l 0.144 2.688c 0.756 -0.168 1.032 -0.768 1.224 -1.392c 0.012 0 0.024 0 0.048 0c 0.12 0 0.24 0 0.324 0.072c -0.036 0.54 -0.084 0.852 -0.204 1.44Z m -1.596 -3.804c 0.612 -0.252 1.212 -0.612 1.212 -1.548c 0 -0.888 -0.492 -1.368 -1.368 -1.38Z m -0.372 1.188c -0.54 0.264 -1.068 0.66 -1.068 1.308c 0 0.624 0.552 1.212 1.212 1.224Z "/></symbol><symbol id="3d" overflow="visible"><path d="M 0 0m 1.296 5.952c 0.1152 0 0.1344 -0.0864 0.1344 -0.3936v -1.248c 0 -0.4896 -0.2976 -0.5184 -0.6816 -0.5376c -0.048 -0.0768 -0.0384 -0.2208 0 -0.2784c 0.288 0.0096 0.5856 0.0096 0.9216 0.0096c 0.3168 0 0.5184 0 0.8064 -0.0096c 0.0384 0.0672 0.0384 0.2016 0 0.2784c -0.3264 0.0192 -0.528 0.048 -0.528 0.5376v 2.2944c -0.048 0.048 -0.1248 0.0288 -0.1728 0c -0.4224 -0.2592 -0.672 -0.3744 -1.1232 -0.5376c 0 -0.1152 0.0192 -0.2016 0.096 -0.2592c 0.24 0.0864 0.4224 0.144 0.5472 0.144Z "/></symbol><symbol id="3e" overflow="visible"><path d="M 0 0m 1.4304 0h 2.0448c 0.2592 0 1.1424 -0.0192 1.1424 -0.0192c 0.096 0.48 0.192 1.104 0.2496 1.6032c -0.096 0.048 -0.2016 0.0672 -0.3168 0.048c -0.192 -0.6912 -0.5472 -1.2576 -1.5648 -1.2576h -0.6048c -0.3744 0 -0.5472 0.1824 -0.5472 0.672v 3.9744c 0 0.7968 0.1632 0.8448 0.8352 0.8736c 0.0576 0.0576 0.0576 0.2592 0 0.3168c -0.432 -0.0096 -0.8832 -0.0192 -1.248 -0.0192c -0.3456 0 -0.7968 0.0096 -1.2384 0.0192c -0.0576 -0.0576 -0.0576 -0.2592 0 -0.3168c 0.672 -0.0288 0.8352 -0.0768 0.8352 -0.8736v -3.8496c 0 -0.7968 -0.1632 -0.8448 -0.8352 -0.8736c -0.0576 -0.0576 -0.0576 -0.2592 0 -0.3168c 0.3744 0.0096 0.9216 0.0192 1.248 0.0192Z "/></symbol><symbol id="3f" overflow="visible"><path d="M 0 0m 1.7376 1.1712v 1.9104c 0 0.48 0.0384 1.0944 0.0384 1.0944c 0 0.0384 -0.048 0.0672 -0.1248 0.0672c -0.2688 -0.1056 -0.6528 -0.192 -1.3152 -0.2784c -0.0192 -0.0576 0 -0.2112 0.0192 -0.2688c 0.528 -0.048 0.624 -0.1056 0.624 -0.6528v -1.872c 0 -0.7968 -0.1056 -0.8256 -0.6912 -0.8736c -0.0576 -0.0576 -0.0576 -0.2592 0 -0.3168c 0.3168 0.0096 0.6912 0.0192 1.0752 0.0192c 0.384 0 0.7488 -0.0096 1.0656 -0.0192c 0.0576 0.0576 0.0576 0.2592 0 0.3168c -0.5856 0.0384 -0.6912 0.0768 -0.6912 0.8736Z m -0.8736 4.5792c 0 -0.2496 0.2304 -0.4992 0.4608 -0.4992c 0.2688 0 0.4992 0.2592 0.4992 0.4608c 0 0.2304 -0.2016 0.4992 -0.4608 0.4992c -0.2304 0 -0.4992 -0.2304 -0.4992 -0.4608Z "/></symbol><symbol id="40" overflow="visible"><path d="M 0 0m 0.4128 4.1184c -0.1344 0 -0.1728 -0.1152 -0.1728 -0.192v -0.1248c 0 -0.048 0.0096 -0.0576 0.048 -0.0576h 0.5664v -2.8896c 0 -0.6816 0.2976 -0.9504 0.7392 -0.9504c 0.4416 0 0.9216 0.2112 1.296 0.6336c -0.0192 0.096 -0.0768 0.1536 -0.1728 0.1632c -0.2496 -0.192 -0.5376 -0.2688 -0.7872 -0.2688c -0.2592 0 -0.3168 0.288 -0.3168 0.8832v 2.4288h 0.9984c 0.096 0 0.2304 0.0384 0.2304 0.1248v 0.192c 0 0.0384 -0.0288 0.0576 -0.0768 0.0576h -1.152v 0.3744c 0 0.624 0.0384 1.008 0.0384 1.008c 0 0.0576 -0.0288 0.0864 -0.0768 0.0864c -0.0384 0 -0.1248 -0.0384 -0.2112 -0.0864c -0.1056 -0.0576 -0.2016 -0.1056 -0.3264 -0.1344c -0.1152 -0.0384 -0.2112 -0.0672 -0.2112 -0.1344c 0 -0.1152 0.0288 -0.048 0.0288 -1.1136Z "/></symbol><symbol id="41" overflow="visible"><path d="M 0 0m 3.7056 0.8928c -0.3552 -0.3648 -0.6336 -0.5184 -1.1904 -0.5184c -0.3456 0 -0.7488 0.2016 -1.0464 0.6912c -0.192 0.3168 -0.3072 0.7584 -0.3072 1.3152l 2.5536 -0.0192c 0.1152 0 0.1824 0.0576 0.1824 0.1632c 0 0.8064 -0.288 1.6704 -1.6224 1.6704c -0.8352 0 -1.92 -0.7968 -1.92 -2.256c 0 -0.5376 0.1344 -1.056 0.4512 -1.4208c 0.3264 -0.384 0.7776 -0.6144 1.4688 -0.6144c 0.7296 0 1.248 0.336 1.632 0.8352c -0.0288 0.096 -0.0864 0.144 -0.2016 0.1536Z m -2.5152 1.8144c 0.1824 1.0848 0.8544 1.1712 1.0848 1.1712c 0.3648 0 0.7968 -0.2016 0.7968 -1.008c 0 -0.0864 -0.0384 -0.1344 -0.144 -0.1344Z "/></symbol><symbol id="42" overflow="visible"><path d="M 0 0m 1.6896 3.4368c -0.0192 0.384 -0.0288 0.6336 -0.0768 0.7296c -0.0192 0.048 -0.0384 0.0768 -0.1152 0.0768c -0.2688 -0.1056 -0.5184 -0.192 -1.1808 -0.2784c -0.0192 -0.0576 0 -0.2112 0.0192 -0.2688c 0.5184 -0.048 0.624 -0.096 0.624 -0.6528v -1.872c 0 -0.7968 -0.1152 -0.8352 -0.7104 -0.8736c -0.0576 -0.0576 -0.0576 -0.2592 0 -0.3168c 0.336 0.0096 0.7104 0.0192 1.0944 0.0192c 0.384 0 0.8256 -0.0096 1.1616 -0.0192c 0.0576 0.0576 0.0576 0.2592 0 0.3168c -0.672 0.048 -0.7872 0.0768 -0.7872 0.8736v 1.3344c 0 0.2496 0.1152 0.4704 0.2304 0.6432c 0.1056 0.1536 0.3264 0.4704 0.4416 0.4704c 0.0864 0 0.1728 -0.0192 0.2496 -0.1248c 0.0672 -0.096 0.1824 -0.2208 0.3456 -0.2208c 0.2304 0 0.4512 0.24 0.4512 0.48c 0 0.1824 -0.1728 0.4608 -0.576 0.4608c -0.4512 0 -0.8448 -0.4224 -1.0656 -0.7968c -0.0576 -0.1056 -0.1056 -0.0288 -0.1056 0.0192Z "/></symbol><symbol id="43" overflow="visible"><path d="M 0 0m 0.4608 1.3248c 0.0384 -0.4704 0.0672 -0.9216 0.0672 -1.3248c 0.096 0.0192 0.192 0.0288 0.24 0.0288c 0.0672 0 0.1248 0 0.192 -0.0192c 0.2592 -0.0672 0.5184 -0.1056 0.8736 -0.1056c 0.5376 0 1.5264 0.2592 1.5264 1.2096c 0 0.6528 -0.4704 1.0368 -1.1232 1.2768c -0.576 0.2208 -0.96 0.3648 -0.96 0.8928c 0 0.3936 0.3456 0.6144 0.672 0.6144c 0.2112 0 0.768 -0.0768 0.8928 -0.8928c 0.0576 -0.0576 0.2496 -0.048 0.3072 0.0096c 0.0288 0.3456 0.048 0.7008 0.0576 1.0176c -0.2976 0.048 -0.7584 0.1824 -1.2576 0.1824c -0.7104 0 -1.3536 -0.4608 -1.3536 -1.0752c 0 -0.7008 0.3168 -0.9984 1.056 -1.3056c 0.7968 -0.3264 0.9792 -0.528 0.9792 -0.9408c 0 -0.4704 -0.4608 -0.672 -0.816 -0.672c -0.3744 0 -0.5856 0.1248 -0.6816 0.2304c -0.2112 0.2208 -0.3168 0.6432 -0.3744 0.8832c -0.0576 0.0576 -0.24 0.048 -0.2976 -0.0096Z "/></symbol><symbol id="44" overflow="visible"><path d="M 0 0m 1.4976 3.5328c -0.0096 0.288 -0.0288 0.5376 -0.0768 0.6336c -0.0192 0.048 -0.0384 0.0768 -0.1152 0.0768c -0.2688 -0.1056 -0.5184 -0.192 -1.1808 -0.2784c -0.0192 -0.0576 0 -0.2112 0.0192 -0.2688c 0.5184 -0.048 0.624 -0.096 0.624 -0.6528v -4.0992c 0 -0.7968 -0.1056 -0.8448 -0.6912 -0.8736c -0.0576 -0.0576 -0.0576 -0.2592 0 -0.3168c 0.336 0.0096 0.6912 0.0192 1.0752 0.0192c 0.384 0 0.8448 -0.0096 1.1616 -0.0192c 0.0576 0.0576 0.0576 0.2592 0 0.3168c -0.6816 0.0384 -0.7872 0.0768 -0.7872 0.8736v 1.0368c 0 0.1248 0.0384 0.1152 0.1344 0.0768c 0.24 -0.096 0.528 -0.1536 0.8352 -0.1536c 0.5376 0 1.0176 0.1632 1.4112 0.5376c 0.4512 0.4416 0.7104 1.0368 0.7104 1.8144c 0 1.0176 -0.72 1.9584 -1.6992 1.9584c -0.4416 0 -0.9312 -0.288 -1.3152 -0.72c -0.0576 -0.0576 -0.096 -0.0576 -0.1056 0.0384Z m 0.1824 -0.3552c 0.2496 0.3072 0.6912 0.5952 0.9696 0.5952c 0.6144 0 1.1424 -0.6912 1.1424 -1.776c 0 -0.7872 -0.2784 -1.7664 -1.3536 -1.7664c -0.1728 0 -0.5088 0.048 -0.6816 0.2016c -0.192 0.1728 -0.2304 0.2304 -0.2304 0.576v 1.7472c 0 0.2016 0.0384 0.288 0.1536 0.4224Z "/></symbol><symbol id="45" overflow="visible"><path d="M 0 0m 1.9584 -1.536c 0.1536 0.2688 0.2784 0.5376 0.3936 0.8256c 0.768 1.8528 1.2 2.8416 1.6992 3.9168c 0.192 0.4032 0.3264 0.5568 0.7776 0.6144c 0.0576 0.0576 0.0576 0.2592 0 0.3168c -0.192 -0.0096 -0.4128 -0.0192 -0.6816 -0.0192c -0.288 0 -0.5856 0.0096 -0.8736 0.0192c -0.0576 -0.0576 -0.0576 -0.2592 0 -0.3168c 0.3072 -0.0288 0.6144 -0.0864 0.4608 -0.432l -0.9504 -2.1984c -0.0672 -0.1536 -0.1536 -0.1824 -0.2304 0.0096l -0.8544 1.9968c -0.1728 0.4032 -0.2208 0.5856 0.3168 0.624c 0.0576 0.0576 0.0576 0.2592 0 0.3168c -0.3552 -0.0096 -0.7392 -0.0192 -1.0848 -0.0192c -0.3264 0 -0.5856 0.0096 -0.7776 0.0192c -0.0576 -0.0576 -0.0576 -0.2592 0 -0.3168c 0.384 -0.048 0.5088 -0.1344 0.7584 -0.72l 1.0848 -2.5248c 0.0864 -0.192 0.2304 -0.6336 0.1344 -0.9024c -0.1152 -0.3168 -0.2304 -0.5856 -0.3744 -0.8832c -0.1056 -0.192 -0.24 -0.2784 -0.48 -0.2784c -0.1344 0 -0.1728 0.0288 -0.2784 0.0288c -0.2784 0 -0.4224 -0.288 -0.4224 -0.4128c 0 -0.2016 0.192 -0.3552 0.4512 -0.3552c 0.2016 0 0.5856 0.0768 0.9312 0.6912Z "/></symbol><symbol id="46" overflow="visible"><path d="M 0 0m 2.8128 0.4608c 0.0576 -0.2976 0.1632 -0.5568 0.6432 -0.5568c 0.3648 0 0.7104 0.1632 0.912 0.3552c -0.0192 0.1152 -0.0576 0.2016 -0.1632 0.2592c -0.0672 -0.0576 -0.2304 -0.1536 -0.3552 -0.1536c -0.2784 0 -0.288 0.3744 -0.288 0.816v 1.4112c 0 1.3632 -0.7488 1.6224 -1.4496 1.6224c -0.7872 0 -1.584 -0.5184 -1.584 -1.0656c 0 -0.2304 0.1152 -0.3456 0.336 -0.3456c 0.2784 0 0.4512 0.2016 0.4512 0.3264c 0 0.0672 -0.0096 0.1344 -0.0288 0.1728c -0.0096 0.0288 -0.0192 0.0864 -0.0192 0.192c 0 0.2976 0.4032 0.4032 0.768 0.4032c 0.3264 0 0.7776 -0.1632 0.7776 -1.248c 0 -0.0672 -0.0288 -0.1056 -0.0576 -0.1152l -0.8256 -0.2016c -0.9216 -0.2304 -1.584 -0.7392 -1.584 -1.392c 0 -0.7872 0.5376 -1.0368 1.2096 -1.0368c 0.336 0 0.624 0.0768 1.0464 0.4032l 0.192 0.1536Z m 0 1.776v -1.2672c 0 -0.1248 -0.0576 -0.192 -0.1344 -0.2496c -0.2496 -0.2016 -0.576 -0.4224 -0.8448 -0.4224c -0.48 0 -0.6912 0.384 -0.6912 0.6816c 0 0.432 0.2016 0.8736 0.912 1.056Z "/></symbol></defs></svg>