<svg class="typst-doc" viewBox="0 0 322.14 129.5368" width="322.14pt" height="129.5368pt" xmlns="http://www.w3.org/2000/svg" xmlns:xlink="http://www.w3.org/1999/xlink" xmlns:h5="http://www.w3.org/1999/xhtml">
    <path class="typst-shape" fill="#ffffff" fill-rule="nonzero" d="M 0 0 L 0 129.5368 L 322.14 129.5368 L 322.14 0 Z "/>
    <g>
        <g transform="translate(111.685 20.74)">
            <path class="typst-shape" fill="none" stroke="#000000" stroke-width="0.75" stroke-linecap="butt" stroke-linejoin="miter" stroke-miterlimit="4" d="M 0 0 L 80.678 0 "/>
        </g>
        <g transform="translate(194.613 20.74)">
            <path class="typst-shape" fill="none" stroke="#000000" stroke-width="0.75" stroke-linecap="butt" stroke-linejoin="miter" stroke-miterlimit="4" d="M 0 0 L 124.902 0 "/>
        </g>
        <g transform="translate(2.5 3)">
            <path class="typst-shape" fill="none" stroke="#000000" stroke-width="1" stroke-linecap="butt" stroke-linejoin="miter" stroke-miterlimit="4" d="M 0 0 L 317.14 0 "/>
        </g>
        <g transform="translate(2.5 110.21999999999998)">
            <path class="typst-shape" fill="none" stroke="#000000" stroke-width="1" stroke-linecap="butt" stroke-linejoin="miter" stroke-miterlimit="4" d="M 0 0 L 317.14 0 "/>
        </g>
        <g transform="translate(123.56600000000002 15.74)">
            <g class="typst-text" transform="scale(1, -1)">
                <use xlink:href="#0" x="0" fill="#000000" fill-rule="nonzero"/>
                <use xlink:href="#1" x="8.808" fill="#000000" fill-rule="nonzero"/>
                <use xlink:href="#2" x="14.76" fill="#000000" fill-rule="nonzero"/>
                <use xlink:href="#3" x="20.232" fill="#000000" fill-rule="nonzero"/>
                <use xlink:href="#4" x="24.096" fill="#000000" fill-rule="nonzero"/>
                <use xlink:href="#5" x="30.828" fill="#000000" fill-rule="nonzero"/>
                <use xlink:href="#6" x="38.004" fill="#000000" fill-rule="nonzero"/>
                <use xlink:href="#5" x="44.616" fill="#000000" fill-rule="nonzero"/>
                <use xlink:href="#7" x="51.792" fill="#000000" fill-rule="nonzero"/>
            </g>
        </g>
        <g transform="translate(229.52999999999997 15.74)">
            <g class="typst-text" transform="scale(1, -1)">
                <use xlink:href="#8" x="0" fill="#000000" fill-rule="nonzero"/>
                <use xlink:href="#9" x="7.308" fill="#000000" fill-rule="nonzero"/>
                <use xlink:href="#1" x="13.559999999999999" fill="#000000" fill-rule="nonzero"/>
                <use xlink:href="#a" x="19.427999999999997" fill="#000000" fill-rule="nonzero"/>
                <use xlink:href="#b" x="24.563999999999997" fill="#000000" fill-rule="nonzero"/>
                <use xlink:href="#a" x="30.815999999999995" fill="#000000" fill-rule="nonzero"/>
                <use xlink:href="#1" x="35.855999999999995" fill="#000000" fill-rule="nonzero"/>
                <use xlink:href="#1" x="41.80799999999999" fill="#000000" fill-rule="nonzero"/>
                <use xlink:href="#c" x="47.675999999999995" fill="#000000" fill-rule="nonzero"/>
            </g>
        </g>
        <g transform="translate(117.06 33.636)">
            <g class="typst-text" transform="scale(1, -1)">
                <use xlink:href="#d" x="0" fill="#000000" fill-rule="nonzero"/>
                <use xlink:href="#e" x="7.056" fill="#000000" fill-rule="nonzero"/>
                <use xlink:href="#e" x="12.504000000000001" fill="#000000" fill-rule="nonzero"/>
                <use xlink:href="#f" x="17.952" fill="#000000" fill-rule="nonzero"/>
                <use xlink:href="#10" x="23.088" fill="#000000" fill-rule="nonzero"/>
            </g>
        </g>
        <g transform="translate(163.26999999999998 33.636)">
            <g class="typst-text" transform="scale(1, -1)">
                <use xlink:href="#11" x="0" fill="#000000" fill-rule="nonzero"/>
                <use xlink:href="#12" x="8.424" fill="#000000" fill-rule="nonzero"/>
                <use xlink:href="#13" x="13.908000000000001" fill="#000000" fill-rule="nonzero"/>
            </g>
        </g>
        <g transform="translate(206.912 33.636)">
            <g class="typst-text" transform="scale(1, -1)">
                <use xlink:href="#14" x="0" fill="#000000" fill-rule="nonzero"/>
                <use xlink:href="#15" x="5.82" fill="#000000" fill-rule="nonzero"/>
                <use xlink:href="#16" x="9.072000000000001" fill="#000000" fill-rule="nonzero"/>
            </g>
        </g>
        <g transform="translate(240.37199999999999 33.636)">
            <g class="typst-text" transform="scale(1, -1)">
                <use xlink:href="#17" x="0" fill="#000000" fill-rule="nonzero"/>
                <use xlink:href="#18" x="5.82" fill="#000000" fill-rule="nonzero"/>
                <use xlink:href="#16" x="12.048" fill="#000000" fill-rule="nonzero"/>
                <use xlink:href="#19" x="16.512" fill="#000000" fill-rule="nonzero"/>
                <use xlink:href="#f" x="22.884" fill="#000000" fill-rule="nonzero"/>
                <use xlink:href="#e" x="28.02" fill="#000000" fill-rule="nonzero"/>
            </g>
        </g>
        <g transform="translate(289.642 33.636)">
            <g class="typst-text" transform="scale(1, -1)">
                <use xlink:href="#1a" x="0" fill="#000000" fill-rule="nonzero"/>
                <use xlink:href="#15" x="6.492" fill="#000000" fill-rule="nonzero"/>
                <use xlink:href="#1b" x="9.744" fill="#000000" fill-rule="nonzero"/>
                <use xlink:href="#e" x="16.248" fill="#000000" fill-rule="nonzero"/>
            </g>
        </g>
        <g transform="translate(3 38.636)">
            <g class="typst-group">
                <g>
                    <g transform="translate(82.256 12.74)">
                        <g class="typst-text" transform="scale(1, -1)">
                            <use xlink:href="#1c" x="0" fill="#000000" fill-rule="nonzero"/>
                            <use xlink:href="#1d" x="5.448" fill="#000000" fill-rule="nonzero"/>
                            <use xlink:href="#1e" x="8.760000000000002" fill="#000000" fill-rule="nonzero"/>
                            <use xlink:href="#1f" x="13.992" fill="#000000" fill-rule="nonzero"/>
                        </g>
                    </g>
                    <g transform="translate(118.51200000000001 12.895999999999999)">
                        <g class="typst-text" transform="scale(1, -1)">
                            <use xlink:href="#20" x="0" fill="#000000" fill-rule="nonzero"/>
                            <use xlink:href="#21" x="5.580000000000001" fill="#000000" fill-rule="nonzero"/>
                            <use xlink:href="#22" x="11.160000000000002" fill="#000000" fill-rule="nonzero"/>
                        </g>
                    </g>
                    <g transform="translate(159.97599999999997 12.895999999999999)">
                        <g class="typst-text" transform="scale(1, -1)">
                            <use xlink:href="#23" x="0" fill="#000000" fill-rule="nonzero"/>
                            <use xlink:href="#24" x="5.580000000000001" fill="#000000" fill-rule="nonzero"/>
                            <use xlink:href="#22" x="11.160000000000002" fill="#000000" fill-rule="nonzero"/>
                        </g>
                    </g>
                    <g transform="translate(200.35999999999999 12.895999999999999)">
                        <g class="typst-text" transform="scale(1, -1)">
                            <use xlink:href="#20" x="0" fill="#000000" fill-rule="nonzero"/>
                            <use xlink:href="#25" x="5.580000000000001" fill="#000000" fill-rule="nonzero"/>
                            <use xlink:href="#22" x="11.160000000000002" fill="#000000" fill-rule="nonzero"/>
                        </g>
                    </g>
                    <g transform="translate(243.74399999999997 12.895999999999999)">
                        <g class="typst-text" transform="scale(1, -1)">
                            <use xlink:href="#26" x="0" fill="#000000" fill-rule="nonzero"/>
                            <use xlink:href="#27" x="5.580000000000001" fill="#000000" fill-rule="nonzero"/>
                            <use xlink:href="#22" x="11.160000000000002" fill="#000000" fill-rule="nonzero"/>
                        </g>
                    </g>
                    <g transform="translate(287.128 12.895999999999999)">
                        <g class="typst-text" transform="scale(1, -1)">
                            <use xlink:href="#26" x="0" fill="#000000" fill-rule="nonzero"/>
                            <use xlink:href="#28" x="5.580000000000001" fill="#000000" fill-rule="nonzero"/>
                            <use xlink:href="#22" x="11.160000000000002" fill="#000000" fill-rule="nonzero"/>
                        </g>
                    </g>
                </g>
            </g>
        </g>
        <g transform="translate(3 56.532000000000004)">
            <g class="typst-group">
                <g>
                    <g transform="translate(5 12.74)">
                        <g class="typst-text" transform="scale(1, -1)">
                            <use xlink:href="#29" x="0" fill="#000000" fill-rule="nonzero"/>
                            <use xlink:href="#2a" x="10.188" fill="#000000" fill-rule="nonzero"/>
                            <use xlink:href="#2b" x="16.02" fill="#000000" fill-rule="nonzero"/>
                            <use xlink:href="#1f" x="19.704" fill="#000000" fill-rule="nonzero"/>
                            <use xlink:href="#2c" x="24.516000000000002" fill="#000000" fill-rule="nonzero"/>
                            <use xlink:href="#2d" x="31.8" fill="#000000" fill-rule="nonzero"/>
                            <use xlink:href="#2e" x="36.468" fill="#000000" fill-rule="nonzero"/>
                            <use xlink:href="#2f" x="41.83200000000001" fill="#000000" fill-rule="nonzero"/>
                            <use xlink:href="#30" x="48.04800000000001" fill="#000000" fill-rule="nonzero"/>
                            <use xlink:href="#31" x="52.284000000000006" fill="#000000" fill-rule="nonzero"/>
                            <use xlink:href="#32" x="58.53600000000001" fill="#000000" fill-rule="nonzero"/>
                            <use xlink:href="#33" x="67.93200000000002" fill="#000000" fill-rule="nonzero"/>
                            <use xlink:href="#2b" x="73.80000000000001" fill="#000000" fill-rule="nonzero"/>
                            <use xlink:href="#1d" x="77.48400000000001" fill="#000000" fill-rule="nonzero"/>
                            <use xlink:href="#2e" x="80.796" fill="#000000" fill-rule="nonzero"/>
                            <use xlink:href="#2f" x="86.16000000000001" fill="#000000" fill-rule="nonzero"/>
                            <use xlink:href="#34" x="92.376" fill="#000000" fill-rule="nonzero"/>
                        </g>
                    </g>
                    <g transform="translate(120.18 12.895999999999999)">
                        <g class="typst-text" transform="scale(1, -1)">
                            <use xlink:href="#35" x="0" fill="#000000" fill-rule="nonzero"/>
                            <use xlink:href="#24" x="5.580000000000001" fill="#000000" fill-rule="nonzero"/>
                            <use xlink:href="#13" x="11.160000000000002" fill="#000000" fill-rule="nonzero"/>
                        </g>
                    </g>
                    <g transform="translate(161.644 12.895999999999999)">
                        <g class="typst-text" transform="scale(1, -1)">
                            <use xlink:href="#35" x="0" fill="#000000" fill-rule="nonzero"/>
                            <use xlink:href="#26" x="5.580000000000001" fill="#000000" fill-rule="nonzero"/>
                            <use xlink:href="#13" x="11.160000000000002" fill="#000000" fill-rule="nonzero"/>
                        </g>
                    </g>
                    <g transform="translate(202.02799999999996 12.895999999999999)">
                        <g class="typst-text" transform="scale(1, -1)">
                            <use xlink:href="#35" x="0" fill="#000000" fill-rule="nonzero"/>
                            <use xlink:href="#25" x="5.580000000000001" fill="#000000" fill-rule="nonzero"/>
                            <use xlink:href="#13" x="11.160000000000002" fill="#000000" fill-rule="nonzero"/>
                        </g>
                    </g>
                    <g transform="translate(248.202 12.895999999999999)">
                        <g class="typst-text" transform="scale(1, -1)">
                            <use xlink:href="#28" x="0" fill="#000000" fill-rule="nonzero"/>
                            <use xlink:href="#13" x="5.580000000000001" fill="#000000" fill-rule="nonzero"/>
                        </g>
                    </g>
                    <g transform="translate(291.58600000000007 12.895999999999999)">
                        <g class="typst-text" transform="scale(1, -1)">
                            <use xlink:href="#27" x="0" fill="#000000" fill-rule="nonzero"/>
                            <use xlink:href="#13" x="5.580000000000001" fill="#000000" fill-rule="nonzero"/>
                        </g>
                    </g>
                </g>
            </g>
        </g>
        <g transform="translate(3 74.428)">
            <g class="typst-group">
                <g>
                    <g transform="translate(82.66400000000002 12.74)">
                        <g class="typst-text" transform="scale(1, -1)">
                            <use xlink:href="#36" x="0" fill="#000000" fill-rule="nonzero"/>
                            <use xlink:href="#37" x="7.86" fill="#000000" fill-rule="nonzero"/>
                            <use xlink:href="#1f" x="13.584" fill="#000000" fill-rule="nonzero"/>
                        </g>
                    </g>
                    <g transform="translate(115.14 12.895999999999999)">
                        <g class="typst-text" transform="scale(1, -1)">
                            <use xlink:href="#21" x="0" fill="#000000" fill-rule="nonzero"/>
                            <use xlink:href="#24" x="5.580000000000001" fill="#000000" fill-rule="nonzero"/>
                            <use xlink:href="#24" x="11.160000000000002" fill="#000000" fill-rule="nonzero"/>
                            <use xlink:href="#38" x="16.740000000000002" fill="#000000" fill-rule="nonzero"/>
                            <use xlink:href="#16" x="22.92" fill="#000000" fill-rule="nonzero"/>
                        </g>
                    </g>
                    <g transform="translate(156.60399999999998 12.895999999999999)">
                        <g class="typst-text" transform="scale(1, -1)">
                            <use xlink:href="#25" x="0" fill="#000000" fill-rule="nonzero"/>
                            <use xlink:href="#24" x="5.580000000000001" fill="#000000" fill-rule="nonzero"/>
                            <use xlink:href="#24" x="11.160000000000002" fill="#000000" fill-rule="nonzero"/>
                            <use xlink:href="#38" x="16.740000000000002" fill="#000000" fill-rule="nonzero"/>
                            <use xlink:href="#16" x="22.92" fill="#000000" fill-rule="nonzero"/>
                        </g>
                    </g>
                    <g transform="translate(196.988 12.895999999999999)">
                        <g class="typst-text" transform="scale(1, -1)">
                            <use xlink:href="#39" x="0" fill="#000000" fill-rule="nonzero"/>
                            <use xlink:href="#24" x="5.580000000000001" fill="#000000" fill-rule="nonzero"/>
                            <use xlink:href="#24" x="11.160000000000002" fill="#000000" fill-rule="nonzero"/>
                            <use xlink:href="#38" x="16.740000000000002" fill="#000000" fill-rule="nonzero"/>
                            <use xlink:href="#16" x="22.92" fill="#000000" fill-rule="nonzero"/>
                        </g>
                    </g>
                    <g transform="translate(240.37199999999999 12.895999999999999)">
                        <g class="typst-text" transform="scale(1, -1)">
                            <use xlink:href="#27" x="0" fill="#000000" fill-rule="nonzero"/>
                            <use xlink:href="#24" x="5.580000000000001" fill="#000000" fill-rule="nonzero"/>
                            <use xlink:href="#24" x="11.160000000000002" fill="#000000" fill-rule="nonzero"/>
                            <use xlink:href="#38" x="16.740000000000002" fill="#000000" fill-rule="nonzero"/>
                            <use xlink:href="#16" x="22.92" fill="#000000" fill-rule="nonzero"/>
                        </g>
                    </g>
                    <g transform="translate(283.75600000000003 12.895999999999999)">
                        <g class="typst-text" transform="scale(1, -1)">
                            <use xlink:href="#23" x="0" fill="#000000" fill-rule="nonzero"/>
                            <use xlink:href="#24" x="5.580000000000001" fill="#000000" fill-rule="nonzero"/>
                            <use xlink:href="#24" x="11.160000000000002" fill="#000000" fill-rule="nonzero"/>
                            <use xlink:href="#38" x="16.740000000000002" fill="#000000" fill-rule="nonzero"/>
                            <use xlink:href="#16" x="22.92" fill="#000000" fill-rule="nonzero"/>
                        </g>
                    </g>
                </g>
            </g>
        </g>
        <g transform="translate(3 92.324)">
            <g class="typst-group">
                <g>
                    <g transform="translate(74.528 12.74)">
                        <g class="typst-text" transform="scale(1, -1)">
                            <use xlink:href="#3a" x="0" fill="#000000" fill-rule="nonzero"/>
                            <use xlink:href="#2a" x="6.444" fill="#000000" fill-rule="nonzero"/>
                            <use xlink:href="#3b" x="12.276" fill="#000000" fill-rule="nonzero"/>
                            <use xlink:href="#31" x="15.468" fill="#000000" fill-rule="nonzero"/>
                            <use xlink:href="#1f" x="21.72" fill="#000000" fill-rule="nonzero"/>
                        </g>
                    </g>
                    <g transform="translate(120.462 12.895999999999999)">
                        <g class="typst-text" transform="scale(1, -1)">
                            <use xlink:href="#25" x="0" fill="#000000" fill-rule="nonzero"/>
                            <use xlink:href="#24" x="5.580000000000001" fill="#000000" fill-rule="nonzero"/>
                            <use xlink:href="#3c" x="11.160000000000002" fill="#000000" fill-rule="nonzero"/>
                        </g>
                    </g>
                    <g transform="translate(159.13599999999997 12.895999999999999)">
                        <g class="typst-text" transform="scale(1, -1)">
                            <use xlink:href="#35" x="0" fill="#000000" fill-rule="nonzero"/>
                            <use xlink:href="#21" x="5.580000000000001" fill="#000000" fill-rule="nonzero"/>
                            <use xlink:href="#24" x="11.160000000000002" fill="#000000" fill-rule="nonzero"/>
                            <use xlink:href="#3c" x="16.740000000000002" fill="#000000" fill-rule="nonzero"/>
                        </g>
                    </g>
                    <g transform="translate(202.31 12.895999999999999)">
                        <g class="typst-text" transform="scale(1, -1)">
                            <use xlink:href="#23" x="0" fill="#000000" fill-rule="nonzero"/>
                            <use xlink:href="#24" x="5.580000000000001" fill="#000000" fill-rule="nonzero"/>
                            <use xlink:href="#3c" x="11.160000000000002" fill="#000000" fill-rule="nonzero"/>
                        </g>
                    </g>
                    <g transform="translate(245.694 12.895999999999999)">
                        <g class="typst-text" transform="scale(1, -1)">
                            <use xlink:href="#27" x="0" fill="#000000" fill-rule="nonzero"/>
                            <use xlink:href="#24" x="5.580000000000001" fill="#000000" fill-rule="nonzero"/>
                            <use xlink:href="#3c" x="11.160000000000002" fill="#000000" fill-rule="nonzero"/>
                        </g>
                    </g>
                    <g transform="translate(289.07800000000003 12.895999999999999)">
                        <g class="typst-text" transform="scale(1, -1)">
                            <use xlink:href="#21" x="0" fill="#000000" fill-rule="nonzero"/>
                            <use xlink:href="#24" x="5.580000000000001" fill="#000000" fill-rule="nonzero"/>
                            <use xlink:href="#3c" x="11.160000000000002" fill="#000000" fill-rule="nonzero"/>
                        </g>
                    </g>
                </g>
            </g>
        </g>
        <g transform="translate(8 121.53679999999999)">
            <g class="typst-text" transform="scale(1, -1)">
                <use xlink:href="#3d" x="0" fill="#000000" fill-rule="nonzero"/>
                <use xlink:href="#3e" x="2.9472" fill="#000000" fill-rule="nonzero"/>
                <use xlink:href="#3f" x="8.016" fill="#000000" fill-rule="nonzero"/>
                <use xlink:href="#40" x="10.6176" fill="#000000" fill-rule="nonzero"/>
                <use xlink:href="#41" x="13.6512" fill="#000000" fill-rule="nonzero"/>
                <use xlink:href="#42" x="17.9424" fill="#000000" fill-rule="nonzero"/>
                <use xlink:href="#43" x="21.5136" fill="#000000" fill-rule="nonzero"/>
                <use xlink:href="#44" x="27.6576" fill="#000000" fill-rule="nonzero"/>
                <use xlink:href="#41" x="32.7072" fill="#000000" fill-rule="nonzero"/>
                <use xlink:href="#42" x="36.998400000000004" fill="#000000" fill-rule="nonzero"/>
                <use xlink:href="#45" x="42.9696" fill="#000000" fill-rule="nonzero"/>
                <use xlink:href="#41" x="47.8368" fill="#000000" fill-rule="nonzero"/>
                <use xlink:href="#46" x="52.128" fill="#000000" fill-rule="nonzero"/>
                <use xlink:href="#42" x="56.5152" fill="#000000" fill-rule="nonzero"/>
            </g>
        </g>
    </g>
    <defs id="47">
        <symbol id="0" overflow="visible">
            <path d="M 2.22 0 C 2.7 0 3.684 -0.024 4.164 -0.024 C 5.2200003 -0.024 6.408 0.24000001 7.26 0.984 C 7.836 1.488 8.232 2.484 8.232 3.708 C 8.232 5.928 6.7920003 7.752 3.8400002 7.752 C 3.204 7.752 2.7 7.7400002 2.22 7.7400002 C 1.74 7.7400002 0.372 7.764 0.372 7.764 C 0.252 7.692 0.252 7.428 0.372 7.356 C 1.0320001 7.32 1.368 7.272 1.368 6.276 L 1.368 1.464 C 1.368 0.468 1.0320001 0.42000002 0.372 0.384 C 0.252 0.312 0.252 0.048 0.372 -0.024 C 0.372 -0.024 1.74 0 2.22 0 Z M 3.048 1.428 L 3.048 6.348 C 3.048 7.008 3.3600001 7.248 3.792 7.248 C 6.156 7.248 6.42 5.2200003 6.42 3.408 C 6.42 1.224 5.112 0.48000002 4.2 0.48000002 C 3.3600001 0.48000002 3.048 0.624 3.048 1.428 Z "/>
        </symbol>
        <symbol id="1" overflow="visible">
            <path d="M 5.172 1.548 C 4.68 1.044 4.032 0.912 3.576 0.912 C 2.64 0.912 2.0640001 1.452 2.0640001 2.628 C 2.0640001 2.7120001 2.076 2.76 2.076 2.82 L 4.956 2.82 C 5.244 2.82 5.304 3.024 5.304 3.192 C 5.304 4.212 4.908 5.328 3.144 5.328 C 1.8840001 5.328 0.444 4.212 0.444 2.376 C 0.444 1.6800001 0.696 0.948 1.212 0.48000002 C 1.668 0.072 2.256 -0.120000005 3.108 -0.120000005 C 3.936 -0.120000005 4.752 0.3 5.352 1.176 C 5.352 1.332 5.292 1.548 5.172 1.548 Z M 2.124 3.3 C 2.136 3.72 2.196 4.176 2.364 4.416 C 2.556 4.704 2.88 4.824 3.012 4.824 C 3.336 4.824 3.78 4.512 3.78 3.552 C 3.78 3.48 3.78 3.3240001 3.756 3.3 Z "/>
        </symbol>
        <symbol id="2" overflow="visible">
            <path d="M 5.064 1.044 C 5.064 1.188 5.04 1.416 4.908 1.416 C 4.428 0.972 4.02 0.744 3.672 0.744 C 2.772 0.744 2.0640001 1.392 2.0640001 2.832 C 2.0640001 4.164 2.364 4.824 3 4.824 C 3.444 4.824 3.624 4.356 3.66 3.9720001 C 3.696 3.648 4.02 3.408 4.404 3.408 C 4.788 3.408 5.064 3.708 5.064 4.08 C 5.064 4.62 4.416 5.328 3.108 5.328 C 1.692 5.328 0.444 4.188 0.444 2.412 C 0.444 1.632 0.72 0.948 1.188 0.504 C 1.656 0.060000002 2.208 -0.120000005 3.06 -0.120000005 C 3.78 -0.120000005 4.608 0.384 5.064 1.044 Z "/>
        </symbol>
        <symbol id="3" overflow="visible">
            <path d="M 2.784 1.464 L 2.784 3.852 C 2.784 4.452 2.832 5.124 2.832 5.124 C 2.832 5.256 2.724 5.328 2.556 5.328 C 2.22 5.196 1.248 5.1 0.42000002 4.992 C 0.396 4.92 0.42000002 4.68 0.444 4.608 C 1.104 4.548 1.224 4.452 1.224 3.7680001 L 1.224 1.464 C 1.224 0.468 1.092 0.444 0.36 0.384 C 0.288 0.312 0.288 0.048 0.36 -0.024 C 0.864 -0.012 1.368 0 2.004 0 C 2.64 0 3.132 -0.012 3.648 -0.024 C 3.72 0.048 3.72 0.312 3.648 0.384 C 2.9160001 0.432 2.784 0.468 2.784 1.464 Z M 1.164 7.152 C 1.164 6.756 1.452 6.36 1.932 6.36 C 2.4720001 6.36 2.784 6.7920003 2.784 7.104 C 2.784 7.464 2.5080001 7.896 2.004 7.896 C 1.44 7.896 1.164 7.512 1.164 7.152 Z "/>
        </symbol>
        <symbol id="4" overflow="visible">
            <path d="M 4.26 0.576 C 4.284 0.288 4.308 0.084 4.308 0.084 C 4.32 -0.060000002 4.416 -0.120000005 4.584 -0.120000005 C 5.028 0 5.748 0.168 6.576 0.276 C 6.6 0.348 6.576 0.588 6.552 0.66 C 5.9040003 0.72 5.772 0.912 5.772 1.596 L 5.772 6.9960003 C 5.772 7.776 5.808 8.22 5.808 8.22 C 5.808 8.328 5.724 8.376 5.616 8.376 C 5.172 8.232 4.212 8.1 3.3600001 8.064 C 3.3240001 7.92 3.336 7.764 3.3960001 7.656 C 4.152 7.596 4.212 7.584 4.212 6.756 L 4.212 5.196 C 3.984 5.268 3.696 5.328 3.348 5.328 C 1.8000001 5.328 0.444 3.9720001 0.444 2.376 C 0.444 1.668 0.696 0.84000003 1.284 0.384 C 1.716 0.048 2.016 -0.120000005 2.688 -0.120000005 C 3.012 -0.120000005 3.9 0.408 4.152 0.576 Z M 4.224 1.14 C 3.9720001 0.936 3.336 0.672 3.192 0.672 C 2.592 0.672 2.124 1.344 2.124 2.748 C 2.124 3.384 2.196 3.936 2.424 4.308 C 2.628 4.632 2.9520001 4.824 3.312 4.824 C 3.624 4.824 3.924 4.788 4.212 4.392 L 4.212 1.44 C 4.212 1.344 4.212 1.2360001 4.224 1.14 Z "/>
        </symbol>
        <symbol id="5" overflow="visible">
            <path d="M 6.12 1.596 L 6.12 3.672 C 6.12 4.68 6.144 4.5360003 6.144 4.824 C 6.144 5.028 6.096 5.16 6.024 5.232 C 5.808 5.2200003 5.568 5.208 5.34 5.208 C 5.004 5.208 4.224 5.2200003 3.756 5.232 C 3.684 5.16 3.684 4.896 3.756 4.824 C 4.368 4.764 4.56 4.68 4.56 3.672 L 4.56 1.452 C 4.56 1.332 4.56 1.212 4.572 1.092 C 4.08 0.792 3.684 0.768 3.468 0.768 C 2.988 0.768 2.628 0.828 2.628 1.668 L 2.628 3.672 C 2.628 4.68 2.652 4.5360003 2.652 4.824 C 2.652 5.028 2.604 5.16 2.532 5.232 C 2.316 5.2200003 2.0640001 5.208 1.848 5.208 C 1.2360001 5.208 0.78000003 5.2200003 0.264 5.232 C 0.192 5.16 0.192 4.896 0.264 4.824 C 0.816 4.8 1.068 4.68 1.068 3.672 L 1.068 1.8000001 C 1.068 0.528 1.572 -0.120000005 2.604 -0.120000005 C 3.036 -0.120000005 3.912 0.228 4.608 0.612 C 4.632 0.312 4.656 0.084 4.656 0.084 C 4.668 -0.060000002 4.764 -0.120000005 4.932 -0.120000005 C 5.376 0 6.096 0.168 6.9240003 0.276 C 6.948 0.348 6.9240003 0.588 6.9 0.66 C 6.252 0.72 6.12 0.912 6.12 1.596 Z "/>
        </symbol>
        <symbol id="6" overflow="visible">
            <path d="M 0.444 2.484 C 0.444 0.912 1.692 -0.120000005 3.3 -0.120000005 C 4.152 -0.120000005 4.86 0.120000005 5.352 0.564 C 5.964 1.104 6.168 1.9200001 6.168 2.592 C 6.168 4.164 5.1 5.328 3.312 5.328 C 2.316 5.328 1.572 4.98 1.104 4.44 C 0.648 3.912 0.444 3.192 0.444 2.484 Z M 3.1200001 4.824 C 3.936 4.824 4.488 3.852 4.488 2.208 C 4.488 0.768 3.924 0.384 3.492 0.384 C 2.5080001 0.384 2.124 1.86 2.124 2.748 C 2.124 3.852 2.316 4.824 3.1200001 4.824 Z "/>
        </symbol>
        <symbol id="7" overflow="visible">
            <path d="M 0.576 1.752 C 0.624 1.164 0.684 0.6 0.78000003 0.144 C 1.008 0.072 1.776 -0.120000005 2.448 -0.120000005 C 3.372 -0.120000005 4.524 0.384 4.524 1.428 C 4.524 1.836 4.428 2.16 4.152 2.46 C 3.816 2.844 3.312 3.144 2.76 3.384 C 2.28 3.588 2.112 3.9720001 2.112 4.32 C 2.112 4.596 2.34 4.824 2.688 4.824 C 3.108 4.824 3.516 4.44 3.816 3.708 C 4.032 3.672 4.164 3.684 4.284 3.7680001 C 4.284 4.2 4.236 4.656 4.1280003 5.04 C 3.744 5.208 3.444 5.328 2.784 5.328 C 2.148 5.328 1.548 5.088 1.164 4.704 C 0.888 4.428 0.756 4.092 0.756 3.7680001 C 0.756 3.408 0.90000004 3.1200001 1.128 2.868 C 1.5 2.46 2.16 2.04 2.52 1.872 C 3 1.656 3.132 1.224 3.132 0.936 C 3.132 0.552 2.748 0.348 2.424 0.348 C 1.8840001 0.348 1.308 0.90000004 1.056 1.776 C 0.864 1.812 0.768 1.8000001 0.576 1.752 Z "/>
        </symbol>
        <symbol id="8" overflow="visible">
            <path d="M 3.876 4.38 L 2.904 4.38 L 2.904 6.6480002 C 2.904 6.936 3.108 7.236 3.3960001 7.236 L 4.416 7.236 C 5.316 7.236 5.568 6.78 5.8320003 5.952 C 5.976 5.928 6.228 5.952 6.348 6.012 C 6.288 6.504 6.228 7.656 6.204 7.752 C 6.204 7.776 6.192 7.788 6.156 7.788 C 5.952 7.752 5.856 7.7400002 5.568 7.7400002 L 2.028 7.7400002 C 2.028 7.7400002 0.78000003 7.752 0.18 7.764 C 0.108 7.692 0.108 7.428 0.18 7.356 C 1.02 7.32 1.224 7.26 1.224 6.264 L 1.224 1.464 C 1.224 0.468 1.02 0.42000002 0.18 0.384 C 0.108 0.312 0.108 0.048 0.18 -0.024 C 0.768 -0.012 2.04 0 2.04 0 L 4.86 0 C 5.436 0 6.5160003 -0.024 6.5160003 -0.024 C 6.684 0.576 6.744 1.368 6.84 1.98 C 6.7200003 2.052 6.456 2.076 6.3 2.04 C 6.06 1.176 5.52 0.504 4.608 0.504 L 3.3960001 0.504 C 3.132 0.504 2.904 0.756 2.904 1.08 L 2.904 3.828 L 3.876 3.828 C 4.704 3.828 4.932 3.6000001 4.968 3.06 C 5.04 2.988 5.412 2.988 5.484 3.06 C 5.472 3.48 5.46 3.708 5.46 4.116 C 5.46 4.524 5.472 4.788 5.484 5.1480002 C 5.412 5.2200003 5.04 5.2200003 4.968 5.1480002 C 4.932 4.488 4.68 4.38 3.876 4.38 Z "/>
        </symbol>
        <symbol id="9" overflow="visible">
            <path d="M 4.104 4.824 C 4.752 4.776 4.836 4.584 4.572 3.9720001 L 3.624 1.776 C 3.576 1.668 3.528 1.752 3.492 1.836 L 2.736 3.9720001 C 2.7120001 4.032 2.688 4.092 2.676 4.14 C 2.5080001 4.596 2.436 4.764 3.108 4.824 C 3.18 4.896 3.18 5.16 3.108 5.232 C 2.664 5.2200003 2.184 5.208 1.596 5.208 C 1.176 5.208 0.564 5.2200003 0.120000005 5.232 C 0.048 5.16 0.048 4.896 0.120000005 4.824 C 0.816 4.7400002 0.84000003 4.5 1.08 3.9 L 2.652 0.108 C 2.724 -0.072 2.928 -0.144 3.084 -0.144 C 3.204 -0.144 3.444 -0.120000005 3.552 0.132 L 5.196 3.888 C 5.436 4.428 5.592 4.764 6.228 4.824 C 6.3 4.896 6.3 5.16 6.228 5.232 C 5.964 5.2200003 5.58 5.208 5.316 5.208 C 4.872 5.208 4.428 5.2200003 4.104 5.232 C 4.032 5.16 4.032 4.896 4.104 4.824 Z "/>
        </symbol>
        <symbol id="a" overflow="visible">
            <path d="M 2.736 3.216 C 2.736 3.648 2.868 3.828 3.024 4.008 C 3.1200001 4.1280003 3.228 4.212 3.408 4.212 C 3.516 4.212 3.648 4.104 3.744 3.984 C 3.828 3.888 4.032 3.792 4.308 3.792 C 4.656 3.792 4.992 4.152 4.992 4.656 C 4.992 4.968 4.632 5.328 4.2 5.328 C 3.78 5.328 3.3240001 4.968 2.772 4.176 L 2.724 4.176 C 2.7 4.5360003 2.64 5.124 2.64 5.124 C 2.628 5.232 2.532 5.328 2.364 5.328 C 1.8000001 5.184 1.164 5.0160003 0.372 4.932 C 0.348 4.86 0.372 4.632 0.396 4.56 C 1.056 4.5 1.176 4.392 1.176 3.708 L 1.176 1.464 C 1.176 0.468 1.044 0.444 0.312 0.384 C 0.24000001 0.312 0.24000001 0.048 0.312 -0.024 C 0.816 -0.012 1.32 0 1.956 0 C 2.592 0 3.084 -0.012 3.6000001 -0.024 C 3.672 0.048 3.672 0.312 3.6000001 0.384 C 2.868 0.432 2.736 0.468 2.736 1.464 Z "/>
        </symbol>
        <symbol id="b" overflow="visible">
            <path d="M 5.604 4.728 C 5.94 4.728 6.132 4.872 6.132 5.316 C 6.132 5.544 5.82 5.892 5.364 5.892 C 4.836 5.892 4.14 5.496 3.792 5.184 C 3.576 5.304 3.3240001 5.328 2.784 5.328 C 2.2680001 5.328 1.764 5.208 1.368 4.9440002 C 0.876 4.632 0.552 4.164 0.552 3.552 C 0.552 2.964 0.90000004 2.328 1.4760001 2.016 C 1.104 1.692 0.528 1.056 0.528 0.816 C 0.528 0.588 0.564 0.444 0.684 0.264 C 0.792 0.096 0.936 0 1.176 -0.072 C 0.66 -0.384 0.132 -1.068 0.132 -1.272 C 0.132 -1.716 0.276 -2.232 0.6 -2.46 C 1.068 -2.784 1.86 -2.856 2.436 -2.856 C 4.104 -2.856 6.012 -1.98 6.012 -0.66 C 6.012 -0.408 5.892 0.108 5.412 0.432 C 4.9440002 0.744 3.144 0.828 2.256 0.828 C 2.04 0.828 1.716 0.852 1.716 1.332 C 1.716 1.524 1.836 1.692 1.896 1.836 C 2.148 1.716 2.4 1.704 2.772 1.704 C 3.384 1.704 3.948 1.86 4.356 2.22 C 4.704 2.532 4.9440002 2.9520001 4.9440002 3.492 C 4.9440002 4.164 4.608 4.608 4.2 4.9440002 C 4.296 5.064 4.692 5.28 4.8120003 5.28 C 4.92 5.28 5.004 5.208 5.04 5.136 C 5.088 4.98 5.304 4.728 5.604 4.728 Z M 2.1 -0.3 C 3.024 -0.3 4.8 -0.336 4.8 -0.972 C 4.8 -1.404 4.608 -1.896 4.212 -2.112 C 3.8400002 -2.328 3.228 -2.352 2.772 -2.352 C 1.98 -2.352 1.44 -1.764 1.44 -1.152 C 1.44 -0.744 1.44 -0.468 1.572 -0.228 C 1.692 -0.276 1.848 -0.3 2.1 -0.3 Z M 3.48 3.456 C 3.48 2.304 3.144 2.16 2.832 2.16 C 2.088 2.16 1.992 3.048 1.992 3.66 C 1.992 4.548 2.208 4.872 2.676 4.872 C 3.24 4.872 3.48 4.404 3.48 3.456 Z "/>
        </symbol>
        <symbol id="c" overflow="visible">
            <path d="M 2.736 1.464 L 2.736 3.876 C 3.216 4.2 3.696 4.44 3.912 4.44 C 4.392 4.44 4.752 4.224 4.752 3.54 L 4.752 1.536 C 4.752 0.528 4.56 0.42000002 4.068 0.384 C 3.996 0.312 3.996 0.048 4.068 -0.024 C 4.572 -0.012 4.956 0 5.532 0 C 6.192 0 6.7200003 -0.012 7.236 -0.024 C 7.308 0.048 7.308 0.312 7.236 0.384 C 6.504 0.42000002 6.3120003 0.528 6.3120003 1.536 L 6.3120003 3.408 C 6.3120003 4.728 5.748 5.328 4.716 5.328 C 4.236 5.328 3.384 4.8 2.724 4.344 C 2.688 4.764 2.64 5.124 2.64 5.124 C 2.628 5.268 2.532 5.328 2.364 5.328 C 1.9200001 5.208 1.2 5.04 0.372 4.932 C 0.348 4.86 0.372 4.62 0.396 4.548 C 1.056 4.488 1.176 4.392 1.176 3.708 L 1.176 1.464 C 1.176 0.468 1.044 0.444 0.312 0.384 C 0.24000001 0.312 0.24000001 0.048 0.312 -0.024 C 0.816 -0.012 1.32 0 1.956 0 C 2.5080001 0 2.844 -0.012 3.3600001 -0.024 C 3.432 0.048 3.432 0.312 3.3600001 0.384 C 2.856 0.432 2.736 0.468 2.736 1.464 Z "/>
        </symbol>
        <symbol id="d" overflow="visible">
            <path d="M 1.776 7.7400002 C 1.344 7.7400002 0.696 7.752 0.228 7.764 C 0.156 7.692 0.156 7.44 0.228 7.368 C 1.068 7.3320003 1.272 7.272 1.272 6.276 L 1.272 1.464 C 1.272 0.468 1.068 0.408 0.228 0.372 C 0.156 0.3 0.156 0.048 0.228 -0.024 C 0.696 -0.012 1.344 0 1.788 0 C 2.22 0 2.532 -0.024 3.54 -0.024 C 5.928 -0.024 6.564 1.176 6.564 2.208 C 6.564 3.3600001 5.76 4.02 4.716 4.32 L 4.716 4.344 C 5.316 4.644 5.856 5.268 5.856 5.916 C 5.856 6.7200003 5.508 7.764 3.276 7.764 C 2.856 7.764 2.208 7.7400002 1.776 7.7400002 Z M 2.292 3.984 L 3.1200001 3.984 C 4.764 3.984 5.448 3.06 5.448 1.98 C 5.448 1.104 5.112 0.372 3.288 0.372 C 2.448 0.372 2.292 0.684 2.292 1.416 Z M 2.292 6.6 C 2.292 7.236 2.292 7.356 3.336 7.356 C 4.008 7.356 4.884 6.9960003 4.884 5.772 C 4.884 4.752 4.176 4.392 3.18 4.392 L 2.292 4.392 Z "/>
        </symbol>
        <symbol id="e" overflow="visible">
            <path d="M 4.632 1.116 C 4.188 0.66 3.8400002 0.468 3.144 0.468 C 2.7120001 0.468 2.208 0.72 1.836 1.332 C 1.596 1.728 1.452 2.28 1.452 2.976 L 4.644 2.9520001 C 4.788 2.9520001 4.872 3.024 4.872 3.1560001 C 4.872 4.164 4.512 5.244 2.844 5.244 C 1.8000001 5.244 0.444 4.248 0.444 2.424 C 0.444 1.752 0.612 1.104 1.008 0.648 C 1.416 0.168 1.98 -0.120000005 2.844 -0.120000005 C 3.756 -0.120000005 4.404 0.3 4.884 0.924 C 4.848 1.044 4.776 1.104 4.632 1.116 Z M 1.488 3.384 C 1.716 4.7400002 2.556 4.848 2.844 4.848 C 3.3 4.848 3.8400002 4.596 3.8400002 3.588 C 3.8400002 3.48 3.792 3.42 3.66 3.42 Z "/>
        </symbol>
        <symbol id="f" overflow="visible">
            <path d="M 4.776 1.092 C 4.728 1.2 4.632 1.248 4.524 1.26 C 4.116 0.732 3.6000001 0.468 3.084 0.468 C 2.208 0.468 1.4760001 1.3560001 1.4760001 2.76 C 1.4760001 4.08 2.052 4.872 2.844 4.872 C 3.552 4.872 3.648 4.452 3.696 4.032 C 3.732 3.708 3.9 3.6000001 4.152 3.6000001 C 4.404 3.6000001 4.7400002 3.756 4.7400002 4.1280003 C 4.7400002 4.788 4.056 5.268 2.904 5.268 C 1.716 5.268 0.444 4.2 0.444 2.496 C 0.444 0.948 1.308 -0.120000005 2.82 -0.120000005 C 3.54 -0.120000005 4.176 0.108 4.776 1.092 Z "/>
        </symbol>
        <symbol id="10" overflow="visible">
            <path d="M 2.004 3.432 C 2.004 3.684 2.112 3.828 2.208 3.936 C 2.664 4.38 3.276 4.644 3.744 4.644 C 3.984 4.644 4.236 4.488 4.38 4.212 C 4.5 3.9720001 4.524 3.648 4.524 3.288 L 4.524 1.464 C 4.524 0.48000002 4.404 0.432 3.78 0.372 C 3.72 0.3 3.72 0.048 3.78 -0.024 C 4.116 -0.012 4.524 0 5.004 0 C 5.484 0 5.88 -0.012 6.276 -0.024 C 6.336 0.048 6.336 0.3 6.276 0.372 C 5.604 0.432 5.472 0.48000002 5.472 1.464 L 5.472 3.252 C 5.472 3.912 5.4240003 4.5 5.1480002 4.86 C 4.9440002 5.124 4.572 5.268 4.152 5.268 C 3.5640001 5.268 2.844 5.112 2.112 4.296 C 2.112 4.284 2.1 4.284 2.088 4.272 C 2.052 4.224 1.992 4.152 1.992 4.296 L 2.004 6.9960003 C 2.004 7.776 2.052 8.2560005 2.052 8.2560005 C 2.052 8.34 2.004 8.376 1.896 8.376 C 1.596 8.2560005 0.696 8.088 0.216 8.052 C 0.192 7.956 0.216 7.764 0.288 7.692 C 0.324 7.692 0.36 7.692 0.396 7.692 C 0.924 7.656 1.056 7.656 1.056 6.708 L 1.056 1.464 C 1.056 0.468 0.912 0.42000002 0.216 0.372 C 0.144 0.3 0.144 0.048 0.216 -0.024 C 0.612 -0.012 1.056 0 1.536 0 C 1.992 0 2.388 -0.012 2.724 -0.024 C 2.796 0.048 2.796 0.3 2.724 0.372 C 2.112 0.42000002 2.004 0.468 2.004 1.464 Z "/>
        </symbol>
        <symbol id="11" overflow="visible">
            <path d="M 7.992 3.948 C 7.992 6.432 6.276 7.896 4.1280003 7.896 C 1.8000001 7.896 0.444 6.048 0.444 3.72 C 0.444 1.3560001 2.16 -0.120000005 4.2 -0.120000005 C 5.532 -0.120000005 6.588 0.456 7.248 1.392 C 7.728 2.076 7.992 2.94 7.992 3.948 Z M 3.9720001 7.464 C 5.556 7.464 6.84 6.144 6.84 3.72 C 6.84 1.572 5.808 0.312 4.44 0.312 C 2.976 0.312 1.596 1.62 1.596 3.924 C 1.596 6.4440002 2.784 7.464 3.9720001 7.464 Z "/>
        </symbol>
        <symbol id="12" overflow="visible">
            <path d="M 3.516 0.576 C 3.588 0.204 3.72 -0.120000005 4.32 -0.120000005 C 4.776 -0.120000005 5.208 0.084 5.46 0.324 C 5.436 0.468 5.388 0.576 5.256 0.648 C 5.172 0.576 4.968 0.456 4.8120003 0.456 C 4.464 0.456 4.452 0.924 4.452 1.4760001 L 4.452 3.24 C 4.452 4.9440002 3.516 5.268 2.64 5.268 C 1.656 5.268 0.66 4.62 0.66 3.936 C 0.66 3.648 0.804 3.504 1.08 3.504 C 1.428 3.504 1.644 3.756 1.644 3.912 C 1.644 3.996 1.632 4.08 1.608 4.1280003 C 1.596 4.164 1.584 4.236 1.584 4.368 C 1.584 4.7400002 2.088 4.872 2.544 4.872 C 2.9520001 4.872 3.516 4.668 3.516 3.312 C 3.516 3.228 3.48 3.18 3.444 3.168 L 2.412 2.9160001 C 1.26 2.628 0.432 1.992 0.432 1.176 C 0.432 0.192 1.104 -0.120000005 1.944 -0.120000005 C 2.364 -0.120000005 2.724 -0.024 3.252 0.384 L 3.492 0.576 Z M 3.516 2.796 L 3.516 1.212 C 3.516 1.056 3.444 0.972 3.348 0.90000004 C 3.036 0.648 2.628 0.372 2.292 0.372 C 1.692 0.372 1.428 0.852 1.428 1.224 C 1.428 1.764 1.6800001 2.316 2.568 2.544 Z "/>
        </symbol>
        <symbol id="13" overflow="visible">
            <path d="M 1.0320001 1.464 C 1.0320001 0.468 0.90000004 0.42000002 0.228 0.372 C 0.156 0.3 0.156 0.048 0.228 -0.024 C 0.624 -0.012 1.0320001 0 1.512 0 C 1.932 0 2.328 -0.012 2.604 -0.024 C 2.676 0.048 2.676 0.3 2.604 0.372 C 2.112 0.42000002 1.98 0.468 1.98 1.464 L 1.98 2.5080001 C 2.208 2.496 2.376 2.484 2.496 2.448 C 2.628 2.352 2.736 2.244 2.88 2.052 L 3.756 0.876 C 4.104 0.408 4.248 0.18 4.26 0.036 C 4.26 0 4.272 -0.024 4.308 -0.024 C 4.548 -0.012 4.8120003 0 5.052 0 C 5.4240003 0 5.796 -0.012 6.0360003 -0.024 C 6.1080003 0.048 6.1080003 0.3 6.0360003 0.372 C 5.6280003 0.42000002 5.328 0.468 5.004 0.876 L 3.42 2.868 C 3.372 2.928 3.336 2.976 3.336 3.036 C 3.336 3.084 3.336 3.108 3.384 3.1560001 L 4.44 4.248 C 4.8 4.632 5.2200003 4.728 5.7000003 4.776 C 5.772 4.848 5.772 5.1 5.7000003 5.172 C 5.4240003 5.16 5.088 5.1480002 4.656 5.1480002 C 4.2 5.1480002 3.756 5.16 3.48 5.172 C 3.408 5.1 3.408 4.848 3.48 4.776 C 4.152 4.728 3.864 4.308 3.756 4.164 C 3.48 3.816 3.108 3.408 2.796 3.18 C 2.532 2.988 2.208 2.844 1.98 2.808 L 1.98 6.9960003 C 1.98 7.776 2.028 8.2560005 2.028 8.2560005 C 2.028 8.34 1.98 8.376 1.872 8.376 C 1.572 8.2560005 0.672 8.088 0.192 8.052 C 0.168 7.956 0.192 7.764 0.264 7.692 C 0.3 7.692 0.336 7.692 0.372 7.692 C 0.90000004 7.656 1.0320001 7.656 1.0320001 6.708 Z "/>
        </symbol>
        <symbol id="14" overflow="visible">
            <path d="M 3.3960001 3.876 C 4.416 3.876 4.452 3.6000001 4.488 3.06 C 4.56 2.988 4.8120003 2.988 4.884 3.06 C 4.872 3.3600001 4.86 3.708 4.86 4.116 C 4.86 4.524 4.872 4.836 4.884 5.1480002 C 4.8120003 5.2200003 4.56 5.2200003 4.488 5.1480002 C 4.452 4.488 4.416 4.3320003 3.3960001 4.3320003 L 2.28 4.3320003 L 2.28 6.492 C 2.28 7.14 2.424 7.26 2.9520001 7.26 L 3.492 7.26 C 4.764 7.26 5.064 6.78 5.328 5.952 C 5.472 5.952 5.604 5.976 5.7000003 6.012 C 5.64 6.504 5.46 7.656 5.436 7.752 C 5.436 7.776 5.4240003 7.788 5.388 7.788 C 5.184 7.752 5.124 7.7400002 4.824 7.7400002 L 1.764 7.7400002 C 1.38 7.7400002 0.696 7.752 0.216 7.764 C 0.144 7.692 0.144 7.44 0.216 7.368 C 1.056 7.3320003 1.26 7.272 1.26 6.276 L 1.26 1.464 C 1.26 0.468 1.056 0.408 0.216 0.372 C 0.144 0.3 0.144 0.048 0.216 -0.024 C 0.636 -0.012 1.2360001 0 1.776 0 C 2.316 0 2.904 -0.012 3.3240001 -0.024 C 3.3960001 0.048 3.3960001 0.3 3.3240001 0.372 C 2.484 0.408 2.28 0.468 2.28 1.464 L 2.28 3.876 Z "/>
        </symbol>
        <symbol id="15" overflow="visible">
            <path d="M 2.172 1.464 L 2.172 3.852 C 2.172 4.452 2.22 5.2200003 2.22 5.2200003 C 2.22 5.268 2.16 5.304 2.0640001 5.304 C 1.728 5.172 1.248 5.064 0.42000002 4.956 C 0.396 4.884 0.42000002 4.692 0.444 4.62 C 1.104 4.56 1.224 4.488 1.224 3.8040001 L 1.224 1.464 C 1.224 0.468 1.092 0.432 0.36 0.372 C 0.288 0.3 0.288 0.048 0.36 -0.024 C 0.756 -0.012 1.224 0 1.704 0 C 2.184 0 2.64 -0.012 3.036 -0.024 C 3.108 0.048 3.108 0.3 3.036 0.372 C 2.304 0.42000002 2.172 0.468 2.172 1.464 Z M 1.08 7.188 C 1.08 6.876 1.368 6.564 1.656 6.564 C 1.992 6.564 2.28 6.888 2.28 7.14 C 2.28 7.428 2.028 7.764 1.704 7.764 C 1.416 7.764 1.08 7.476 1.08 7.188 Z "/>
        </symbol>
        <symbol id="16" overflow="visible">
            <path d="M 2.112 4.296 C 2.088 4.776 2.076 5.088 2.016 5.208 C 1.992 5.268 1.968 5.304 1.872 5.304 C 1.536 5.172 1.224 5.064 0.396 4.956 C 0.372 4.884 0.396 4.692 0.42000002 4.62 C 1.068 4.56 1.2 4.5 1.2 3.8040001 L 1.2 1.464 C 1.2 0.468 1.056 0.42000002 0.312 0.372 C 0.24000001 0.3 0.24000001 0.048 0.312 -0.024 C 0.732 -0.012 1.2 0 1.6800001 0 C 2.16 0 2.7120001 -0.012 3.132 -0.024 C 3.204 0.048 3.204 0.3 3.132 0.372 C 2.292 0.432 2.148 0.468 2.148 1.464 L 2.148 3.132 C 2.148 3.444 2.292 3.72 2.436 3.936 C 2.568 4.1280003 2.844 4.524 2.988 4.524 C 3.096 4.524 3.204 4.5 3.3 4.368 C 3.384 4.248 3.528 4.092 3.732 4.092 C 4.02 4.092 4.296 4.392 4.296 4.692 C 4.296 4.92 4.08 5.268 3.576 5.268 C 3.012 5.268 2.52 4.7400002 2.244 4.272 C 2.172 4.14 2.112 4.236 2.112 4.296 Z "/>
        </symbol>
        <symbol id="17" overflow="visible">
            <path d="M 4.7400002 7.572 C 4.044 7.668 4.068 7.896 2.892 7.896 C 1.6800001 7.896 0.612 7.092 0.612 5.82 C 0.612 4.56 1.656 3.984 2.7120001 3.576 C 3.432 3.3 4.32 2.964 4.32 1.788 C 4.32 0.816 3.78 0.312 2.82 0.312 C 1.704 0.312 0.984 0.828 0.72 2.016 C 0.564 2.0640001 0.444 2.04 0.324 1.98 C 0.372 1.056 0.42000002 0.744 0.564 0.156 C 1.32 0.156 1.656 -0.120000005 2.724 -0.120000005 C 3.264 -0.120000005 3.78 0.012 4.2 0.276 C 4.896 0.708 5.328 1.44 5.328 2.208 C 5.328 3.48 4.368 4.044 3.384 4.416 C 2.664 4.68 1.464 5.136 1.464 6.144 C 1.464 6.816 2.076 7.488 2.784 7.488 C 3.948 7.488 4.32 6.744 4.56 5.952 C 4.692 5.928 4.848 5.94 4.956 6.024 C 4.908 6.6 4.86 6.936 4.7400002 7.572 Z "/>
        </symbol>
        <symbol id="18" overflow="visible">
            <path d="M 1.872 4.416 C 1.86 4.776 1.836 5.088 1.776 5.208 C 1.752 5.268 1.728 5.304 1.632 5.304 C 1.296 5.172 0.984 5.064 0.156 4.956 C 0.132 4.884 0.156 4.692 0.18 4.62 C 0.828 4.56 0.96000004 4.5 0.96000004 3.8040001 L 0.96000004 -1.32 C 0.96000004 -2.316 0.828 -2.376 0.096 -2.412 C 0.024 -2.484 0.024 -2.736 0.096 -2.808 C 0.51600003 -2.796 0.96000004 -2.784 1.44 -2.784 C 1.9200001 -2.784 2.496 -2.796 2.892 -2.808 C 2.964 -2.736 2.964 -2.484 2.892 -2.412 C 2.04 -2.364 1.908 -2.316 1.908 -1.32 L 1.908 -0.024 C 1.908 0.132 1.956 0.120000005 2.076 0.072 C 2.376 -0.048 2.736 -0.120000005 3.1200001 -0.120000005 C 3.792 -0.120000005 4.392 0.084 4.884 0.552 C 5.448 1.104 5.772 1.848 5.772 2.82 C 5.772 4.092 4.872 5.268 3.648 5.268 C 3.096 5.268 2.484 4.908 2.004 4.368 C 1.932 4.296 1.8840001 4.296 1.872 4.416 Z M 2.1 3.9720001 C 2.412 4.356 2.964 4.716 3.312 4.716 C 4.08 4.716 4.7400002 3.852 4.7400002 2.496 C 4.7400002 1.512 4.392 0.288 3.048 0.288 C 2.832 0.288 2.412 0.348 2.196 0.54 C 1.956 0.756 1.908 0.828 1.908 1.26 L 1.908 3.444 C 1.908 3.696 1.956 3.8040001 2.1 3.9720001 Z "/>
        </symbol>
        <symbol id="19" overflow="visible">
            <path d="M 2.604 -0.120000005 C 3.072 -0.120000005 3.636 0.120000005 4.224 0.6 C 4.284 0.648 4.392 0.672 4.404 0.588 C 4.44 0.288 4.5360003 -0.120000005 4.5360003 -0.120000005 C 4.632 -0.156 4.692 -0.144 4.764 -0.120000005 C 5.028 0.096 5.448 0.276 6.18 0.36 C 6.252 0.432 6.252 0.612 6.18 0.684 C 5.412 0.744 5.304 0.972 5.304 1.5600001 L 5.304 3.864 C 5.304 4.224 5.352 5.1 5.352 5.1 C 5.352 5.136 5.316 5.172 5.256 5.172 C 5.196 5.16 5.0160003 5.1480002 4.836 5.1480002 C 4.452 5.1480002 4.02 5.16 3.612 5.172 C 3.54 5.1 3.54 4.848 3.612 4.776 C 4.2 4.7400002 4.356 4.596 4.356 3.8040001 L 4.356 1.488 C 4.356 1.26 4.3320003 1.164 4.164 1.02 C 3.72 0.636 3.264 0.444 2.964 0.444 C 2.604 0.444 2.004 0.612 2.004 1.6800001 L 2.004 3.864 C 2.004 4.224 2.052 5.1 2.052 5.1 C 2.052 5.136 2.016 5.172 1.956 5.172 C 1.896 5.16 1.716 5.1480002 1.536 5.1480002 C 1.152 5.1480002 0.72 5.16 0.312 5.172 C 0.24000001 5.1 0.24000001 4.848 0.312 4.776 C 0.888 4.728 1.056 4.596 1.056 3.816 L 1.056 1.512 C 1.056 0.684 1.416 -0.120000005 2.604 -0.120000005 Z "/>
        </symbol>
        <symbol id="1a" overflow="visible">
            <path d="M 1.248 6.276 L 1.248 1.464 C 1.248 0.468 1.044 0.408 0.204 0.372 C 0.132 0.3 0.132 0.048 0.204 -0.024 C 0.744 -0.012 1.332 0 1.764 0 C 2.184 0 2.892 -0.012 3.492 -0.024 C 3.5640001 0.048 3.5640001 0.3 3.492 0.372 C 2.556 0.42000002 2.2680001 0.468 2.2680001 1.464 L 2.2680001 3.504 C 2.532 3.42 2.82 3.384 3.24 3.384 C 5.4240003 3.384 6.084 4.8120003 6.084 5.8320003 C 6.084 6.54 5.616 7.824 3.3960001 7.824 C 2.94 7.824 2.232 7.7400002 1.752 7.7400002 C 1.308 7.7400002 0.684 7.752 0.204 7.764 C 0.132 7.692 0.132 7.44 0.204 7.368 C 1.044 7.3320003 1.248 7.272 1.248 6.276 Z M 2.2680001 6.6480002 C 2.2680001 6.9960003 2.448 7.416 3.312 7.416 C 4.14 7.416 4.968 7.14 4.968 5.616 C 4.968 4.32 4.344 3.792 3.18 3.792 C 2.88 3.792 2.4 3.816 2.2680001 3.852 Z "/>
        </symbol>
        <symbol id="1b" overflow="visible">
            <path d="M 2.208 4.296 C 2.136 4.212 2.0640001 4.188 2.0640001 4.296 C 2.052 4.62 2.028 5.088 1.968 5.208 C 1.944 5.268 1.9200001 5.304 1.824 5.304 C 1.488 5.172 1.176 5.064 0.348 4.956 C 0.324 4.884 0.348 4.692 0.372 4.62 C 1.02 4.56 1.152 4.5 1.152 3.8040001 L 1.152 1.464 C 1.152 0.48000002 1.0320001 0.432 0.312 0.372 C 0.24000001 0.3 0.24000001 0.048 0.312 -0.024 C 0.672 -0.012 1.152 0 1.632 0 C 2.112 0 2.4720001 -0.012 2.832 -0.024 C 2.904 0.048 2.904 0.3 2.832 0.372 C 2.22 0.432 2.1 0.48000002 2.1 1.464 L 2.1 3.432 C 2.1 3.684 2.208 3.828 2.304 3.936 C 2.76 4.38 3.3 4.644 3.7680001 4.644 C 4.008 4.644 4.26 4.488 4.404 4.212 C 4.524 3.9720001 4.548 3.648 4.548 3.288 L 4.548 1.464 C 4.548 0.48000002 4.428 0.432 3.8040001 0.372 C 3.744 0.3 3.744 0.048 3.8040001 -0.024 C 4.164 -0.012 4.548 0 5.028 0 C 5.508 0 5.94 -0.012 6.3 -0.024 C 6.36 0.048 6.36 0.3 6.3 0.372 C 5.6280003 0.432 5.496 0.48000002 5.496 1.464 L 5.496 3.252 C 5.496 3.912 5.448 4.488 5.172 4.86 C 4.968 5.124 4.596 5.268 4.176 5.268 C 3.588 5.268 2.9160001 5.112 2.208 4.296 Z "/>
        </symbol>
        <symbol id="1c" overflow="visible">
            <path d="M 5.916 7.512 C 5.304 7.6080003 5.376 7.896 4.308 7.896 C 3.3 7.896 1.992 7.212 1.74 5.94 C 1.716 5.796 1.704 5.664 1.704 5.544 C 1.704 4.476 2.628 3.912 3.468 3.492 C 4.02 3.216 4.464 2.832 4.464 2.112 C 4.464 1.98 4.452 1.836 4.416 1.668 C 4.224 0.696 3.636 0.312 2.76 0.312 C 1.74 0.312 1.14 0.816 1.128 2.016 L 0.768 1.98 C 0.732 1.068 0.708 0.672 0.612 0.060000002 C 1.308 0.060000002 1.608 -0.120000005 2.58 -0.120000005 C 3.912 -0.120000005 5.184 0.864 5.4240003 2.088 C 5.46 2.244 5.472 2.4 5.472 2.544 C 5.472 3.612 4.644 4.14 3.8400002 4.512 C 3.444 4.692 2.568 5.196 2.568 6.024 C 2.568 6.096 2.58 6.18 2.592 6.264 C 2.736 6.9960003 3.3600001 7.488 4.116 7.488 C 5.2200003 7.488 5.376 6.78 5.448 5.988 L 5.82 5.964 C 5.82 6.54 5.88 6.864 5.916 7.512 Z "/>
        </symbol>
        <symbol id="1d" overflow="visible">
            <path d="M 2.94 3.8400002 C 3.048 4.308 3.192 4.776 3.192 4.98 C 3.192 5.1480002 3.096 5.232 2.94 5.232 C 2.556 5.232 2.016 5.1480002 1.452 5.076 C 1.368 4.98 1.392 4.848 1.464 4.7400002 L 1.944 4.704 C 2.088 4.692 2.16 4.584 2.16 4.464 C 2.16 4.356 2.136 4.188 2.052 3.852 L 1.488 1.38 C 1.404 0.996 1.284 0.504 1.284 0.276 C 1.284 0.048 1.416 -0.120000005 1.776 -0.120000005 C 2.352 -0.120000005 2.892 0.288 3.444 0.996 C 3.408 1.104 3.336 1.2 3.168 1.2 C 2.856 0.84000003 2.5080001 0.6 2.388 0.6 C 2.304 0.6 2.2680001 0.66 2.2680001 0.804 C 2.2680001 0.912 2.328 1.176 2.4 1.488 Z M 2.412 6.84 C 2.412 6.528 2.676 6.264 2.988 6.264 C 3.3 6.264 3.5640001 6.528 3.5640001 6.84 C 3.5640001 7.152 3.3 7.416 2.988 7.416 C 2.676 7.416 2.412 7.152 2.412 6.84 Z "/>
        </symbol>
        <symbol id="1e" overflow="visible">
            <path d="M 5.256 5.328 C 4.98 5.0160003 4.8 4.9440002 4.608 4.9440002 C 4.392 4.9440002 4.224 4.992 3.66 5.112 C 3.084 5.208 2.724 5.268 2.388 5.268 C 1.968 5.268 1.428 4.488 1.224 3.78 C 1.308 3.696 1.416 3.684 1.548 3.684 C 1.8000001 4.236 2.004 4.356 2.556 4.356 C 3.096 4.356 3.552 4.248 3.9 4.248 C 4.068 4.248 4.164 4.248 4.284 4.272 L 1.392 1.092 C 1.152 0.816 0.696 0.252 0.648 0.084 C 0.684 0 0.744 -0.060000002 0.816 -0.072 C 0.912 -0.108 0.996 -0.132 1.092 -0.144 C 1.3560001 0.3 1.656 0.492 1.776 0.492 C 1.98 0.492 2.304 0.42000002 2.688 0.18 C 2.988 0 3.384 -0.120000005 3.72 -0.120000005 C 4.236 -0.120000005 4.632 0.18 5.196 1.4760001 C 5.124 1.5600001 5.04 1.596 4.896 1.596 C 4.44 0.864 4.092 0.804 3.756 0.804 C 3.144 0.804 3.216 1.224 2.112 1.224 C 2.9520001 2.16 4.272 3.504 4.9440002 4.344 C 5.244 4.704 5.484 4.956 5.604 5.1480002 Z "/>
        </symbol>
        <symbol id="1f" overflow="visible">
            <path d="M 2.004 2.388 C 5.088 2.988 5.088 3.9 5.088 4.356 C 5.088 4.368 5.088 4.368 5.088 4.38 C 5.088 4.68 4.8120003 5.268 3.948 5.268 C 1.86 5.268 0.996 3.228 0.996 1.704 C 0.996 0.684 1.4760001 -0.120000005 2.4720001 -0.120000005 C 3.276 -0.120000005 4.008 0.3 4.716 1.212 C 4.656 1.344 4.584 1.404 4.44 1.404 C 3.756 0.708 3.48 0.6 2.904 0.6 C 2.364 0.6 1.992 0.888 1.992 1.98 C 1.992 2.04 1.992 2.292 2.004 2.388 Z M 4.26 4.44 C 4.26 3.3600001 3 2.964 2.088 2.844 C 2.5080001 4.548 3.168 4.896 3.672 4.896 C 4.104 4.896 4.26 4.788 4.26 4.44 Z "/>
        </symbol>
        <symbol id="20" overflow="visible">
            <path d="M 2.58 6.9 C 3.096 6.9 3.576 6.588 3.576 5.82 C 3.576 5.2200003 2.88 4.296 1.692 4.1280003 L 1.752 3.744 C 1.956 3.7680001 2.172 3.7680001 2.328 3.7680001 C 3.012 3.7680001 3.9 3.576 3.9 2.22 C 3.9 0.624 2.832 0.3 2.412 0.3 C 1.8000001 0.3 1.692 0.576 1.548 0.792 C 1.428 0.96000004 1.272 1.104 1.0320001 1.104 C 0.78000003 1.104 0.528 0.876 0.528 0.684 C 0.528 0.204 1.536 -0.120000005 2.256 -0.120000005 C 3.684 -0.120000005 4.956 0.804 4.956 2.388 C 4.956 3.696 3.9720001 4.164 3.264 4.284 L 3.252 4.308 C 4.236 4.776 4.512 5.268 4.512 5.9040003 C 4.512 6.264 4.428 6.552 4.14 6.852 C 3.876 7.116 3.456 7.32 2.832 7.32 C 1.068 7.32 0.564 6.168 0.564 5.772 C 0.564 5.604 0.684 5.364 0.972 5.364 C 1.392 5.364 1.44 5.76 1.44 5.988 C 1.44 6.756 2.2680001 6.9 2.58 6.9 Z "/>
        </symbol>
        <symbol id="21" overflow="visible">
            <path d="M 3.828 2.2680001 C 3.828 1.128 3.228 0.288 2.5080001 0.288 C 2.052 0.288 1.896 0.588 1.716 0.828 C 1.5600001 1.0320001 1.3560001 1.212 1.104 1.212 C 0.876 1.212 0.648 1.008 0.648 0.768 C 0.648 0.276 1.668 -0.132 2.352 -0.132 C 3.8400002 -0.132 4.896 0.972 4.896 2.484 C 4.896 3.648 4.092 4.692 2.748 4.692 C 2.232 4.692 1.788 4.584 1.572 4.5 L 1.812 6.504 C 2.256 6.456 2.64 6.396 3.216 6.396 C 3.576 6.396 3.984 6.42 4.476 6.468 L 4.668 7.284 L 4.584 7.3320003 C 3.9 7.26 3.252 7.2000003 2.616 7.2000003 C 2.172 7.2000003 1.74 7.224 1.32 7.26 L 0.912 3.8040001 C 1.548 4.044 2.004 4.092 2.436 4.092 C 3.216 4.092 3.828 3.576 3.828 2.2680001 Z "/>
        </symbol>
        <symbol id="22" overflow="visible">
            <path d="M 2.04 4.296 C 2.028 4.656 2.004 5.088 1.944 5.208 C 1.9200001 5.268 1.896 5.304 1.8000001 5.304 C 1.464 5.172 1.152 5.064 0.324 4.956 C 0.3 4.884 0.324 4.692 0.348 4.62 C 0.996 4.56 1.128 4.5 1.128 3.8040001 L 1.128 1.464 C 1.128 0.48000002 0.972 0.42000002 0.312 0.372 C 0.24000001 0.3 0.24000001 0.048 0.312 -0.024 C 0.672 -0.012 1.128 0 1.608 0 C 2.088 0 2.46 -0.012 2.82 -0.024 C 2.892 0.048 2.892 0.3 2.82 0.372 C 2.208 0.432 2.076 0.48000002 2.076 1.464 L 2.076 3.432 C 2.076 3.684 2.184 3.828 2.28 3.936 C 2.76 4.404 3.204 4.644 3.576 4.644 C 4.032 4.644 4.368 4.356 4.368 3.552 L 4.368 1.464 C 4.368 0.48000002 4.272 0.42000002 3.624 0.372 C 3.5640001 0.3 3.5640001 0.048 3.624 -0.024 C 3.924 -0.012 4.368 0 4.848 0 C 5.328 0 5.724 -0.012 6.024 -0.024 C 6.084 0.048 6.084 0.3 6.024 0.372 C 5.4240003 0.42000002 5.316 0.48000002 5.316 1.464 L 5.316 3.372 C 5.316 3.54 5.316 3.708 5.304 3.852 C 5.88 4.488 6.42 4.644 6.888 4.644 C 7.344 4.644 7.6080003 4.38 7.6080003 3.576 L 7.6080003 1.464 C 7.6080003 0.48000002 7.488 0.42000002 6.864 0.372 C 6.804 0.3 6.804 0.048 6.864 -0.024 C 7.164 -0.012 7.6080003 0 8.088 0 C 8.568 0 8.988 -0.012 9.324 -0.024 C 9.384 0.048 9.384 0.3 9.324 0.372 C 8.6640005 0.42000002 8.556 0.48000002 8.556 1.464 L 8.556 3.3600001 C 8.556 4.428 8.376 5.268 7.32 5.268 C 6.708 5.268 5.964 5.04 5.34 4.38 C 5.304 4.344 5.232 4.284 5.208 4.392 C 5.1 4.884 4.632 5.268 4.008 5.268 C 3.312 5.268 2.688 4.86 2.184 4.296 C 2.124 4.236 2.052 4.152 2.04 4.296 Z "/>
        </symbol>
        <symbol id="23" overflow="visible">
            <path d="M 5.16 2.628 L 4.164 2.628 L 4.164 6.132 C 4.164 6.732 4.164 7.2000003 4.188 7.296 L 4.164 7.32 L 3.78 7.32 C 3.696 7.32 3.636 7.248 3.588 7.188 C 2.832 6.264 1.44 4.284 0.336 2.568 C 0.372 2.388 0.444 2.0640001 0.804 2.0640001 L 3.252 2.0640001 L 3.252 0.96000004 C 3.252 0.408 2.796 0.408 2.28 0.372 C 2.208 0.3 2.208 0.048 2.28 -0.024 C 2.664 -0.012 3.144 0 3.696 0 C 4.164 0 4.62 -0.012 5.004 -0.024 C 5.076 0.048 5.076 0.3 5.004 0.372 C 4.416 0.42000002 4.164 0.396 4.164 0.96000004 L 4.164 2.0640001 L 4.992 2.0640001 C 5.16 2.0640001 5.34 2.292 5.34 2.436 C 5.34 2.556 5.292 2.628 5.16 2.628 Z M 3.252 6.084 L 3.252 2.628 L 0.96000004 2.628 C 1.572 3.612 2.424 4.956 3.252 6.084 Z "/>
        </symbol>
        <symbol id="24" overflow="visible">
            <path d="M 2.736 -0.120000005 C 3.66 -0.120000005 5.064 0.816 5.064 3.636 C 5.064 4.824 4.776 5.844 4.248 6.54 C 3.936 6.96 3.432 7.32 2.784 7.32 C 1.596 7.32 0.468 5.9040003 0.468 3.528 C 0.468 2.244 0.864 1.044 1.524 0.384 C 1.86 0.048 2.2680001 -0.120000005 2.736 -0.120000005 Z M 2.784 6.9 C 2.988 6.9 3.18 6.828 3.3240001 6.696 C 3.696 6.384 4.02 5.472 4.02 3.864 C 4.02 2.76 3.984 2.004 3.816 1.392 C 3.552 0.408 2.964 0.3 2.748 0.3 C 1.632 0.3 1.512 2.352 1.512 3.3960001 C 1.512 6.348 2.244 6.9 2.784 6.9 Z "/>
        </symbol>
        <symbol id="25" overflow="visible">
            <path d="M 4.716 5.82 C 4.716 6.684 4.044 7.32 2.868 7.32 C 1.644 7.32 0.852 6.588 0.852 5.664 C 0.852 4.992 1.176 4.5 1.908 4.044 L 2.22 3.852 C 1.872 3.672 1.548 3.456 1.248 3.192 C 0.756 2.76 0.552 2.22 0.552 1.752 C 0.552 0.528 1.416 -0.120000005 2.688 -0.120000005 C 4.26 -0.120000005 5.028 1.0320001 5.028 1.944 C 5.028 2.64 4.728 3.252 4.092 3.636 L 3.24 4.152 C 3.8040001 4.428 4.716 5.052 4.716 5.82 Z M 2.7120001 0.3 C 2.172 0.3 1.3560001 0.672 1.3560001 1.752 C 1.3560001 2.112 1.512 2.9520001 2.544 3.636 L 3.108 3.3 C 3.852 2.844 4.152 2.28 4.152 1.704 C 4.152 0.504 3.252 0.3 2.7120001 0.3 Z M 2.808 6.9 C 3.588 6.9 3.876 6.384 3.876 5.8320003 C 3.876 5.184 3.24 4.644 2.9160001 4.404 L 2.544 4.632 C 1.788 5.124 1.704 5.52 1.704 5.892 C 1.704 6.4440002 2.088 6.9 2.808 6.9 Z "/>
        </symbol>
        <symbol id="26" overflow="visible">
            <path d="M 0.732 5.616 C 0.732 5.364 0.96000004 5.1480002 1.212 5.1480002 C 1.416 5.1480002 1.776 5.364 1.776 5.6280003 C 1.776 5.724 1.752 5.796 1.728 5.88 C 1.704 5.964 1.632 6.072 1.632 6.168 C 1.632 6.468 1.944 6.9 2.82 6.9 C 3.252 6.9 3.864 6.6 3.864 5.448 C 3.864 4.68 3.588 4.056 2.88 3.336 L 1.992 2.46 C 0.816 1.26 0.624 0.684 0.624 -0.024 C 0.624 -0.024 1.2360001 0 1.62 0 L 3.72 0 C 4.104 0 4.656 -0.024 4.656 -0.024 C 4.8120003 0.612 4.932 1.512 4.9440002 1.872 C 4.872 1.932 4.716 1.956 4.596 1.932 C 4.392 1.08 4.188 0.78000003 3.756 0.78000003 L 1.62 0.78000003 C 1.62 1.3560001 2.448 2.172 2.5080001 2.232 L 3.72 3.3960001 C 4.404 4.056 4.92 4.584 4.92 5.496 C 4.92 6.7920003 3.864 7.32 2.892 7.32 C 1.5600001 7.32 0.732 6.336 0.732 5.616 Z "/>
        </symbol>
        <symbol id="27" overflow="visible">
            <path d="M 2.04 6.42 L 4.188 6.42 C 3.252 4.092 2.304 1.752 1.488 -0.072 L 1.584 -0.156 L 2.4 -0.120000005 C 3.084 1.9200001 3.744 3.912 5.088 7.188 L 4.896 7.3320003 C 4.692 7.272 4.428 7.2000003 3.9720001 7.2000003 L 1.5 7.2000003 C 1.092 7.2000003 1.116 7.32 0.90000004 7.368 C 0.864 7.368 0.852 7.368 0.852 7.3320003 C 0.84000003 6.756 0.708 6.0360003 0.612 5.412 C 0.744 5.376 0.864 5.364 0.996 5.376 C 1.26 6.336 1.656 6.42 2.04 6.42 Z "/>
        </symbol>
        <symbol id="28" overflow="visible">
            <path d="M 3.924 3.072 C 3.6000001 1.98 2.832 0.768 1.2360001 0.168 C 1.2360001 0.024 1.284 -0.084 1.38 -0.144 C 2.592 0.216 3.336 0.72 4.008 1.5 C 4.752 2.364 5.124 3.456 5.124 4.404 C 5.124 6.84 3.744 7.32 2.82 7.32 C 1.248 7.32 0.6 5.796 0.6 4.764 C 0.6 3.732 1.152 2.808 2.784 2.808 C 3.096 2.808 3.5640001 2.904 3.924 3.072 Z M 4.032 3.504 C 3.636 3.24 3.24 3.228 3.036 3.228 C 1.86 3.228 1.596 4.38 1.596 4.98 C 1.596 6.3 2.1 6.9 2.688 6.9 C 3.444 6.9 4.1280003 6.492 4.1280003 4.44 C 4.1280003 4.176 4.104 3.852 4.032 3.504 Z "/>
        </symbol>
        <symbol id="29" overflow="visible">
            <path d="M 2.604 6.552 L 3.3240001 0.144 C 3.348 -0.060000002 3.372 -0.120000005 3.492 -0.120000005 C 3.588 -0.120000005 3.624 -0.072 3.744 0.144 L 6.096 4.44 C 6.276 4.764 6.456 5.112 6.54 5.244 C 6.552 5.244 6.588 5.244 6.6 5.2200003 C 6.624 4.956 6.66 4.824 6.708 4.404 L 7.212 0.144 C 7.236 -0.072 7.308 -0.120000005 7.416 -0.120000005 C 7.512 -0.120000005 7.548 -0.084 7.668 0.132 L 11.28 6.636 C 11.508 7.032 11.7960005 7.344 12.432 7.416 C 12.504 7.488 12.504 7.692 12.432 7.764 C 12.036 7.752 11.568 7.7400002 11.2560005 7.7400002 C 10.944 7.7400002 10.38 7.752 9.9 7.764 C 9.828 7.692 9.828 7.488 9.9 7.416 C 10.5 7.368 10.932 7.2000003 10.668 6.732 L 8.424 2.58 L 7.98 1.752 L 7.896 2.484 L 7.512 5.8320003 C 7.464 6.2400002 7.38 7.008 7.38 7.008 L 6.864 7.008 L 4.5 2.592 L 4.044 1.824 L 3.96 2.616 L 3.552 6.864 C 3.516 7.26 3.984 7.392 4.404 7.416 C 4.476 7.488 4.476 7.692 4.404 7.764 C 4.008 7.752 3.408 7.7400002 2.964 7.7400002 C 2.568 7.7400002 2.1 7.752 1.668 7.764 C 1.596 7.692 1.596 7.488 1.668 7.416 C 2.244 7.32 2.532 7.2000003 2.604 6.552 Z "/>
        </symbol>
        <symbol id="2a" overflow="visible">
            <path d="M 4.92 5.196 C 4.596 5.232 4.44 5.268 3.96 5.268 C 2.676 5.268 0.936 3.384 0.936 1.5 C 0.936 0.828 1.092 -0.120000005 2.1 -0.120000005 C 2.736 -0.120000005 3.408 0.54 4.1280003 1.608 L 4.152 1.584 L 3.996 1.08 C 3.912 0.804 3.876 0.564 3.876 0.42000002 C 3.876 0.192 3.96 -0.120000005 4.368 -0.120000005 C 5.112 -0.120000005 5.592 0.36 5.9040003 1.044 C 5.844 1.152 5.784 1.2360001 5.6280003 1.2360001 C 5.304 0.792 5.076 0.6 4.956 0.6 C 4.92 0.6 4.8120003 0.624 4.8120003 0.768 C 4.8120003 0.876 4.884 1.212 4.932 1.44 L 5.76 5.172 C 5.676 5.172 5.604 5.172 5.52 5.172 C 5.304 5.16 5.1 5.1480002 4.92 5.196 Z M 4.32 2.628 C 3.732 1.548 2.808 0.54 2.424 0.54 C 2.016 0.54 1.896 1.02 1.896 1.692 C 1.896 2.964 2.892 4.896 3.996 4.896 C 4.248 4.896 4.512 4.8120003 4.7400002 4.668 C 4.7400002 4.668 4.62 3.3960001 4.32 2.628 Z "/>
        </symbol>
        <symbol id="2b" overflow="visible">
            <path d="M 2.232 5.1480002 L 1.596 5.112 C 1.368 5.1 1.284 5.004 1.26 4.908 C 1.248 4.872 1.212 4.728 1.212 4.704 C 1.212 4.68 1.248 4.68 1.284 4.68 L 2.124 4.68 L 1.392 1.416 C 1.308 1.0320001 1.224 0.66 1.224 0.432 C 1.224 0 1.44 -0.120000005 1.812 -0.120000005 C 2.352 -0.120000005 3.144 0.372 3.552 1.116 C 3.516 1.272 3.432 1.344 3.288 1.344 C 2.736 0.72 2.52 0.6 2.328 0.6 C 2.292 0.6 2.172 0.624 2.172 0.768 C 2.172 0.876 2.208 1.116 2.304 1.524 L 3.012 4.68 L 4.188 4.68 C 4.3320003 4.7400002 4.44 5.052 4.308 5.1480002 L 3.1200001 5.1480002 L 3.24 5.688 C 3.288 5.916 3.3960001 6.264 3.3960001 6.408 C 3.3960001 6.612 3.3 6.732 2.9160001 6.732 C 2.484 6.732 2.5080001 6.192 2.388 5.748 Z "/>
        </symbol>
        <symbol id="2c" overflow="visible">
            <path d="M 2.652 3.42 L 2.748 3.8400002 C 2.856 4.308 2.964 4.728 2.964 4.932 C 2.964 5.112 2.856 5.232 2.7 5.232 C 2.316 5.232 1.824 5.1480002 1.26 5.076 C 1.176 4.98 1.2 4.848 1.272 4.7400002 L 1.752 4.704 C 1.896 4.692 1.968 4.584 1.968 4.464 C 1.968 4.356 1.968 4.188 1.8840001 3.852 L 1.224 0.864 C 1.164 0.612 1.068 0.396 1.068 0.204 C 1.068 0.012 1.176 -0.120000005 1.524 -0.120000005 C 1.944 -0.120000005 1.956 0.396 2.076 0.864 L 2.424 2.2680001 C 3 3.312 3.672 4.428 3.948 4.428 C 4.068 4.428 4.1280003 4.368 4.2 4.284 C 4.284 4.188 4.44 4.032 4.608 4.032 C 4.932 4.032 5.1480002 4.38 5.1480002 4.704 C 5.1480002 4.956 4.968 5.268 4.524 5.268 C 3.924 5.268 3.228 4.524 2.7 3.408 Z "/>
        </symbol>
        <symbol id="2d" overflow="visible">
            <path d="M 2.5080001 -0.120000005 C 3.372 -0.120000005 4.152 0.504 4.728 1.308 C 4.692 1.428 4.572 1.512 4.464 1.512 C 3.996 0.984 3.516 0.588 2.88 0.588 C 2.676 0.588 2.448 0.636 2.28 0.864 C 2.1 1.092 1.98 1.332 1.98 2.052 C 1.98 3.8400002 2.82 4.896 3.744 4.896 C 3.912 4.896 4.248 4.836 4.248 4.44 C 4.248 4.368 4.224 4.272 4.188 4.212 C 4.152 4.164 4.1280003 4.032 4.1280003 3.96 C 4.1280003 3.7680001 4.248 3.576 4.452 3.576 C 4.776 3.576 5.076 3.816 5.076 4.116 C 5.076 4.584 5.04 5.268 3.732 5.268 C 3.252 5.268 2.484 4.956 1.98 4.428 C 1.392 3.792 0.996 2.868 0.996 1.788 C 0.996 1.392 1.08 0.852 1.3560001 0.456 C 1.608 0.108 2.016 -0.120000005 2.5080001 -0.120000005 Z "/>
        </symbol>
        <symbol id="2e" overflow="visible">
            <path d="M 0.936 1.944 C 0.936 1.308 1.092 -0.120000005 2.616 -0.120000005 C 3 -0.120000005 3.372 -0.072 3.72 0.108 C 4.764 0.636 5.58 1.908 5.58 3.3240001 C 5.58 4.188 5.364 5.268 3.888 5.268 C 1.8840001 5.268 0.936 3.384 0.936 1.944 Z M 1.932 2.04 C 1.932 3.1200001 2.4 4.872 3.672 4.872 C 4.032 4.872 4.224 4.68 4.404 4.344 C 4.548 4.044 4.584 3.6000001 4.584 3.24 C 4.584 2.76 4.512 1.728 4.068 1.056 C 3.732 0.54 3.252 0.324 2.796 0.324 C 2.448 0.324 1.932 0.78000003 1.932 2.04 Z "/>
        </symbol>
        <symbol id="2f" overflow="visible">
            <path d="M 5.196 1.488 L 5.652 3.3960001 C 5.748 3.816 5.808 4.092 5.808 4.308 C 5.808 5.028 5.484 5.268 5.0160003 5.268 C 4.392 5.268 3.876 5.0160003 2.772 3.72 L 2.76 3.732 L 2.796 3.8400002 C 2.9520001 4.284 3.06 4.8 3.06 4.98 C 3.06 5.1480002 2.964 5.232 2.808 5.232 C 2.424 5.232 1.86 5.16 1.296 5.076 C 1.212 4.98 1.2360001 4.848 1.308 4.7400002 L 1.788 4.704 C 1.932 4.692 2.004 4.584 2.004 4.464 C 2.004 4.368 1.968 4.188 1.896 3.852 L 1.224 0.864 C 1.164 0.624 1.068 0.324 1.068 0.204 C 1.068 0.012 1.2 -0.120000005 1.584 -0.120000005 C 2.04 -0.120000005 2.028 0.408 2.136 0.864 L 2.592 2.856 C 3.348 3.8400002 4.008 4.548 4.44 4.548 C 4.692 4.548 4.86 4.488 4.86 4.116 C 4.86 3.9720001 4.788 3.636 4.704 3.3 L 4.248 1.38 C 4.152 0.996 4.044 0.504 4.044 0.276 C 4.044 0.048 4.176 -0.120000005 4.5360003 -0.120000005 C 5.112 -0.120000005 5.688 0.288 6.2400002 0.996 C 6.204 1.104 6.132 1.2 5.964 1.2 C 5.652 0.84000003 5.304 0.6 5.184 0.6 C 5.1 0.6 5.064 0.66 5.064 0.804 C 5.064 0.912 5.124 1.176 5.196 1.488 Z "/>
        </symbol>
        <symbol id="30" overflow="visible">
            <path d="M 2.088 -0.120000005 L 2.2680001 -0.120000005 C 3.444 -0.120000005 4.152 0.528 4.152 1.416 C 4.152 1.98 3.828 2.532 2.724 3.264 C 2.364 3.504 2.244 3.72 2.244 4.02 C 2.244 4.44 2.484 4.872 3 4.872 C 3.3 4.872 3.504 4.776 3.54 4.524 C 3.576 4.236 3.78 3.9 4.092 3.9 C 4.428 3.9 4.524 4.116 4.524 4.308 C 4.524 4.7400002 3.9 5.268 3.1560001 5.268 C 2.112 5.268 1.4760001 4.5 1.4760001 3.7680001 C 1.4760001 3.288 1.74 2.772 2.52 2.244 C 3.1560001 1.812 3.252 1.416 3.252 1.164 C 3.252 0.504 2.772 0.276 2.232 0.276 C 1.9200001 0.276 1.752 0.336 1.716 0.6 C 1.6800001 0.876 1.512 1.2360001 1.152 1.2360001 C 0.804 1.2360001 0.708 0.948 0.708 0.816 C 0.708 0.372 1.26 -0.072 2.088 -0.120000005 Z "/>
        </symbol>
        <symbol id="31" overflow="visible">
            <path d="M 6.072 4.224 C 6.12 4.44 6.228 4.8 6.228 4.9440002 C 6.228 5.1480002 6.1080003 5.268 5.724 5.268 C 5.268 5.268 5.292 4.7400002 5.172 4.284 L 4.824 2.964 C 3.936 1.452 3.348 0.6 2.748 0.6 C 2.532 0.6 2.388 0.72 2.388 1.044 C 2.388 1.2360001 2.412 1.488 2.496 1.812 L 3.012 3.7680001 C 3.108 4.152 3.264 4.644 3.264 4.872 C 3.264 5.1 3.192 5.268 2.832 5.268 C 2.256 5.268 1.572 4.86 1.02 4.152 C 1.056 4.044 1.128 3.948 1.296 3.948 C 1.608 4.308 2.004 4.548 2.124 4.548 C 2.208 4.548 2.244 4.488 2.244 4.344 C 2.244 4.236 2.172 3.9720001 2.088 3.66 L 1.5600001 1.644 C 1.4760001 1.332 1.44 1.068 1.44 0.84000003 C 1.44 0.156 1.824 -0.120000005 2.244 -0.120000005 C 3.18 -0.120000005 3.78 0.624 4.632 1.872 L 4.668 1.848 L 4.5360003 1.38 C 4.428 0.996 4.3320003 0.504 4.3320003 0.276 C 4.3320003 0.048 4.416 -0.120000005 4.776 -0.120000005 C 5.352 -0.120000005 5.892 0.288 6.4440002 0.996 C 6.408 1.104 6.336 1.2 6.168 1.2 C 5.856 0.84000003 5.508 0.6 5.388 0.6 C 5.304 0.6 5.268 0.66 5.268 0.804 C 5.268 0.912 5.328 1.176 5.4 1.488 Z "/>
        </symbol>
        <symbol id="32" overflow="visible">
            <path d="M 2.184 3.852 L 1.5 0.864 C 1.44 0.624 1.344 0.324 1.344 0.204 C 1.344 0.012 1.452 -0.120000005 1.836 -0.120000005 C 2.292 -0.120000005 2.2680001 0.408 2.388 0.864 L 2.868 2.796 C 3.8040001 4.152 4.476 4.548 4.86 4.548 C 5.1 4.548 5.172 4.464 5.172 4.104 C 5.172 3.96 5.16 3.672 5.076 3.3 L 4.5 0.864 C 4.44 0.624 4.344 0.324 4.344 0.204 C 4.344 0.012 4.452 -0.120000005 4.836 -0.120000005 C 5.292 -0.120000005 5.28 0.408 5.388 0.864 L 5.844 2.748 C 6.864 4.176 7.3320003 4.548 7.716 4.548 C 7.9440002 4.548 8.064 4.464 8.064 4.104 C 8.064 3.9720001 8.052 3.624 7.956 3.252 L 7.488 1.368 C 7.368 0.876 7.272 0.384 7.272 0.276 C 7.272 0.036 7.488 -0.120000005 7.656 -0.120000005 C 8.364 -0.120000005 9.024 0.228 9.432 1.212 C 9.408 1.32 9.324 1.38 9.168 1.38 C 8.88 0.924 8.544 0.6 8.328 0.6 C 8.268 0.6 8.244 0.672 8.244 0.732 C 8.244 0.78000003 8.268 1.08 8.304 1.212 L 8.868 3.348 C 8.940001 3.624 8.988 3.996 8.988 4.224 C 8.988 4.98 8.628 5.268 8.2560005 5.268 C 7.4040003 5.268 6.744 4.5360003 6.048 3.66 C 6.084 3.852 6.096 4.068 6.096 4.224 C 6.096 5.064 5.736 5.268 5.4 5.268 C 4.5360003 5.268 3.756 4.632 3.048 3.72 L 3.024 3.732 L 3.048 3.8400002 C 3.168 4.308 3.3240001 4.776 3.3240001 4.98 C 3.3240001 5.1480002 3.228 5.232 3.072 5.232 C 2.688 5.232 2.148 5.1480002 1.584 5.076 C 1.5 4.98 1.524 4.848 1.596 4.7400002 L 2.076 4.704 C 2.22 4.692 2.292 4.584 2.292 4.464 C 2.292 4.356 2.256 4.188 2.184 3.852 Z "/>
        </symbol>
        <symbol id="33" overflow="visible">
            <path d="M 3.192 4.848 C 3.24 5.064 3.348 5.4240003 3.348 5.568 C 3.348 5.772 3.228 5.892 2.844 5.892 C 2.388 5.892 2.388 5.364 2.292 4.908 L 2.136 4.2 C 1.536 3.7680001 1.092 3.408 0.756 2.988 C 0.804 2.82 0.912 2.736 1.128 2.736 C 1.392 3.084 1.656 3.3 1.992 3.576 L 0.756 -1.932 C 0.684 -2.2680001 0.504 -2.412 0.120000005 -2.4720001 L -0.108 -2.5080001 C -0.168 -2.52 -0.228 -2.532 -0.228 -2.604 L -0.228 -2.832 L -0.204 -2.856 C -0.204 -2.856 0.612 -2.796 1.044 -2.796 C 1.512 -2.796 2.328 -2.82 2.328 -2.82 L 2.352 -2.796 L 2.352 -2.556 C 2.352 -2.496 2.328 -2.4720001 2.28 -2.46 L 2.052 -2.424 C 1.872 -2.4 1.5600001 -2.34 1.656 -1.932 L 2.184 0.276 C 2.364 0.084 2.7120001 -0.120000005 3.06 -0.120000005 C 3.912 -0.120000005 4.608 0.36 5.136 0.996 C 5.784 1.788 6.1080003 2.604 6.1080003 3.468 C 6.1080003 4.476 5.772 5.268 4.572 5.268 C 3.96 5.268 3.516 5.04 3.192 4.848 Z M 5.124 3.276 C 5.124 2.7 4.884 1.86 4.428 1.164 C 4.116 0.66 3.636 0.3 3.18 0.3 C 2.868 0.3 2.544 0.456 2.292 0.804 L 3.084 4.308 C 3.384 4.5 3.732 4.716 4.188 4.716 C 5.004 4.716 5.124 3.864 5.124 3.276 Z "/>
        </symbol>
        <symbol id="34" overflow="visible">
            <path d="M 2.976 7.452 C 3.1200001 7.452 3.1200001 7.3320003 3.048 6.948 L 2.7 5.124 C 2.64 4.86 2.436 4.68 2.244 4.68 L 1.812 4.68 C 1.764 4.68 1.728 4.644 1.716 4.62 L 1.668 4.368 C 1.668 4.368 2.388 4.38 2.844 4.38 C 3.252 4.38 3.876 4.368 3.876 4.368 L 3.924 4.62 C 3.936 4.668 3.9 4.68 3.864 4.68 L 3.528 4.68 C 3.3600001 4.68 3.252 4.86 3.312 5.124 L 3.924 8.2560005 L 3.732 8.2560005 C 3.144 7.932 2.808 7.788 2.208 7.584 L 2.256 7.26 C 2.448 7.344 2.82 7.452 2.976 7.452 Z "/>
        </symbol>
        <symbol id="35" overflow="visible">
            <path d="M 3.456 1.464 L 3.456 5.6280003 C 3.456 6.348 3.468 7.08 3.492 7.236 C 3.492 7.296 3.468 7.296 3.42 7.296 C 2.76 6.888 2.124 6.588 1.068 6.096 C 1.092 5.964 1.14 5.844 1.248 5.772 C 1.8000001 6 2.0640001 6.072 2.292 6.072 C 2.496 6.072 2.532 5.784 2.532 5.376 L 2.532 1.464 C 2.532 0.468 2.208 0.408 1.368 0.372 C 1.296 0.3 1.296 0.048 1.368 -0.024 C 1.956 -0.012 2.388 0 3.036 0 C 3.612 0 3.9 -0.012 4.5 -0.024 C 4.572 0.048 4.572 0.3 4.5 0.372 C 3.66 0.408 3.456 0.468 3.456 1.464 Z "/>
        </symbol>
        <symbol id="36" overflow="visible">
            <path d="M 1.932 0.948 L 2.94 2.688 C 3.024 2.844 3.108 2.892 3.384 2.892 L 5.784 2.892 L 6.084 0.864 C 6.096 0.828 6.096 0.792 6.096 0.756 C 6.096 0.492 5.9040003 0.384 5.508 0.348 L 5.172 0.324 C 5.124 0.324 5.088 0.288 5.076 0.228 L 5.052 0 L 5.064 -0.024 C 5.496 -0.012 6.144 0 6.588 0 C 7.056 0 7.524 -0.012 7.9440002 -0.024 L 7.968 0 L 7.992 0.228 C 8.004 0.288 7.956 0.324 7.896 0.324 L 7.776 0.336 C 7.32 0.384 7.1280003 0.564 7.056 1.0320001 L 5.952 7.5360003 C 5.916 7.764 5.88 7.896 5.712 7.896 C 5.544 7.896 5.436 7.788 5.244 7.464 L 1.464 1.224 C 1.02 0.48000002 0.684 0.36 0.18 0.324 C 0.120000005 0.324 0.084 0.288 0.072 0.228 L 0.036 0 L 0.048 -0.024 C 0.48000002 -0.012 0.672 0 1.116 0 C 1.584 0 2.196 -0.012 2.616 -0.024 L 2.652 0 L 2.676 0.228 C 2.688 0.288 2.652 0.324 2.604 0.324 L 2.28 0.348 C 1.98 0.372 1.848 0.492 1.848 0.672 C 1.848 0.756 1.872 0.852 1.932 0.948 Z M 3.684 3.3960001 C 3.492 3.3960001 3.408 3.42 3.408 3.48 C 3.408 3.504 3.42 3.528 3.432 3.552 L 5.172 6.6 L 5.196 6.6 L 5.688 3.3960001 Z "/>
        </symbol>
        <symbol id="37" overflow="visible">
            <path d="M 4.98 3.492 C 4.98 3.816 4.908 4.248 4.7400002 4.488 C 4.92 4.656 5.2200003 4.788 5.304 4.788 C 5.412 4.788 5.448 4.728 5.484 4.668 C 5.544 4.572 5.6280003 4.464 5.82 4.464 C 6.0360003 4.464 6.192 4.632 6.192 4.86 C 6.192 5.076 6 5.268 5.724 5.268 C 5.412 5.268 4.956 5.1480002 4.5360003 4.764 C 4.272 5.076 3.888 5.268 3.3600001 5.268 C 2.016 5.268 1.488 4.356 1.488 3.3960001 C 1.488 2.868 1.716 2.364 2.04 1.98 C 1.74 1.668 1.392 1.092 1.392 0.672 C 1.392 0.552 1.392 0.276 1.704 0.096 C 1.068 -0.252 0.084 -0.912 0.084 -1.632 C 0.084 -2.604 1.416 -2.856 2.388 -2.856 C 4.032 -2.856 5.124 -2.388 5.124 -1.2 C 5.124 -0.42000002 4.548 -0.024 3.9 0.168 C 2.94 0.456 2.0640001 0.48000002 2.0640001 1.056 C 2.0640001 1.296 2.232 1.584 2.34 1.788 C 2.532 1.668 2.82 1.584 3.1560001 1.584 C 4.2 1.584 4.98 2.304 4.98 3.492 Z M 1.932 -0.036 C 2.148 -0.084 2.988 -0.348 3.384 -0.528 C 4.056 -0.84000003 4.344 -1.104 4.344 -1.524 C 4.344 -1.98 3.936 -2.46 2.88 -2.46 C 1.536 -2.46 0.888 -2.016 0.888 -1.3560001 C 0.888 -0.78000003 1.632 -0.252 1.932 -0.036 Z M 4.092 3.492 C 4.092 2.748 3.936 1.944 3.216 1.944 C 2.484 1.944 2.376 2.808 2.376 3.384 C 2.376 4.248 2.52 4.908 3.312 4.908 C 3.828 4.908 4.092 4.308 4.092 3.492 Z "/>
        </symbol>
        <symbol id="38" overflow="visible">
            <path d="M 2.448 -1.9200001 C 2.64 -1.584 2.796 -1.248 2.94 -0.888 C 3.9 1.428 4.44 2.664 5.064 4.008 C 5.304 4.512 5.472 4.704 6.0360003 4.776 C 6.1080003 4.848 6.1080003 5.1 6.0360003 5.172 C 5.796 5.16 5.52 5.1480002 5.184 5.1480002 C 4.824 5.1480002 4.452 5.16 4.092 5.172 C 4.02 5.1 4.02 4.848 4.092 4.776 C 4.476 4.7400002 4.86 4.668 4.668 4.236 L 3.48 1.488 C 3.3960001 1.296 3.288 1.26 3.192 1.5 L 2.124 3.996 C 1.908 4.5 1.848 4.728 2.52 4.776 C 2.592 4.848 2.592 5.1 2.52 5.172 C 2.076 5.16 1.596 5.1480002 1.164 5.1480002 C 0.756 5.1480002 0.432 5.16 0.192 5.172 C 0.120000005 5.1 0.120000005 4.848 0.192 4.776 C 0.672 4.716 0.828 4.608 1.14 3.876 L 2.496 0.72 C 2.604 0.48000002 2.784 -0.072 2.664 -0.408 C 2.52 -0.804 2.376 -1.14 2.196 -1.512 C 2.0640001 -1.752 1.896 -1.86 1.596 -1.86 C 1.428 -1.86 1.38 -1.824 1.248 -1.824 C 0.90000004 -1.824 0.72 -2.184 0.72 -2.34 C 0.72 -2.592 0.96000004 -2.784 1.284 -2.784 C 1.536 -2.784 2.016 -2.688 2.448 -1.9200001 Z "/>
        </symbol>
        <symbol id="39" overflow="visible">
            <path d="M 1.728 4.116 C 2.052 5.208 2.82 6.42 4.416 7.02 C 4.416 7.164 4.368 7.272 4.272 7.3320003 C 3.06 6.972 2.316 6.468 1.644 5.688 C 0.90000004 4.824 0.528 3.732 0.528 2.784 C 0.528 0.348 1.908 -0.132 2.832 -0.132 C 4.404 -0.132 5.052 1.392 5.052 2.424 C 5.052 3.456 4.5 4.38 2.868 4.38 C 2.556 4.38 2.088 4.284 1.728 4.116 Z M 1.62 3.684 C 2.016 3.948 2.412 3.96 2.616 3.96 C 3.792 3.96 4.056 2.808 4.056 2.208 C 4.056 0.888 3.552 0.288 2.964 0.288 C 2.208 0.288 1.524 0.696 1.524 2.748 C 1.524 3.024 1.548 3.336 1.62 3.684 Z "/>
        </symbol>
        <symbol id="3a" overflow="visible">
            <path d="M 7.4040003 6.636 C 7.632 7.032 8.016 7.344 8.652 7.416 C 8.724 7.488 8.724 7.692 8.652 7.764 C 8.208 7.752 7.836 7.7400002 7.524 7.7400002 C 7.212 7.7400002 6.684 7.752 6.204 7.764 C 6.132 7.692 6.132 7.488 6.204 7.416 C 6.804 7.368 7.1280003 7.2000003 6.876 6.732 L 4.08 1.524 C 4.056 1.5 4.032 1.488 3.996 1.524 L 3.228 6.864 C 3.168 7.26 3.672 7.392 4.092 7.416 C 4.164 7.488 4.164 7.692 4.092 7.764 C 3.696 7.752 3.108 7.7400002 2.64 7.7400002 C 2.16 7.7400002 1.848 7.752 1.368 7.764 C 1.296 7.692 1.296 7.488 1.368 7.416 C 1.872 7.356 2.16 7.344 2.256 6.672 L 3.228 0.132 C 3.252 -0.048 3.3240001 -0.144 3.444 -0.144 C 3.5640001 -0.144 3.672 -0.048 3.7680001 0.132 Z "/>
        </symbol>
        <symbol id="3b" overflow="visible">
            <path d="M 3.432 6.9960003 C 3.612 7.776 3.732 8.2560005 3.732 8.2560005 C 3.732 8.34 3.696 8.376 3.588 8.376 C 3.264 8.2560005 2.4 8.1 1.908 8.064 L 1.872 7.776 C 1.872 7.7400002 1.8840001 7.716 1.932 7.716 L 2.304 7.692 C 2.46 7.692 2.556 7.62 2.556 7.356 C 2.556 7.224 2.532 7.02 2.4720001 6.756 L 1.284 1.428 C 1.2 1.044 1.116 0.636 1.116 0.408 C 1.116 0.18 1.176 -0.120000005 1.62 -0.120000005 C 2.16 -0.120000005 2.82 0.192 3.3600001 1.092 C 3.312 1.212 3.252 1.296 3.096 1.296 C 2.736 0.864 2.352 0.6 2.208 0.6 C 2.112 0.6 2.0640001 0.672 2.0640001 0.768 C 2.0640001 0.864 2.1 1.044 2.208 1.524 Z "/>
        </symbol>
        <symbol id="3c" overflow="visible">
            <path d="M 4.452 7.02 C 3.888 7.092 3.828 7.272 3.084 7.308 L 3.144 8.34 C 2.988 8.34 2.808 8.316 2.7 8.28 L 2.64 7.32 C 1.5600001 7.284 0.612 6.564 0.612 5.412 C 0.612 4.368 1.368 3.828 2.232 3.456 C 2.292 3.432 2.364 3.408 2.424 3.372 L 2.256 0.312 C 1.452 0.432 0.924 0.912 0.708 1.872 C 0.576 1.9200001 0.456 1.896 0.348 1.836 C 0.396 0.972 0.444 0.696 0.576 0.144 C 1.2 0.144 1.5 -0.048 2.244 -0.096 L 2.184 -1.176 C 2.304 -1.176 2.532 -1.164 2.628 -1.116 L 2.676 -0.108 C 3.144 -0.096 3.6000001 0.024 3.96 0.252 C 4.596 0.648 5.004 1.344 5.004 2.052 C 5.004 3.1200001 4.272 3.648 3.468 3.996 C 3.336 4.056 3.132 4.1280003 2.9160001 4.212 L 3.06 6.9 C 3.816 6.732 4.092 6.132 4.284 5.508 C 4.296 5.508 4.308 5.508 4.3320003 5.508 C 4.452 5.508 4.572 5.508 4.656 5.58 C 4.62 6.12 4.572 6.432 4.452 7.02 Z M 2.856 3.216 C 3.468 2.964 4.068 2.604 4.068 1.668 C 4.068 0.78000003 3.576 0.3 2.7 0.288 Z M 2.484 4.404 C 1.944 4.668 1.416 5.064 1.416 5.712 C 1.416 6.336 1.968 6.9240003 2.628 6.936 Z "/>
        </symbol>
        <symbol id="3d" overflow="visible">
            <path d="M 1.296 5.952 C 1.4112 5.952 1.4304 5.8656 1.4304 5.5584 L 1.4304 4.3104 C 1.4304 3.8208 1.1328001 3.7920003 0.74880004 3.7728002 C 0.70080006 3.696 0.71040004 3.5520003 0.74880004 3.4944003 C 1.0368 3.5040002 1.3344 3.5040002 1.6704 3.5040002 C 1.9872001 3.5040002 2.1888 3.5040002 2.4768002 3.4944003 C 2.5152001 3.5616002 2.5152001 3.696 2.4768002 3.7728002 C 2.1504002 3.7920003 1.9488001 3.8208 1.9488001 4.3104 L 1.9488001 6.6048 C 1.9008001 6.6528 1.8240001 6.6336 1.7760001 6.6048 C 1.3536 6.3456 1.1040001 6.2304 0.6528 6.0672 C 0.6528 5.952 0.67200005 5.8656 0.74880004 5.808 C 0.98880005 5.8944 1.1712 5.952 1.296 5.952 Z "/>
        </symbol>
        <symbol id="3e" overflow="visible">
            <path d="M 1.4304 0 L 3.4752002 0 C 3.7344003 0 4.6176004 -0.0192 4.6176004 -0.0192 C 4.7136 0.46080002 4.8096004 1.0848 4.8672004 1.5840001 C 4.7712 1.6320001 4.6656003 1.6512 4.5504003 1.6320001 C 4.3584003 0.9408001 4.0032 0.37440002 2.9856002 0.37440002 L 2.3808 0.37440002 C 2.0064 0.37440002 1.8336 0.5568 1.8336 1.0464001 L 1.8336 5.0208 C 1.8336 5.8176003 1.9968001 5.8656 2.6688 5.8944 C 2.7264001 5.952 2.7264001 6.1536 2.6688 6.2112 C 2.2368002 6.2016 1.7856001 6.1920004 1.4208001 6.1920004 C 1.0752001 6.1920004 0.624 6.2016 0.1824 6.2112 C 0.124800004 6.1536 0.124800004 5.952 0.1824 5.8944 C 0.85440004 5.8656 1.0176 5.8176003 1.0176 5.0208 L 1.0176 1.1712 C 1.0176 0.37440002 0.85440004 0.3264 0.1824 0.2976 C 0.124800004 0.24000001 0.124800004 0.0384 0.1824 -0.0192 C 0.5568 -0.0096 1.1040001 0 1.4304 0 Z "/>
        </symbol>
        <symbol id="3f" overflow="visible">
            <path d="M 1.7376001 1.1712 L 1.7376001 3.0816002 C 1.7376001 3.5616002 1.7760001 4.176 1.7760001 4.176 C 1.7760001 4.2144003 1.728 4.2432003 1.6512 4.2432003 C 1.3824 4.1376004 0.99840003 4.0512004 0.33600003 3.9648001 C 0.31680003 3.9072 0.33600003 3.7536001 0.35520002 3.696 C 0.88320005 3.6480002 0.97920007 3.5904002 0.97920007 3.0432003 L 0.97920007 1.1712 C 0.97920007 0.37440002 0.87360007 0.3456 0.28800002 0.2976 C 0.23040001 0.24000001 0.23040001 0.0384 0.28800002 -0.0192 C 0.60480005 -0.0096 0.97920007 0 1.3632001 0 C 1.7472001 0 2.112 -0.0096 2.4288 -0.0192 C 2.4864001 0.0384 2.4864001 0.24000001 2.4288 0.2976 C 1.8432001 0.33600003 1.7376001 0.37440002 1.7376001 1.1712 Z M 0.864 5.7504 C 0.864 5.5008 1.0944 5.2512 1.3248 5.2512 C 1.5936 5.2512 1.8240001 5.5104003 1.8240001 5.7120004 C 1.8240001 5.9424005 1.6224 6.2112 1.3632001 6.2112 C 1.1328001 6.2112 0.864 5.9808 0.864 5.7504 Z "/>
        </symbol>
        <symbol id="40" overflow="visible">
            <path d="M 0.4128 4.1184 C 0.2784 4.1184 0.24000001 4.0032 0.24000001 3.9264002 L 0.24000001 3.8016002 C 0.24000001 3.7536001 0.24960001 3.7440002 0.28800002 3.7440002 L 0.85440004 3.7440002 L 0.85440004 0.85440004 C 0.85440004 0.1728 1.1520001 -0.096 1.5936 -0.096 C 2.0352 -0.096 2.5152001 0.115200005 2.8896 0.53760004 C 2.8704002 0.63360006 2.8128002 0.6912 2.7168002 0.70080006 C 2.4672 0.5088 2.1792002 0.432 1.9296001 0.432 C 1.6704 0.432 1.6128001 0.72 1.6128001 1.3152001 L 1.6128001 3.7440002 L 2.6112 3.7440002 C 2.7072 3.7440002 2.8416002 3.7824001 2.8416002 3.8688002 L 2.8416002 4.0608 C 2.8416002 4.0992002 2.8128002 4.1184 2.7648 4.1184 L 1.6128001 4.1184 L 1.6128001 4.4928 C 1.6128001 5.1168003 1.6512 5.5008 1.6512 5.5008 C 1.6512 5.5584 1.6224 5.5872 1.5744001 5.5872 C 1.536 5.5872 1.4496001 5.5488005 1.3632001 5.5008 C 1.2576001 5.4432 1.1616001 5.3952003 1.0368 5.3664002 C 0.92160004 5.328 0.8256 5.2992 0.8256 5.2320004 C 0.8256 5.1168003 0.85440004 5.184 0.85440004 4.1184 Z "/>
        </symbol>
        <symbol id="41" overflow="visible">
            <path d="M 3.7056003 0.89280003 C 3.3504002 0.528 3.072 0.37440002 2.5152001 0.37440002 C 2.1696 0.37440002 1.7664001 0.57600003 1.4688001 1.0656 C 1.2768 1.3824 1.1616001 1.8240001 1.1616001 2.3808 L 3.7152002 2.3616002 C 3.8304002 2.3616002 3.8976002 2.4192002 3.8976002 2.5248 C 3.8976002 3.3312001 3.6096 4.1952 2.2752001 4.1952 C 1.44 4.1952 0.35520002 3.3984 0.35520002 1.9392 C 0.35520002 1.4016001 0.48960003 0.88320005 0.80640006 0.5184 C 1.1328001 0.13440001 1.5840001 -0.096 2.2752001 -0.096 C 3.0048 -0.096 3.5232003 0.24000001 3.9072 0.73920006 C 3.8784 0.8352 3.8208 0.88320005 3.7056003 0.89280003 Z M 1.1904 2.7072 C 1.3728001 3.7920003 2.0448 3.8784 2.2752001 3.8784 C 2.64 3.8784 3.072 3.6768003 3.072 2.8704002 C 3.072 2.7840002 3.0336 2.736 2.9280002 2.736 Z "/>
        </symbol>
        <symbol id="42" overflow="visible">
            <path d="M 1.6896001 3.4368002 C 1.6704 3.8208 1.6608001 4.0704 1.6128001 4.1664004 C 1.5936 4.2144003 1.5744001 4.2432003 1.4976001 4.2432003 C 1.2288 4.1376004 0.97920007 4.0512004 0.31680003 3.9648001 C 0.2976 3.9072 0.31680003 3.7536001 0.33600003 3.696 C 0.85440004 3.6480002 0.96000004 3.6000001 0.96000004 3.0432003 L 0.96000004 1.1712 C 0.96000004 0.37440002 0.84480006 0.33600003 0.24960001 0.2976 C 0.192 0.24000001 0.192 0.0384 0.24960001 -0.0192 C 0.5856 -0.0096 0.96000004 0 1.3440001 0 C 1.728 0 2.1696 -0.0096 2.5056002 -0.0192 C 2.5632002 0.0384 2.5632002 0.24000001 2.5056002 0.2976 C 1.8336 0.3456 1.7184001 0.37440002 1.7184001 1.1712 L 1.7184001 2.5056002 C 1.7184001 2.7552001 1.8336 2.976 1.9488001 3.1488001 C 2.0544002 3.3024 2.2752001 3.6192002 2.3904002 3.6192002 C 2.4768002 3.6192002 2.5632002 3.6000001 2.64 3.4944003 C 2.7072 3.3984 2.8224 3.2736 2.9856002 3.2736 C 3.216 3.2736 3.4368002 3.5136 3.4368002 3.7536001 C 3.4368002 3.936 3.2640002 4.2144003 2.8608 4.2144003 C 2.4096 4.2144003 2.016 3.7920003 1.7952001 3.4176002 C 1.7376001 3.3120003 1.6896001 3.3888001 1.6896001 3.4368002 Z "/>
        </symbol>
        <symbol id="43" overflow="visible">
            <path d="M 0.46080002 1.3248 C 0.49920002 0.85440004 0.528 0.40320003 0.528 0 C 0.624 0.0192 0.72 0.028800001 0.768 0.028800001 C 0.8352 0.028800001 0.89280003 0.028800001 0.96000004 0.0096 C 1.2192 -0.057600003 1.4784001 -0.096 1.8336 -0.096 C 2.3712 -0.096 3.3600001 0.1632 3.3600001 1.1136 C 3.3600001 1.7664001 2.8896 2.1504002 2.2368002 2.3904002 C 1.6608001 2.6112 1.2768 2.7552001 1.2768 3.2832003 C 1.2768 3.6768003 1.6224 3.8976002 1.9488001 3.8976002 C 2.16 3.8976002 2.7168002 3.8208 2.8416002 3.0048 C 2.8992002 2.9472 3.0912 2.9568002 3.1488001 3.0144002 C 3.1776001 3.3600001 3.1968002 3.7152002 3.2064002 4.032 C 2.9088001 4.0800004 2.4480002 4.2144003 1.9488001 4.2144003 C 1.2384001 4.2144003 0.5952 3.7536001 0.5952 3.1392002 C 0.5952 2.4384 0.91200006 2.1408 1.6512 1.8336 C 2.4480002 1.5072001 2.6304002 1.3056 2.6304002 0.89280003 C 2.6304002 0.42240003 2.1696 0.22080001 1.8144001 0.22080001 C 1.44 0.22080001 1.2288 0.3456 1.1328001 0.4512 C 0.92160004 0.67200005 0.81600004 1.0944 0.7584 1.3344 C 0.70080006 1.3920001 0.5184 1.3824 0.46080002 1.3248 Z "/>
        </symbol>
        <symbol id="44" overflow="visible">
            <path d="M 1.4976001 3.5328002 C 1.488 3.8208 1.4688001 4.0704 1.4208001 4.1664004 C 1.4016001 4.2144003 1.3824 4.2432003 1.3056 4.2432003 C 1.0368 4.1376004 0.78720003 4.0512004 0.124800004 3.9648001 C 0.10560001 3.9072 0.124800004 3.7536001 0.14400001 3.696 C 0.6624 3.6480002 0.768 3.6000001 0.768 3.0432003 L 0.768 -1.056 C 0.768 -1.8528001 0.6624 -1.9008001 0.0768 -1.9296001 C 0.0192 -1.9872001 0.0192 -2.1888 0.0768 -2.2464 C 0.4128 -2.2368002 0.768 -2.2272 1.1520001 -2.2272 C 1.536 -2.2272 1.9968001 -2.2368002 2.3136 -2.2464 C 2.3712 -2.1888 2.3712 -1.9872001 2.3136 -1.9296001 C 1.6320001 -1.8912001 1.5264001 -1.8528001 1.5264001 -1.056 L 1.5264001 -0.0192 C 1.5264001 0.10560001 1.5648 0.096 1.6608001 0.057600003 C 1.9008001 -0.0384 2.1888 -0.096 2.496 -0.096 C 3.0336 -0.096 3.5136 0.067200005 3.9072 0.44160002 C 4.3584003 0.88320005 4.6176004 1.4784001 4.6176004 2.256 C 4.6176004 3.2736 3.8976002 4.2144003 2.9184 4.2144003 C 2.4768002 4.2144003 1.9872001 3.9264002 1.6032001 3.4944003 C 1.5456 3.4368002 1.5072001 3.4368002 1.4976001 3.5328002 Z M 1.6800001 3.1776001 C 1.9296001 3.4848 2.3712 3.7728002 2.6496 3.7728002 C 3.2640002 3.7728002 3.7920003 3.0816002 3.7920003 1.9968001 C 3.7920003 1.2096001 3.5136 0.23040001 2.4384 0.23040001 C 2.2656002 0.23040001 1.9296001 0.2784 1.7568 0.432 C 1.5648 0.60480005 1.5264001 0.6624 1.5264001 1.008 L 1.5264001 2.7552001 C 1.5264001 2.9568002 1.5648 3.0432003 1.6800001 3.1776001 Z "/>
        </symbol>
        <symbol id="45" overflow="visible">
            <path d="M 1.9584001 -1.536 C 2.112 -1.2672001 2.2368002 -0.99840003 2.352 -0.71040004 C 3.1200001 1.1424 3.5520003 2.1312 4.0512004 3.2064002 C 4.2432003 3.6096 4.3776 3.7632003 4.8288 3.8208 C 4.8864 3.8784 4.8864 4.0800004 4.8288 4.1376004 C 4.6368003 4.1280003 4.4160004 4.1184 4.1472 4.1184 C 3.8592002 4.1184 3.5616002 4.1280003 3.2736 4.1376004 C 3.216 4.0800004 3.216 3.8784 3.2736 3.8208 C 3.5808 3.7920003 3.8880002 3.7344003 3.7344003 3.3888001 L 2.7840002 1.1904 C 2.7168002 1.0368 2.6304002 1.008 2.5536 1.2 L 1.6992 3.1968002 C 1.5264001 3.6000001 1.4784001 3.7824001 2.016 3.8208 C 2.0736 3.8784 2.0736 4.0800004 2.016 4.1376004 C 1.6608001 4.1280003 1.2768 4.1184 0.9312 4.1184 C 0.60480005 4.1184 0.3456 4.1280003 0.1536 4.1376004 C 0.096 4.0800004 0.096 3.8784 0.1536 3.8208 C 0.53760004 3.7728002 0.6624 3.6864002 0.91200006 3.1008 L 1.9968001 0.57600003 C 2.0832002 0.384 2.2272 -0.057600003 2.1312 -0.3264 C 2.016 -0.64320004 1.9008001 -0.91200006 1.7568 -1.2096001 C 1.6512 -1.4016001 1.5168 -1.488 1.2768 -1.488 C 1.1424 -1.488 1.1040001 -1.4592 0.99840003 -1.4592 C 0.72 -1.4592 0.57600003 -1.7472001 0.57600003 -1.8720001 C 0.57600003 -2.0736 0.768 -2.2272 1.0272001 -2.2272 C 1.2288 -2.2272 1.6128001 -2.1504002 1.9584001 -1.536 Z "/>
        </symbol>
        <symbol id="46" overflow="visible">
            <path d="M 2.8128002 0.46080002 C 2.8704002 0.1632 2.976 -0.096 3.456 -0.096 C 3.8208 -0.096 4.1664004 0.067200005 4.368 0.2592 C 4.3488 0.37440002 4.3104 0.46080002 4.2048 0.5184 C 4.1376004 0.46080002 3.9744003 0.3648 3.8496 0.3648 C 3.5712001 0.3648 3.5616002 0.73920006 3.5616002 1.1808001 L 3.5616002 2.592 C 3.5616002 3.9552002 2.8128002 4.2144003 2.112 4.2144003 C 1.3248 4.2144003 0.528 3.696 0.528 3.1488001 C 0.528 2.9184 0.64320004 2.8032002 0.864 2.8032002 C 1.1424 2.8032002 1.3152001 3.0048 1.3152001 3.1296 C 1.3152001 3.1968002 1.3056 3.2640002 1.2864001 3.3024 C 1.2768 3.3312001 1.2672001 3.3888001 1.2672001 3.4944003 C 1.2672001 3.7920003 1.6704 3.8976002 2.0352 3.8976002 C 2.3616002 3.8976002 2.8128002 3.7344003 2.8128002 2.6496 C 2.8128002 2.5824 2.7840002 2.5440001 2.7552001 2.5344002 L 1.9296001 2.3328001 C 1.008 2.1024 0.3456 1.5936 0.3456 0.9408001 C 0.3456 0.1536 0.88320005 -0.096 1.5552001 -0.096 C 1.8912001 -0.096 2.1792002 -0.0192 2.6016002 0.3072 L 2.7936 0.46080002 Z M 2.8128002 2.2368002 L 2.8128002 0.9696 C 2.8128002 0.84480006 2.7552001 0.77760005 2.6784 0.72 C 2.4288 0.5184 2.1024 0.2976 1.8336 0.2976 C 1.3536 0.2976 1.1424 0.68160003 1.1424 0.97920007 C 1.1424 1.4112 1.3440001 1.8528001 2.0544002 2.0352 Z "/>
        </symbol>
    </defs>
</svg>
