<svg viewBox="0 0 338.92 235.824" width="338.92pt" height="235.824pt" xmlns="http://www.w3.org/2000/svg" xmlns:xlink="http://www.w3.org/1999/xlink" xmlns:h5="http://www.w3.org/1999/xhtml"><path fill="#ffffff" fill-rule="nonzero" d="M 0 0v 235.824h 338.92v -235.824Z "/><path fill="none" stroke="#000000" stroke-width="0.75" stroke-linecap="butt" stroke-linejoin="miter" stroke-miterlimit="4" transform="translate(194.777 20.74)" d="M 0 0h 141.518"/><path fill="none" stroke="#000000" stroke-width="0.75" stroke-linecap="butt" stroke-linejoin="miter" stroke-miterlimit="4" transform="translate(2.625 54.332)" d="M 0 0h 333.67"/><path fill="none" stroke="#000000" stroke-width="1" stroke-linecap="butt" stroke-linejoin="miter" stroke-miterlimit="4" transform="translate(2.5 3)" d="M 0 0h 333.92"/><path fill="none" stroke="#000000" stroke-width="1" stroke-linecap="butt" stroke-linejoin="miter" stroke-miterlimit="4" transform="translate(2.5 232.824)" d="M 0 0h 333.92"/><g transform="matrix(1 0 0 -1 256.254 15.74)"><use xlink:href="#0" x="0" y="0" fill="#000000" fill-rule="nonzero"/><use xlink:href="#1" x="6.048" y="0" fill="#000000" fill-rule="nonzero"/><use xlink:href="#2" x="11.832" y="0" fill="#000000" fill-rule="nonzero"/></g><g transform="matrix(1 0 0 -1 143.736 33.48)"><use xlink:href="#3" x="0" y="0" fill="#000000" fill-rule="nonzero"/><use xlink:href="#4" x="7.068" y="0" fill="#000000" fill-rule="nonzero"/><use xlink:href="#5" x="13.68" y="0" fill="#000000" fill-rule="nonzero"/><use xlink:href="#6" x="17.976" y="0" fill="#000000" fill-rule="nonzero"/><use xlink:href="#7" x="24.048" y="0" fill="#000000" fill-rule="nonzero"/></g><g transform="matrix(1 0 0 -1 140.76 49.02)"><use xlink:href="#8" x="0" y="0" fill="#000000" fill-rule="nonzero"/><use xlink:href="#9" x="3.78" y="0" fill="#000000" fill-rule="nonzero"/><use xlink:href="#a" x="11.172" y="0" fill="#000000" fill-rule="nonzero"/><use xlink:href="#b" x="17.784" y="0" fill="#000000" fill-rule="nonzero"/><use xlink:href="#c" x="23.952" y="0" fill="#000000" fill-rule="nonzero"/><use xlink:href="#d" x="30.12" y="0" fill="#000000" fill-rule="nonzero"/></g><g transform="matrix(1 0 0 -1 227.734 33.636)"><use xlink:href="#e" x="0" y="0" fill="#000000" fill-rule="nonzero"/></g><g transform="matrix(1 0 0 -1 216.676 49.332)"><use xlink:href="#f" x="0" y="0" fill="#000000" fill-rule="nonzero"/><use xlink:href="#10" x="3.576" y="0" fill="#000000" fill-rule="nonzero"/><use xlink:href="#11" x="10.08" y="0" fill="#000000" fill-rule="nonzero"/><use xlink:href="#12" x="16.68" y="0" fill="#000000" fill-rule="nonzero"/><use xlink:href="#13" x="22.26" y="0" fill="#000000" fill-rule="nonzero"/></g><g transform="matrix(1 0 0 -1 296.738 33.636)"><use xlink:href="#14" x="0" y="0" fill="#000000" fill-rule="nonzero"/></g><g transform="matrix(1 0 0 -1 288.56 49.332)"><use xlink:href="#f" x="0" y="0" fill="#000000" fill-rule="nonzero"/><use xlink:href="#10" x="3.576" y="0" fill="#000000" fill-rule="nonzero"/><use xlink:href="#11" x="10.08" y="0" fill="#000000" fill-rule="nonzero"/><use xlink:href="#15" x="16.68" y="0" fill="#000000" fill-rule="nonzero"/><use xlink:href="#13" x="22.26" y="0" fill="#000000" fill-rule="nonzero"/></g><g transform="matrix(1 0 0 -1 8 67.072)"><use xlink:href="#16" x="0" y="0" fill="#000000" fill-rule="nonzero"/><use xlink:href="#17" x="8.736" y="0" fill="#000000" fill-rule="nonzero"/><use xlink:href="#1" x="14.988" y="0" fill="#000000" fill-rule="nonzero"/><use xlink:href="#8" x="23.856" y="0" fill="#000000" fill-rule="nonzero"/><use xlink:href="#18" x="27.432" y="0" fill="#000000" fill-rule="nonzero"/><use xlink:href="#1" x="34.032" y="0" fill="#000000" fill-rule="nonzero"/><use xlink:href="#6" x="39.9" y="0" fill="#000000" fill-rule="nonzero"/><use xlink:href="#19" x="45.972" y="0" fill="#000000" fill-rule="nonzero"/><use xlink:href="#1a" x="51.108" y="0" fill="#000000" fill-rule="nonzero"/><use xlink:href="#d" x="56.232" y="0" fill="#000000" fill-rule="nonzero"/></g><g transform="matrix(1 0 0 -1 20 84.968)"><use xlink:href="#1b" x="0" y="0" fill="#000000" fill-rule="nonzero"/><use xlink:href="#1c" x="10.068" y="0" fill="#000000" fill-rule="nonzero"/><use xlink:href="#1d" x="15.432" y="0" fill="#000000" fill-rule="nonzero"/><use xlink:href="#10" x="20.916" y="0" fill="#000000" fill-rule="nonzero"/><use xlink:href="#f" x="30.42" y="0" fill="#000000" fill-rule="nonzero"/><use xlink:href="#1e" x="33.996" y="0" fill="#000000" fill-rule="nonzero"/><use xlink:href="#1f" x="39.816" y="0" fill="#000000" fill-rule="nonzero"/><use xlink:href="#13" x="48.108" y="0" fill="#000000" fill-rule="nonzero"/></g><g transform="matrix(1 0 0 -1 133.254 84.968)"><use xlink:href="#15" x="0" y="0" fill="#000000" fill-rule="nonzero"/><use xlink:href="#20" x="5.58" y="0" fill="#000000" fill-rule="nonzero"/><use xlink:href="#21" x="11.16" y="0" fill="#000000" fill-rule="nonzero"/><use xlink:href="#12" x="13.8" y="0" fill="#000000" fill-rule="nonzero"/><use xlink:href="#f" x="22.38" y="0" fill="#000000" fill-rule="nonzero"/><use xlink:href="#22" x="25.956" y="0" fill="#000000" fill-rule="nonzero"/><use xlink:href="#23" x="31.536" y="0" fill="#000000" fill-rule="nonzero"/><use xlink:href="#21" x="37.116" y="0" fill="#000000" fill-rule="nonzero"/><use xlink:href="#24" x="39.756" y="0" fill="#000000" fill-rule="nonzero"/><use xlink:href="#13" x="45.336" y="0" fill="#000000" fill-rule="nonzero"/></g><g transform="matrix(1 0 0 -1 205.138 84.968)"><use xlink:href="#15" x="0" y="0" fill="#000000" fill-rule="nonzero"/><use xlink:href="#15" x="5.58" y="0" fill="#000000" fill-rule="nonzero"/><use xlink:href="#21" x="11.16" y="0" fill="#000000" fill-rule="nonzero"/><use xlink:href="#22" x="13.8" y="0" fill="#000000" fill-rule="nonzero"/><use xlink:href="#f" x="22.38" y="0" fill="#000000" fill-rule="nonzero"/><use xlink:href="#25" x="25.956" y="0" fill="#000000" fill-rule="nonzero"/><use xlink:href="#26" x="31.536" y="0" fill="#000000" fill-rule="nonzero"/><use xlink:href="#21" x="37.116" y="0" fill="#000000" fill-rule="nonzero"/><use xlink:href="#25" x="39.756" y="0" fill="#000000" fill-rule="nonzero"/><use xlink:href="#13" x="45.336" y="0" fill="#000000" fill-rule="nonzero"/></g><g transform="matrix(1 0 0 -1 277.022 84.968)"><use xlink:href="#15" x="0" y="0" fill="#000000" fill-rule="nonzero"/><use xlink:href="#24" x="5.58" y="0" fill="#000000" fill-rule="nonzero"/><use xlink:href="#21" x="11.16" y="0" fill="#000000" fill-rule="nonzero"/><use xlink:href="#27" x="13.8" y="0" fill="#000000" fill-rule="nonzero"/><use xlink:href="#f" x="22.38" y="0" fill="#000000" fill-rule="nonzero"/><use xlink:href="#22" x="25.956" y="0" fill="#000000" fill-rule="nonzero"/><use xlink:href="#20" x="31.536" y="0" fill="#000000" fill-rule="nonzero"/><use xlink:href="#21" x="37.116" y="0" fill="#000000" fill-rule="nonzero"/><use xlink:href="#26" x="39.756" y="0" fill="#000000" fill-rule="nonzero"/><use xlink:href="#13" x="45.336" y="0" fill="#000000" fill-rule="nonzero"/></g><g transform="matrix(1 0 0 -1 20 102.864)"><use xlink:href="#1b" x="0" y="0" fill="#000000" fill-rule="nonzero"/><use xlink:href="#1c" x="10.068" y="0" fill="#000000" fill-rule="nonzero"/><use xlink:href="#28" x="15.516" y="0" fill="#000000" fill-rule="nonzero"/><use xlink:href="#29" x="21.588" y="0" fill="#000000" fill-rule="nonzero"/><use xlink:href="#1d" x="24.84" y="0" fill="#000000" fill-rule="nonzero"/><use xlink:href="#10" x="30.324" y="0" fill="#000000" fill-rule="nonzero"/><use xlink:href="#2a" x="39.828" y="0" fill="#000000" fill-rule="nonzero"/><use xlink:href="#1b" x="44.1" y="0" fill="#000000" fill-rule="nonzero"/><use xlink:href="#29" x="54.168" y="0" fill="#000000" fill-rule="nonzero"/><use xlink:href="#10" x="57.42" y="0" fill="#000000" fill-rule="nonzero"/><use xlink:href="#2b" x="63.924" y="0" fill="#000000" fill-rule="nonzero"/><use xlink:href="#1b" x="69.564" y="0" fill="#000000" fill-rule="nonzero"/><use xlink:href="#1d" x="79.632" y="0" fill="#000000" fill-rule="nonzero"/><use xlink:href="#2c" x="85.116" y="0" fill="#000000" fill-rule="nonzero"/><use xlink:href="#2d" x="90.996" y="0" fill="#000000" fill-rule="nonzero"/></g><g transform="matrix(1 0 0 -1 128.268 102.864)"><use xlink:href="#15" x="0" y="0" fill="#000000" fill-rule="nonzero"/><use xlink:href="#23" x="5.58" y="0" fill="#000000" fill-rule="nonzero"/><use xlink:href="#21" x="11.16" y="0" fill="#000000" fill-rule="nonzero"/><use xlink:href="#20" x="13.8" y="0" fill="#000000" fill-rule="nonzero"/><use xlink:href="#2a" x="22.38" y="0" fill="#000000" fill-rule="nonzero"/><use xlink:href="#22" x="26.652" y="0" fill="#000000" fill-rule="nonzero"/><use xlink:href="#15" x="32.232" y="0" fill="#000000" fill-rule="nonzero"/><use xlink:href="#2b" x="37.812" y="0" fill="#000000" fill-rule="nonzero"/><use xlink:href="#27" x="43.452" y="0" fill="#000000" fill-rule="nonzero"/><use xlink:href="#20" x="49.032" y="0" fill="#000000" fill-rule="nonzero"/><use xlink:href="#2d" x="54.612" y="0" fill="#000000" fill-rule="nonzero"/></g><g transform="matrix(1 0 0 -1 200.152 102.864)"><use xlink:href="#15" x="0" y="0" fill="#000000" fill-rule="nonzero"/><use xlink:href="#23" x="5.58" y="0" fill="#000000" fill-rule="nonzero"/><use xlink:href="#21" x="11.16" y="0" fill="#000000" fill-rule="nonzero"/><use xlink:href="#20" x="13.8" y="0" fill="#000000" fill-rule="nonzero"/><use xlink:href="#2a" x="22.38" y="0" fill="#000000" fill-rule="nonzero"/><use xlink:href="#22" x="26.652" y="0" fill="#000000" fill-rule="nonzero"/><use xlink:href="#15" x="32.232" y="0" fill="#000000" fill-rule="nonzero"/><use xlink:href="#2b" x="37.812" y="0" fill="#000000" fill-rule="nonzero"/><use xlink:href="#24" x="43.452" y="0" fill="#000000" fill-rule="nonzero"/><use xlink:href="#12" x="49.032" y="0" fill="#000000" fill-rule="nonzero"/><use xlink:href="#2d" x="54.612" y="0" fill="#000000" fill-rule="nonzero"/></g><g transform="matrix(1 0 0 -1 272.036 102.864)"><use xlink:href="#2e" x="0" y="0" fill="#000000" fill-rule="nonzero"/><use xlink:href="#26" x="5.58" y="0" fill="#000000" fill-rule="nonzero"/><use xlink:href="#21" x="11.16" y="0" fill="#000000" fill-rule="nonzero"/><use xlink:href="#20" x="13.8" y="0" fill="#000000" fill-rule="nonzero"/><use xlink:href="#2a" x="22.38" y="0" fill="#000000" fill-rule="nonzero"/><use xlink:href="#22" x="26.652" y="0" fill="#000000" fill-rule="nonzero"/><use xlink:href="#24" x="32.232" y="0" fill="#000000" fill-rule="nonzero"/><use xlink:href="#2b" x="37.812" y="0" fill="#000000" fill-rule="nonzero"/><use xlink:href="#27" x="43.452" y="0" fill="#000000" fill-rule="nonzero"/><use xlink:href="#20" x="49.032" y="0" fill="#000000" fill-rule="nonzero"/><use xlink:href="#2d" x="54.612" y="0" fill="#000000" fill-rule="nonzero"/></g><g transform="matrix(1 0 0 -1 8 120.604)"><use xlink:href="#2f" x="0" y="0" fill="#000000" fill-rule="nonzero"/><use xlink:href="#7" x="7.848" y="0" fill="#000000" fill-rule="nonzero"/><use xlink:href="#4" x="11.748" y="0" fill="#000000" fill-rule="nonzero"/><use xlink:href="#4" x="18.444" y="0" fill="#000000" fill-rule="nonzero"/><use xlink:href="#30" x="25.14" y="0" fill="#000000" fill-rule="nonzero"/><use xlink:href="#5" x="34.872" y="0" fill="#000000" fill-rule="nonzero"/><use xlink:href="#18" x="39.168" y="0" fill="#000000" fill-rule="nonzero"/><use xlink:href="#31" x="45.864" y="0" fill="#000000" fill-rule="nonzero"/><use xlink:href="#1" x="52.92" y="0" fill="#000000" fill-rule="nonzero"/></g><g transform="matrix(1 0 0 -1 20 138.5)"><use xlink:href="#23" x="0" y="0" fill="#000000" fill-rule="nonzero"/></g><g transform="matrix(1 0 0 -1 140.442 138.5)"><use xlink:href="#22" x="0" y="0" fill="#000000" fill-rule="nonzero"/><use xlink:href="#f" x="8.58" y="0" fill="#000000" fill-rule="nonzero"/><use xlink:href="#22" x="12.156" y="0" fill="#000000" fill-rule="nonzero"/><use xlink:href="#23" x="17.736" y="0" fill="#000000" fill-rule="nonzero"/><use xlink:href="#32" x="23.316" y="0" fill="#000000" fill-rule="nonzero"/><use xlink:href="#13" x="30.96" y="0" fill="#000000" fill-rule="nonzero"/></g><g transform="matrix(1 0 0 -1 208.216 138.5)"><use xlink:href="#25" x="0" y="0" fill="#000000" fill-rule="nonzero"/><use xlink:href="#f" x="8.58" y="0" fill="#000000" fill-rule="nonzero"/><use xlink:href="#25" x="12.156" y="0" fill="#000000" fill-rule="nonzero"/><use xlink:href="#12" x="17.736" y="0" fill="#000000" fill-rule="nonzero"/><use xlink:href="#21" x="23.316" y="0" fill="#000000" fill-rule="nonzero"/><use xlink:href="#24" x="25.956" y="0" fill="#000000" fill-rule="nonzero"/><use xlink:href="#32" x="31.536" y="0" fill="#000000" fill-rule="nonzero"/><use xlink:href="#13" x="39.18" y="0" fill="#000000" fill-rule="nonzero"/></g><g transform="matrix(1 0 0 -1 284.21 138.5)"><use xlink:href="#25" x="0" y="0" fill="#000000" fill-rule="nonzero"/><use xlink:href="#f" x="8.58" y="0" fill="#000000" fill-rule="nonzero"/><use xlink:href="#22" x="12.156" y="0" fill="#000000" fill-rule="nonzero"/><use xlink:href="#20" x="17.736" y="0" fill="#000000" fill-rule="nonzero"/><use xlink:href="#32" x="23.316" y="0" fill="#000000" fill-rule="nonzero"/><use xlink:href="#13" x="30.96" y="0" fill="#000000" fill-rule="nonzero"/></g><g transform="matrix(1 0 0 -1 20 156.396)"><use xlink:href="#33" x="0" y="0" fill="#000000" fill-rule="nonzero"/></g><g transform="matrix(1 0 0 -1 140.442 156.396)"><use xlink:href="#15" x="0" y="0" fill="#000000" fill-rule="nonzero"/><use xlink:href="#f" x="8.58" y="0" fill="#000000" fill-rule="nonzero"/><use xlink:href="#15" x="12.156" y="0" fill="#000000" fill-rule="nonzero"/><use xlink:href="#23" x="17.736" y="0" fill="#000000" fill-rule="nonzero"/><use xlink:href="#32" x="23.316" y="0" fill="#000000" fill-rule="nonzero"/><use xlink:href="#13" x="30.96" y="0" fill="#000000" fill-rule="nonzero"/></g><g transform="matrix(1 0 0 -1 212.326 156.396)"><use xlink:href="#2e" x="0" y="0" fill="#000000" fill-rule="nonzero"/><use xlink:href="#f" x="8.58" y="0" fill="#000000" fill-rule="nonzero"/><use xlink:href="#20" x="12.156" y="0" fill="#000000" fill-rule="nonzero"/><use xlink:href="#23" x="17.736" y="0" fill="#000000" fill-rule="nonzero"/><use xlink:href="#32" x="23.316" y="0" fill="#000000" fill-rule="nonzero"/><use xlink:href="#13" x="30.96" y="0" fill="#000000" fill-rule="nonzero"/></g><g transform="matrix(1 0 0 -1 284.21 156.396)"><use xlink:href="#25" x="0" y="0" fill="#000000" fill-rule="nonzero"/><use xlink:href="#f" x="8.58" y="0" fill="#000000" fill-rule="nonzero"/><use xlink:href="#22" x="12.156" y="0" fill="#000000" fill-rule="nonzero"/><use xlink:href="#20" x="17.736" y="0" fill="#000000" fill-rule="nonzero"/><use xlink:href="#32" x="23.316" y="0" fill="#000000" fill-rule="nonzero"/><use xlink:href="#13" x="30.96" y="0" fill="#000000" fill-rule="nonzero"/></g><g transform="matrix(1 0 0 -1 20 174.292)"><use xlink:href="#34" x="0" y="0" fill="#000000" fill-rule="nonzero"/></g><g transform="matrix(1 0 0 -1 140.442 174.292)"><use xlink:href="#15" x="0" y="0" fill="#000000" fill-rule="nonzero"/><use xlink:href="#f" x="8.58" y="0" fill="#000000" fill-rule="nonzero"/><use xlink:href="#15" x="12.156" y="0" fill="#000000" fill-rule="nonzero"/><use xlink:href="#23" x="17.736" y="0" fill="#000000" fill-rule="nonzero"/><use xlink:href="#32" x="23.316" y="0" fill="#000000" fill-rule="nonzero"/><use xlink:href="#13" x="30.96" y="0" fill="#000000" fill-rule="nonzero"/></g><g transform="matrix(1 0 0 -1 208.216 174.292)"><use xlink:href="#22" x="0" y="0" fill="#000000" fill-rule="nonzero"/><use xlink:href="#f" x="8.58" y="0" fill="#000000" fill-rule="nonzero"/><use xlink:href="#2e" x="12.156" y="0" fill="#000000" fill-rule="nonzero"/><use xlink:href="#2e" x="17.736" y="0" fill="#000000" fill-rule="nonzero"/><use xlink:href="#21" x="23.316" y="0" fill="#000000" fill-rule="nonzero"/><use xlink:href="#2e" x="25.956" y="0" fill="#000000" fill-rule="nonzero"/><use xlink:href="#32" x="31.536" y="0" fill="#000000" fill-rule="nonzero"/><use xlink:href="#13" x="39.18" y="0" fill="#000000" fill-rule="nonzero"/></g><g transform="matrix(1 0 0 -1 284.21 174.292)"><use xlink:href="#22" x="0" y="0" fill="#000000" fill-rule="nonzero"/><use xlink:href="#f" x="8.58" y="0" fill="#000000" fill-rule="nonzero"/><use xlink:href="#20" x="12.156" y="0" fill="#000000" fill-rule="nonzero"/><use xlink:href="#23" x="17.736" y="0" fill="#000000" fill-rule="nonzero"/><use xlink:href="#32" x="23.316" y="0" fill="#000000" fill-rule="nonzero"/><use xlink:href="#13" x="30.96" y="0" fill="#000000" fill-rule="nonzero"/></g><g transform="matrix(1 0 0 -1 8 192.032)"><use xlink:href="#0" x="0" y="0" fill="#000000" fill-rule="nonzero"/><use xlink:href="#35" x="6.048" y="0" fill="#000000" fill-rule="nonzero"/><use xlink:href="#4" x="16.908" y="0" fill="#000000" fill-rule="nonzero"/><use xlink:href="#36" x="23.52" y="0" fill="#000000" fill-rule="nonzero"/><use xlink:href="#1" x="30.876" y="0" fill="#000000" fill-rule="nonzero"/><use xlink:href="#19" x="36.744" y="0" fill="#000000" fill-rule="nonzero"/></g><g transform="matrix(1 0 0 -1 20 209.928)"><use xlink:href="#e" x="0" y="0" fill="#000000" fill-rule="nonzero"/><use xlink:href="#1d" x="3.72" y="0" fill="#000000" fill-rule="nonzero"/><use xlink:href="#37" x="9.204" y="0" fill="#000000" fill-rule="nonzero"/><use xlink:href="#38" x="12.372" y="0" fill="#000000" fill-rule="nonzero"/><use xlink:href="#1c" x="17.052" y="0" fill="#000000" fill-rule="nonzero"/></g><g transform="matrix(1 0 0 -1 140.442 209.928)"><use xlink:href="#12" x="0" y="0" fill="#000000" fill-rule="nonzero"/><use xlink:href="#f" x="8.58" y="0" fill="#000000" fill-rule="nonzero"/><use xlink:href="#12" x="12.156" y="0" fill="#000000" fill-rule="nonzero"/><use xlink:href="#23" x="17.736" y="0" fill="#000000" fill-rule="nonzero"/><use xlink:href="#32" x="23.316" y="0" fill="#000000" fill-rule="nonzero"/><use xlink:href="#13" x="30.96" y="0" fill="#000000" fill-rule="nonzero"/></g><g transform="matrix(1 0 0 -1 212.326 209.928)"><use xlink:href="#2e" x="0" y="0" fill="#000000" fill-rule="nonzero"/><use xlink:href="#f" x="8.58" y="0" fill="#000000" fill-rule="nonzero"/><use xlink:href="#20" x="12.156" y="0" fill="#000000" fill-rule="nonzero"/><use xlink:href="#23" x="17.736" y="0" fill="#000000" fill-rule="nonzero"/><use xlink:href="#32" x="23.316" y="0" fill="#000000" fill-rule="nonzero"/><use xlink:href="#13" x="30.96" y="0" fill="#000000" fill-rule="nonzero"/></g><g transform="matrix(1 0 0 -1 284.21 209.928)"><use xlink:href="#2e" x="0" y="0" fill="#000000" fill-rule="nonzero"/><use xlink:href="#f" x="8.58" y="0" fill="#000000" fill-rule="nonzero"/><use xlink:href="#24" x="12.156" y="0" fill="#000000" fill-rule="nonzero"/><use xlink:href="#20" x="17.736" y="0" fill="#000000" fill-rule="nonzero"/><use xlink:href="#32" x="23.316" y="0" fill="#000000" fill-rule="nonzero"/><use xlink:href="#13" x="30.96" y="0" fill="#000000" fill-rule="nonzero"/></g><g transform="matrix(1 0 0 -1 20 227.824)"><use xlink:href="#39" x="0" y="0" fill="#000000" fill-rule="nonzero"/><use xlink:href="#3a" x="3.792" y="0" fill="#000000" fill-rule="nonzero"/><use xlink:href="#3b" x="8.256" y="0" fill="#000000" fill-rule="nonzero"/><use xlink:href="#1c" x="14.628" y="0" fill="#000000" fill-rule="nonzero"/></g><g transform="matrix(1 0 0 -1 140.442 227.824)"><use xlink:href="#15" x="0" y="0" fill="#000000" fill-rule="nonzero"/><use xlink:href="#f" x="8.58" y="0" fill="#000000" fill-rule="nonzero"/><use xlink:href="#15" x="12.156" y="0" fill="#000000" fill-rule="nonzero"/><use xlink:href="#23" x="17.736" y="0" fill="#000000" fill-rule="nonzero"/><use xlink:href="#32" x="23.316" y="0" fill="#000000" fill-rule="nonzero"/><use xlink:href="#13" x="30.96" y="0" fill="#000000" fill-rule="nonzero"/></g><g transform="matrix(1 0 0 -1 212.326 227.824)"><use xlink:href="#2e" x="0" y="0" fill="#000000" fill-rule="nonzero"/><use xlink:href="#f" x="8.58" y="0" fill="#000000" fill-rule="nonzero"/><use xlink:href="#20" x="12.156" y="0" fill="#000000" fill-rule="nonzero"/><use xlink:href="#23" x="17.736" y="0" fill="#000000" fill-rule="nonzero"/><use xlink:href="#32" x="23.316" y="0" fill="#000000" fill-rule="nonzero"/><use xlink:href="#13" x="30.96" y="0" fill="#000000" fill-rule="nonzero"/></g><g transform="matrix(1 0 0 -1 284.21 227.824)"><use xlink:href="#25" x="0" y="0" fill="#000000" fill-rule="nonzero"/><use xlink:href="#f" x="8.58" y="0" fill="#000000" fill-rule="nonzero"/><use xlink:href="#22" x="12.156" y="0" fill="#000000" fill-rule="nonzero"/><use xlink:href="#20" x="17.736" y="0" fill="#000000" fill-rule="nonzero"/><use xlink:href="#32" x="23.316" y="0" fill="#000000" fill-rule="nonzero"/><use xlink:href="#13" x="30.96" y="0" fill="#000000" fill-rule="nonzero"/></g><defs><symbol id="0" overflow="visible"><path d="M 0 0m 5.052 7.572c -0.66 0.096 -0.912 0.324 -2.028 0.324c -0.54 0 -1.248 -0.168 -1.752 -0.576c -0.444 -0.36 -0.78 -0.912 -0.78 -1.5c 0 -0.456 0.12 -1.032 0.396 -1.392c 0.552 -0.744 1.548 -1.152 2.064 -1.512c 0.552 -0.384 1.092 -0.864 1.092 -1.536c 0 -0.588 -0.516 -0.996 -1.248 -0.996c -0.804 0 -1.632 0.66 -1.872 1.752c -0.192 0.072 -0.384 0.024 -0.564 -0.024c -0.012 0 -0.024 -0.012 -0.036 -0.012c 0 -0.9 0.096 -1.536 0.228 -1.98c 0.684 0 0.72 -0.24 2.376 -0.24c 0.732 0 1.32 0.216 1.812 0.66c 0.432 0.372 0.816 0.924 0.816 1.668c 0 0.624 -0.264 1.044 -0.624 1.44c -0.468 0.516 -1.14 0.888 -1.608 1.128c -0.48 0.24 -1.332 0.864 -1.332 1.548c 0 0.672 0.408 1.08 1.02 1.08c 1.02 0 1.356 -0.924 1.572 -1.716c 0.168 -0.048 0.468 -0.048 0.6 0.06c 0 0.636 -0.048 1.128 -0.132 1.824Z "/></symbol><symbol id="1" overflow="visible"><path d="M 0 0m 5.172 1.548c -0.492 -0.504 -1.14 -0.636 -1.596 -0.636c -0.936 0 -1.512 0.54 -1.512 1.716c 0 0.084 0.012 0.132 0.012 0.192h 2.88c 0.288 0 0.348 0.204 0.348 0.372c 0 1.02 -0.396 2.136 -2.16 2.136c -1.26 0 -2.7 -1.116 -2.7 -2.952c 0 -0.696 0.252 -1.428 0.768 -1.896c 0.456 -0.408 1.044 -0.6 1.896 -0.6c 0.828 0 1.644 0.42 2.244 1.296c 0 0.156 -0.06 0.372 -0.18 0.372Z m -3.048 1.752c 0.012 0.42 0.072 0.876 0.24 1.116c 0.192 0.288 0.516 0.408 0.648 0.408c 0.324 0 0.768 -0.312 0.768 -1.272c 0 -0.072 0 -0.228 -0.024 -0.252Z "/></symbol><symbol id="2" overflow="visible"><path d="M 0 0m 2.196 0.876l 0.744 1.044c 0.048 0.06 0.084 0.096 0.12 0.036l 0.576 -1.092c 0.204 -0.384 0.084 -0.42 -0.336 -0.48c -0.072 -0.072 -0.072 -0.336 0 -0.408c 0.24 0.012 0.996 0.024 1.632 0.024c 0.624 0 1.368 -0.012 1.608 -0.024c 0.072 0.072 0.072 0.336 0 0.408c -0.444 0.072 -0.852 0.228 -1.236 0.804l -1.056 1.572c -0.06 0.096 -0.06 0.132 -0.024 0.18l 1.068 1.296c 0.336 0.408 0.768 0.552 1.14 0.588c 0.072 0.072 0.072 0.336 0 0.408c -0.24 -0.012 -0.612 -0.024 -1.008 -0.024c -0.468 0 -0.96 0.012 -1.2 0.024c -0.072 -0.072 -0.072 -0.336 0 -0.408c 0.432 -0.036 0.528 -0.168 0.288 -0.516l -0.648 -0.924c -0.036 -0.06 -0.096 -0.06 -0.144 0.024l -0.54 0.912c -0.252 0.432 -0.096 0.456 0.36 0.504c 0.072 0.072 0.072 0.336 0 0.408c -0.24 -0.012 -1.02 -0.024 -1.68 -0.024c -0.588 0 -1.272 0.012 -1.512 0.024c -0.072 -0.072 -0.072 -0.336 0 -0.408c 0.54 0 0.78 -0.324 1.116 -0.804l 1.068 -1.524c 0.036 -0.048 0.036 -0.096 -0.036 -0.18l -1.104 -1.368c -0.3 -0.384 -0.828 -0.516 -1.188 -0.564c -0.072 -0.072 -0.072 -0.336 0 -0.408c 0.24 0.012 0.612 0.024 0.996 0.024c 0.516 0 1.08 -0.012 1.32 -0.024c 0.072 0.072 0.072 0.336 0 0.408c -0.216 0.048 -0.588 0.12 -0.324 0.492Z "/></symbol><symbol id="3" overflow="visible"><path d="M 0 0m 4.86 1.476v 4.56c 0 0.768 0.12 1.212 0.552 1.212h 0.264c 0.9 0 1.404 -0.3 1.608 -1.224c 0.132 0 0.36 0.012 0.468 0.06c -0.084 0.552 -0.144 1.176 -0.156 1.716c 0 0.012 -0.024 0.036 -0.036 0.036c -0.408 -0.036 -1.74 -0.096 -2.688 -0.096h -1.692c -0.924 0 -2.34 0.06 -2.796 0.096c -0.024 0 -0.048 -0.024 -0.048 -0.036c -0.048 -0.54 -0.168 -1.176 -0.3 -1.752c 0.12 -0.048 0.324 -0.06 0.468 -0.06c 0.24 0.96 0.732 1.26 1.524 1.26h 0.588c 0.444 0 0.564 -0.444 0.564 -1.176v -4.596c 0 -0.996 -0.204 -1.056 -1.164 -1.092c -0.072 -0.072 -0.072 -0.336 0 -0.408c 0.588 0.012 1.212 0.024 1.98 0.024c 0.792 0 1.428 -0.012 2.028 -0.024c 0.072 0.072 0.072 0.336 0 0.408c -0.96 0.036 -1.164 0.096 -1.164 1.092Z "/></symbol><symbol id="4" overflow="visible"><path d="M 0 0m 0.444 2.484c 0 -1.572 1.248 -2.604 2.856 -2.604c 0.852 0 1.56 0.24 2.052 0.684c 0.612 0.54 0.816 1.356 0.816 2.028c 0 1.572 -1.068 2.736 -2.856 2.736c -0.996 0 -1.74 -0.348 -2.208 -0.888c -0.456 -0.528 -0.66 -1.248 -0.66 -1.956Z m 2.676 2.34c 0.816 0 1.368 -0.972 1.368 -2.616c 0 -1.44 -0.564 -1.824 -0.996 -1.824c -0.984 0 -1.368 1.476 -1.368 2.364c 0 1.104 0.192 2.076 0.996 2.076Z "/></symbol><symbol id="5" overflow="visible"><path d="M 0 0m 0.756 5.208c -0.168 0 -0.348 -0.048 -0.504 -0.18v -0.348c 0 -0.06 0.012 -0.072 0.06 -0.072h 0.78c -0.024 -1.212 -0.036 -2.748 -0.036 -3.348c 0 -0.42 0.108 -0.828 0.36 -1.044c 0.276 -0.228 0.708 -0.336 0.996 -0.336c 0.66 0 1.392 0.336 1.632 0.672c 0 0.144 -0.072 0.216 -0.216 0.336c -0.156 -0.12 -0.456 -0.168 -0.684 -0.168c -0.264 0 -0.528 0.204 -0.528 0.804c 0 0.6 -0.012 1.884 -0.012 3.084h 1.212c 0.12 0 0.288 0.048 0.288 0.156v 0.372c 0 0.048 -0.036 0.072 -0.096 0.072h -1.404l 0.012 0.408c 0.024 0.804 0.06 1.356 0.06 1.356c 0 0.072 -0.036 0.108 -0.096 0.108c -0.084 0 -0.528 -0.132 -0.72 -0.216c -0.204 -0.084 -0.552 -0.156 -0.636 -0.264c -0.084 -0.108 -0.132 -0.432 -0.132 -1.392Z "/></symbol><symbol id="6" overflow="visible"><path d="M 0 0m 3.54 0.588c 0.084 -0.492 0.408 -0.708 0.936 -0.708c 0.66 0 1.128 0.252 1.572 0.672c -0.024 0.144 -0.072 0.24 -0.216 0.336c -0.156 -0.12 -0.276 -0.168 -0.504 -0.168c -0.264 0 -0.336 0.216 -0.336 0.804l 0.024 1.728c 0 1.728 -1.068 2.076 -2.052 2.076c -0.876 0 -2.22 -0.504 -2.22 -1.296c 0 -0.336 0.144 -0.6 0.612 -0.6c 0.432 0 0.744 0.264 0.744 0.552c 0 0.06 -0.012 0.132 -0.024 0.204c -0.024 0.12 -0.048 0.24 -0.024 0.36c 0.012 0.132 0.108 0.276 0.504 0.276c 0.504 0 0.924 -0.216 0.924 -1.74l -0.804 -0.252c -1.26 -0.396 -2.148 -0.744 -2.148 -1.692c 0 -0.828 0.456 -1.26 1.5 -1.26c 0.348 0 1.044 0.384 1.44 0.696Z m -0.06 2.028v -1.584c -0.3 -0.24 -0.6 -0.432 -0.816 -0.432c -0.516 0 -0.696 0.348 -0.696 0.72c 0 0.444 0.036 0.816 0.888 1.092Z "/></symbol><symbol id="7" overflow="visible"><path d="M 0 0m 1.2 1.524c 0 -0.996 -0.192 -1.104 -0.924 -1.14c -0.072 -0.072 -0.072 -0.336 0 -0.408c 0.504 0.012 1.044 0.024 1.704 0.024c 0.66 0 1.188 -0.012 1.704 -0.024c 0.072 0.072 0.072 0.336 0 0.408c -0.732 0.036 -0.924 0.144 -0.924 1.14v 5.472c 0 0.78 0.036 1.224 0.036 1.224c 0 0.108 -0.084 0.156 -0.192 0.156c -0.444 -0.144 -1.404 -0.276 -2.256 -0.312c -0.036 -0.144 -0.024 -0.276 0.036 -0.384c 0.756 -0.06 0.816 -0.072 0.816 -0.9Z "/></symbol><symbol id="8" overflow="visible"><path d="M 0 0m 0.432 3.036c 0 -0.54 0.06 -3.24 2.784 -5.592l 0.36 0.384c -0.384 0.432 -1.764 2.04 -1.764 5.208c 0 3.168 1.404 4.776 1.764 5.196l -0.336 0.408c -1.572 -1.356 -2.808 -3.42 -2.808 -5.604Z "/></symbol><symbol id="9" overflow="visible"><path d="M 0 0m 2.736 1.464v 2.412c 0.48 0.324 0.96 0.564 1.176 0.564c 0.48 0 0.84 -0.216 0.84 -0.9v -2.004c 0 -1.008 -0.192 -1.116 -0.684 -1.152c -0.072 -0.072 -0.072 -0.336 0 -0.408c 0.504 0.012 0.888 0.024 1.464 0.024c 0.66 0 1.188 -0.012 1.704 -0.024c 0.072 0.072 0.072 0.336 0 0.408c -0.732 0.036 -0.924 0.144 -0.924 1.152v 1.872c 0 1.32 -0.564 1.92 -1.596 1.92c -0.48 0 -1.332 -0.528 -1.992 -0.984c -0.036 0.42 -0.084 0.78 -0.084 0.78c -0.012 0.144 -0.108 0.204 -0.276 0.204c -0.444 -0.12 -1.164 -0.288 -1.992 -0.396c -0.024 -0.072 0 -0.312 0.024 -0.384c 0.66 -0.06 0.78 -0.156 0.78 -0.84v -2.244c 0 -0.996 -0.132 -1.02 -0.864 -1.08c -0.072 -0.072 -0.072 -0.336 0 -0.408c 0.504 0.012 1.008 0.024 1.644 0.024c 0.552 0 0.888 -0.012 1.404 -0.024c 0.072 0.072 0.072 0.336 0 0.408c -0.504 0.048 -0.624 0.084 -0.624 1.08Z "/></symbol><symbol id="a" overflow="visible"><path d="M 0 0m 5.916 3.876h -5.208v -0.684h 5.208Z m 0 -1.5h -5.208v -0.672h 5.208Z "/></symbol><symbol id="b" overflow="visible"><path d="M 0 0m 4.404 1.464v 4.332c 0 0.636 0.096 1.32 0.096 1.32c 0 0.156 -0.096 0.204 -0.204 0.204c -0.12 0 -0.324 -0.048 -0.6 -0.18c -0.732 -0.336 -1.548 -0.624 -2.592 -1.056c 0.012 -0.204 0.096 -0.396 0.264 -0.516c 0.648 0.276 1.08 0.3 1.248 0.3c 0.156 0 0.228 -0.048 0.228 -0.648v -3.756c 0 -0.996 -0.576 -1.044 -1.236 -1.08c -0.12 -0.072 -0.12 -0.336 0 -0.408c 0.984 0.012 1.548 0.024 2.028 0.024c 0.48 0 1.02 -0.012 2.004 -0.024c 0.12 0.072 0.12 0.336 0 0.408c -0.66 0.036 -1.236 0.084 -1.236 1.08Z "/></symbol><symbol id="c" overflow="visible"><path d="M 0 0m 3.06 -0.12c 1.188 0 2.748 0.948 2.748 3.804c 0 2.832 -1.476 3.636 -2.688 3.636c -1.548 0 -2.76 -1.344 -2.76 -3.744c 0 -1.968 0.948 -3.696 2.7 -3.696Z m 0.06 6.936c 0.468 0 0.984 -0.768 0.984 -2.892c 0 -2.88 -0.552 -3.54 -1.032 -3.54c -0.984 0 -0.996 2.04 -0.996 3.06c 0 2.916 0.564 3.372 1.044 3.372Z "/></symbol><symbol id="d" overflow="visible"><path d="M 0 0m 3.348 3.012c 0 0.54 -0.06 3.24 -2.784 5.592l -0.36 -0.384c 0.384 -0.432 1.764 -2.04 1.764 -5.208c 0 -3.168 -1.404 -4.776 -1.764 -5.196l 0.336 -0.408c 1.572 1.356 2.808 3.42 2.808 5.604Z "/></symbol><symbol id="e" overflow="visible"><path d="M 0 0m 2.1 1.464v 3.216h 1.116c 0.108 0 0.276 0.048 0.276 0.156v 0.24c 0 0.048 -0.036 0.072 -0.096 0.072h -1.296v 0.684c 0 1.848 0.552 2.136 0.948 2.136c 0.36 0 0.552 -0.144 0.72 -0.564c 0.096 -0.216 0.228 -0.384 0.48 -0.384c 0.204 0 0.492 0.252 0.492 0.492c 0 0.204 -0.132 0.42 -0.384 0.612c -0.312 0.216 -0.624 0.252 -1.08 0.252c -1.008 0 -2.124 -0.876 -2.124 -2.748v -0.48h -0.612c -0.216 0 -0.276 -0.144 -0.276 -0.24v -0.156c 0 -0.06 0.012 -0.072 0.06 -0.072h 0.828v -3.216c 0 -0.996 -0.192 -1.044 -0.84 -1.092c -0.072 -0.072 -0.072 -0.324 0 -0.396c 0.42 0.012 0.84 0.024 1.32 0.024c 0.48 0 1.056 -0.012 1.476 -0.024c 0.072 0.072 0.072 0.324 0 0.396c -0.936 0.048 -1.008 0.096 -1.008 1.092Z "/></symbol><symbol id="f" overflow="visible"><path d="M 0 0m 0.528 3.024c 0 -0.54 0.048 -3.312 2.544 -5.472c 0.12 0.024 0.216 0.108 0.252 0.204c -0.396 0.456 -1.8 2.112 -1.8 5.268c 0 3.156 1.416 4.812 1.8 5.244c -0.036 0.12 -0.12 0.204 -0.252 0.216c -1.428 -1.224 -2.544 -3.228 -2.544 -5.46Z "/></symbol><symbol id="10" overflow="visible"><path d="M 0 0m 2.208 4.296c -0.072 -0.084 -0.144 -0.108 -0.144 0c -0.012 0.324 -0.036 0.792 -0.096 0.912c -0.024 0.06 -0.048 0.096 -0.144 0.096c -0.336 -0.132 -0.648 -0.24 -1.476 -0.348c -0.024 -0.072 0 -0.264 0.024 -0.336c 0.648 -0.06 0.78 -0.12 0.78 -0.816v -2.34c 0 -0.984 -0.12 -1.032 -0.84 -1.092c -0.072 -0.072 -0.072 -0.324 0 -0.396c 0.36 0.012 0.84 0.024 1.32 0.024c 0.48 0 0.84 -0.012 1.2 -0.024c 0.072 0.072 0.072 0.324 0 0.396c -0.612 0.06 -0.732 0.108 -0.732 1.092v 1.968c 0 0.252 0.108 0.396 0.204 0.504c 0.456 0.444 0.996 0.708 1.464 0.708c 0.24 0 0.492 -0.156 0.636 -0.432c 0.12 -0.24 0.144 -0.564 0.144 -0.924v -1.824c 0 -0.984 -0.12 -1.032 -0.744 -1.092c -0.06 -0.072 -0.06 -0.324 0 -0.396c 0.36 0.012 0.744 0.024 1.224 0.024c 0.48 0 0.912 -0.012 1.272 -0.024c 0.06 0.072 0.06 0.324 0 0.396c -0.672 0.06 -0.804 0.108 -0.804 1.092v 1.788c 0 0.66 -0.048 1.236 -0.324 1.608c -0.204 0.264 -0.576 0.408 -0.996 0.408c -0.588 0 -1.26 -0.156 -1.968 -0.972Z "/></symbol><symbol id="11" overflow="visible"><path d="M 0 0m 5.568 3.708c 0.156 0 0.324 0.276 0.324 0.396c 0 0.096 -0.048 0.204 -0.168 0.204h -4.704c -0.144 0 -0.3 -0.228 -0.3 -0.408c 0 -0.096 0.072 -0.192 0.18 -0.192Z m 0 -1.992c 0.156 0 0.324 0.276 0.324 0.396c 0 0.096 -0.048 0.204 -0.168 0.204h -4.704c -0.144 0 -0.3 -0.228 -0.3 -0.408c 0 -0.096 0.072 -0.192 0.18 -0.192Z "/></symbol><symbol id="12" overflow="visible"><path d="M 0 0m 1.728 4.116c 0.324 1.092 1.092 2.304 2.688 2.904c 0 0.144 -0.048 0.252 -0.144 0.312c -1.212 -0.36 -1.956 -0.864 -2.628 -1.644c -0.744 -0.864 -1.116 -1.956 -1.116 -2.904c 0 -2.436 1.38 -2.916 2.304 -2.916c 1.572 0 2.22 1.524 2.22 2.556c 0 1.032 -0.552 1.956 -2.184 1.956c -0.312 0 -0.78 -0.096 -1.14 -0.264Z m -0.108 -0.432c 0.396 0.264 0.792 0.276 0.996 0.276c 1.176 0 1.44 -1.152 1.44 -1.752c 0 -1.32 -0.504 -1.92 -1.092 -1.92c -0.756 0 -1.44 0.408 -1.44 2.46c 0 0.276 0.024 0.588 0.096 0.936Z "/></symbol><symbol id="13" overflow="visible"><path d="M 0 0m 3.048 3.024c 0 0.54 -0.048 3.312 -2.544 5.472c -0.12 -0.024 -0.216 -0.108 -0.252 -0.204c 0.396 -0.456 1.8 -2.112 1.8 -5.268c 0 -3.156 -1.416 -4.812 -1.8 -5.244c 0.036 -0.12 0.12 -0.204 0.252 -0.216c 1.428 1.224 2.544 3.228 2.544 5.46Z "/></symbol><symbol id="14" overflow="visible"><path d="M 0 0m 2.04 4.296c -0.012 0.36 -0.036 0.792 -0.096 0.912c -0.024 0.06 -0.048 0.096 -0.144 0.096c -0.336 -0.132 -0.648 -0.24 -1.476 -0.348c -0.024 -0.072 0 -0.264 0.024 -0.336c 0.648 -0.06 0.78 -0.12 0.78 -0.816v -2.34c 0 -0.984 -0.156 -1.044 -0.816 -1.092c -0.072 -0.072 -0.072 -0.324 0 -0.396c 0.36 0.012 0.816 0.024 1.296 0.024c 0.48 0 0.852 -0.012 1.212 -0.024c 0.072 0.072 0.072 0.324 0 0.396c -0.612 0.06 -0.744 0.108 -0.744 1.092v 1.968c 0 0.252 0.108 0.396 0.204 0.504c 0.48 0.468 0.924 0.708 1.296 0.708c 0.456 0 0.792 -0.288 0.792 -1.092v -2.088c 0 -0.984 -0.096 -1.044 -0.744 -1.092c -0.06 -0.072 -0.06 -0.324 0 -0.396c 0.3 0.012 0.744 0.024 1.224 0.024c 0.48 0 0.876 -0.012 1.176 -0.024c 0.06 0.072 0.06 0.324 0 0.396c -0.6 0.048 -0.708 0.108 -0.708 1.092v 1.908c 0 0.168 0 0.336 -0.012 0.48c 0.576 0.636 1.116 0.792 1.584 0.792c 0.456 0 0.72 -0.264 0.72 -1.068v -2.112c 0 -0.984 -0.12 -1.044 -0.744 -1.092c -0.06 -0.072 -0.06 -0.324 0 -0.396c 0.3 0.012 0.744 0.024 1.224 0.024c 0.48 0 0.9 -0.012 1.236 -0.024c 0.06 0.072 0.06 0.324 0 0.396c -0.66 0.048 -0.768 0.108 -0.768 1.092v 1.896c 0 1.068 -0.18 1.908 -1.236 1.908c -0.612 0 -1.356 -0.228 -1.98 -0.888c -0.036 -0.036 -0.108 -0.096 -0.132 0.012c -0.108 0.492 -0.576 0.876 -1.2 0.876c -0.696 0 -1.32 -0.408 -1.824 -0.972c -0.06 -0.06 -0.132 -0.144 -0.144 0Z "/></symbol><symbol id="15" overflow="visible"><path d="M 0 0m 5.16 2.628h -0.996v 3.504c 0 0.6 0 1.068 0.024 1.164l -0.024 0.024h -0.384c -0.084 0 -0.144 -0.072 -0.192 -0.132c -0.756 -0.924 -2.148 -2.904 -3.252 -4.62c 0.036 -0.18 0.108 -0.504 0.468 -0.504h 2.448v -1.104c 0 -0.552 -0.456 -0.552 -0.972 -0.588c -0.072 -0.072 -0.072 -0.324 0 -0.396c 0.384 0.012 0.864 0.024 1.416 0.024c 0.468 0 0.924 -0.012 1.308 -0.024c 0.072 0.072 0.072 0.324 0 0.396c -0.588 0.048 -0.84 0.024 -0.84 0.588v 1.104h 0.828c 0.168 0 0.348 0.228 0.348 0.372c 0 0.12 -0.048 0.192 -0.18 0.192Z m -1.908 3.456v -3.456h -2.292c 0.612 0.984 1.464 2.328 2.292 3.456Z "/></symbol><symbol id="16" overflow="visible"><path d="M 0 0m 1.98 0.948l 0.636 1.668c 0.06 0.156 0.132 0.204 0.42 0.204h 2.28l 0.672 -1.956c 0.144 -0.432 -0.204 -0.444 -0.66 -0.468c -0.072 0 -0.156 -0.012 -0.228 -0.012c -0.072 -0.072 -0.072 -0.336 0 -0.408c 0.444 0.012 1.584 0.024 2.052 0.024c 0.492 0 1.164 -0.012 1.608 -0.024c 0.072 0.072 0.072 0.336 0 0.408c -0.468 0.048 -0.864 0.036 -1.08 0.648l -2.472 6.864c -0.18 -0.108 -0.9 -0.528 -1.32 -0.528l -2.604 -6.144c -0.312 -0.744 -0.672 -0.804 -1.2 -0.84c -0.072 -0.072 -0.072 -0.336 0 -0.408c 0.444 0.012 0.66 0.024 1.128 0.024c 0.492 0 1.152 -0.012 1.596 -0.024c 0.072 0.072 0.072 0.336 0 0.408c -0.456 0.036 -1.02 0.072 -0.828 0.564Z m 1.296 2.448c -0.264 0 -0.348 0.036 -0.3 0.156l 1.056 2.688h 0.084l 0.984 -2.844Z "/></symbol><symbol id="17" overflow="visible"><path d="M 0 0m 5.604 4.728c 0.336 0 0.528 0.144 0.528 0.588c 0 0.228 -0.312 0.576 -0.768 0.576c -0.528 0 -1.224 -0.396 -1.572 -0.708c -0.216 0.12 -0.468 0.144 -1.008 0.144c -0.516 0 -1.02 -0.12 -1.416 -0.384c -0.492 -0.312 -0.816 -0.78 -0.816 -1.392c 0 -0.588 0.348 -1.224 0.924 -1.536c -0.372 -0.324 -0.948 -0.96 -0.948 -1.2c 0 -0.228 0.036 -0.372 0.156 -0.552c 0.108 -0.168 0.252 -0.264 0.492 -0.336c -0.516 -0.312 -1.044 -0.996 -1.044 -1.2c 0 -0.444 0.144 -0.96 0.468 -1.188c 0.468 -0.324 1.26 -0.396 1.836 -0.396c 1.668 0 3.576 0.876 3.576 2.196c 0 0.252 -0.12 0.768 -0.6 1.092c -0.468 0.312 -2.268 0.396 -3.156 0.396c -0.216 0 -0.54 0.024 -0.54 0.504c 0 0.192 0.12 0.36 0.18 0.504c 0.252 -0.12 0.504 -0.132 0.876 -0.132c 0.612 0 1.176 0.156 1.584 0.516c 0.348 0.312 0.588 0.732 0.588 1.272c 0 0.672 -0.336 1.116 -0.744 1.452c 0.096 0.12 0.492 0.336 0.612 0.336c 0.108 0 0.192 -0.072 0.228 -0.144c 0.048 -0.156 0.264 -0.408 0.564 -0.408Z m -3.504 -5.028c 0.924 0 2.7 -0.036 2.7 -0.672c 0 -0.432 -0.192 -0.924 -0.588 -1.14c -0.372 -0.216 -0.984 -0.24 -1.44 -0.24c -0.792 0 -1.332 0.588 -1.332 1.2c 0 0.408 0 0.684 0.132 0.924c 0.12 -0.048 0.276 -0.072 0.528 -0.072Z m 1.38 3.756c 0 -1.152 -0.336 -1.296 -0.648 -1.296c -0.744 0 -0.84 0.888 -0.84 1.5c 0 0.888 0.216 1.212 0.684 1.212c 0.564 0 0.804 -0.468 0.804 -1.416Z "/></symbol><symbol id="18" overflow="visible"><path d="M 0 0m 2.904 -2.016c 0.192 0.336 0.372 0.768 0.516 1.128c 0.96 2.316 1.548 3.612 2.184 4.956c 0.168 0.348 0.528 0.72 0.972 0.756c 0.072 0.072 0.072 0.336 0 0.408c -0.3 -0.012 -0.516 -0.024 -0.852 -0.024c -0.42 0 -0.828 0.012 -1.272 0.024c -0.072 -0.072 -0.072 -0.336 0 -0.408c 0.384 -0.036 0.768 -0.096 0.576 -0.528l -1.236 -2.772c 0 -0.012 0 -0.012 -0.012 -0.024c 0 0.012 0 0.024 -0.012 0.048l -1.116 2.508c -0.012 0.012 -0.012 0.024 -0.012 0.036c -0.216 0.468 -0.3 0.672 0.408 0.732c 0.072 0.072 0.072 0.336 0 0.408c -0.444 -0.012 -1.164 -0.024 -1.596 -0.024c -0.408 0 -1.092 0.012 -1.332 0.024c -0.072 -0.072 -0.072 -0.336 0 -0.408c 0.528 -0.048 0.624 -0.132 0.948 -0.888l 1.548 -3.552c 0.036 -0.06 0.084 -0.108 0.12 -0.156c 0.156 -0.216 0.288 -0.396 0.216 -0.564l -0.288 -0.66c -0.156 -0.372 -0.3 -0.588 -0.636 -0.588c -0.216 0 -0.252 0.048 -0.42 0.048c -0.456 0 -0.72 -0.312 -0.72 -0.552c 0 -0.156 0.036 -0.348 0.144 -0.48c 0.108 -0.132 0.312 -0.216 0.468 -0.216c 0.156 0 0.516 0.048 0.684 0.12c 0.252 0.12 0.588 0.408 0.72 0.648Z "/></symbol><symbol id="19" overflow="visible"><path d="M 0 0m 2.736 3.216c 0 0.432 0.132 0.612 0.288 0.792c 0.096 0.12 0.204 0.204 0.384 0.204c 0.108 0 0.24 -0.108 0.336 -0.228c 0.084 -0.096 0.288 -0.192 0.564 -0.192c 0.348 0 0.684 0.36 0.684 0.864c 0 0.312 -0.36 0.672 -0.792 0.672c -0.42 0 -0.876 -0.36 -1.428 -1.152h -0.048c -0.024 0.36 -0.084 0.948 -0.084 0.948c -0.012 0.108 -0.108 0.204 -0.276 0.204c -0.564 -0.144 -1.2 -0.312 -1.992 -0.396c -0.024 -0.072 0 -0.3 0.024 -0.372c 0.66 -0.06 0.78 -0.168 0.78 -0.852v -2.244c 0 -0.996 -0.132 -1.02 -0.864 -1.08c -0.072 -0.072 -0.072 -0.336 0 -0.408c 0.504 0.012 1.008 0.024 1.644 0.024c 0.636 0 1.128 -0.012 1.644 -0.024c 0.072 0.072 0.072 0.336 0 0.408c -0.732 0.048 -0.864 0.084 -0.864 1.08Z "/></symbol><symbol id="1a" overflow="visible"><path d="M 0 0m 0.576 1.752c 0.048 -0.588 0.108 -1.152 0.204 -1.608c 0.228 -0.072 0.996 -0.264 1.668 -0.264c 0.924 0 2.076 0.504 2.076 1.548c 0 0.408 -0.096 0.732 -0.372 1.032c -0.336 0.384 -0.84 0.684 -1.392 0.924c -0.48 0.204 -0.648 0.588 -0.648 0.936c 0 0.276 0.228 0.504 0.576 0.504c 0.42 0 0.828 -0.384 1.128 -1.116c 0.216 -0.036 0.348 -0.024 0.468 0.06c 0 0.432 -0.048 0.888 -0.156 1.272c -0.384 0.168 -0.684 0.288 -1.344 0.288c -0.636 0 -1.236 -0.24 -1.62 -0.624c -0.276 -0.276 -0.408 -0.612 -0.408 -0.936c 0 -0.36 0.144 -0.648 0.372 -0.9c 0.372 -0.408 1.032 -0.828 1.392 -0.996c 0.48 -0.216 0.612 -0.648 0.612 -0.936c 0 -0.384 -0.384 -0.588 -0.708 -0.588c -0.54 0 -1.116 0.552 -1.368 1.428c -0.192 0.036 -0.288 0.024 -0.48 -0.024Z "/></symbol><symbol id="1b" overflow="visible"><path d="M 0 0m 7.956 1.392c 0.06 -0.972 0.012 -0.984 -0.768 -1.02c -0.072 -0.072 -0.072 -0.324 0 -0.396c 0.444 0.012 0.924 0.024 1.284 0.024c 0.36 0 0.912 -0.012 1.308 -0.024c 0.072 0.072 0.072 0.324 0 0.396c -0.816 0.036 -0.852 0.084 -0.924 1.08l -0.36 5.052c -0.048 0.648 0.012 0.816 0.828 0.864c 0.072 0.072 0.072 0.324 0 0.396l -1.572 -0.024l -2.544 -6.084c -0.048 -0.12 -0.084 -0.168 -0.108 -0.168c -0.024 0 -0.06 0.06 -0.096 0.156l -2.46 6.096l -1.74 0.024c -0.072 -0.072 -0.072 -0.324 0 -0.396c 0.828 -0.048 0.9 -0.072 0.816 -0.972l -0.48 -4.944c -0.072 -0.72 -0.216 -1.02 -0.9 -1.08c -0.072 -0.072 -0.072 -0.324 0 -0.396c 0.36 0.012 0.744 0.024 1.032 0.024c 0.288 0 0.768 -0.012 1.128 -0.024c 0.072 0.072 0.072 0.324 0 0.396c -0.792 0.06 -0.852 0.432 -0.792 1.104l 0.456 4.812h 0.024l 2.484 -6.228c 0.036 -0.084 0.108 -0.18 0.18 -0.18c 0.072 0 0.12 0.084 0.168 0.18l 2.7 6.348h 0.024Z "/></symbol><symbol id="1c" overflow="visible"><path d="M 0 0m 4.632 1.116c -0.444 -0.456 -0.792 -0.648 -1.488 -0.648c -0.432 0 -0.936 0.252 -1.308 0.864c -0.24 0.396 -0.384 0.948 -0.384 1.644l 3.192 -0.024c 0.144 0 0.228 0.072 0.228 0.204c 0 1.008 -0.36 2.088 -2.028 2.088c -1.044 0 -2.4 -0.996 -2.4 -2.82c 0 -0.672 0.168 -1.32 0.564 -1.776c 0.408 -0.48 0.972 -0.768 1.836 -0.768c 0.912 0 1.56 0.42 2.04 1.044c -0.036 0.12 -0.108 0.18 -0.252 0.192Z m -3.144 2.268c 0.228 1.356 1.068 1.464 1.356 1.464c 0.456 0 0.996 -0.252 0.996 -1.26c 0 -0.108 -0.048 -0.168 -0.18 -0.168Z "/></symbol><symbol id="1d" overflow="visible"><path d="M 0 0m 3.516 0.576c 0.072 -0.372 0.204 -0.696 0.804 -0.696c 0.456 0 0.888 0.204 1.14 0.444c -0.024 0.144 -0.072 0.252 -0.204 0.324c -0.084 -0.072 -0.288 -0.192 -0.444 -0.192c -0.348 0 -0.36 0.468 -0.36 1.02v 1.764c 0 1.704 -0.936 2.028 -1.812 2.028c -0.984 0 -1.98 -0.648 -1.98 -1.332c 0 -0.288 0.144 -0.432 0.42 -0.432c 0.348 0 0.564 0.252 0.564 0.408c 0 0.084 -0.012 0.168 -0.036 0.216c -0.012 0.036 -0.024 0.108 -0.024 0.24c 0 0.372 0.504 0.504 0.96 0.504c 0.408 0 0.972 -0.204 0.972 -1.56c 0 -0.084 -0.036 -0.132 -0.072 -0.144l -1.032 -0.252c -1.152 -0.288 -1.98 -0.924 -1.98 -1.74c 0 -0.984 0.672 -1.296 1.512 -1.296c 0.42 0 0.78 0.096 1.308 0.504l 0.24 0.192Z m 0 2.22v -1.584c 0 -0.156 -0.072 -0.24 -0.168 -0.312c -0.312 -0.252 -0.72 -0.528 -1.056 -0.528c -0.6 0 -0.864 0.48 -0.864 0.852c 0 0.54 0.252 1.092 1.14 1.32Z "/></symbol><symbol id="1e" overflow="visible"><path d="M 0 0m 4.74 7.572c -0.696 0.096 -0.672 0.324 -1.848 0.324c -1.212 0 -2.28 -0.804 -2.28 -2.076c 0 -1.26 1.044 -1.836 2.1 -2.244c 0.72 -0.276 1.608 -0.612 1.608 -1.788c 0 -0.972 -0.54 -1.476 -1.5 -1.476c -1.116 0 -1.836 0.516 -2.1 1.704c -0.156 0.048 -0.276 0.024 -0.396 -0.036c 0.048 -0.924 0.096 -1.236 0.24 -1.824c 0.756 0 1.092 -0.276 2.16 -0.276c 0.54 0 1.056 0.132 1.476 0.396c 0.696 0.432 1.128 1.164 1.128 1.932c 0 1.272 -0.96 1.836 -1.944 2.208c -0.72 0.264 -1.92 0.72 -1.92 1.728c 0 0.672 0.612 1.344 1.32 1.344c 1.164 0 1.536 -0.744 1.776 -1.536c 0.132 -0.024 0.288 -0.012 0.396 0.072c -0.048 0.576 -0.096 0.912 -0.216 1.548Z "/></symbol><symbol id="1f" overflow="visible"><path d="M 0 0m 1.776 7.74c -0.432 0 -1.068 0.012 -1.548 0.024c -0.072 -0.072 -0.072 -0.324 0 -0.396c 0.84 -0.036 1.044 -0.096 1.044 -1.092v -4.812c 0 -0.996 -0.204 -1.056 -1.044 -1.092c -0.072 -0.072 -0.072 -0.324 0 -0.396c 0.468 0.012 1.104 0.024 1.56 0.024c 0.444 0 0.948 -0.024 2.184 -0.024c 1.692 0 3.924 0.768 3.924 3.72c 0 2.232 -1.836 4.068 -4.14 4.068c -0.852 0 -1.512 -0.024 -1.98 -0.024Z m 0.516 -6.732v 5.76c 0 0.42 0.42 0.588 1.008 0.588c 2.592 0 3.444 -2.1 3.444 -3.948c 0 -2.424 -1.452 -3.024 -3.144 -3.024c -1.176 0 -1.308 0.24 -1.308 0.624Z "/></symbol><symbol id="20" overflow="visible"><path d="M 0 0m 3.828 2.268c 0 -1.14 -0.6 -1.98 -1.32 -1.98c -0.456 0 -0.612 0.3 -0.792 0.54c -0.156 0.204 -0.36 0.384 -0.612 0.384c -0.228 0 -0.456 -0.204 -0.456 -0.444c 0 -0.492 1.02 -0.9 1.704 -0.9c 1.488 0 2.544 1.104 2.544 2.616c 0 1.164 -0.804 2.208 -2.148 2.208c -0.516 0 -0.96 -0.108 -1.176 -0.192l 0.24 2.004c 0.444 -0.048 0.828 -0.108 1.404 -0.108c 0.36 0 0.768 0.024 1.26 0.072l 0.192 0.816l -0.084 0.048c -0.684 -0.072 -1.332 -0.132 -1.968 -0.132c -0.444 0 -0.876 0.024 -1.296 0.06l -0.408 -3.456c 0.636 0.24 1.092 0.288 1.524 0.288c 0.78 0 1.392 -0.516 1.392 -1.824Z "/></symbol><symbol id="21" overflow="visible"><path d="M 0 0m 0.684 0.516c 0 -0.348 0.288 -0.636 0.636 -0.636c 0.348 0 0.636 0.288 0.636 0.636c 0 0.348 -0.288 0.636 -0.636 0.636c -0.348 0 -0.636 -0.288 -0.636 -0.636Z "/></symbol><symbol id="22" overflow="visible"><path d="M 0 0m 0.732 5.616c 0 -0.252 0.228 -0.468 0.48 -0.468c 0.204 0 0.564 0.216 0.564 0.48c 0 0.096 -0.024 0.168 -0.048 0.252c -0.024 0.084 -0.096 0.192 -0.096 0.288c 0 0.3 0.312 0.732 1.188 0.732c 0.432 0 1.044 -0.3 1.044 -1.452c 0 -0.768 -0.276 -1.392 -0.984 -2.112l -0.888 -0.876c -1.176 -1.2 -1.368 -1.776 -1.368 -2.484c 0 0 0.612 0.024 0.996 0.024h 2.1c 0.384 0 0.936 -0.024 0.936 -0.024c 0.156 0.636 0.276 1.536 0.288 1.896c -0.072 0.06 -0.228 0.084 -0.348 0.06c -0.204 -0.852 -0.408 -1.152 -0.84 -1.152h -2.136c 0 0.576 0.828 1.392 0.888 1.452l 1.212 1.164c 0.684 0.66 1.2 1.188 1.2 2.1c 0 1.296 -1.056 1.824 -2.028 1.824c -1.332 0 -2.16 -0.984 -2.16 -1.704Z "/></symbol><symbol id="23" overflow="visible"><path d="M 0 0m 2.736 -0.12c 0.924 0 2.328 0.936 2.328 3.756c 0 1.188 -0.288 2.208 -0.816 2.904c -0.312 0.42 -0.816 0.78 -1.464 0.78c -1.188 0 -2.316 -1.416 -2.316 -3.792c 0 -1.284 0.396 -2.484 1.056 -3.144c 0.336 -0.336 0.744 -0.504 1.212 -0.504Z m 0.048 7.02c 0.204 0 0.396 -0.072 0.54 -0.204c 0.372 -0.312 0.696 -1.224 0.696 -2.832c 0 -1.104 -0.036 -1.86 -0.204 -2.472c -0.264 -0.984 -0.852 -1.092 -1.068 -1.092c -1.116 0 -1.236 2.052 -1.236 3.096c 0 2.952 0.732 3.504 1.272 3.504Z "/></symbol><symbol id="24" overflow="visible"><path d="M 0 0m 2.04 6.42h 2.148c -0.936 -2.328 -1.884 -4.668 -2.7 -6.492l 0.096 -0.084l 0.816 0.036c 0.684 2.04 1.344 4.032 2.688 7.308l -0.192 0.144c -0.204 -0.06 -0.468 -0.132 -0.924 -0.132h -2.472c -0.408 0 -0.384 0.12 -0.6 0.168c -0.036 0 -0.048 0 -0.048 -0.036c -0.012 -0.576 -0.144 -1.296 -0.24 -1.92c 0.132 -0.036 0.252 -0.048 0.384 -0.036c 0.264 0.96 0.66 1.044 1.044 1.044Z "/></symbol><symbol id="25" overflow="visible"><path d="M 0 0m 3.456 1.464v 4.164c 0 0.72 0.012 1.452 0.036 1.608c 0 0.06 -0.024 0.06 -0.072 0.06c -0.66 -0.408 -1.296 -0.708 -2.352 -1.2c 0.024 -0.132 0.072 -0.252 0.18 -0.324c 0.552 0.228 0.816 0.3 1.044 0.3c 0.204 0 0.24 -0.288 0.24 -0.696v -3.912c 0 -0.996 -0.324 -1.056 -1.164 -1.092c -0.072 -0.072 -0.072 -0.324 0 -0.396c 0.588 0.012 1.02 0.024 1.668 0.024c 0.576 0 0.864 -0.012 1.464 -0.024c 0.072 0.072 0.072 0.324 0 0.396c -0.84 0.036 -1.044 0.096 -1.044 1.092Z "/></symbol><symbol id="26" overflow="visible"><path d="M 0 0m 3.924 3.072c -0.324 -1.092 -1.092 -2.304 -2.688 -2.904c 0 -0.144 0.048 -0.252 0.144 -0.312c 1.212 0.36 1.956 0.864 2.628 1.644c 0.744 0.864 1.116 1.956 1.116 2.904c 0 2.436 -1.38 2.916 -2.304 2.916c -1.572 0 -2.22 -1.524 -2.22 -2.556c 0 -1.032 0.552 -1.956 2.184 -1.956c 0.312 0 0.78 0.096 1.14 0.264Z m 0.108 0.432c -0.396 -0.264 -0.792 -0.276 -0.996 -0.276c -1.176 0 -1.44 1.152 -1.44 1.752c 0 1.32 0.504 1.92 1.092 1.92c 0.756 0 1.44 -0.408 1.44 -2.46c 0 -0.264 -0.024 -0.588 -0.096 -0.936Z "/></symbol><symbol id="27" overflow="visible"><path d="M 0 0m 4.716 5.82c 0 0.864 -0.672 1.5 -1.848 1.5c -1.224 0 -2.016 -0.732 -2.016 -1.656c 0 -0.672 0.324 -1.164 1.056 -1.62l 0.312 -0.192c -0.348 -0.18 -0.672 -0.396 -0.972 -0.66c -0.492 -0.432 -0.696 -0.972 -0.696 -1.44c 0 -1.224 0.864 -1.872 2.136 -1.872c 1.572 0 2.34 1.152 2.34 2.064c 0 0.696 -0.3 1.308 -0.936 1.692l -0.852 0.516c 0.564 0.276 1.476 0.9 1.476 1.668Z m -2.004 -5.52c -0.54 0 -1.356 0.372 -1.356 1.452c 0 0.36 0.156 1.2 1.188 1.884l 0.564 -0.336c 0.744 -0.456 1.044 -1.02 1.044 -1.596c 0 -1.2 -0.9 -1.404 -1.44 -1.404Z m 0.096 6.6c 0.78 0 1.068 -0.516 1.068 -1.068c 0 -0.648 -0.636 -1.188 -0.96 -1.428l -0.372 0.228c -0.756 0.492 -0.84 0.888 -0.84 1.26c 0 0.552 0.384 1.008 1.104 1.008Z "/></symbol><symbol id="28" overflow="visible"><path d="M 0 0m 4.008 0.6c 0.06 0.048 0.168 0.072 0.18 -0.012c 0.036 -0.288 0.132 -0.708 0.132 -0.708c 0.096 -0.036 0.156 -0.024 0.228 0c 0.264 0.216 0.684 0.396 1.416 0.48c 0.072 0.072 0.072 0.252 0 0.324c -0.768 0.06 -0.876 0.288 -0.876 0.876v 5.436c 0 0.78 0.048 1.26 0.048 1.26c 0 0.084 -0.048 0.12 -0.156 0.12c -0.3 -0.12 -1.2 -0.288 -1.68 -0.324c -0.024 -0.096 0 -0.288 0.072 -0.36c 0.036 0 0.072 0 0.108 0c 0.528 -0.036 0.66 -0.036 0.66 -0.984v -1.536c 0 -0.084 -0.024 -0.108 -0.108 -0.108c -0.048 0 -0.54 0.204 -0.936 0.204c -0.792 0 -1.32 -0.264 -1.8 -0.72c -0.516 -0.516 -0.828 -1.224 -0.828 -2.112c 0 -1.476 0.744 -2.556 2.04 -2.556c 0.468 0 0.912 0.24 1.5 0.72Z m 0.132 0.888c 0 -0.228 -0.024 -0.324 -0.192 -0.468c -0.444 -0.384 -0.828 -0.576 -1.128 -0.576c -0.648 0 -1.32 0.708 -1.32 2.208c 0 0.864 0.168 1.344 0.348 1.596c 0.372 0.564 0.876 0.6 1.116 0.6c 0.432 0 0.732 -0.156 0.972 -0.432c 0.168 -0.192 0.204 -0.276 0.204 -0.648Z "/></symbol><symbol id="29" overflow="visible"><path d="M 0 0m 2.172 1.464v 2.388c 0 0.6 0.048 1.368 0.048 1.368c 0 0.048 -0.06 0.084 -0.156 0.084c -0.336 -0.132 -0.816 -0.24 -1.644 -0.348c -0.024 -0.072 0 -0.264 0.024 -0.336c 0.66 -0.06 0.78 -0.132 0.78 -0.816v -2.34c 0 -0.996 -0.132 -1.032 -0.864 -1.092c -0.072 -0.072 -0.072 -0.324 0 -0.396c 0.396 0.012 0.864 0.024 1.344 0.024c 0.48 0 0.936 -0.012 1.332 -0.024c 0.072 0.072 0.072 0.324 0 0.396c -0.732 0.048 -0.864 0.096 -0.864 1.092Z m -1.092 5.724c 0 -0.312 0.288 -0.624 0.576 -0.624c 0.336 0 0.624 0.324 0.624 0.576c 0 0.288 -0.252 0.624 -0.576 0.624c -0.288 0 -0.624 -0.288 -0.624 -0.576Z "/></symbol><symbol id="2a" overflow="visible"><path d="M 0 0m 1.296 -2.316h 2.544c 0.072 0.072 0.072 0.288 0 0.36c -1.656 0.132 -1.74 0.312 -1.74 1.356v 7.332c 0 1.044 0.096 1.224 1.74 1.344c 0.072 0.072 0.072 0.288 0 0.36h -2.544Z "/></symbol><symbol id="2b" overflow="visible"><path d="M 0 0m 1.248 1.14c -0.372 0 -0.636 -0.252 -0.636 -0.588c 0 -0.372 0.312 -0.492 0.528 -0.528c 0.228 -0.024 0.432 -0.096 0.432 -0.372c 0 -0.252 -0.432 -0.804 -1.056 -0.96c 0 -0.12 0.024 -0.204 0.108 -0.288c 0.72 0.132 1.416 0.708 1.416 1.548c 0 0.72 -0.312 1.188 -0.792 1.188Z "/></symbol><symbol id="2c" overflow="visible"><path d="M 0 0m 2.184 4.296c -0.276 0.408 -0.192 0.42 0.348 0.48c 0.072 0.072 0.072 0.324 0 0.396c -0.324 -0.012 -0.852 -0.024 -1.212 -0.024c -0.36 0 -0.72 0.012 -1.032 0.024c -0.072 -0.072 -0.072 -0.324 0 -0.396c 0.408 -0.036 0.744 -0.24 1.08 -0.732l 1.044 -1.524c 0.06 -0.084 0.06 -0.12 0.012 -0.18l -1.008 -1.296c -0.48 -0.612 -0.744 -0.648 -1.164 -0.672c -0.072 -0.072 -0.072 -0.324 0 -0.396c 0.24 0.012 0.504 0.024 0.864 0.024c 0.36 0 0.696 -0.012 1.008 -0.024c 0.072 0.072 0.072 0.324 0 0.396c -0.432 0.048 -0.528 0.096 -0.264 0.48l 0.756 1.092c 0.096 0.144 0.144 0.132 0.216 0.024l 0.696 -0.96c 0.42 -0.576 0.228 -0.6 -0.156 -0.636c -0.072 -0.072 -0.072 -0.324 0 -0.396c 0.36 0.012 0.756 0.024 1.188 0.024c 0.456 0 0.78 -0.012 1.068 -0.024c 0.072 0.072 0.072 0.324 0 0.396c -0.54 0.036 -0.72 0.072 -1.2 0.756l -1.08 1.524c -0.048 0.072 -0.06 0.108 0 0.18l 1.008 1.284c 0.444 0.564 0.732 0.624 1.164 0.66c 0.072 0.072 0.072 0.324 0 0.396c -0.24 -0.012 -0.516 -0.024 -0.876 -0.024c -0.36 0 -0.696 0.012 -1.008 0.024c -0.072 -0.072 -0.072 -0.324 0 -0.396c 0.444 -0.048 0.576 -0.084 0.288 -0.492l -0.78 -1.092c -0.084 -0.12 -0.132 -0.108 -0.228 0.024Z "/></symbol><symbol id="2d" overflow="visible"><path d="M 0 0m 2.976 8.448h -2.544c -0.072 -0.072 -0.072 -0.288 0 -0.36c 1.656 -0.132 1.74 -0.312 1.74 -1.356v -7.332c 0 -1.044 -0.096 -1.224 -1.74 -1.344c -0.072 -0.072 -0.072 -0.288 0 -0.36h 2.544Z "/></symbol><symbol id="2e" overflow="visible"><path d="M 0 0m 2.58 6.9c 0.516 0 0.996 -0.312 0.996 -1.08c 0 -0.6 -0.696 -1.524 -1.884 -1.692l 0.06 -0.384c 0.204 0.024 0.42 0.024 0.576 0.024c 0.684 0 1.572 -0.192 1.572 -1.548c 0 -1.596 -1.068 -1.92 -1.488 -1.92c -0.612 0 -0.72 0.276 -0.864 0.492c -0.12 0.168 -0.276 0.312 -0.516 0.312c -0.252 0 -0.504 -0.228 -0.504 -0.42c 0 -0.48 1.008 -0.804 1.728 -0.804c 1.428 0 2.7 0.924 2.7 2.508c 0 1.308 -0.984 1.776 -1.692 1.896l -0.012 0.024c 0.984 0.468 1.26 0.96 1.26 1.596c 0 0.36 -0.084 0.648 -0.372 0.948c -0.264 0.264 -0.684 0.468 -1.308 0.468c -1.764 0 -2.268 -1.152 -2.268 -1.548c 0 -0.168 0.12 -0.408 0.408 -0.408c 0.42 0 0.468 0.396 0.468 0.624c 0 0.768 0.828 0.912 1.14 0.912Z "/></symbol><symbol id="2f" overflow="visible"><path d="M 0 0m 2.076 7.74c -0.48 0 -1.848 0.024 -1.848 0.024c -0.12 -0.072 -0.12 -0.336 0 -0.408c 0.66 -0.036 0.996 -0.084 0.996 -1.08v -4.812c 0 -0.996 -0.336 -1.044 -0.996 -1.08c -0.12 -0.072 -0.12 -0.336 0 -0.408c 0 0 1.368 0.024 1.848 0.024c 0.48 0 1.248 -0.024 1.968 -0.024c 2.46 0 3.252 1.032 3.252 2.256c 0 1.056 -0.528 1.74 -1.8 2.076v 0.024c 0.648 0.288 1.152 0.948 1.152 1.56c 0 0.828 -0.444 1.872 -2.868 1.872c -0.6 0 -1.32 -0.024 -1.704 -0.024Z m 0.828 -3.732h 0.852c 1.236 0 1.776 -0.732 1.776 -1.764c 0 -0.72 -0.252 -1.764 -1.836 -1.764c -0.72 0 -0.792 0.18 -0.792 0.528Z m 0 2.736c 0 0.348 0.06 0.516 0.84 0.516c 0.552 0 1.224 -0.216 1.224 -1.392c 0 -0.96 -0.54 -1.356 -1.392 -1.356h -0.672Z "/></symbol><symbol id="30" overflow="visible"><path d="M 0 0m 4.26 0.576c 0.024 -0.288 0.048 -0.492 0.048 -0.492c 0.012 -0.144 0.108 -0.204 0.276 -0.204c 0.444 0.12 1.164 0.288 1.992 0.396c 0.024 0.072 0 0.312 -0.024 0.384c -0.648 0.06 -0.78 0.252 -0.78 0.936v 5.4c 0 0.78 0.036 1.224 0.036 1.224c 0 0.108 -0.084 0.156 -0.192 0.156c -0.444 -0.144 -1.404 -0.276 -2.256 -0.312c -0.036 -0.144 -0.024 -0.3 0.036 -0.408c 0.756 -0.06 0.816 -0.072 0.816 -0.9v -1.56c -0.228 0.072 -0.516 0.132 -0.864 0.132c -1.548 0 -2.904 -1.356 -2.904 -2.952c 0 -0.708 0.252 -1.536 0.84 -1.992c 0.432 -0.336 0.732 -0.504 1.404 -0.504c 0.324 0 1.212 0.528 1.464 0.696Z m -0.036 0.564c -0.252 -0.204 -0.888 -0.468 -1.032 -0.468c -0.6 0 -1.068 0.672 -1.068 2.076c 0 0.636 0.072 1.188 0.3 1.56c 0.204 0.324 0.528 0.516 0.888 0.516c 0.312 0 0.612 -0.036 0.9 -0.432v -2.952c 0 -0.096 0 -0.204 0.012 -0.3Z "/></symbol><symbol id="31" overflow="visible"><path d="M 0 0m 1.14 3.708v -5.028c 0 -0.996 -0.132 -1.02 -0.864 -1.08c -0.072 -0.072 -0.072 -0.336 0 -0.408c 0.504 0.012 1.008 0.024 1.644 0.024c 0.636 0 1.128 -0.012 1.644 -0.024c 0.072 0.072 0.072 0.336 0 0.408c -0.732 0.048 -0.864 0.084 -0.864 1.08v 1.404c 0.264 -0.132 0.516 -0.204 0.804 -0.204c 1.824 0 3.012 1.2 3.012 2.964c 0 0.672 -0.252 1.416 -0.72 1.884c -0.42 0.42 -1.02 0.6 -1.644 0.6c -0.348 0 -0.996 -0.42 -1.416 -0.804h -0.072c -0.024 0.336 -0.06 0.6 -0.06 0.6c -0.012 0.144 -0.108 0.204 -0.276 0.204c -0.444 -0.12 -1.164 -0.288 -1.992 -0.396c -0.024 -0.072 0 -0.312 0.024 -0.384c 0.66 -0.06 0.78 -0.156 0.78 -0.84Z m 1.56 -2.928v 3.072c 0 0.072 0 0.132 0 0.204c 0.348 0.312 0.792 0.468 1.068 0.468c 0.492 0 1.068 -0.6 1.068 -2.004c 0 -1.008 -0.36 -2.136 -1.404 -2.136c -0.132 0 -0.432 0.072 -0.732 0.396Z "/></symbol><symbol id="32" overflow="visible"><path d="M 0 0m 4.368 6.252c -0.216 0 -0.636 0 -1.284 0.3c -0.12 0.144 -0.468 0.3 -0.804 0.3c -0.864 0 -1.596 -0.852 -1.596 -1.908c 0 -0.612 0.36 -1.308 1.104 -1.308c 1.008 0 1.536 1.356 1.536 2.124c 0 0.108 -0.012 0.216 -0.036 0.3c 0.228 -0.132 0.684 -0.252 0.96 -0.252c 0.36 0 0.828 0.048 1.284 0.228l -4.308 -6l 0.408 -0.18l 4.92 6.852l -0.384 0.192c -0.372 -0.504 -1.296 -0.648 -1.8 -0.648Z m 0.168 -5.076c 0 -0.636 0.384 -1.32 1.116 -1.32c 0.996 0 1.524 1.32 1.524 2.124c 0 0.876 -0.552 1.092 -1.032 1.092c -0.888 0 -1.608 -0.912 -1.608 -1.896Z m -3.204 3.6c 0 0.696 0.492 1.704 1.08 1.704c 0.216 0 0.516 -0.132 0.516 -0.732c 0 -0.696 -0.408 -1.74 -1.068 -1.74c -0.216 0 -0.528 0.144 -0.528 0.768Z m 3.864 -3.78c 0 0.696 0.492 1.704 1.08 1.704c 0.168 0 0.504 -0.108 0.504 -0.732c 0 -0.672 -0.396 -1.74 -1.056 -1.74c -0.228 0 -0.528 0.144 -0.528 0.768Z "/></symbol><symbol id="33" overflow="visible"><path d="M 0 0m 1.86 0.948l 0.66 1.74c 0.06 0.156 0.132 0.204 0.42 0.204h 2.532l 0.696 -2.028c 0.144 -0.408 -0.312 -0.456 -0.888 -0.492c -0.072 -0.072 -0.072 -0.324 0 -0.396c 0.444 0.012 1.104 0.024 1.572 0.024c 0.492 0 0.948 -0.012 1.368 -0.024c 0.072 0.072 0.072 0.324 0 0.396c -0.468 0.048 -0.876 0.084 -1.08 0.66l -2.472 6.864c -0.18 -0.108 -0.504 -0.24 -0.66 -0.24l -2.724 -6.432c -0.312 -0.744 -0.672 -0.816 -1.2 -0.852c -0.072 -0.072 -0.072 -0.324 0 -0.396c 0.312 0.012 0.708 0.024 1.068 0.024c 0.492 0 1.092 -0.012 1.536 -0.024c 0.072 0.072 0.072 0.324 0 0.396c -0.456 0.036 -1.02 0.084 -0.828 0.576Z m 1.296 2.448c -0.264 0 -0.348 0.036 -0.3 0.156l 1.224 3.108h 0.072l 1.128 -3.264Z "/></symbol><symbol id="34" overflow="visible"><path d="M 0 0m 1.776 7.74c -0.432 0 -1.08 0.012 -1.548 0.024c -0.072 -0.072 -0.072 -0.324 0 -0.396c 0.84 -0.036 1.044 -0.096 1.044 -1.092v -4.812c 0 -0.996 -0.204 -1.056 -1.044 -1.092c -0.072 -0.072 -0.072 -0.324 0 -0.396c 0.468 0.012 1.116 0.024 1.56 0.024c 0.432 0 0.744 -0.024 1.752 -0.024c 2.388 0 3.024 1.2 3.024 2.232c 0 1.152 -0.804 1.812 -1.848 2.112v 0.024c 0.6 0.3 1.14 0.924 1.14 1.572c 0 0.804 -0.348 1.848 -2.58 1.848c -0.42 0 -1.068 -0.024 -1.5 -0.024Z m 0.516 -3.756h 0.828c 1.644 0 2.328 -0.924 2.328 -2.004c 0 -0.876 -0.336 -1.608 -2.16 -1.608c -0.84 0 -0.996 0.312 -0.996 1.044Z m 0 2.616c 0 0.636 0 0.756 1.044 0.756c 0.672 0 1.548 -0.36 1.548 -1.584c 0 -1.02 -0.708 -1.38 -1.704 -1.38h -0.888Z "/></symbol><symbol id="35" overflow="visible"><path d="M 0 0m 2.736 1.464v 2.388c 0 0.06 0 0.12 0 0.18c 0.468 0.288 0.888 0.408 1.092 0.408c 0.48 0 0.84 -0.216 0.84 -0.9v -2.004c 0 -1.008 -0.192 -1.116 -0.684 -1.152c -0.072 -0.072 -0.072 -0.336 0 -0.408c 0.504 0.012 0.888 0.024 1.464 0.024c 0.576 0 0.948 -0.012 1.464 -0.024c 0.072 0.072 0.072 0.336 0 0.408c -0.48 0.036 -0.684 0.144 -0.684 1.152v 1.872c 0 0.3 -0.012 0.54 -0.048 0.66c 0.456 0.228 0.972 0.372 1.164 0.372c 0.48 0 0.816 -0.216 0.816 -0.9v -2.004c 0 -1.008 -0.192 -1.116 -0.684 -1.152c -0.072 -0.072 -0.072 -0.336 0 -0.408c 0.504 0.012 0.888 0.024 1.464 0.024c 0.66 0 1.188 -0.012 1.704 -0.024c 0.072 0.072 0.072 0.336 0 0.408c -0.732 0.036 -0.924 0.144 -0.924 1.152v 1.872c 0 1.32 -0.48 1.92 -1.512 1.92c -0.444 0 -1.452 -0.48 -2.148 -0.864c -0.18 0.516 -0.66 0.864 -1.368 0.864c -0.432 0 -1.296 -0.456 -1.98 -0.84c -0.036 0.36 -0.072 0.636 -0.072 0.636c -0.012 0.144 -0.108 0.204 -0.276 0.204c -0.444 -0.12 -1.164 -0.288 -1.992 -0.396c -0.024 -0.072 0 -0.312 0.024 -0.384c 0.66 -0.06 0.78 -0.156 0.78 -0.84v -2.244c 0 -0.996 -0.132 -1.02 -0.864 -1.08c -0.072 -0.072 -0.072 -0.336 0 -0.408c 0.504 0.012 1.008 0.024 1.644 0.024c 0.552 0 0.888 -0.012 1.404 -0.024c 0.072 0.072 0.072 0.336 0 0.408c -0.504 0.048 -0.624 0.084 -0.624 1.08Z "/></symbol><symbol id="36" overflow="visible"><path d="M 0 0m 1.2 1.524c 0 -0.996 -0.192 -1.104 -0.924 -1.14c -0.072 -0.072 -0.072 -0.336 0 -0.408c 0.504 0.012 1.044 0.024 1.704 0.024c 0.528 0 1.056 -0.012 1.344 -0.024c 0.072 0.072 0.072 0.336 0 0.408c -0.36 0.048 -0.564 0.144 -0.564 1.14v 0.984c 0.336 0 0.708 -0.036 0.828 -0.228c 0.276 -0.408 0.612 -0.9 0.816 -1.344c 0.156 -0.336 0.192 -0.444 0.192 -0.624v -0.312l 0.024 -0.024c 0 0 0.54 0.024 0.96 0.024c 0.492 0 1.164 -0.012 1.608 -0.024c 0.072 0.072 0.072 0.336 0 0.408c -0.468 0.048 -0.732 0.012 -1.092 0.552l -1.392 2.052c -0.06 0.084 -0.084 0.18 -0.036 0.24l 0.6 0.66c 0.384 0.42 0.708 0.84 1.62 0.936c 0.072 0.072 0.072 0.336 0 0.408c -0.264 -0.012 -1.02 -0.024 -1.332 -0.024c -0.444 0 -1.008 0.012 -1.452 0.024c -0.072 -0.072 -0.072 -0.336 0 -0.408c 0.648 -0.048 0.84 -0.156 0.492 -0.636c -0.264 -0.36 -0.528 -0.648 -0.768 -0.864c -0.156 -0.132 -0.708 -0.336 -1.068 -0.336v 4.008c 0 0.78 0.036 1.224 0.036 1.224c 0 0.108 -0.084 0.156 -0.192 0.156c -0.444 -0.144 -1.404 -0.276 -2.256 -0.312c -0.036 -0.144 -0.024 -0.276 0.036 -0.384c 0.756 -0.06 0.816 -0.072 0.816 -0.9Z "/></symbol><symbol id="37" overflow="visible"><path d="M 0 0m 1.14 1.464c 0 -0.996 -0.132 -1.056 -0.864 -1.092c -0.072 -0.072 -0.072 -0.324 0 -0.396c 0.42 0.012 0.864 0.024 1.344 0.024c 0.48 0 0.936 -0.012 1.332 -0.024c 0.072 0.072 0.072 0.324 0 0.396c -0.732 0.036 -0.864 0.096 -0.864 1.092v 5.532c 0 0.78 0.048 1.26 0.048 1.26c 0 0.084 -0.048 0.12 -0.156 0.12c -0.3 -0.12 -1.2 -0.288 -1.68 -0.324c -0.024 -0.096 0 -0.288 0.072 -0.36c 0.696 -0.048 0.768 -0.084 0.768 -0.984Z "/></symbol><symbol id="38" overflow="visible"><path d="M 0 0m 0.576 1.656c 0.048 -0.588 0.084 -1.152 0.084 -1.656c 0.12 0.024 0.24 0.036 0.3 0.036c 0.084 0 0.156 0 0.24 -0.024c 0.324 -0.084 0.648 -0.132 1.092 -0.132c 0.672 0 1.908 0.324 1.908 1.512c 0 0.816 -0.588 1.296 -1.404 1.596c -0.72 0.276 -1.2 0.456 -1.2 1.116c 0 0.492 0.432 0.768 0.84 0.768c 0.264 0 0.96 -0.096 1.116 -1.116c 0.072 -0.072 0.312 -0.06 0.384 0.012c 0.036 0.432 0.06 0.876 0.072 1.272c -0.372 0.06 -0.948 0.228 -1.572 0.228c -0.888 0 -1.692 -0.576 -1.692 -1.344c 0 -0.876 0.396 -1.248 1.32 -1.632c 0.996 -0.408 1.224 -0.66 1.224 -1.176c 0 -0.588 -0.576 -0.84 -1.02 -0.84c -0.468 0 -0.732 0.156 -0.852 0.288c -0.264 0.276 -0.396 0.804 -0.468 1.104c -0.072 0.072 -0.3 0.06 -0.372 -0.012Z "/></symbol><symbol id="39" overflow="visible"><path d="M 0 0m 0.516 5.148c -0.168 0 -0.216 -0.144 -0.216 -0.24v -0.156c 0 -0.06 0.012 -0.072 0.06 -0.072h 0.708v -3.612c 0 -0.852 0.372 -1.188 0.924 -1.188c 0.552 0 1.152 0.264 1.62 0.792c -0.024 0.12 -0.096 0.192 -0.216 0.204c -0.312 -0.24 -0.672 -0.336 -0.984 -0.336c -0.324 0 -0.396 0.36 -0.396 1.104v 3.036h 1.248c 0.12 0 0.288 0.048 0.288 0.156v 0.24c 0 0.048 -0.036 0.072 -0.096 0.072h -1.44v 0.468c 0 0.78 0.048 1.26 0.048 1.26c 0 0.072 -0.036 0.108 -0.096 0.108c -0.048 0 -0.156 -0.048 -0.264 -0.108c -0.132 -0.072 -0.252 -0.132 -0.408 -0.168c -0.144 -0.048 -0.264 -0.084 -0.264 -0.168c 0 -0.144 0.036 -0.06 0.036 -1.392Z "/></symbol><symbol id="3a" overflow="visible"><path d="M 0 0m 2.112 4.296c -0.024 0.48 -0.036 0.792 -0.096 0.912c -0.024 0.06 -0.048 0.096 -0.144 0.096c -0.336 -0.132 -0.648 -0.24 -1.476 -0.348c -0.024 -0.072 0 -0.264 0.024 -0.336c 0.648 -0.06 0.78 -0.12 0.78 -0.816v -2.34c 0 -0.996 -0.144 -1.044 -0.888 -1.092c -0.072 -0.072 -0.072 -0.324 0 -0.396c 0.42 0.012 0.888 0.024 1.368 0.024c 0.48 0 1.032 -0.012 1.452 -0.024c 0.072 0.072 0.072 0.324 0 0.396c -0.84 0.06 -0.984 0.096 -0.984 1.092v 1.668c 0 0.312 0.144 0.588 0.288 0.804c 0.132 0.192 0.408 0.588 0.552 0.588c 0.108 0 0.216 -0.024 0.312 -0.156c 0.084 -0.12 0.228 -0.276 0.432 -0.276c 0.288 0 0.564 0.3 0.564 0.6c 0 0.228 -0.216 0.576 -0.72 0.576c -0.564 0 -1.056 -0.528 -1.332 -0.996c -0.072 -0.132 -0.132 -0.036 -0.132 0.024Z "/></symbol><symbol id="3b" overflow="visible"><path d="M 0 0m 2.604 -0.12c 0.468 0 1.032 0.24 1.62 0.72c 0.06 0.048 0.168 0.072 0.18 -0.012c 0.036 -0.3 0.132 -0.708 0.132 -0.708c 0.096 -0.036 0.156 -0.024 0.228 0c 0.264 0.216 0.684 0.396 1.416 0.48c 0.072 0.072 0.072 0.252 0 0.324c -0.768 0.06 -0.876 0.288 -0.876 0.876v 2.304c 0 0.36 0.048 1.236 0.048 1.236c 0 0.036 -0.036 0.072 -0.096 0.072c -0.06 -0.012 -0.24 -0.024 -0.42 -0.024c -0.384 0 -0.816 0.012 -1.224 0.024c -0.072 -0.072 -0.072 -0.324 0 -0.396c 0.588 -0.036 0.744 -0.18 0.744 -0.972v -2.316c 0 -0.228 -0.024 -0.324 -0.192 -0.468c -0.444 -0.384 -0.9 -0.576 -1.2 -0.576c -0.36 0 -0.96 0.168 -0.96 1.236v 2.184c 0 0.36 0.048 1.236 0.048 1.236c 0 0.036 -0.036 0.072 -0.096 0.072c -0.06 -0.012 -0.24 -0.024 -0.42 -0.024c -0.384 0 -0.816 0.012 -1.224 0.024c -0.072 -0.072 -0.072 -0.324 0 -0.396c 0.576 -0.048 0.744 -0.18 0.744 -0.96v -2.304c 0 -0.828 0.36 -1.632 1.548 -1.632Z "/></symbol></defs></svg>