<svg class="typst-doc" viewBox="0 0 314.164 238.33600000000004" width="314.164pt" height="238.33600000000004pt" xmlns="http://www.w3.org/2000/svg" xmlns:xlink="http://www.w3.org/1999/xlink" xmlns:h5="http://www.w3.org/1999/xhtml">
    <path class="typst-shape" fill="#ffffff" fill-rule="nonzero" d="M 0 0 L 0 238.336 L 314.164 238.336 L 314.164 0 Z "/>
    <g>
        <g transform="translate(112.82900000000001 20.74)">
            <path class="typst-shape" fill="none" stroke="#000000" stroke-width="0.75" stroke-linecap="butt" stroke-linejoin="miter" stroke-miterlimit="4" d="M 0 0 L 198.71 0 "/>
        </g>
        <g transform="translate(2.625 56.376000000000005)">
            <path class="typst-shape" fill="none" stroke="#000000" stroke-width="0.75" stroke-linecap="butt" stroke-linejoin="miter" stroke-miterlimit="4" d="M 0 0 L 308.914 0 "/>
        </g>
        <g transform="translate(2.5 3)">
            <path class="typst-shape" fill="none" stroke="#000000" stroke-width="1" stroke-linecap="butt" stroke-linejoin="miter" stroke-miterlimit="4" d="M 0 0 L 309.164 0 "/>
        </g>
        <g transform="translate(2.5 235.33600000000004)">
            <path class="typst-shape" fill="none" stroke="#000000" stroke-width="1" stroke-linecap="butt" stroke-linejoin="miter" stroke-miterlimit="4" d="M 0 0 L 309.164 0 "/>
        </g>
        <g transform="translate(186.444 15.74)">
            <g class="typst-text" transform="scale(1, -1)">
                <use xlink:href="#0" x="0" fill="#000000" fill-rule="nonzero"/>
                <use xlink:href="#1" x="7.824" fill="#000000" fill-rule="nonzero"/>
                <use xlink:href="#2" x="11.687999999999999" fill="#000000" fill-rule="nonzero"/>
                <use xlink:href="#3" x="22.548" fill="#000000" fill-rule="nonzero"/>
                <use xlink:href="#4" x="31.415999999999997" fill="#000000" fill-rule="nonzero"/>
                <use xlink:href="#5" x="35.339999999999996" fill="#000000" fill-rule="nonzero"/>
                <use xlink:href="#6" x="42.767999999999994" fill="#000000" fill-rule="nonzero"/>
                <use xlink:href="#7" x="47.699999999999996" fill="#000000" fill-rule="nonzero"/>
            </g>
        </g>
        <g transform="translate(127.894 33.636)">
            <g class="typst-text" transform="scale(1, -1)">
                <use xlink:href="#8" x="0" fill="#000000" fill-rule="nonzero"/>
            </g>
        </g>
        <g transform="translate(161.744 33.636)">
            <g class="typst-text" transform="scale(1, -1)">
                <use xlink:href="#8" x="0" fill="#000000" fill-rule="nonzero"/>
                <use xlink:href="#9" x="5.580000000000001" fill="#000000" fill-rule="nonzero"/>
                <use xlink:href="#a" x="8.22" fill="#000000" fill-rule="nonzero"/>
            </g>
        </g>
        <g transform="translate(203.814 33.636)">
            <g class="typst-text" transform="scale(1, -1)">
                <use xlink:href="#b" x="0" fill="#000000" fill-rule="nonzero"/>
            </g>
        </g>
        <g transform="translate(244.56399999999996 33.636)">
            <g class="typst-text" transform="scale(1, -1)">
                <use xlink:href="#c" x="0" fill="#000000" fill-rule="nonzero"/>
            </g>
        </g>
        <g transform="translate(288.104 33.636)">
            <g class="typst-text" transform="scale(1, -1)">
                <use xlink:href="#d" x="0" fill="#000000" fill-rule="nonzero"/>
            </g>
        </g>
        <g transform="translate(8 51.376000000000005)">
            <g class="typst-text" transform="scale(1, -1)">
                <use xlink:href="#e" x="0" fill="#000000" fill-rule="nonzero"/>
                <use xlink:href="#f" x="8.808" fill="#000000" fill-rule="nonzero"/>
                <use xlink:href="#10" x="15.42" fill="#000000" fill-rule="nonzero"/>
                <use xlink:href="#3" x="20.544" fill="#000000" fill-rule="nonzero"/>
                <use xlink:href="#4" x="29.412" fill="#000000" fill-rule="nonzero"/>
                <use xlink:href="#2" x="33.192" fill="#000000" fill-rule="nonzero"/>
                <use xlink:href="#11" x="44.052" fill="#000000" fill-rule="nonzero"/>
                <use xlink:href="#7" x="50.304" fill="#000000" fill-rule="nonzero"/>
            </g>
        </g>
        <g transform="translate(75.08400000000002 51.376000000000005)">
            <g class="typst-text" transform="scale(1, -1)">
                <use xlink:href="#12" x="0" fill="#000000" fill-rule="nonzero"/>
                <use xlink:href="#e" x="4.404" fill="#000000" fill-rule="nonzero"/>
            </g>
        </g>
        <g transform="translate(149.856 51.376000000000005)">
            <g class="typst-text" transform="scale(1, -1)">
                <use xlink:href="#13" x="0" fill="#000000" fill-rule="nonzero"/>
                <use xlink:href="#f" x="8.472" fill="#000000" fill-rule="nonzero"/>
                <use xlink:href="#14" x="15.084" fill="#000000" fill-rule="nonzero"/>
                <use xlink:href="#15" x="22.476" fill="#000000" fill-rule="nonzero"/>
                <use xlink:href="#3" x="27.948" fill="#000000" fill-rule="nonzero"/>
                <use xlink:href="#14" x="33.816" fill="#000000" fill-rule="nonzero"/>
                <use xlink:href="#16" x="41.208000000000006" fill="#000000" fill-rule="nonzero"/>
                <use xlink:href="#6" x="45.504000000000005" fill="#000000" fill-rule="nonzero"/>
                <use xlink:href="#17" x="50.64" fill="#000000" fill-rule="nonzero"/>
                <use xlink:href="#16" x="56.712" fill="#000000" fill-rule="nonzero"/>
                <use xlink:href="#1" x="61.008" fill="#000000" fill-rule="nonzero"/>
                <use xlink:href="#f" x="64.872" fill="#000000" fill-rule="nonzero"/>
                <use xlink:href="#14" x="71.484" fill="#000000" fill-rule="nonzero"/>
                <use xlink:href="#4" x="81.87599999999999" fill="#000000" fill-rule="nonzero"/>
                <use xlink:href="#14" x="85.65599999999999" fill="#000000" fill-rule="nonzero"/>
                <use xlink:href="#11" x="93.04799999999999" fill="#000000" fill-rule="nonzero"/>
                <use xlink:href="#18" x="99.29999999999998" fill="#000000" fill-rule="nonzero"/>
                <use xlink:href="#2" x="103.09199999999998" fill="#000000" fill-rule="nonzero"/>
                <use xlink:href="#19" x="113.95199999999998" fill="#000000" fill-rule="nonzero"/>
                <use xlink:href="#7" x="120.87599999999998" fill="#000000" fill-rule="nonzero"/>
            </g>
        </g>
        <g transform="translate(3 56.376000000000005)">
            <g class="typst-group">
                <g>
                    <g transform="translate(72.08400000000002 12.895999999999999)">
                        <g class="typst-text" transform="scale(1, -1)">
                            <use xlink:href="#b" x="0" fill="#000000" fill-rule="nonzero"/>
                        </g>
                    </g>
                    <g transform="translate(120.784 12.895999999999999)">
                        <g class="typst-text" transform="scale(1, -1)">
                            <use xlink:href="#b" x="0" fill="#000000" fill-rule="nonzero"/>
                            <use xlink:href="#9" x="5.580000000000001" fill="#000000" fill-rule="nonzero"/>
                            <use xlink:href="#c" x="8.22" fill="#000000" fill-rule="nonzero"/>
                        </g>
                    </g>
                    <g transform="translate(158.744 12.895999999999999)">
                        <g class="typst-text" transform="scale(1, -1)">
                            <use xlink:href="#1a" x="0" fill="#000000" fill-rule="nonzero"/>
                            <use xlink:href="#9" x="5.580000000000001" fill="#000000" fill-rule="nonzero"/>
                            <use xlink:href="#a" x="8.22" fill="#000000" fill-rule="nonzero"/>
                        </g>
                    </g>
                    <g transform="translate(200.814 12.895999999999999)">
                        <g class="typst-text" transform="scale(1, -1)">
                            <use xlink:href="#c" x="0" fill="#000000" fill-rule="nonzero"/>
                        </g>
                    </g>
                    <g transform="translate(237.45399999999998 12.895999999999999)">
                        <g class="typst-text" transform="scale(1, -1)">
                            <use xlink:href="#b" x="0" fill="#000000" fill-rule="nonzero"/>
                            <use xlink:href="#9" x="5.580000000000001" fill="#000000" fill-rule="nonzero"/>
                            <use xlink:href="#a" x="8.22" fill="#000000" fill-rule="nonzero"/>
                        </g>
                    </g>
                    <g transform="translate(280.99399999999997 12.895999999999999)">
                        <g class="typst-text" transform="scale(1, -1)">
                            <use xlink:href="#8" x="0" fill="#000000" fill-rule="nonzero"/>
                            <use xlink:href="#9" x="5.580000000000001" fill="#000000" fill-rule="nonzero"/>
                            <use xlink:href="#b" x="8.22" fill="#000000" fill-rule="nonzero"/>
                        </g>
                    </g>
                </g>
            </g>
        </g>
        <g transform="translate(8 69.272)">
            <g class="typst-text" transform="scale(1, -1)">
                <use xlink:href="#b" x="0" fill="#000000" fill-rule="nonzero"/>
                <use xlink:href="#8" x="5.580000000000001" fill="#000000" fill-rule="nonzero"/>
                <use xlink:href="#8" x="11.160000000000002" fill="#000000" fill-rule="nonzero"/>
            </g>
        </g>
        <g transform="translate(3 74.272)">
            <g class="typst-group">
                <g>
                    <g transform="translate(72.08400000000002 12.895999999999999)">
                        <g class="typst-text" transform="scale(1, -1)">
                            <use xlink:href="#c" x="0" fill="#000000" fill-rule="nonzero"/>
                        </g>
                    </g>
                    <g transform="translate(120.784 12.895999999999999)">
                        <g class="typst-text" transform="scale(1, -1)">
                            <use xlink:href="#b" x="0" fill="#000000" fill-rule="nonzero"/>
                            <use xlink:href="#9" x="5.580000000000001" fill="#000000" fill-rule="nonzero"/>
                            <use xlink:href="#1b" x="8.22" fill="#000000" fill-rule="nonzero"/>
                        </g>
                    </g>
                    <g transform="translate(158.744 12.895999999999999)">
                        <g class="typst-text" transform="scale(1, -1)">
                            <use xlink:href="#d" x="0" fill="#000000" fill-rule="nonzero"/>
                            <use xlink:href="#9" x="5.580000000000001" fill="#000000" fill-rule="nonzero"/>
                            <use xlink:href="#c" x="8.22" fill="#000000" fill-rule="nonzero"/>
                        </g>
                    </g>
                    <g transform="translate(196.704 12.895999999999999)">
                        <g class="typst-text" transform="scale(1, -1)">
                            <use xlink:href="#b" x="0" fill="#000000" fill-rule="nonzero"/>
                            <use xlink:href="#9" x="5.580000000000001" fill="#000000" fill-rule="nonzero"/>
                            <use xlink:href="#1b" x="8.22" fill="#000000" fill-rule="nonzero"/>
                        </g>
                    </g>
                    <g transform="translate(237.45399999999998 12.895999999999999)">
                        <g class="typst-text" transform="scale(1, -1)">
                            <use xlink:href="#b" x="0" fill="#000000" fill-rule="nonzero"/>
                            <use xlink:href="#9" x="5.580000000000001" fill="#000000" fill-rule="nonzero"/>
                            <use xlink:href="#c" x="8.22" fill="#000000" fill-rule="nonzero"/>
                        </g>
                    </g>
                    <g transform="translate(280.99399999999997 12.895999999999999)">
                        <g class="typst-text" transform="scale(1, -1)">
                            <use xlink:href="#8" x="0" fill="#000000" fill-rule="nonzero"/>
                            <use xlink:href="#9" x="5.580000000000001" fill="#000000" fill-rule="nonzero"/>
                            <use xlink:href="#c" x="8.22" fill="#000000" fill-rule="nonzero"/>
                        </g>
                    </g>
                </g>
            </g>
        </g>
        <g transform="translate(3 92.16799999999999)">
            <g class="typst-group">
                <g>
                    <g transform="translate(72.08400000000002 12.74)">
                        <g class="typst-text" transform="scale(1, -1)">
                            <use xlink:href="#1c" x="0" fill="#000000" fill-rule="nonzero"/>
                        </g>
                    </g>
                    <g transform="translate(124.894 12.895999999999999)">
                        <g class="typst-text" transform="scale(1, -1)">
                            <use xlink:href="#c" x="0" fill="#000000" fill-rule="nonzero"/>
                        </g>
                    </g>
                    <g transform="translate(162.854 12.895999999999999)">
                        <g class="typst-text" transform="scale(1, -1)">
                            <use xlink:href="#c" x="0" fill="#000000" fill-rule="nonzero"/>
                        </g>
                    </g>
                    <g transform="translate(200.814 12.895999999999999)">
                        <g class="typst-text" transform="scale(1, -1)">
                            <use xlink:href="#c" x="0" fill="#000000" fill-rule="nonzero"/>
                        </g>
                    </g>
                    <g transform="translate(241.56399999999996 12.895999999999999)">
                        <g class="typst-text" transform="scale(1, -1)">
                            <use xlink:href="#c" x="0" fill="#000000" fill-rule="nonzero"/>
                        </g>
                    </g>
                    <g transform="translate(285.104 12.895999999999999)">
                        <g class="typst-text" transform="scale(1, -1)">
                            <use xlink:href="#c" x="0" fill="#000000" fill-rule="nonzero"/>
                        </g>
                    </g>
                </g>
            </g>
        </g>
        <g transform="translate(3 110.064)">
            <g class="typst-group">
                <g>
                    <g transform="translate(72.08400000000002 12.74)">
                        <g class="typst-text" transform="scale(1, -1)">
                            <use xlink:href="#1d" x="0" fill="#000000" fill-rule="nonzero"/>
                            <use xlink:href="#3" x="10.788" fill="#000000" fill-rule="nonzero"/>
                            <use xlink:href="#17" x="16.656" fill="#000000" fill-rule="nonzero"/>
                            <use xlink:href="#14" x="22.727999999999998" fill="#000000" fill-rule="nonzero"/>
                        </g>
                    </g>
                    <g transform="translate(120.784 12.895999999999999)">
                        <g class="typst-text" transform="scale(1, -1)">
                            <use xlink:href="#b" x="0" fill="#000000" fill-rule="nonzero"/>
                            <use xlink:href="#9" x="5.580000000000001" fill="#000000" fill-rule="nonzero"/>
                            <use xlink:href="#a" x="8.22" fill="#000000" fill-rule="nonzero"/>
                        </g>
                    </g>
                    <g transform="translate(155.95400000000004 12.895999999999999)">
                        <g class="typst-text" transform="scale(1, -1)">
                            <use xlink:href="#d" x="0" fill="#000000" fill-rule="nonzero"/>
                            <use xlink:href="#9" x="5.580000000000001" fill="#000000" fill-rule="nonzero"/>
                            <use xlink:href="#1b" x="8.22" fill="#000000" fill-rule="nonzero"/>
                            <use xlink:href="#a" x="13.8" fill="#000000" fill-rule="nonzero"/>
                        </g>
                    </g>
                    <g transform="translate(196.704 12.895999999999999)">
                        <g class="typst-text" transform="scale(1, -1)">
                            <use xlink:href="#b" x="0" fill="#000000" fill-rule="nonzero"/>
                            <use xlink:href="#9" x="5.580000000000001" fill="#000000" fill-rule="nonzero"/>
                            <use xlink:href="#1e" x="8.22" fill="#000000" fill-rule="nonzero"/>
                        </g>
                    </g>
                    <g transform="translate(234.664 12.895999999999999)">
                        <g class="typst-text" transform="scale(1, -1)">
                            <use xlink:href="#b" x="0" fill="#000000" fill-rule="nonzero"/>
                            <use xlink:href="#9" x="5.580000000000001" fill="#000000" fill-rule="nonzero"/>
                            <use xlink:href="#d" x="8.22" fill="#000000" fill-rule="nonzero"/>
                            <use xlink:href="#a" x="13.8" fill="#000000" fill-rule="nonzero"/>
                        </g>
                    </g>
                    <g transform="translate(278.20399999999995 12.895999999999999)">
                        <g class="typst-text" transform="scale(1, -1)">
                            <use xlink:href="#8" x="0" fill="#000000" fill-rule="nonzero"/>
                            <use xlink:href="#9" x="5.580000000000001" fill="#000000" fill-rule="nonzero"/>
                            <use xlink:href="#b" x="8.22" fill="#000000" fill-rule="nonzero"/>
                            <use xlink:href="#a" x="13.8" fill="#000000" fill-rule="nonzero"/>
                        </g>
                    </g>
                </g>
            </g>
        </g>
        <g transform="translate(3 127.95999999999998)">
            <g class="typst-group">
                <g>
                    <g transform="translate(72.08400000000002 12.74)">
                        <g class="typst-text" transform="scale(1, -1)">
                            <use xlink:href="#1f" x="0" fill="#000000" fill-rule="nonzero"/>
                            <use xlink:href="#e" x="6.048" fill="#000000" fill-rule="nonzero"/>
                        </g>
                    </g>
                    <g transform="translate(115.20400000000001 12.895999999999999)">
                        <g class="typst-text" transform="scale(1, -1)">
                            <use xlink:href="#8" x="0" fill="#000000" fill-rule="nonzero"/>
                            <use xlink:href="#9" x="5.580000000000001" fill="#000000" fill-rule="nonzero"/>
                            <use xlink:href="#1a" x="8.22" fill="#000000" fill-rule="nonzero"/>
                            <use xlink:href="#c" x="13.8" fill="#000000" fill-rule="nonzero"/>
                            <use xlink:href="#1a" x="19.380000000000003" fill="#000000" fill-rule="nonzero"/>
                        </g>
                    </g>
                    <g transform="translate(153.16400000000002 12.895999999999999)">
                        <g class="typst-text" transform="scale(1, -1)">
                            <use xlink:href="#8" x="0" fill="#000000" fill-rule="nonzero"/>
                            <use xlink:href="#9" x="5.580000000000001" fill="#000000" fill-rule="nonzero"/>
                            <use xlink:href="#1e" x="8.22" fill="#000000" fill-rule="nonzero"/>
                            <use xlink:href="#b" x="13.8" fill="#000000" fill-rule="nonzero"/>
                            <use xlink:href="#1e" x="19.380000000000003" fill="#000000" fill-rule="nonzero"/>
                        </g>
                    </g>
                    <g transform="translate(191.124 12.895999999999999)">
                        <g class="typst-text" transform="scale(1, -1)">
                            <use xlink:href="#8" x="0" fill="#000000" fill-rule="nonzero"/>
                            <use xlink:href="#9" x="5.580000000000001" fill="#000000" fill-rule="nonzero"/>
                            <use xlink:href="#b" x="8.22" fill="#000000" fill-rule="nonzero"/>
                            <use xlink:href="#1a" x="13.8" fill="#000000" fill-rule="nonzero"/>
                            <use xlink:href="#b" x="19.380000000000003" fill="#000000" fill-rule="nonzero"/>
                        </g>
                    </g>
                    <g transform="translate(231.874 12.895999999999999)">
                        <g class="typst-text" transform="scale(1, -1)">
                            <use xlink:href="#8" x="0" fill="#000000" fill-rule="nonzero"/>
                            <use xlink:href="#9" x="5.580000000000001" fill="#000000" fill-rule="nonzero"/>
                            <use xlink:href="#c" x="8.22" fill="#000000" fill-rule="nonzero"/>
                            <use xlink:href="#b" x="13.8" fill="#000000" fill-rule="nonzero"/>
                            <use xlink:href="#c" x="19.380000000000003" fill="#000000" fill-rule="nonzero"/>
                        </g>
                    </g>
                    <g transform="translate(272.624 12.895999999999999)">
                        <g class="typst-text" transform="scale(1, -1)">
                            <use xlink:href="#8" x="0" fill="#000000" fill-rule="nonzero"/>
                            <use xlink:href="#9" x="5.580000000000001" fill="#000000" fill-rule="nonzero"/>
                            <use xlink:href="#8" x="8.22" fill="#000000" fill-rule="nonzero"/>
                            <use xlink:href="#20" x="13.8" fill="#000000" fill-rule="nonzero"/>
                            <use xlink:href="#8" x="19.380000000000003" fill="#000000" fill-rule="nonzero"/>
                            <use xlink:href="#20" x="24.960000000000004" fill="#000000" fill-rule="nonzero"/>
                        </g>
                    </g>
                </g>
            </g>
        </g>
        <g transform="translate(3 145.856)">
            <g class="typst-group">
                <g>
                    <g transform="translate(72.08400000000002 12.895999999999999)">
                        <g class="typst-text" transform="scale(1, -1)">
                            <use xlink:href="#d" x="0" fill="#000000" fill-rule="nonzero"/>
                        </g>
                    </g>
                    <g transform="translate(120.784 12.895999999999999)">
                        <g class="typst-text" transform="scale(1, -1)">
                            <use xlink:href="#b" x="0" fill="#000000" fill-rule="nonzero"/>
                            <use xlink:href="#9" x="5.580000000000001" fill="#000000" fill-rule="nonzero"/>
                            <use xlink:href="#20" x="8.22" fill="#000000" fill-rule="nonzero"/>
                        </g>
                    </g>
                    <g transform="translate(158.744 12.895999999999999)">
                        <g class="typst-text" transform="scale(1, -1)">
                            <use xlink:href="#1a" x="0" fill="#000000" fill-rule="nonzero"/>
                            <use xlink:href="#9" x="5.580000000000001" fill="#000000" fill-rule="nonzero"/>
                            <use xlink:href="#c" x="8.22" fill="#000000" fill-rule="nonzero"/>
                        </g>
                    </g>
                    <g transform="translate(200.814 12.895999999999999)">
                        <g class="typst-text" transform="scale(1, -1)">
                            <use xlink:href="#b" x="0" fill="#000000" fill-rule="nonzero"/>
                        </g>
                    </g>
                    <g transform="translate(237.45399999999998 12.895999999999999)">
                        <g class="typst-text" transform="scale(1, -1)">
                            <use xlink:href="#8" x="0" fill="#000000" fill-rule="nonzero"/>
                            <use xlink:href="#9" x="5.580000000000001" fill="#000000" fill-rule="nonzero"/>
                            <use xlink:href="#1e" x="8.22" fill="#000000" fill-rule="nonzero"/>
                        </g>
                    </g>
                    <g transform="translate(280.99399999999997 12.895999999999999)">
                        <g class="typst-text" transform="scale(1, -1)">
                            <use xlink:href="#8" x="0" fill="#000000" fill-rule="nonzero"/>
                            <use xlink:href="#9" x="5.580000000000001" fill="#000000" fill-rule="nonzero"/>
                            <use xlink:href="#d" x="8.22" fill="#000000" fill-rule="nonzero"/>
                        </g>
                    </g>
                </g>
            </g>
        </g>
        <g transform="translate(8 158.752)">
            <g class="typst-text" transform="scale(1, -1)">
                <use xlink:href="#c" x="0" fill="#000000" fill-rule="nonzero"/>
                <use xlink:href="#8" x="5.580000000000001" fill="#000000" fill-rule="nonzero"/>
                <use xlink:href="#8" x="11.160000000000002" fill="#000000" fill-rule="nonzero"/>
            </g>
        </g>
        <g transform="translate(3 163.752)">
            <g class="typst-group">
                <g>
                    <g transform="translate(72.08400000000002 12.895999999999999)">
                        <g class="typst-text" transform="scale(1, -1)">
                            <use xlink:href="#1a" x="0" fill="#000000" fill-rule="nonzero"/>
                        </g>
                    </g>
                    <g transform="translate(120.784 12.895999999999999)">
                        <g class="typst-text" transform="scale(1, -1)">
                            <use xlink:href="#b" x="0" fill="#000000" fill-rule="nonzero"/>
                            <use xlink:href="#9" x="5.580000000000001" fill="#000000" fill-rule="nonzero"/>
                            <use xlink:href="#20" x="8.22" fill="#000000" fill-rule="nonzero"/>
                        </g>
                    </g>
                    <g transform="translate(158.744 12.895999999999999)">
                        <g class="typst-text" transform="scale(1, -1)">
                            <use xlink:href="#d" x="0" fill="#000000" fill-rule="nonzero"/>
                            <use xlink:href="#9" x="5.580000000000001" fill="#000000" fill-rule="nonzero"/>
                            <use xlink:href="#20" x="8.22" fill="#000000" fill-rule="nonzero"/>
                        </g>
                    </g>
                    <g transform="translate(196.704 12.895999999999999)">
                        <g class="typst-text" transform="scale(1, -1)">
                            <use xlink:href="#b" x="0" fill="#000000" fill-rule="nonzero"/>
                            <use xlink:href="#9" x="5.580000000000001" fill="#000000" fill-rule="nonzero"/>
                            <use xlink:href="#c" x="8.22" fill="#000000" fill-rule="nonzero"/>
                        </g>
                    </g>
                    <g transform="translate(241.56399999999996 12.895999999999999)">
                        <g class="typst-text" transform="scale(1, -1)">
                            <use xlink:href="#b" x="0" fill="#000000" fill-rule="nonzero"/>
                        </g>
                    </g>
                    <g transform="translate(280.99399999999997 12.895999999999999)">
                        <g class="typst-text" transform="scale(1, -1)">
                            <use xlink:href="#8" x="0" fill="#000000" fill-rule="nonzero"/>
                            <use xlink:href="#9" x="5.580000000000001" fill="#000000" fill-rule="nonzero"/>
                            <use xlink:href="#c" x="8.22" fill="#000000" fill-rule="nonzero"/>
                        </g>
                    </g>
                </g>
            </g>
        </g>
        <g transform="translate(3 181.64800000000002)">
            <g class="typst-group">
                <g>
                    <g transform="translate(72.08400000000002 12.74)">
                        <g class="typst-text" transform="scale(1, -1)">
                            <use xlink:href="#1c" x="0" fill="#000000" fill-rule="nonzero"/>
                        </g>
                    </g>
                    <g transform="translate(124.894 12.895999999999999)">
                        <g class="typst-text" transform="scale(1, -1)">
                            <use xlink:href="#c" x="0" fill="#000000" fill-rule="nonzero"/>
                        </g>
                    </g>
                    <g transform="translate(162.854 12.895999999999999)">
                        <g class="typst-text" transform="scale(1, -1)">
                            <use xlink:href="#c" x="0" fill="#000000" fill-rule="nonzero"/>
                        </g>
                    </g>
                    <g transform="translate(200.814 12.895999999999999)">
                        <g class="typst-text" transform="scale(1, -1)">
                            <use xlink:href="#c" x="0" fill="#000000" fill-rule="nonzero"/>
                        </g>
                    </g>
                    <g transform="translate(241.56399999999996 12.895999999999999)">
                        <g class="typst-text" transform="scale(1, -1)">
                            <use xlink:href="#c" x="0" fill="#000000" fill-rule="nonzero"/>
                        </g>
                    </g>
                    <g transform="translate(285.104 12.895999999999999)">
                        <g class="typst-text" transform="scale(1, -1)">
                            <use xlink:href="#c" x="0" fill="#000000" fill-rule="nonzero"/>
                        </g>
                    </g>
                </g>
            </g>
        </g>
        <g transform="translate(3 199.54400000000004)">
            <g class="typst-group">
                <g>
                    <g transform="translate(72.08400000000002 12.74)">
                        <g class="typst-text" transform="scale(1, -1)">
                            <use xlink:href="#1d" x="0" fill="#000000" fill-rule="nonzero"/>
                            <use xlink:href="#3" x="10.788" fill="#000000" fill-rule="nonzero"/>
                            <use xlink:href="#17" x="16.656" fill="#000000" fill-rule="nonzero"/>
                            <use xlink:href="#14" x="22.727999999999998" fill="#000000" fill-rule="nonzero"/>
                        </g>
                    </g>
                    <g transform="translate(120.784 12.895999999999999)">
                        <g class="typst-text" transform="scale(1, -1)">
                            <use xlink:href="#b" x="0" fill="#000000" fill-rule="nonzero"/>
                            <use xlink:href="#9" x="5.580000000000001" fill="#000000" fill-rule="nonzero"/>
                            <use xlink:href="#20" x="8.22" fill="#000000" fill-rule="nonzero"/>
                        </g>
                    </g>
                    <g transform="translate(155.95400000000004 12.895999999999999)">
                        <g class="typst-text" transform="scale(1, -1)">
                            <use xlink:href="#d" x="0" fill="#000000" fill-rule="nonzero"/>
                            <use xlink:href="#9" x="5.580000000000001" fill="#000000" fill-rule="nonzero"/>
                            <use xlink:href="#1e" x="8.22" fill="#000000" fill-rule="nonzero"/>
                            <use xlink:href="#a" x="13.8" fill="#000000" fill-rule="nonzero"/>
                        </g>
                    </g>
                    <g transform="translate(196.704 12.895999999999999)">
                        <g class="typst-text" transform="scale(1, -1)">
                            <use xlink:href="#b" x="0" fill="#000000" fill-rule="nonzero"/>
                            <use xlink:href="#9" x="5.580000000000001" fill="#000000" fill-rule="nonzero"/>
                            <use xlink:href="#b" x="8.22" fill="#000000" fill-rule="nonzero"/>
                        </g>
                    </g>
                    <g transform="translate(234.664 12.895999999999999)">
                        <g class="typst-text" transform="scale(1, -1)">
                            <use xlink:href="#8" x="0" fill="#000000" fill-rule="nonzero"/>
                            <use xlink:href="#9" x="5.580000000000001" fill="#000000" fill-rule="nonzero"/>
                            <use xlink:href="#1e" x="8.22" fill="#000000" fill-rule="nonzero"/>
                            <use xlink:href="#a" x="13.8" fill="#000000" fill-rule="nonzero"/>
                        </g>
                    </g>
                    <g transform="translate(278.20399999999995 12.895999999999999)">
                        <g class="typst-text" transform="scale(1, -1)">
                            <use xlink:href="#8" x="0" fill="#000000" fill-rule="nonzero"/>
                            <use xlink:href="#9" x="5.580000000000001" fill="#000000" fill-rule="nonzero"/>
                            <use xlink:href="#c" x="8.22" fill="#000000" fill-rule="nonzero"/>
                            <use xlink:href="#a" x="13.8" fill="#000000" fill-rule="nonzero"/>
                        </g>
                    </g>
                </g>
            </g>
        </g>
        <g transform="translate(3 217.44000000000003)">
            <g class="typst-group">
                <g>
                    <g transform="translate(72.08400000000002 12.74)">
                        <g class="typst-text" transform="scale(1, -1)">
                            <use xlink:href="#1f" x="0" fill="#000000" fill-rule="nonzero"/>
                            <use xlink:href="#e" x="6.048" fill="#000000" fill-rule="nonzero"/>
                        </g>
                    </g>
                    <g transform="translate(124.894 12.895999999999999)">
                        <g class="typst-text" transform="scale(1, -1)">
                            <use xlink:href="#8" x="0" fill="#000000" fill-rule="nonzero"/>
                        </g>
                    </g>
                    <g transform="translate(153.16400000000002 12.895999999999999)">
                        <g class="typst-text" transform="scale(1, -1)">
                            <use xlink:href="#8" x="0" fill="#000000" fill-rule="nonzero"/>
                            <use xlink:href="#9" x="5.580000000000001" fill="#000000" fill-rule="nonzero"/>
                            <use xlink:href="#d" x="8.22" fill="#000000" fill-rule="nonzero"/>
                            <use xlink:href="#a" x="13.8" fill="#000000" fill-rule="nonzero"/>
                            <use xlink:href="#1a" x="19.380000000000003" fill="#000000" fill-rule="nonzero"/>
                        </g>
                    </g>
                    <g transform="translate(191.124 12.895999999999999)">
                        <g class="typst-text" transform="scale(1, -1)">
                            <use xlink:href="#8" x="0" fill="#000000" fill-rule="nonzero"/>
                            <use xlink:href="#9" x="5.580000000000001" fill="#000000" fill-rule="nonzero"/>
                            <use xlink:href="#b" x="8.22" fill="#000000" fill-rule="nonzero"/>
                            <use xlink:href="#1a" x="13.8" fill="#000000" fill-rule="nonzero"/>
                            <use xlink:href="#b" x="19.380000000000003" fill="#000000" fill-rule="nonzero"/>
                        </g>
                    </g>
                    <g transform="translate(229.08399999999997 12.895999999999999)">
                        <g class="typst-text" transform="scale(1, -1)">
                            <use xlink:href="#8" x="0" fill="#000000" fill-rule="nonzero"/>
                            <use xlink:href="#9" x="5.580000000000001" fill="#000000" fill-rule="nonzero"/>
                            <use xlink:href="#8" x="8.22" fill="#000000" fill-rule="nonzero"/>
                            <use xlink:href="#20" x="13.8" fill="#000000" fill-rule="nonzero"/>
                            <use xlink:href="#8" x="19.380000000000003" fill="#000000" fill-rule="nonzero"/>
                            <use xlink:href="#20" x="24.960000000000004" fill="#000000" fill-rule="nonzero"/>
                        </g>
                    </g>
                    <g transform="translate(272.624 12.895999999999999)">
                        <g class="typst-text" transform="scale(1, -1)">
                            <use xlink:href="#8" x="0" fill="#000000" fill-rule="nonzero"/>
                            <use xlink:href="#9" x="5.580000000000001" fill="#000000" fill-rule="nonzero"/>
                            <use xlink:href="#8" x="8.22" fill="#000000" fill-rule="nonzero"/>
                            <use xlink:href="#20" x="13.8" fill="#000000" fill-rule="nonzero"/>
                            <use xlink:href="#8" x="19.380000000000003" fill="#000000" fill-rule="nonzero"/>
                            <use xlink:href="#20" x="24.960000000000004" fill="#000000" fill-rule="nonzero"/>
                        </g>
                    </g>
                </g>
            </g>
        </g>
    </g>
    <defs id="21">
        <symbol id="0" overflow="visible">
            <path d="M 4.86 1.4760001 L 4.86 6.0360003 C 4.86 6.804 4.98 7.248 5.412 7.248 L 5.676 7.248 C 6.576 7.248 7.08 6.948 7.284 6.024 C 7.416 6.024 7.644 6.0360003 7.752 6.084 C 7.668 6.636 7.6080003 7.26 7.596 7.8 C 7.596 7.8120003 7.572 7.836 7.56 7.836 C 7.152 7.8 5.82 7.7400002 4.872 7.7400002 L 3.18 7.7400002 C 2.256 7.7400002 0.84000003 7.8 0.384 7.836 C 0.36 7.836 0.336 7.8120003 0.336 7.8 C 0.288 7.26 0.168 6.624 0.036 6.048 C 0.156 6 0.36 5.988 0.504 5.988 C 0.744 6.948 1.2360001 7.248 2.028 7.248 L 2.616 7.248 C 3.06 7.248 3.18 6.804 3.18 6.072 L 3.18 1.4760001 C 3.18 0.48000002 2.976 0.42000002 2.016 0.384 C 1.944 0.312 1.944 0.048 2.016 -0.024 C 2.604 -0.012 3.228 0 3.996 0 C 4.788 0 5.4240003 -0.012 6.024 -0.024 C 6.096 0.048 6.096 0.312 6.024 0.384 C 5.064 0.42000002 4.86 0.48000002 4.86 1.4760001 Z "/>
        </symbol>
        <symbol id="1" overflow="visible">
            <path d="M 2.784 1.464 L 2.784 3.852 C 2.784 4.452 2.832 5.124 2.832 5.124 C 2.832 5.256 2.724 5.328 2.556 5.328 C 2.22 5.196 1.248 5.1 0.42000002 4.992 C 0.396 4.92 0.42000002 4.68 0.444 4.608 C 1.104 4.548 1.224 4.452 1.224 3.7680001 L 1.224 1.464 C 1.224 0.468 1.092 0.444 0.36 0.384 C 0.288 0.312 0.288 0.048 0.36 -0.024 C 0.864 -0.012 1.368 0 2.004 0 C 2.64 0 3.132 -0.012 3.648 -0.024 C 3.72 0.048 3.72 0.312 3.648 0.384 C 2.9160001 0.432 2.784 0.468 2.784 1.464 Z M 1.164 7.152 C 1.164 6.756 1.452 6.36 1.932 6.36 C 2.4720001 6.36 2.784 6.7920003 2.784 7.104 C 2.784 7.464 2.5080001 7.896 2.004 7.896 C 1.44 7.896 1.164 7.512 1.164 7.152 Z "/>
        </symbol>
        <symbol id="2" overflow="visible">
            <path d="M 2.736 1.464 L 2.736 3.852 C 2.736 3.912 2.736 3.9720001 2.736 4.032 C 3.204 4.32 3.624 4.44 3.828 4.44 C 4.308 4.44 4.668 4.224 4.668 3.54 L 4.668 1.536 C 4.668 0.528 4.476 0.42000002 3.984 0.384 C 3.912 0.312 3.912 0.048 3.984 -0.024 C 4.488 -0.012 4.872 0 5.448 0 C 6.024 0 6.396 -0.012 6.912 -0.024 C 6.984 0.048 6.984 0.312 6.912 0.384 C 6.432 0.42000002 6.228 0.528 6.228 1.536 L 6.228 3.408 C 6.228 3.708 6.216 3.948 6.18 4.068 C 6.636 4.296 7.152 4.44 7.344 4.44 C 7.824 4.44 8.16 4.224 8.16 3.54 L 8.16 1.536 C 8.16 0.528 7.968 0.42000002 7.476 0.384 C 7.4040003 0.312 7.4040003 0.048 7.476 -0.024 C 7.98 -0.012 8.364 0 8.940001 0 C 9.6 0 10.128 -0.012 10.644 -0.024 C 10.716001 0.048 10.716001 0.312 10.644 0.384 C 9.912 0.42000002 9.72 0.528 9.72 1.536 L 9.72 3.408 C 9.72 4.728 9.24 5.328 8.208 5.328 C 7.764 5.328 6.756 4.848 6.06 4.464 C 5.88 4.98 5.4 5.328 4.692 5.328 C 4.26 5.328 3.3960001 4.872 2.7120001 4.488 C 2.676 4.848 2.64 5.124 2.64 5.124 C 2.628 5.268 2.532 5.328 2.364 5.328 C 1.9200001 5.208 1.2 5.04 0.372 4.932 C 0.348 4.86 0.372 4.62 0.396 4.548 C 1.056 4.488 1.176 4.392 1.176 3.708 L 1.176 1.464 C 1.176 0.468 1.044 0.444 0.312 0.384 C 0.24000001 0.312 0.24000001 0.048 0.312 -0.024 C 0.816 -0.012 1.32 0 1.956 0 C 2.5080001 0 2.844 -0.012 3.3600001 -0.024 C 3.432 0.048 3.432 0.312 3.3600001 0.384 C 2.856 0.432 2.736 0.468 2.736 1.464 Z "/>
        </symbol>
        <symbol id="3" overflow="visible">
            <path d="M 5.172 1.548 C 4.68 1.044 4.032 0.912 3.576 0.912 C 2.64 0.912 2.0640001 1.452 2.0640001 2.628 C 2.0640001 2.7120001 2.076 2.76 2.076 2.82 L 4.956 2.82 C 5.244 2.82 5.304 3.024 5.304 3.192 C 5.304 4.212 4.908 5.328 3.144 5.328 C 1.8840001 5.328 0.444 4.212 0.444 2.376 C 0.444 1.6800001 0.696 0.948 1.212 0.48000002 C 1.668 0.072 2.256 -0.120000005 3.108 -0.120000005 C 3.936 -0.120000005 4.752 0.3 5.352 1.176 C 5.352 1.332 5.292 1.548 5.172 1.548 Z M 2.124 3.3 C 2.136 3.72 2.196 4.176 2.364 4.416 C 2.556 4.704 2.88 4.824 3.012 4.824 C 3.336 4.824 3.78 4.512 3.78 3.552 C 3.78 3.48 3.78 3.3240001 3.756 3.3 Z "/>
        </symbol>
        <symbol id="4" overflow="visible">
            <path d="M 0.432 3.036 C 0.432 2.496 0.492 -0.204 3.216 -2.556 L 3.576 -2.172 C 3.192 -1.74 1.812 -0.132 1.812 3.036 C 1.812 6.204 3.216 7.8120003 3.576 8.232 L 3.24 8.64 C 1.668 7.284 0.432 5.2200003 0.432 3.036 Z "/>
        </symbol>
        <symbol id="5" overflow="visible">
            <path d="M 6.336 1.536 L 6.336 3.408 C 6.336 4.728 5.772 5.328 4.7400002 5.328 C 4.296 5.328 3.444 4.884 2.76 4.464 L 2.76 6.9960003 C 2.76 7.776 2.796 8.22 2.796 8.22 C 2.796 8.328 2.7120001 8.376 2.604 8.376 C 2.16 8.232 1.2 8.1 0.348 8.064 C 0.312 7.92 0.324 7.788 0.384 7.6800003 C 1.14 7.62 1.2 7.6080003 1.2 6.78 L 1.2 1.524 C 1.2 0.528 1.008 0.42000002 0.276 0.384 C 0.204 0.312 0.204 0.048 0.276 -0.024 C 0.78000003 -0.012 1.32 0 1.98 0 C 2.556 0 2.928 -0.012 3.444 -0.024 C 3.516 0.048 3.516 0.312 3.444 0.384 C 2.94 0.42000002 2.76 0.528 2.76 1.524 L 2.76 3.984 C 3.264 4.296 3.66 4.44 3.876 4.44 C 4.356 4.44 4.776 4.224 4.776 3.54 L 4.776 1.536 C 4.776 0.528 4.584 0.42000002 4.092 0.384 C 4.02 0.312 4.02 0.048 4.092 -0.024 C 4.596 -0.012 4.98 0 5.556 0 C 6.216 0 6.744 -0.012 7.26 -0.024 C 7.3320003 0.048 7.3320003 0.312 7.26 0.384 C 6.528 0.42000002 6.336 0.528 6.336 1.536 Z "/>
        </symbol>
        <symbol id="6" overflow="visible">
            <path d="M 2.736 3.216 C 2.736 3.648 2.868 3.828 3.024 4.008 C 3.1200001 4.1280003 3.228 4.212 3.408 4.212 C 3.516 4.212 3.648 4.104 3.744 3.984 C 3.828 3.888 4.032 3.792 4.308 3.792 C 4.656 3.792 4.992 4.152 4.992 4.656 C 4.992 4.968 4.632 5.328 4.2 5.328 C 3.78 5.328 3.3240001 4.968 2.772 4.176 L 2.724 4.176 C 2.7 4.5360003 2.64 5.124 2.64 5.124 C 2.628 5.232 2.532 5.328 2.364 5.328 C 1.8000001 5.184 1.164 5.0160003 0.372 4.932 C 0.348 4.86 0.372 4.632 0.396 4.56 C 1.056 4.5 1.176 4.392 1.176 3.708 L 1.176 1.464 C 1.176 0.468 1.044 0.444 0.312 0.384 C 0.24000001 0.312 0.24000001 0.048 0.312 -0.024 C 0.816 -0.012 1.32 0 1.956 0 C 2.592 0 3.084 -0.012 3.6000001 -0.024 C 3.672 0.048 3.672 0.312 3.6000001 0.384 C 2.868 0.432 2.736 0.468 2.736 1.464 Z "/>
        </symbol>
        <symbol id="7" overflow="visible">
            <path d="M 3.348 3.012 C 3.348 3.552 3.288 6.252 0.564 8.604 L 0.204 8.22 C 0.588 7.788 1.968 6.18 1.968 3.012 C 1.968 -0.156 0.564 -1.764 0.204 -2.184 L 0.54 -2.592 C 2.112 -1.2360001 3.348 0.828 3.348 3.012 Z "/>
        </symbol>
        <symbol id="8" overflow="visible">
            <path d="M 2.736 -0.120000005 C 3.66 -0.120000005 5.064 0.816 5.064 3.636 C 5.064 4.824 4.776 5.844 4.248 6.54 C 3.936 6.96 3.432 7.32 2.784 7.32 C 1.596 7.32 0.468 5.9040003 0.468 3.528 C 0.468 2.244 0.864 1.044 1.524 0.384 C 1.86 0.048 2.2680001 -0.120000005 2.736 -0.120000005 Z M 2.784 6.9 C 2.988 6.9 3.18 6.828 3.3240001 6.696 C 3.696 6.384 4.02 5.472 4.02 3.864 C 4.02 2.76 3.984 2.004 3.816 1.392 C 3.552 0.408 2.964 0.3 2.748 0.3 C 1.632 0.3 1.512 2.352 1.512 3.3960001 C 1.512 6.348 2.244 6.9 2.784 6.9 Z "/>
        </symbol>
        <symbol id="9" overflow="visible">
            <path d="M 0.684 0.51600003 C 0.684 0.168 0.972 -0.120000005 1.32 -0.120000005 C 1.668 -0.120000005 1.956 0.168 1.956 0.51600003 C 1.956 0.864 1.668 1.152 1.32 1.152 C 0.972 1.152 0.684 0.864 0.684 0.51600003 Z "/>
        </symbol>
        <symbol id="a" overflow="visible">
            <path d="M 3.828 2.2680001 C 3.828 1.128 3.228 0.288 2.5080001 0.288 C 2.052 0.288 1.896 0.588 1.716 0.828 C 1.5600001 1.0320001 1.3560001 1.212 1.104 1.212 C 0.876 1.212 0.648 1.008 0.648 0.768 C 0.648 0.276 1.668 -0.132 2.352 -0.132 C 3.8400002 -0.132 4.896 0.972 4.896 2.484 C 4.896 3.648 4.092 4.692 2.748 4.692 C 2.232 4.692 1.788 4.584 1.572 4.5 L 1.812 6.504 C 2.256 6.456 2.64 6.396 3.216 6.396 C 3.576 6.396 3.984 6.42 4.476 6.468 L 4.668 7.284 L 4.584 7.3320003 C 3.9 7.26 3.252 7.2000003 2.616 7.2000003 C 2.172 7.2000003 1.74 7.224 1.32 7.26 L 0.912 3.8040001 C 1.548 4.044 2.004 4.092 2.436 4.092 C 3.216 4.092 3.828 3.576 3.828 2.2680001 Z "/>
        </symbol>
        <symbol id="b" overflow="visible">
            <path d="M 3.456 1.464 L 3.456 5.6280003 C 3.456 6.348 3.468 7.08 3.492 7.236 C 3.492 7.296 3.468 7.296 3.42 7.296 C 2.76 6.888 2.124 6.588 1.068 6.096 C 1.092 5.964 1.14 5.844 1.248 5.772 C 1.8000001 6 2.0640001 6.072 2.292 6.072 C 2.496 6.072 2.532 5.784 2.532 5.376 L 2.532 1.464 C 2.532 0.468 2.208 0.408 1.368 0.372 C 1.296 0.3 1.296 0.048 1.368 -0.024 C 1.956 -0.012 2.388 0 3.036 0 C 3.612 0 3.9 -0.012 4.5 -0.024 C 4.572 0.048 4.572 0.3 4.5 0.372 C 3.66 0.408 3.456 0.468 3.456 1.464 Z "/>
        </symbol>
        <symbol id="c" overflow="visible">
            <path d="M 0.732 5.616 C 0.732 5.364 0.96000004 5.1480002 1.212 5.1480002 C 1.416 5.1480002 1.776 5.364 1.776 5.6280003 C 1.776 5.724 1.752 5.796 1.728 5.88 C 1.704 5.964 1.632 6.072 1.632 6.168 C 1.632 6.468 1.944 6.9 2.82 6.9 C 3.252 6.9 3.864 6.6 3.864 5.448 C 3.864 4.68 3.588 4.056 2.88 3.336 L 1.992 2.46 C 0.816 1.26 0.624 0.684 0.624 -0.024 C 0.624 -0.024 1.2360001 0 1.62 0 L 3.72 0 C 4.104 0 4.656 -0.024 4.656 -0.024 C 4.8120003 0.612 4.932 1.512 4.9440002 1.872 C 4.872 1.932 4.716 1.956 4.596 1.932 C 4.392 1.08 4.188 0.78000003 3.756 0.78000003 L 1.62 0.78000003 C 1.62 1.3560001 2.448 2.172 2.5080001 2.232 L 3.72 3.3960001 C 4.404 4.056 4.92 4.584 4.92 5.496 C 4.92 6.7920003 3.864 7.32 2.892 7.32 C 1.5600001 7.32 0.732 6.336 0.732 5.616 Z "/>
        </symbol>
        <symbol id="d" overflow="visible">
            <path d="M 2.58 6.9 C 3.096 6.9 3.576 6.588 3.576 5.82 C 3.576 5.2200003 2.88 4.296 1.692 4.1280003 L 1.752 3.744 C 1.956 3.7680001 2.172 3.7680001 2.328 3.7680001 C 3.012 3.7680001 3.9 3.576 3.9 2.22 C 3.9 0.624 2.832 0.3 2.412 0.3 C 1.8000001 0.3 1.692 0.576 1.548 0.792 C 1.428 0.96000004 1.272 1.104 1.0320001 1.104 C 0.78000003 1.104 0.528 0.876 0.528 0.684 C 0.528 0.204 1.536 -0.120000005 2.256 -0.120000005 C 3.684 -0.120000005 4.956 0.804 4.956 2.388 C 4.956 3.696 3.9720001 4.164 3.264 4.284 L 3.252 4.308 C 4.236 4.776 4.512 5.268 4.512 5.9040003 C 4.512 6.264 4.428 6.552 4.14 6.852 C 3.876 7.116 3.456 7.32 2.832 7.32 C 1.068 7.32 0.564 6.168 0.564 5.772 C 0.564 5.604 0.684 5.364 0.972 5.364 C 1.392 5.364 1.44 5.76 1.44 5.988 C 1.44 6.756 2.2680001 6.9 2.58 6.9 Z "/>
        </symbol>
        <symbol id="e" overflow="visible">
            <path d="M 2.22 0 C 2.7 0 3.684 -0.024 4.164 -0.024 C 5.2200003 -0.024 6.408 0.24000001 7.26 0.984 C 7.836 1.488 8.232 2.484 8.232 3.708 C 8.232 5.928 6.7920003 7.752 3.8400002 7.752 C 3.204 7.752 2.7 7.7400002 2.22 7.7400002 C 1.74 7.7400002 0.372 7.764 0.372 7.764 C 0.252 7.692 0.252 7.428 0.372 7.356 C 1.0320001 7.32 1.368 7.272 1.368 6.276 L 1.368 1.464 C 1.368 0.468 1.0320001 0.42000002 0.372 0.384 C 0.252 0.312 0.252 0.048 0.372 -0.024 C 0.372 -0.024 1.74 0 2.22 0 Z M 3.048 1.428 L 3.048 6.348 C 3.048 7.008 3.3600001 7.248 3.792 7.248 C 6.156 7.248 6.42 5.2200003 6.42 3.408 C 6.42 1.224 5.112 0.48000002 4.2 0.48000002 C 3.3600001 0.48000002 3.048 0.624 3.048 1.428 Z "/>
        </symbol>
        <symbol id="f" overflow="visible">
            <path d="M 0.444 2.484 C 0.444 0.912 1.692 -0.120000005 3.3 -0.120000005 C 4.152 -0.120000005 4.86 0.120000005 5.352 0.564 C 5.964 1.104 6.168 1.9200001 6.168 2.592 C 6.168 4.164 5.1 5.328 3.312 5.328 C 2.316 5.328 1.572 4.98 1.104 4.44 C 0.648 3.912 0.444 3.192 0.444 2.484 Z M 3.1200001 4.824 C 3.936 4.824 4.488 3.852 4.488 2.208 C 4.488 0.768 3.924 0.384 3.492 0.384 C 2.5080001 0.384 2.124 1.86 2.124 2.748 C 2.124 3.852 2.316 4.824 3.1200001 4.824 Z "/>
        </symbol>
        <symbol id="10" overflow="visible">
            <path d="M 0.576 1.752 C 0.624 1.164 0.684 0.6 0.78000003 0.144 C 1.008 0.072 1.776 -0.120000005 2.448 -0.120000005 C 3.372 -0.120000005 4.524 0.384 4.524 1.428 C 4.524 1.836 4.428 2.16 4.152 2.46 C 3.816 2.844 3.312 3.144 2.76 3.384 C 2.28 3.588 2.112 3.9720001 2.112 4.32 C 2.112 4.596 2.34 4.824 2.688 4.824 C 3.108 4.824 3.516 4.44 3.816 3.708 C 4.032 3.672 4.164 3.684 4.284 3.7680001 C 4.284 4.2 4.236 4.656 4.1280003 5.04 C 3.744 5.208 3.444 5.328 2.784 5.328 C 2.148 5.328 1.548 5.088 1.164 4.704 C 0.888 4.428 0.756 4.092 0.756 3.7680001 C 0.756 3.408 0.90000004 3.1200001 1.128 2.868 C 1.5 2.46 2.16 2.04 2.52 1.872 C 3 1.656 3.132 1.224 3.132 0.936 C 3.132 0.552 2.748 0.348 2.424 0.348 C 1.8840001 0.348 1.308 0.90000004 1.056 1.776 C 0.864 1.812 0.768 1.8000001 0.576 1.752 Z "/>
        </symbol>
        <symbol id="11" overflow="visible">
            <path d="M 5.604 4.728 C 5.94 4.728 6.132 4.872 6.132 5.316 C 6.132 5.544 5.82 5.892 5.364 5.892 C 4.836 5.892 4.14 5.496 3.792 5.184 C 3.576 5.304 3.3240001 5.328 2.784 5.328 C 2.2680001 5.328 1.764 5.208 1.368 4.9440002 C 0.876 4.632 0.552 4.164 0.552 3.552 C 0.552 2.964 0.90000004 2.328 1.4760001 2.016 C 1.104 1.692 0.528 1.056 0.528 0.816 C 0.528 0.588 0.564 0.444 0.684 0.264 C 0.792 0.096 0.936 0 1.176 -0.072 C 0.66 -0.384 0.132 -1.068 0.132 -1.272 C 0.132 -1.716 0.276 -2.232 0.6 -2.46 C 1.068 -2.784 1.86 -2.856 2.436 -2.856 C 4.104 -2.856 6.012 -1.98 6.012 -0.66 C 6.012 -0.408 5.892 0.108 5.412 0.432 C 4.9440002 0.744 3.144 0.828 2.256 0.828 C 2.04 0.828 1.716 0.852 1.716 1.332 C 1.716 1.524 1.836 1.692 1.896 1.836 C 2.148 1.716 2.4 1.704 2.772 1.704 C 3.384 1.704 3.948 1.86 4.356 2.22 C 4.704 2.532 4.9440002 2.9520001 4.9440002 3.492 C 4.9440002 4.164 4.608 4.608 4.2 4.9440002 C 4.296 5.064 4.692 5.28 4.8120003 5.28 C 4.92 5.28 5.004 5.208 5.04 5.136 C 5.088 4.98 5.304 4.728 5.604 4.728 Z M 2.1 -0.3 C 3.024 -0.3 4.8 -0.336 4.8 -0.972 C 4.8 -1.404 4.608 -1.896 4.212 -2.112 C 3.8400002 -2.328 3.228 -2.352 2.772 -2.352 C 1.98 -2.352 1.44 -1.764 1.44 -1.152 C 1.44 -0.744 1.44 -0.468 1.572 -0.228 C 1.692 -0.276 1.848 -0.3 2.1 -0.3 Z M 3.48 3.456 C 3.48 2.304 3.144 2.16 2.832 2.16 C 2.088 2.16 1.992 3.048 1.992 3.66 C 1.992 4.548 2.208 4.872 2.676 4.872 C 3.24 4.872 3.48 4.404 3.48 3.456 Z "/>
        </symbol>
        <symbol id="12" overflow="visible">
            <path d="M 1.368 6.276 L 1.368 1.464 C 1.368 0.468 1.0320001 0.42000002 0.372 0.384 C 0.252 0.312 0.252 0.048 0.372 -0.024 C 0.852 -0.012 1.74 0 2.22 0 C 2.7 0 3.5640001 -0.012 4.044 -0.024 C 4.164 0.048 4.164 0.312 4.044 0.384 C 3.384 0.42000002 3.048 0.468 3.048 1.464 L 3.048 6.276 C 3.048 7.272 3.384 7.32 4.044 7.356 C 4.164 7.428 4.164 7.692 4.044 7.764 C 3.5640001 7.752 2.7 7.7400002 2.22 7.7400002 C 1.74 7.7400002 0.852 7.752 0.372 7.764 C 0.252 7.692 0.252 7.428 0.372 7.356 C 1.0320001 7.32 1.368 7.272 1.368 6.276 Z "/>
        </symbol>
        <symbol id="13" overflow="visible">
            <path d="M 4.764 -0.120000005 C 5.928 -0.120000005 6.9960003 0.432 7.8120003 1.5 C 7.752 1.608 7.548 1.752 7.416 1.752 C 6.564 0.816 5.592 0.504 4.752 0.504 C 3.3600001 0.504 2.256 2.136 2.256 4.008 C 2.256 5.868 3.216 7.4040003 4.644 7.4040003 C 6.3 7.4040003 6.84 6.468 7.152 5.436 C 7.296 5.388 7.5360003 5.4240003 7.668 5.496 C 7.6080003 6.12 7.512 6.696 7.4040003 7.356 C 6.7920003 7.416 6.252 7.896 4.776 7.896 C 2.424 7.896 0.444 6.42 0.444 3.78 C 0.444 2.652 0.936 1.332 1.896 0.636 C 2.664 0.084 3.6000001 -0.120000005 4.764 -0.120000005 Z "/>
        </symbol>
        <symbol id="14" overflow="visible">
            <path d="M 2.736 1.464 L 2.736 3.876 C 3.216 4.2 3.696 4.44 3.912 4.44 C 4.392 4.44 4.752 4.224 4.752 3.54 L 4.752 1.536 C 4.752 0.528 4.56 0.42000002 4.068 0.384 C 3.996 0.312 3.996 0.048 4.068 -0.024 C 4.572 -0.012 4.956 0 5.532 0 C 6.192 0 6.7200003 -0.012 7.236 -0.024 C 7.308 0.048 7.308 0.312 7.236 0.384 C 6.504 0.42000002 6.3120003 0.528 6.3120003 1.536 L 6.3120003 3.408 C 6.3120003 4.728 5.748 5.328 4.716 5.328 C 4.236 5.328 3.384 4.8 2.724 4.344 C 2.688 4.764 2.64 5.124 2.64 5.124 C 2.628 5.268 2.532 5.328 2.364 5.328 C 1.9200001 5.208 1.2 5.04 0.372 4.932 C 0.348 4.86 0.372 4.62 0.396 4.548 C 1.056 4.488 1.176 4.392 1.176 3.708 L 1.176 1.464 C 1.176 0.468 1.044 0.444 0.312 0.384 C 0.24000001 0.312 0.24000001 0.048 0.312 -0.024 C 0.816 -0.012 1.32 0 1.956 0 C 2.5080001 0 2.844 -0.012 3.3600001 -0.024 C 3.432 0.048 3.432 0.312 3.3600001 0.384 C 2.856 0.432 2.736 0.468 2.736 1.464 Z "/>
        </symbol>
        <symbol id="15" overflow="visible">
            <path d="M 5.064 1.044 C 5.064 1.188 5.04 1.416 4.908 1.416 C 4.428 0.972 4.02 0.744 3.672 0.744 C 2.772 0.744 2.0640001 1.392 2.0640001 2.832 C 2.0640001 4.164 2.364 4.824 3 4.824 C 3.444 4.824 3.624 4.356 3.66 3.9720001 C 3.696 3.648 4.02 3.408 4.404 3.408 C 4.788 3.408 5.064 3.708 5.064 4.08 C 5.064 4.62 4.416 5.328 3.108 5.328 C 1.692 5.328 0.444 4.188 0.444 2.412 C 0.444 1.632 0.72 0.948 1.188 0.504 C 1.656 0.060000002 2.208 -0.120000005 3.06 -0.120000005 C 3.78 -0.120000005 4.608 0.384 5.064 1.044 Z "/>
        </symbol>
        <symbol id="16" overflow="visible">
            <path d="M 0.756 5.208 C 0.588 5.208 0.408 5.16 0.252 5.028 L 0.252 4.68 C 0.252 4.62 0.264 4.608 0.312 4.608 L 1.092 4.608 C 1.068 3.3960001 1.056 1.86 1.056 1.26 C 1.056 0.84000003 1.164 0.432 1.416 0.216 C 1.692 -0.012 2.124 -0.120000005 2.412 -0.120000005 C 3.072 -0.120000005 3.8040001 0.216 4.044 0.552 C 4.044 0.696 3.9720001 0.768 3.828 0.888 C 3.672 0.768 3.372 0.72 3.144 0.72 C 2.88 0.72 2.616 0.924 2.616 1.524 C 2.616 2.124 2.604 3.408 2.604 4.608 L 3.816 4.608 C 3.936 4.608 4.104 4.656 4.104 4.764 L 4.104 5.136 C 4.104 5.184 4.068 5.208 4.008 5.208 L 2.604 5.208 L 2.616 5.616 C 2.64 6.42 2.676 6.972 2.676 6.972 C 2.676 7.044 2.64 7.08 2.58 7.08 C 2.496 7.08 2.052 6.948 1.86 6.864 C 1.656 6.78 1.308 6.708 1.224 6.6 C 1.14 6.492 1.092 6.168 1.092 5.208 Z "/>
        </symbol>
        <symbol id="17" overflow="visible">
            <path d="M 3.54 0.588 C 3.624 0.096 3.948 -0.120000005 4.476 -0.120000005 C 5.136 -0.120000005 5.604 0.132 6.048 0.552 C 6.024 0.696 5.976 0.792 5.8320003 0.888 C 5.676 0.768 5.556 0.72 5.328 0.72 C 5.064 0.72 4.992 0.936 4.992 1.524 L 5.0160003 3.252 C 5.0160003 4.98 3.948 5.328 2.964 5.328 C 2.088 5.328 0.744 4.824 0.744 4.032 C 0.744 3.696 0.888 3.432 1.3560001 3.432 C 1.788 3.432 2.1 3.696 2.1 3.984 C 2.1 4.044 2.088 4.116 2.076 4.188 C 2.052 4.308 2.028 4.428 2.052 4.548 C 2.0640001 4.68 2.16 4.824 2.556 4.824 C 3.06 4.824 3.48 4.608 3.48 3.084 L 2.676 2.832 C 1.416 2.436 0.528 2.088 0.528 1.14 C 0.528 0.312 0.984 -0.120000005 2.028 -0.120000005 C 2.376 -0.120000005 3.072 0.264 3.468 0.576 Z M 3.48 2.616 L 3.48 1.0320001 C 3.18 0.792 2.88 0.6 2.664 0.6 C 2.148 0.6 1.968 0.948 1.968 1.32 C 1.968 1.764 2.004 2.136 2.856 2.412 Z "/>
        </symbol>
        <symbol id="18" overflow="visible">
            <path d="M 3.624 8.184 L 2.868 8.184 L 0.024 -0.252 L 0.78000003 -0.252 Z "/>
        </symbol>
        <symbol id="19" overflow="visible">
            <path d="M 4.188 0.504 L 3.468 0.504 C 3.216 0.504 3.048 0.732 3.048 1.452 L 3.048 6.276 C 3.048 7.272 3.384 7.32 4.044 7.356 C 4.164 7.428 4.164 7.692 4.044 7.764 C 3.06 7.752 2.7 7.7400002 2.22 7.7400002 C 1.74 7.7400002 0.372 7.764 0.372 7.764 C 0.252 7.692 0.252 7.428 0.372 7.356 C 1.0320001 7.32 1.368 7.272 1.368 6.276 L 1.368 1.464 C 1.368 0.468 1.0320001 0.42000002 0.372 0.384 C 0.252 0.312 0.252 0.048 0.372 -0.024 C 0.372 -0.024 1.752 0 2.22 0 L 4.896 0 C 5.244 0 6.336 -0.024 6.336 -0.024 C 6.456 0.576 6.576 1.3560001 6.6480002 1.98 C 6.528 2.04 6.276 2.0640001 6.132 2.04 C 5.892 1.176 5.448 0.504 4.188 0.504 Z "/>
        </symbol>
        <symbol id="1a" overflow="visible">
            <path d="M 5.16 2.628 L 4.164 2.628 L 4.164 6.132 C 4.164 6.732 4.164 7.2000003 4.188 7.296 L 4.164 7.32 L 3.78 7.32 C 3.696 7.32 3.636 7.248 3.588 7.188 C 2.832 6.264 1.44 4.284 0.336 2.568 C 0.372 2.388 0.444 2.0640001 0.804 2.0640001 L 3.252 2.0640001 L 3.252 0.96000004 C 3.252 0.408 2.796 0.408 2.28 0.372 C 2.208 0.3 2.208 0.048 2.28 -0.024 C 2.664 -0.012 3.144 0 3.696 0 C 4.164 0 4.62 -0.012 5.004 -0.024 C 5.076 0.048 5.076 0.3 5.004 0.372 C 4.416 0.42000002 4.164 0.396 4.164 0.96000004 L 4.164 2.0640001 L 4.992 2.0640001 C 5.16 2.0640001 5.34 2.292 5.34 2.436 C 5.34 2.556 5.292 2.628 5.16 2.628 Z M 3.252 6.084 L 3.252 2.628 L 0.96000004 2.628 C 1.572 3.612 2.424 4.956 3.252 6.084 Z "/>
        </symbol>
        <symbol id="1b" overflow="visible">
            <path d="M 4.716 5.82 C 4.716 6.684 4.044 7.32 2.868 7.32 C 1.644 7.32 0.852 6.588 0.852 5.664 C 0.852 4.992 1.176 4.5 1.908 4.044 L 2.22 3.852 C 1.872 3.672 1.548 3.456 1.248 3.192 C 0.756 2.76 0.552 2.22 0.552 1.752 C 0.552 0.528 1.416 -0.120000005 2.688 -0.120000005 C 4.26 -0.120000005 5.028 1.0320001 5.028 1.944 C 5.028 2.64 4.728 3.252 4.092 3.636 L 3.24 4.152 C 3.8040001 4.428 4.716 5.052 4.716 5.82 Z M 2.7120001 0.3 C 2.172 0.3 1.3560001 0.672 1.3560001 1.752 C 1.3560001 2.112 1.512 2.9520001 2.544 3.636 L 3.108 3.3 C 3.852 2.844 4.152 2.28 4.152 1.704 C 4.152 0.504 3.252 0.3 2.7120001 0.3 Z M 2.808 6.9 C 3.588 6.9 3.876 6.384 3.876 5.8320003 C 3.876 5.184 3.24 4.644 2.9160001 4.404 L 2.544 4.632 C 1.788 5.124 1.704 5.52 1.704 5.892 C 1.704 6.4440002 2.088 6.9 2.808 6.9 Z "/>
        </symbol>
        <symbol id="1c" overflow="visible">
            <path d="M 7.572 0 C 7.572 0 7.512 0.852 7.512 1.224 L 7.512 6.144 C 7.512 7.212 7.716 7.272 8.556 7.356 C 8.628 7.428 8.628 7.692 8.556 7.764 C 7.968 7.752 7.764 7.7400002 7.26 7.7400002 C 6.7200003 7.7400002 6.468 7.752 5.868 7.764 C 5.796 7.692 5.796 7.428 5.868 7.356 C 6.708 7.272 6.912 7.236 6.912 6.144 L 6.912 2.772 C 6.912 2.4720001 6.756 2.532 6.588 2.736 L 3.408 6.48 L 2.34 7.7400002 L 0.384 7.764 C 0.312 7.692 0.312 7.428 0.384 7.356 C 0.90000004 7.32 1.26 6.912 1.332 6.6 L 1.332 1.596 C 1.332 0.528 1.128 0.468 0.288 0.384 C 0.216 0.312 0.216 0.048 0.288 -0.024 C 0.876 -0.012 1.104 0 1.632 0 C 2.16 0 2.376 -0.012 2.976 -0.024 C 3.048 0.048 3.048 0.312 2.976 0.384 C 2.136 0.468 1.932 0.504 1.932 1.596 L 1.932 5.16 C 1.932 5.28 1.956 5.4 2.028 5.4 C 2.088 5.4 2.184 5.316 2.316 5.16 L 6.336 0.384 C 6.576 0.084 6.816 -0.144 6.816 -0.144 C 7.236 -0.144 7.356 -0.108 7.572 0 Z "/>
        </symbol>
        <symbol id="1d" overflow="visible">
            <path d="M 7.956 1.392 C 8.016 0.42000002 7.968 0.42000002 7.188 0.384 L 7.188 0.384 C 7.116 0.312 7.116 0.048 7.188 -0.024 C 7.752 -0.012 8.832 0 9.192 0 C 9.552 0 10.104 -0.012 10.5 -0.024 C 10.5720005 0.048 10.5720005 0.312 10.5 0.384 C 9.684 0.42000002 9.648 0.456 9.576 1.452 L 9.216 6.504 C 9.168 7.152 9.228 7.308 10.044 7.356 C 10.116 7.428 10.116 7.692 10.044 7.764 L 7.632 7.7400002 L 5.352 2.412 L 5.292 2.412 L 3.144 7.7400002 L 0.684 7.764 C 0.612 7.692 0.612 7.428 0.684 7.356 C 1.512 7.308 1.584 7.296 1.5 6.396 L 1.02 1.452 C 0.948 0.732 0.804 0.444 0.120000005 0.384 C 0.048 0.312 0.048 0.048 0.120000005 -0.024 C 0.48000002 -0.012 0.864 0 1.152 0 C 1.44 0 2.16 -0.012 2.52 -0.024 C 2.592 0.048 2.592 0.312 2.52 0.384 C 1.728 0.444 1.668 0.804 1.728 1.4760001 L 2.04 5.976 L 2.088 5.976 L 4.452 0.060000002 C 4.488 -0.024 4.62 -0.096 4.692 -0.096 C 4.764 -0.096 4.872 -0.048 4.92 0.060000002 L 7.62 6.408 L 7.644 6.408 Z "/>
        </symbol>
        <symbol id="1e" overflow="visible">
            <path d="M 3.924 3.072 C 3.6000001 1.98 2.832 0.768 1.2360001 0.168 C 1.2360001 0.024 1.284 -0.084 1.38 -0.144 C 2.592 0.216 3.336 0.72 4.008 1.5 C 4.752 2.364 5.124 3.456 5.124 4.404 C 5.124 6.84 3.744 7.32 2.82 7.32 C 1.248 7.32 0.6 5.796 0.6 4.764 C 0.6 3.732 1.152 2.808 2.784 2.808 C 3.096 2.808 3.5640001 2.904 3.924 3.072 Z M 4.032 3.504 C 3.636 3.24 3.24 3.228 3.036 3.228 C 1.86 3.228 1.596 4.38 1.596 4.98 C 1.596 6.3 2.1 6.9 2.688 6.9 C 3.444 6.9 4.1280003 6.492 4.1280003 4.44 C 4.1280003 4.176 4.104 3.852 4.032 3.504 Z "/>
        </symbol>
        <symbol id="1f" overflow="visible">
            <path d="M 5.052 7.572 C 4.392 7.668 4.14 7.896 3.024 7.896 C 2.484 7.896 1.776 7.728 1.272 7.32 C 0.828 6.96 0.492 6.408 0.492 5.82 C 0.492 5.364 0.612 4.788 0.888 4.428 C 1.44 3.684 2.436 3.276 2.9520001 2.9160001 C 3.504 2.532 4.044 2.052 4.044 1.38 C 4.044 0.792 3.528 0.384 2.796 0.384 C 1.992 0.384 1.164 1.044 0.924 2.136 C 0.732 2.208 0.54 2.16 0.36 2.112 C 0.348 2.112 0.336 2.1 0.324 2.1 C 0.324 1.2 0.42000002 0.564 0.552 0.120000005 C 1.2360001 0.120000005 1.272 -0.120000005 2.928 -0.120000005 C 3.66 -0.120000005 4.248 0.096 4.7400002 0.54 C 5.172 0.912 5.556 1.464 5.556 2.208 C 5.556 2.832 5.292 3.252 4.932 3.648 C 4.464 4.164 3.792 4.5360003 3.3240001 4.776 C 2.844 5.0160003 1.992 5.64 1.992 6.324 C 1.992 6.9960003 2.4 7.4040003 3.012 7.4040003 C 4.032 7.4040003 4.368 6.48 4.584 5.688 C 4.752 5.64 5.052 5.64 5.184 5.748 C 5.184 6.384 5.136 6.876 5.052 7.572 Z "/>
        </symbol>
        <symbol id="20" overflow="visible">
            <path d="M 2.04 6.42 L 4.188 6.42 C 3.252 4.092 2.304 1.752 1.488 -0.072 L 1.584 -0.156 L 2.4 -0.120000005 C 3.084 1.9200001 3.744 3.912 5.088 7.188 L 4.896 7.3320003 C 4.692 7.272 4.428 7.2000003 3.9720001 7.2000003 L 1.5 7.2000003 C 1.092 7.2000003 1.116 7.32 0.90000004 7.368 C 0.864 7.368 0.852 7.368 0.852 7.3320003 C 0.84000003 6.756 0.708 6.0360003 0.612 5.412 C 0.744 5.376 0.864 5.364 0.996 5.376 C 1.26 6.336 1.656 6.42 2.04 6.42 Z "/>
        </symbol>
    </defs>
</svg>
