<svg class="typst-doc" viewBox="0 0 338.91999999999996 235.82400000000004" width="338.91999999999996pt" height="235.82400000000004pt" xmlns="http://www.w3.org/2000/svg" xmlns:xlink="http://www.w3.org/1999/xlink" xmlns:h5="http://www.w3.org/1999/xhtml">
    <path class="typst-shape" fill="#ffffff" fill-rule="nonzero" d="M 0 0v 235.824 h 338.92 v -235.824 Z "/>
    <g>
        <g class="typst-group">
            <g>
                <path class="typst-shape" fill="none" stroke="#000000" stroke-width="0.75" stroke-linecap="butt" stroke-linejoin="miter" stroke-miterlimit="4" transform="matrix(1 0 0 1 194.777 20.74)" d="M 0 0h 141.518 "/>
                <path class="typst-shape" fill="none" stroke="#000000" stroke-width="0.75" stroke-linecap="butt" stroke-linejoin="miter" stroke-miterlimit="4" transform="matrix(1 0 0 1 2.625 54.33200000000001)" d="M 0 0h 333.67 "/>
                <path class="typst-shape" fill="none" stroke="#000000" stroke-width="1" stroke-linecap="butt" stroke-linejoin="miter" stroke-miterlimit="4" transform="matrix(1 0 0 1 2.5 3)" d="M 0 0h 333.92 "/>
                <path class="typst-shape" fill="none" stroke="#000000" stroke-width="1" stroke-linecap="butt" stroke-linejoin="miter" stroke-miterlimit="4" transform="matrix(1 0 0 1 2.5 232.82400000000004)" d="M 0 0h 333.92 "/>
                <g class="typst-text" transform="matrix(1 0 0 -1 256.254 15.74)">
                    <use xlink:href="#0" x="0" y="0" fill="#000000" fill-rule="nonzero"/>
                    <use xlink:href="#1" x="6.048" y="0" fill="#000000" fill-rule="nonzero"/>
                    <use xlink:href="#2" x="11.832" y="0" fill="#000000" fill-rule="nonzero"/>
                </g>
                <g class="typst-group">
                    <g>
                        <g class="typst-group">
                            <g>
                                <g class="typst-text" transform="matrix(1 0 0 -1 143.73600000000002 33.48)">
                                    <use xlink:href="#3" x="0" y="0" fill="#000000" fill-rule="nonzero"/>
                                    <use xlink:href="#4" x="7.068" y="0" fill="#000000" fill-rule="nonzero"/>
                                    <use xlink:href="#5" x="13.68" y="0" fill="#000000" fill-rule="nonzero"/>
                                    <use xlink:href="#6" x="17.976" y="0" fill="#000000" fill-rule="nonzero"/>
                                    <use xlink:href="#7" x="24.048" y="0" fill="#000000" fill-rule="nonzero"/>
                                </g>
                                <g class="typst-text" transform="matrix(1 0 0 -1 140.76 49.02)">
                                    <use xlink:href="#8" x="0" y="0" fill="#000000" fill-rule="nonzero"/>
                                    <use xlink:href="#9" x="3.78" y="0" fill="#000000" fill-rule="nonzero"/>
                                    <use xlink:href="#a" x="11.172" y="0" fill="#000000" fill-rule="nonzero"/>
                                    <use xlink:href="#b" x="17.784" y="0" fill="#000000" fill-rule="nonzero"/>
                                    <use xlink:href="#c" x="23.951999999999998" y="0" fill="#000000" fill-rule="nonzero"/>
                                    <use xlink:href="#d" x="30.119999999999997" y="0" fill="#000000" fill-rule="nonzero"/>
                                </g>
                            </g>
                        </g>
                        <g class="typst-text" transform="matrix(1 0 0 -1 227.734 33.636)">
                            <use xlink:href="#e" x="0" y="0" fill="#000000" fill-rule="nonzero"/>
                        </g>
                        <g class="typst-text" transform="matrix(1 0 0 -1 216.676 49.33200000000001)">
                            <use xlink:href="#f" x="0" y="0" fill="#000000" fill-rule="nonzero"/>
                            <use xlink:href="#10" x="3.576" y="0" fill="#000000" fill-rule="nonzero"/>
                            <use xlink:href="#11" x="10.08" y="0" fill="#000000" fill-rule="nonzero"/>
                            <use xlink:href="#12" x="16.68" y="0" fill="#000000" fill-rule="nonzero"/>
                            <use xlink:href="#13" x="22.26" y="0" fill="#000000" fill-rule="nonzero"/>
                        </g>
                        <g class="typst-text" transform="matrix(1 0 0 -1 296.738 33.636)">
                            <use xlink:href="#14" x="0" y="0" fill="#000000" fill-rule="nonzero"/>
                        </g>
                        <g class="typst-text" transform="matrix(1 0 0 -1 288.56 49.33200000000001)">
                            <use xlink:href="#f" x="0" y="0" fill="#000000" fill-rule="nonzero"/>
                            <use xlink:href="#10" x="3.576" y="0" fill="#000000" fill-rule="nonzero"/>
                            <use xlink:href="#11" x="10.08" y="0" fill="#000000" fill-rule="nonzero"/>
                            <use xlink:href="#15" x="16.68" y="0" fill="#000000" fill-rule="nonzero"/>
                            <use xlink:href="#13" x="22.26" y="0" fill="#000000" fill-rule="nonzero"/>
                        </g>
                    </g>
                </g>
                <g class="typst-group">
                    <g>
                        <g class="typst-text" transform="matrix(1 0 0 -1 8 67.072)">
                            <use xlink:href="#16" x="0" y="0" fill="#000000" fill-rule="nonzero"/>
                            <use xlink:href="#17" x="8.736" y="0" fill="#000000" fill-rule="nonzero"/>
                            <use xlink:href="#1" x="14.988" y="0" fill="#000000" fill-rule="nonzero"/>
                            <use xlink:href="#8" x="23.856" y="0" fill="#000000" fill-rule="nonzero"/>
                            <use xlink:href="#18" x="27.432000000000002" y="0" fill="#000000" fill-rule="nonzero"/>
                            <use xlink:href="#1" x="34.032000000000004" y="0" fill="#000000" fill-rule="nonzero"/>
                            <use xlink:href="#6" x="39.900000000000006" y="0" fill="#000000" fill-rule="nonzero"/>
                            <use xlink:href="#19" x="45.97200000000001" y="0" fill="#000000" fill-rule="nonzero"/>
                            <use xlink:href="#1a" x="51.108000000000004" y="0" fill="#000000" fill-rule="nonzero"/>
                            <use xlink:href="#d" x="56.232000000000006" y="0" fill="#000000" fill-rule="nonzero"/>
                        </g>
                    </g>
                </g>
                <g class="typst-group">
                    <g>
                        <g class="typst-text" transform="matrix(1 0 0 -1 20 84.968)">
                            <use xlink:href="#1b" x="0" y="0" fill="#000000" fill-rule="nonzero"/>
                            <use xlink:href="#1c" x="10.068" y="0" fill="#000000" fill-rule="nonzero"/>
                            <use xlink:href="#1d" x="15.432" y="0" fill="#000000" fill-rule="nonzero"/>
                            <use xlink:href="#10" x="20.916" y="0" fill="#000000" fill-rule="nonzero"/>
                            <use xlink:href="#f" x="30.42" y="0" fill="#000000" fill-rule="nonzero"/>
                            <use xlink:href="#1e" x="33.996" y="0" fill="#000000" fill-rule="nonzero"/>
                            <use xlink:href="#1f" x="39.816" y="0" fill="#000000" fill-rule="nonzero"/>
                            <use xlink:href="#13" x="48.108000000000004" y="0" fill="#000000" fill-rule="nonzero"/>
                        </g>
                        <g class="typst-text" transform="matrix(1 0 0 -1 133.25400000000002 84.968)">
                            <use xlink:href="#15" x="0" y="0" fill="#000000" fill-rule="nonzero"/>
                            <use xlink:href="#20" x="5.580000000000001" y="0" fill="#000000" fill-rule="nonzero"/>
                            <use xlink:href="#21" x="11.160000000000002" y="0" fill="#000000" fill-rule="nonzero"/>
                            <use xlink:href="#12" x="13.800000000000002" y="0" fill="#000000" fill-rule="nonzero"/>
                            <use xlink:href="#f" x="22.380000000000003" y="0" fill="#000000" fill-rule="nonzero"/>
                            <use xlink:href="#22" x="25.956000000000003" y="0" fill="#000000" fill-rule="nonzero"/>
                            <use xlink:href="#23" x="31.536000000000005" y="0" fill="#000000" fill-rule="nonzero"/>
                            <use xlink:href="#21" x="37.11600000000001" y="0" fill="#000000" fill-rule="nonzero"/>
                            <use xlink:href="#24" x="39.75600000000001" y="0" fill="#000000" fill-rule="nonzero"/>
                            <use xlink:href="#13" x="45.336000000000006" y="0" fill="#000000" fill-rule="nonzero"/>
                        </g>
                        <g class="typst-text" transform="matrix(1 0 0 -1 205.138 84.968)">
                            <use xlink:href="#15" x="0" y="0" fill="#000000" fill-rule="nonzero"/>
                            <use xlink:href="#15" x="5.580000000000001" y="0" fill="#000000" fill-rule="nonzero"/>
                            <use xlink:href="#21" x="11.160000000000002" y="0" fill="#000000" fill-rule="nonzero"/>
                            <use xlink:href="#22" x="13.800000000000002" y="0" fill="#000000" fill-rule="nonzero"/>
                            <use xlink:href="#f" x="22.380000000000003" y="0" fill="#000000" fill-rule="nonzero"/>
                            <use xlink:href="#25" x="25.956000000000003" y="0" fill="#000000" fill-rule="nonzero"/>
                            <use xlink:href="#26" x="31.536000000000005" y="0" fill="#000000" fill-rule="nonzero"/>
                            <use xlink:href="#21" x="37.11600000000001" y="0" fill="#000000" fill-rule="nonzero"/>
                            <use xlink:href="#25" x="39.75600000000001" y="0" fill="#000000" fill-rule="nonzero"/>
                            <use xlink:href="#13" x="45.336000000000006" y="0" fill="#000000" fill-rule="nonzero"/>
                        </g>
                        <g class="typst-text" transform="matrix(1 0 0 -1 277.022 84.968)">
                            <use xlink:href="#15" x="0" y="0" fill="#000000" fill-rule="nonzero"/>
                            <use xlink:href="#24" x="5.580000000000001" y="0" fill="#000000" fill-rule="nonzero"/>
                            <use xlink:href="#21" x="11.160000000000002" y="0" fill="#000000" fill-rule="nonzero"/>
                            <use xlink:href="#27" x="13.800000000000002" y="0" fill="#000000" fill-rule="nonzero"/>
                            <use xlink:href="#f" x="22.380000000000003" y="0" fill="#000000" fill-rule="nonzero"/>
                            <use xlink:href="#22" x="25.956000000000003" y="0" fill="#000000" fill-rule="nonzero"/>
                            <use xlink:href="#20" x="31.536000000000005" y="0" fill="#000000" fill-rule="nonzero"/>
                            <use xlink:href="#21" x="37.11600000000001" y="0" fill="#000000" fill-rule="nonzero"/>
                            <use xlink:href="#26" x="39.75600000000001" y="0" fill="#000000" fill-rule="nonzero"/>
                            <use xlink:href="#13" x="45.336000000000006" y="0" fill="#000000" fill-rule="nonzero"/>
                        </g>
                    </g>
                </g>
                <g class="typst-group">
                    <g>
                        <g class="typst-text" transform="matrix(1 0 0 -1 20 102.86399999999999)">
                            <use xlink:href="#1b" x="0" y="0" fill="#000000" fill-rule="nonzero"/>
                            <use xlink:href="#1c" x="10.068" y="0" fill="#000000" fill-rule="nonzero"/>
                            <use xlink:href="#28" x="15.516" y="0" fill="#000000" fill-rule="nonzero"/>
                            <use xlink:href="#29" x="21.588" y="0" fill="#000000" fill-rule="nonzero"/>
                            <use xlink:href="#1d" x="24.84" y="0" fill="#000000" fill-rule="nonzero"/>
                            <use xlink:href="#10" x="30.324" y="0" fill="#000000" fill-rule="nonzero"/>
                            <use xlink:href="#2a" x="39.828" y="0" fill="#000000" fill-rule="nonzero"/>
                            <use xlink:href="#1b" x="44.1" y="0" fill="#000000" fill-rule="nonzero"/>
                            <use xlink:href="#29" x="54.168" y="0" fill="#000000" fill-rule="nonzero"/>
                            <use xlink:href="#10" x="57.42" y="0" fill="#000000" fill-rule="nonzero"/>
                            <use xlink:href="#2b" x="63.924" y="0" fill="#000000" fill-rule="nonzero"/>
                            <use xlink:href="#1b" x="69.564" y="0" fill="#000000" fill-rule="nonzero"/>
                            <use xlink:href="#1d" x="79.63199999999999" y="0" fill="#000000" fill-rule="nonzero"/>
                            <use xlink:href="#2c" x="85.11599999999999" y="0" fill="#000000" fill-rule="nonzero"/>
                            <use xlink:href="#2d" x="90.99599999999998" y="0" fill="#000000" fill-rule="nonzero"/>
                        </g>
                        <g class="typst-text" transform="matrix(1 0 0 -1 128.268 102.86399999999999)">
                            <use xlink:href="#15" x="0" y="0" fill="#000000" fill-rule="nonzero"/>
                            <use xlink:href="#23" x="5.580000000000001" y="0" fill="#000000" fill-rule="nonzero"/>
                            <use xlink:href="#21" x="11.160000000000002" y="0" fill="#000000" fill-rule="nonzero"/>
                            <use xlink:href="#20" x="13.800000000000002" y="0" fill="#000000" fill-rule="nonzero"/>
                            <use xlink:href="#2a" x="22.380000000000003" y="0" fill="#000000" fill-rule="nonzero"/>
                            <use xlink:href="#22" x="26.652" y="0" fill="#000000" fill-rule="nonzero"/>
                            <use xlink:href="#15" x="32.232" y="0" fill="#000000" fill-rule="nonzero"/>
                            <use xlink:href="#2b" x="37.812" y="0" fill="#000000" fill-rule="nonzero"/>
                            <use xlink:href="#27" x="43.452" y="0" fill="#000000" fill-rule="nonzero"/>
                            <use xlink:href="#20" x="49.032" y="0" fill="#000000" fill-rule="nonzero"/>
                            <use xlink:href="#2d" x="54.611999999999995" y="0" fill="#000000" fill-rule="nonzero"/>
                        </g>
                        <g class="typst-text" transform="matrix(1 0 0 -1 200.152 102.86399999999999)">
                            <use xlink:href="#15" x="0" y="0" fill="#000000" fill-rule="nonzero"/>
                            <use xlink:href="#23" x="5.580000000000001" y="0" fill="#000000" fill-rule="nonzero"/>
                            <use xlink:href="#21" x="11.160000000000002" y="0" fill="#000000" fill-rule="nonzero"/>
                            <use xlink:href="#20" x="13.800000000000002" y="0" fill="#000000" fill-rule="nonzero"/>
                            <use xlink:href="#2a" x="22.380000000000003" y="0" fill="#000000" fill-rule="nonzero"/>
                            <use xlink:href="#22" x="26.652" y="0" fill="#000000" fill-rule="nonzero"/>
                            <use xlink:href="#15" x="32.232" y="0" fill="#000000" fill-rule="nonzero"/>
                            <use xlink:href="#2b" x="37.812" y="0" fill="#000000" fill-rule="nonzero"/>
                            <use xlink:href="#24" x="43.452" y="0" fill="#000000" fill-rule="nonzero"/>
                            <use xlink:href="#12" x="49.032" y="0" fill="#000000" fill-rule="nonzero"/>
                            <use xlink:href="#2d" x="54.611999999999995" y="0" fill="#000000" fill-rule="nonzero"/>
                        </g>
                        <g class="typst-text" transform="matrix(1 0 0 -1 272.036 102.86399999999999)">
                            <use xlink:href="#2e" x="0" y="0" fill="#000000" fill-rule="nonzero"/>
                            <use xlink:href="#26" x="5.580000000000001" y="0" fill="#000000" fill-rule="nonzero"/>
                            <use xlink:href="#21" x="11.160000000000002" y="0" fill="#000000" fill-rule="nonzero"/>
                            <use xlink:href="#20" x="13.800000000000002" y="0" fill="#000000" fill-rule="nonzero"/>
                            <use xlink:href="#2a" x="22.380000000000003" y="0" fill="#000000" fill-rule="nonzero"/>
                            <use xlink:href="#22" x="26.652" y="0" fill="#000000" fill-rule="nonzero"/>
                            <use xlink:href="#24" x="32.232" y="0" fill="#000000" fill-rule="nonzero"/>
                            <use xlink:href="#2b" x="37.812" y="0" fill="#000000" fill-rule="nonzero"/>
                            <use xlink:href="#27" x="43.452" y="0" fill="#000000" fill-rule="nonzero"/>
                            <use xlink:href="#20" x="49.032" y="0" fill="#000000" fill-rule="nonzero"/>
                            <use xlink:href="#2d" x="54.611999999999995" y="0" fill="#000000" fill-rule="nonzero"/>
                        </g>
                    </g>
                </g>
                <g class="typst-group">
                    <g>
                        <g class="typst-text" transform="matrix(1 0 0 -1 8 120.60399999999998)">
                            <use xlink:href="#2f" x="0" y="0" fill="#000000" fill-rule="nonzero"/>
                            <use xlink:href="#7" x="7.848" y="0" fill="#000000" fill-rule="nonzero"/>
                            <use xlink:href="#4" x="11.748" y="0" fill="#000000" fill-rule="nonzero"/>
                            <use xlink:href="#4" x="18.444" y="0" fill="#000000" fill-rule="nonzero"/>
                            <use xlink:href="#30" x="25.14" y="0" fill="#000000" fill-rule="nonzero"/>
                            <use xlink:href="#5" x="34.872" y="0" fill="#000000" fill-rule="nonzero"/>
                            <use xlink:href="#18" x="39.168" y="0" fill="#000000" fill-rule="nonzero"/>
                            <use xlink:href="#31" x="45.864" y="0" fill="#000000" fill-rule="nonzero"/>
                            <use xlink:href="#1" x="52.919999999999995" y="0" fill="#000000" fill-rule="nonzero"/>
                        </g>
                    </g>
                </g>
                <g class="typst-group">
                    <g>
                        <g class="typst-text" transform="matrix(1 0 0 -1 20 138.5)">
                            <use xlink:href="#23" x="0" y="0" fill="#000000" fill-rule="nonzero"/>
                        </g>
                        <g class="typst-text" transform="matrix(1 0 0 -1 140.44199999999998 138.5)">
                            <use xlink:href="#22" x="0" y="0" fill="#000000" fill-rule="nonzero"/>
                            <use xlink:href="#f" x="8.580000000000002" y="0" fill="#000000" fill-rule="nonzero"/>
                            <use xlink:href="#22" x="12.156000000000002" y="0" fill="#000000" fill-rule="nonzero"/>
                            <use xlink:href="#23" x="17.736000000000004" y="0" fill="#000000" fill-rule="nonzero"/>
                            <use xlink:href="#32" x="23.316000000000006" y="0" fill="#000000" fill-rule="nonzero"/>
                            <use xlink:href="#13" x="30.960000000000008" y="0" fill="#000000" fill-rule="nonzero"/>
                        </g>
                        <g class="typst-text" transform="matrix(1 0 0 -1 208.216 138.5)">
                            <use xlink:href="#25" x="0" y="0" fill="#000000" fill-rule="nonzero"/>
                            <use xlink:href="#f" x="8.580000000000002" y="0" fill="#000000" fill-rule="nonzero"/>
                            <use xlink:href="#25" x="12.156000000000002" y="0" fill="#000000" fill-rule="nonzero"/>
                            <use xlink:href="#12" x="17.736000000000004" y="0" fill="#000000" fill-rule="nonzero"/>
                            <use xlink:href="#21" x="23.316000000000006" y="0" fill="#000000" fill-rule="nonzero"/>
                            <use xlink:href="#24" x="25.956000000000007" y="0" fill="#000000" fill-rule="nonzero"/>
                            <use xlink:href="#32" x="31.53600000000001" y="0" fill="#000000" fill-rule="nonzero"/>
                            <use xlink:href="#13" x="39.18000000000001" y="0" fill="#000000" fill-rule="nonzero"/>
                        </g>
                        <g class="typst-text" transform="matrix(1 0 0 -1 284.21 138.5)">
                            <use xlink:href="#25" x="0" y="0" fill="#000000" fill-rule="nonzero"/>
                            <use xlink:href="#f" x="8.580000000000002" y="0" fill="#000000" fill-rule="nonzero"/>
                            <use xlink:href="#22" x="12.156000000000002" y="0" fill="#000000" fill-rule="nonzero"/>
                            <use xlink:href="#20" x="17.736000000000004" y="0" fill="#000000" fill-rule="nonzero"/>
                            <use xlink:href="#32" x="23.316000000000006" y="0" fill="#000000" fill-rule="nonzero"/>
                            <use xlink:href="#13" x="30.960000000000008" y="0" fill="#000000" fill-rule="nonzero"/>
                        </g>
                    </g>
                </g>
                <g class="typst-group">
                    <g>
                        <g class="typst-text" transform="matrix(1 0 0 -1 20 156.39600000000002)">
                            <use xlink:href="#33" x="0" y="0" fill="#000000" fill-rule="nonzero"/>
                        </g>
                        <g class="typst-text" transform="matrix(1 0 0 -1 140.44199999999998 156.39600000000002)">
                            <use xlink:href="#15" x="0" y="0" fill="#000000" fill-rule="nonzero"/>
                            <use xlink:href="#f" x="8.580000000000002" y="0" fill="#000000" fill-rule="nonzero"/>
                            <use xlink:href="#15" x="12.156000000000002" y="0" fill="#000000" fill-rule="nonzero"/>
                            <use xlink:href="#23" x="17.736000000000004" y="0" fill="#000000" fill-rule="nonzero"/>
                            <use xlink:href="#32" x="23.316000000000006" y="0" fill="#000000" fill-rule="nonzero"/>
                            <use xlink:href="#13" x="30.960000000000008" y="0" fill="#000000" fill-rule="nonzero"/>
                        </g>
                        <g class="typst-text" transform="matrix(1 0 0 -1 212.32600000000002 156.39600000000002)">
                            <use xlink:href="#2e" x="0" y="0" fill="#000000" fill-rule="nonzero"/>
                            <use xlink:href="#f" x="8.580000000000002" y="0" fill="#000000" fill-rule="nonzero"/>
                            <use xlink:href="#20" x="12.156000000000002" y="0" fill="#000000" fill-rule="nonzero"/>
                            <use xlink:href="#23" x="17.736000000000004" y="0" fill="#000000" fill-rule="nonzero"/>
                            <use xlink:href="#32" x="23.316000000000006" y="0" fill="#000000" fill-rule="nonzero"/>
                            <use xlink:href="#13" x="30.960000000000008" y="0" fill="#000000" fill-rule="nonzero"/>
                        </g>
                        <g class="typst-text" transform="matrix(1 0 0 -1 284.21 156.39600000000002)">
                            <use xlink:href="#25" x="0" y="0" fill="#000000" fill-rule="nonzero"/>
                            <use xlink:href="#f" x="8.580000000000002" y="0" fill="#000000" fill-rule="nonzero"/>
                            <use xlink:href="#22" x="12.156000000000002" y="0" fill="#000000" fill-rule="nonzero"/>
                            <use xlink:href="#20" x="17.736000000000004" y="0" fill="#000000" fill-rule="nonzero"/>
                            <use xlink:href="#32" x="23.316000000000006" y="0" fill="#000000" fill-rule="nonzero"/>
                            <use xlink:href="#13" x="30.960000000000008" y="0" fill="#000000" fill-rule="nonzero"/>
                        </g>
                    </g>
                </g>
                <g class="typst-group">
                    <g>
                        <g class="typst-text" transform="matrix(1 0 0 -1 20 174.29200000000003)">
                            <use xlink:href="#34" x="0" y="0" fill="#000000" fill-rule="nonzero"/>
                        </g>
                        <g class="typst-text" transform="matrix(1 0 0 -1 140.44199999999998 174.29200000000003)">
                            <use xlink:href="#15" x="0" y="0" fill="#000000" fill-rule="nonzero"/>
                            <use xlink:href="#f" x="8.580000000000002" y="0" fill="#000000" fill-rule="nonzero"/>
                            <use xlink:href="#15" x="12.156000000000002" y="0" fill="#000000" fill-rule="nonzero"/>
                            <use xlink:href="#23" x="17.736000000000004" y="0" fill="#000000" fill-rule="nonzero"/>
                            <use xlink:href="#32" x="23.316000000000006" y="0" fill="#000000" fill-rule="nonzero"/>
                            <use xlink:href="#13" x="30.960000000000008" y="0" fill="#000000" fill-rule="nonzero"/>
                        </g>
                        <g class="typst-text" transform="matrix(1 0 0 -1 208.216 174.29200000000003)">
                            <use xlink:href="#22" x="0" y="0" fill="#000000" fill-rule="nonzero"/>
                            <use xlink:href="#f" x="8.580000000000002" y="0" fill="#000000" fill-rule="nonzero"/>
                            <use xlink:href="#2e" x="12.156000000000002" y="0" fill="#000000" fill-rule="nonzero"/>
                            <use xlink:href="#2e" x="17.736000000000004" y="0" fill="#000000" fill-rule="nonzero"/>
                            <use xlink:href="#21" x="23.316000000000006" y="0" fill="#000000" fill-rule="nonzero"/>
                            <use xlink:href="#2e" x="25.956000000000007" y="0" fill="#000000" fill-rule="nonzero"/>
                            <use xlink:href="#32" x="31.53600000000001" y="0" fill="#000000" fill-rule="nonzero"/>
                            <use xlink:href="#13" x="39.18000000000001" y="0" fill="#000000" fill-rule="nonzero"/>
                        </g>
                        <g class="typst-text" transform="matrix(1 0 0 -1 284.21 174.29200000000003)">
                            <use xlink:href="#22" x="0" y="0" fill="#000000" fill-rule="nonzero"/>
                            <use xlink:href="#f" x="8.580000000000002" y="0" fill="#000000" fill-rule="nonzero"/>
                            <use xlink:href="#20" x="12.156000000000002" y="0" fill="#000000" fill-rule="nonzero"/>
                            <use xlink:href="#23" x="17.736000000000004" y="0" fill="#000000" fill-rule="nonzero"/>
                            <use xlink:href="#32" x="23.316000000000006" y="0" fill="#000000" fill-rule="nonzero"/>
                            <use xlink:href="#13" x="30.960000000000008" y="0" fill="#000000" fill-rule="nonzero"/>
                        </g>
                    </g>
                </g>
                <g class="typst-group">
                    <g>
                        <g class="typst-text" transform="matrix(1 0 0 -1 8 192.032)">
                            <use xlink:href="#0" x="0" y="0" fill="#000000" fill-rule="nonzero"/>
                            <use xlink:href="#35" x="6.048" y="0" fill="#000000" fill-rule="nonzero"/>
                            <use xlink:href="#4" x="16.908" y="0" fill="#000000" fill-rule="nonzero"/>
                            <use xlink:href="#36" x="23.520000000000003" y="0" fill="#000000" fill-rule="nonzero"/>
                            <use xlink:href="#1" x="30.876000000000005" y="0" fill="#000000" fill-rule="nonzero"/>
                            <use xlink:href="#19" x="36.74400000000001" y="0" fill="#000000" fill-rule="nonzero"/>
                        </g>
                    </g>
                </g>
                <g class="typst-group">
                    <g>
                        <g class="typst-text" transform="matrix(1 0 0 -1 20 209.92800000000003)">
                            <use xlink:href="#e" x="0" y="0" fill="#000000" fill-rule="nonzero"/>
                            <use xlink:href="#1d" x="3.72" y="0" fill="#000000" fill-rule="nonzero"/>
                            <use xlink:href="#37" x="9.204" y="0" fill="#000000" fill-rule="nonzero"/>
                            <use xlink:href="#38" x="12.372" y="0" fill="#000000" fill-rule="nonzero"/>
                            <use xlink:href="#1c" x="17.052" y="0" fill="#000000" fill-rule="nonzero"/>
                        </g>
                        <g class="typst-text" transform="matrix(1 0 0 -1 140.44199999999998 209.92800000000003)">
                            <use xlink:href="#12" x="0" y="0" fill="#000000" fill-rule="nonzero"/>
                            <use xlink:href="#f" x="8.580000000000002" y="0" fill="#000000" fill-rule="nonzero"/>
                            <use xlink:href="#12" x="12.156000000000002" y="0" fill="#000000" fill-rule="nonzero"/>
                            <use xlink:href="#23" x="17.736000000000004" y="0" fill="#000000" fill-rule="nonzero"/>
                            <use xlink:href="#32" x="23.316000000000006" y="0" fill="#000000" fill-rule="nonzero"/>
                            <use xlink:href="#13" x="30.960000000000008" y="0" fill="#000000" fill-rule="nonzero"/>
                        </g>
                        <g class="typst-text" transform="matrix(1 0 0 -1 212.32600000000002 209.92800000000003)">
                            <use xlink:href="#2e" x="0" y="0" fill="#000000" fill-rule="nonzero"/>
                            <use xlink:href="#f" x="8.580000000000002" y="0" fill="#000000" fill-rule="nonzero"/>
                            <use xlink:href="#20" x="12.156000000000002" y="0" fill="#000000" fill-rule="nonzero"/>
                            <use xlink:href="#23" x="17.736000000000004" y="0" fill="#000000" fill-rule="nonzero"/>
                            <use xlink:href="#32" x="23.316000000000006" y="0" fill="#000000" fill-rule="nonzero"/>
                            <use xlink:href="#13" x="30.960000000000008" y="0" fill="#000000" fill-rule="nonzero"/>
                        </g>
                        <g class="typst-text" transform="matrix(1 0 0 -1 284.21 209.92800000000003)">
                            <use xlink:href="#2e" x="0" y="0" fill="#000000" fill-rule="nonzero"/>
                            <use xlink:href="#f" x="8.580000000000002" y="0" fill="#000000" fill-rule="nonzero"/>
                            <use xlink:href="#24" x="12.156000000000002" y="0" fill="#000000" fill-rule="nonzero"/>
                            <use xlink:href="#20" x="17.736000000000004" y="0" fill="#000000" fill-rule="nonzero"/>
                            <use xlink:href="#32" x="23.316000000000006" y="0" fill="#000000" fill-rule="nonzero"/>
                            <use xlink:href="#13" x="30.960000000000008" y="0" fill="#000000" fill-rule="nonzero"/>
                        </g>
                    </g>
                </g>
                <g class="typst-group">
                    <g>
                        <g class="typst-text" transform="matrix(1 0 0 -1 20 227.82400000000004)">
                            <use xlink:href="#39" x="0" y="0" fill="#000000" fill-rule="nonzero"/>
                            <use xlink:href="#3a" x="3.792" y="0" fill="#000000" fill-rule="nonzero"/>
                            <use xlink:href="#3b" x="8.256" y="0" fill="#000000" fill-rule="nonzero"/>
                            <use xlink:href="#1c" x="14.628" y="0" fill="#000000" fill-rule="nonzero"/>
                        </g>
                        <g class="typst-text" transform="matrix(1 0 0 -1 140.44199999999998 227.82400000000004)">
                            <use xlink:href="#15" x="0" y="0" fill="#000000" fill-rule="nonzero"/>
                            <use xlink:href="#f" x="8.580000000000002" y="0" fill="#000000" fill-rule="nonzero"/>
                            <use xlink:href="#15" x="12.156000000000002" y="0" fill="#000000" fill-rule="nonzero"/>
                            <use xlink:href="#23" x="17.736000000000004" y="0" fill="#000000" fill-rule="nonzero"/>
                            <use xlink:href="#32" x="23.316000000000006" y="0" fill="#000000" fill-rule="nonzero"/>
                            <use xlink:href="#13" x="30.960000000000008" y="0" fill="#000000" fill-rule="nonzero"/>
                        </g>
                        <g class="typst-text" transform="matrix(1 0 0 -1 212.32600000000002 227.82400000000004)">
                            <use xlink:href="#2e" x="0" y="0" fill="#000000" fill-rule="nonzero"/>
                            <use xlink:href="#f" x="8.580000000000002" y="0" fill="#000000" fill-rule="nonzero"/>
                            <use xlink:href="#20" x="12.156000000000002" y="0" fill="#000000" fill-rule="nonzero"/>
                            <use xlink:href="#23" x="17.736000000000004" y="0" fill="#000000" fill-rule="nonzero"/>
                            <use xlink:href="#32" x="23.316000000000006" y="0" fill="#000000" fill-rule="nonzero"/>
                            <use xlink:href="#13" x="30.960000000000008" y="0" fill="#000000" fill-rule="nonzero"/>
                        </g>
                        <g class="typst-text" transform="matrix(1 0 0 -1 284.21 227.82400000000004)">
                            <use xlink:href="#25" x="0" y="0" fill="#000000" fill-rule="nonzero"/>
                            <use xlink:href="#f" x="8.580000000000002" y="0" fill="#000000" fill-rule="nonzero"/>
                            <use xlink:href="#22" x="12.156000000000002" y="0" fill="#000000" fill-rule="nonzero"/>
                            <use xlink:href="#20" x="17.736000000000004" y="0" fill="#000000" fill-rule="nonzero"/>
                            <use xlink:href="#32" x="23.316000000000006" y="0" fill="#000000" fill-rule="nonzero"/>
                            <use xlink:href="#13" x="30.960000000000008" y="0" fill="#000000" fill-rule="nonzero"/>
                        </g>
                    </g>
                </g>
            </g>
        </g>
    </g>
    <defs id="3c">
        <symbol id="0" overflow="visible">
            <path d="M 0 0m 5.052 7.572 c -0.65999985 0.096000195 -0.9120002 0.32399988 -2.028 0.32399988 c -0.53999996 0 -1.2479999 -0.16799974 -1.752 -0.57599974 c -0.44399995 -0.36000013 -0.78 -0.9120002 -0.78 -1.5 c 0 -0.45600033 0.119999975 -1.0320001 0.396 -1.3920002 c 0.55200005 -0.74399996 1.5480001 -1.152 2.0640001 -1.5119998 c 0.5519998 -0.38400006 1.092 -0.8640001 1.092 -1.5360001 c 0 -0.588 -0.51600003 -0.996 -1.2480001 -0.996 c -0.804 0 -1.632 0.66 -1.872 1.7519999 c -0.19200003 0.07200003 -0.384 0.024000168 -0.564 -0.02399993 c -0.012000024 0 -0.024000019 -0.012000084 -0.036000013 -0.012000084 c 0 -0.89999986 0.096000016 -1.5359999 0.22799999 -1.9799999 c 0.6840001 0 0.71999997 -0.24000001 2.376 -0.24000001 c 0.7320001 0 1.3200002 0.216 1.8120003 0.66 c 0.43199968 0.37199998 0.816 0.92399997 0.816 1.668 c 0 0.6240001 -0.26400042 1.0440001 -0.6240001 1.44 c -0.46799994 0.51600003 -1.1400001 0.88800025 -1.608 1.128 c -0.48000002 0.24000025 -1.3320001 0.86399984 -1.3320001 1.5479999 c 0 0.6720004 0.4080001 1.0800004 1.0200001 1.0800004 c 1.02 0 1.356 -0.92400026 1.572 -1.7160001 c 0.16799974 -0.048000336 0.46799994 -0.048000336 0.5999999 0.059999943 c 0 0.6359997 -0.04799986 1.1279998 -0.13199997 1.8239999 Z "/>
        </symbol>
        <symbol id="1" overflow="visible">
            <path d="M 0 0m 5.172 1.548 c -0.4920001 -0.50399995 -1.1399999 -0.636 -1.596 -0.636 c -0.9359999 0 -1.5119998 0.54 -1.5119998 1.7160001 c 0 0.08400011 0.0119998455 0.13199997 0.0119998455 0.19199991 h 2.8799999 c 0.2880001 0 0.34800005 0.204 0.34800005 0.37199998 c 0 1.02 -0.3959999 2.1360002 -2.1599998 2.1360002 c -1.26 0 -2.7 -1.1160002 -2.7 -2.9520001 c 0 -0.69599986 0.25199997 -1.428 0.768 -1.8959999 c 0.45599997 -0.40800002 1.044 -0.6 1.896 -0.6 c 0.82800007 0 1.6439998 0.42000002 2.2440002 1.296 c 0 0.15600002 -0.06000042 0.37199998 -0.1800003 0.37199998 Z m -3.0479999 1.752 c 0.0119998455 0.42000008 0.07200003 0.87600017 0.24000001 1.1159999 c 0.19199991 0.2880001 0.51600003 0.408 0.648 0.408 c 0.32399988 0 0.7679999 -0.3119998 0.7679999 -1.2719998 c 0 -0.07200003 0 -0.22799993 -0.02399993 -0.2520001 Z "/>
        </symbol>
        <symbol id="2" overflow="visible">
            <path d="M 0 0m 2.196 0.876 l 0.74399996 1.0440001 c 0.04799986 0.059999943 0.08399987 0.095999956 0.119999886 0.035999894 l 0.576 -1.092 c 0.20400023 -0.384 0.08400011 -0.42000002 -0.33599997 -0.48000002 c -0.07200003 -0.072 -0.07200003 -0.336 0 -0.408 c 0.24000001 0.012 0.99600005 0.024 1.6320002 0.024 c 0.6240001 0 1.368 -0.012 1.6079998 -0.024 c 0.07200003 0.072 0.07200003 0.336 0 0.408 c -0.44399977 0.072 -0.85199976 0.22799999 -1.2360001 0.80399996 l -1.0559998 1.572 c -0.059999943 0.095999956 -0.059999943 0.13199997 -0.024000168 0.18000007 l 1.0679998 1.296 c 0.33600044 0.408 0.7680001 0.55200005 1.1400003 0.5879998 c 0.07200003 0.07200003 0.07200003 0.33599997 0 0.408 c -0.24000025 -0.011999607 -0.612 -0.023999691 -1.0079999 -0.023999691 c -0.4680004 0 -0.96000004 0.012000084 -1.2000003 0.023999691 c -0.07200003 -0.07200003 -0.07200003 -0.33599997 0 -0.408 c 0.43200016 -0.035999775 0.5279999 -0.16799974 0.2880001 -0.5159998 l -0.648 -0.924 c -0.036000013 -0.059999943 -0.095999956 -0.059999943 -0.14400005 0.02399993 l -0.53999996 0.9120002 c -0.2520001 0.43199968 -0.095999956 0.45599985 0.3599999 0.5039997 c 0.07200003 0.07200003 0.07200003 0.33599997 0 0.408 c -0.24000001 -0.011999607 -1.02 -0.023999691 -1.68 -0.023999691 c -0.58800006 0 -1.2720001 0.012000084 -1.5120001 0.023999691 c -0.072 -0.07200003 -0.072 -0.33599997 0 -0.408 c 0.54 0 0.78000003 -0.32399988 1.1159999 -0.8039999 l 1.0680001 -1.5239999 c 0.036000013 -0.048000097 0.036000013 -0.095999956 -0.036000013 -0.18000007 l -1.1040001 -1.368 c -0.29999995 -0.384 -0.82799995 -0.51600003 -1.188 -0.564 c -0.072 -0.072 -0.072 -0.336 0 -0.408 c 0.24000001 0.012 0.612 0.024 0.99600005 0.024 c 0.5159999 0 1.0799999 -0.012 1.3199999 -0.024 c 0.07200003 0.072 0.07200003 0.336 0 0.408 c -0.21600008 0.048000008 -0.58799994 0.120000005 -0.32399988 0.49199998 Z "/>
        </symbol>
        <symbol id="3" overflow="visible">
            <path d="M 0 0m 4.86 1.4760001 v 4.5600004 c 0 0.76799965 0.119999886 1.2119999 0.55200005 1.2119999 h 0.26399994 c 0.9000001 0 1.4039998 -0.3000002 1.6079998 -1.224 c 0.13199997 0 0.36000013 0.012000084 0.46799994 0.059999943 c -0.083999634 0.55200005 -0.14399958 1.1760001 -0.15599966 1.7160001 c 0 0.012000084 -0.024000168 0.035999775 -0.03600025 0.035999775 c -0.408 -0.035999775 -1.7399998 -0.09599972 -2.6879997 -0.09599972 h -1.6920002 c -0.924 0 -2.3400002 0.059999943 -2.796 0.09599972 c -0.023999989 0 -0.048000008 -0.023999691 -0.048000008 -0.035999775 c -0.048000008 -0.53999996 -0.168 -1.1760001 -0.3 -1.7520003 c 0.120000005 -0.04799986 0.324 -0.059999943 0.468 -0.059999943 c 0.24000001 0.96000004 0.73200005 1.2600002 1.5240002 1.2600002 h 0.5879998 c 0.444 0 0.5640001 -0.44400024 0.5640001 -1.1760001 v -4.5959997 c 0 -0.99600005 -0.204 -1.056 -1.164 -1.092 c -0.07200003 -0.072 -0.07200003 -0.336 0 -0.408 c 0.58800006 0.012 1.2119999 0.024 1.98 0.024 c 0.79200006 0 1.4280002 -0.012 2.028 -0.024 c 0.07200003 0.072 0.07200003 0.336 0 0.408 c -0.96000004 0.036000013 -1.164 0.096000016 -1.164 1.092 Z "/>
        </symbol>
        <symbol id="4" overflow="visible">
            <path d="M 0 0m 0.444 2.484 c 0 -1.572 1.248 -2.604 2.856 -2.604 c 0.852 0 1.5600002 0.24000001 2.0520003 0.684 c 0.612 0.53999996 0.816 1.3560001 0.816 2.0279999 c 0 1.572 -1.0680003 2.736 -2.8560002 2.736 c -0.99600005 0 -1.74 -0.34800005 -2.2080002 -0.888 c -0.45599997 -0.5280001 -0.65999997 -1.2480001 -0.65999997 -1.9560001 Z m 2.676 2.34 c 0.816 0 1.3679998 -0.9719999 1.3679998 -2.616 c 0 -1.4399999 -0.5639999 -1.8239999 -0.9959998 -1.8239999 c -0.98399997 0 -1.368 1.4760001 -1.368 2.3639998 c 0 1.1040001 0.19199991 2.076 0.99600005 2.076 Z "/>
        </symbol>
        <symbol id="5" overflow="visible">
            <path d="M 0 0m 0.756 5.208 c -0.16799998 0 -0.348 -0.048000336 -0.50399995 -0.1800003 v -0.34800005 c 0 -0.059999943 0.0119999945 -0.07200003 0.060000002 -0.07200003 h 0.78 c -0.024000049 -1.2119997 -0.036000013 -2.7479997 -0.036000013 -3.3479998 c 0 -0.41999996 0.10800004 -0.82799995 0.36 -1.044 c 0.27600002 -0.228 0.70800006 -0.33600003 0.99599993 -0.33600003 c 0.6600001 0 1.3920002 0.33600003 1.6320002 0.672 c 0 0.144 -0.07200003 0.21600002 -0.21600008 0.33600003 c -0.15600014 -0.120000005 -0.4560001 -0.16799998 -0.684 -0.16799998 c -0.26399994 0 -0.5280001 0.204 -0.5280001 0.804 c 0 0.6 -0.0119998455 1.884 -0.0119998455 3.0839996 h 1.2119999 c 0.120000124 0 0.2880001 0.048000336 0.2880001 0.15600014 v 0.37200022 c 0 0.04799986 -0.03600025 0.07200003 -0.096000195 0.07200003 h -1.4039998 l 0.0119998455 0.408 c 0.024000168 0.8039999 0.06000018 1.356 0.06000018 1.356 c 0 0.07200003 -0.036000013 0.1079998 -0.096000195 0.1079998 c -0.08399987 0 -0.5279999 -0.13199997 -0.7199999 -0.21600008 c -0.204 -0.083999634 -0.55200005 -0.15599966 -0.63600004 -0.26399994 c -0.08399999 -0.1079998 -0.13199997 -0.43199968 -0.13199997 -1.3919997 Z "/>
        </symbol>
        <symbol id="6" overflow="visible">
            <path d="M 0 0m 3.54 0.588 c 0.08400011 -0.49199998 0.408 -0.708 0.9359999 -0.708 c 0.6600003 0 1.1280003 0.252 1.572 0.672 c -0.023999691 0.144 -0.07200003 0.24000001 -0.2159996 0.33600003 c -0.15600014 -0.120000005 -0.27600002 -0.16799998 -0.5040002 -0.16799998 c -0.26399994 0 -0.33599997 0.21599996 -0.33599997 0.804 l 0.024000168 1.728 c 0 1.7279999 -1.0680003 2.076 -2.0520003 2.076 c -0.8759999 0 -2.22 -0.5040002 -2.22 -1.296 c 0 -0.33599997 0.144 -0.60000014 0.61200005 -0.60000014 c 0.43199992 0 0.74399984 0.26400018 0.74399984 0.55200005 c 0 0.06000018 -0.0119998455 0.13200021 -0.02399993 0.20400023 c -0.02399993 0.119999886 -0.04799986 0.23999977 -0.02399993 0.35999966 c 0.012000084 0.13199997 0.10800004 0.27600002 0.50399995 0.27600002 c 0.50399995 0 0.924 -0.21600008 0.924 -1.7399998 l -0.8039999 -0.2520001 c -1.2600001 -0.3959999 -2.1480002 -0.74399996 -2.1480002 -1.692 c 0 -0.82799995 0.45600003 -1.26 1.5000001 -1.26 c 0.3479998 0 1.0439999 0.384 1.4399998 0.696 Z m -0.059999943 2.0279999 v -1.5839999 c -0.29999995 -0.24000007 -0.5999999 -0.43200004 -0.816 -0.43200004 c -0.51600003 0 -0.696 0.348 -0.696 0.72 c 0 0.444 0.035999894 0.81599987 0.8879999 1.0919999 Z "/>
        </symbol>
        <symbol id="7" overflow="visible">
            <path d="M 0 0m 1.2 1.524 c 0 -0.99600005 -0.19200003 -1.1040001 -0.924 -1.1400001 c -0.072 -0.072 -0.072 -0.336 0 -0.408 c 0.50400007 0.012 1.044 0.024 1.704 0.024 c 0.6600001 0 1.188 -0.012 1.704 -0.024 c 0.07200003 0.072 0.07200003 0.336 0 0.408 c -0.7319999 0.036000013 -0.924 0.144 -0.924 1.1400001 v 5.472 c 0 0.77999973 0.036000013 1.224 0.036000013 1.224 c 0 0.1079998 -0.08399987 0.15600014 -0.19199991 0.15600014 c -0.444 -0.14400005 -1.404 -0.27600002 -2.256 -0.31200027 c -0.035999984 -0.14400005 -0.023999989 -0.27600002 0.036000013 -0.38399982 c 0.756 -0.06000042 0.81600004 -0.07200003 0.81600004 -0.9000001 Z "/>
        </symbol>
        <symbol id="8" overflow="visible">
            <path d="M 0 0m 0.432 3.036 c 0 -0.53999996 0.060000002 -3.24 2.7840002 -5.592 l 0.3599999 0.38400006 c -0.38400006 0.43199992 -1.7639999 2.04 -1.7639999 5.208 c 0 3.168 1.404 4.776 1.7639999 5.196 l -0.33599997 0.408 c -1.572 -1.3560004 -2.808 -3.42 -2.808 -5.604 Z "/>
        </symbol>
        <symbol id="9" overflow="visible">
            <path d="M 0 0m 2.736 1.464 v 2.412 c 0.48000002 0.32399988 0.96000004 0.5640001 1.1759999 0.5640001 c 0.48000026 0 0.8399999 -0.21600008 0.8399999 -0.9000001 v -2.004 c 0 -1.008 -0.19199991 -1.1159999 -0.684 -1.152 c -0.07199979 -0.072 -0.07199979 -0.336 0 -0.408 c 0.5040002 0.012 0.888 0.024 1.4640002 0.024 c 0.65999985 0 1.1880002 -0.012 1.704 -0.024 c 0.07200003 0.072 0.07200003 0.336 0 0.408 c -0.7319999 0.036000013 -0.9239998 0.144 -0.9239998 1.152 v 1.872 c 0 1.3200002 -0.5640001 1.9200001 -1.5960002 1.9200001 c -0.48000002 0 -1.332 -0.5279999 -1.9920001 -0.9840002 c -0.036000013 0.42000008 -0.08399987 0.7800002 -0.08399987 0.7800002 c -0.012000084 0.14400005 -0.10800004 0.204 -0.27600002 0.204 c -0.444 -0.119999886 -1.164 -0.2880001 -1.9920001 -0.3959999 c -0.024000019 -0.07200003 0 -0.31200027 0.023999989 -0.3840003 c 0.65999997 -0.059999943 0.78 -0.15599966 0.78 -0.8399999 v -2.244 c 0 -0.996 -0.13199997 -1.02 -0.86399996 -1.0799999 c -0.072 -0.072 -0.072 -0.336 0 -0.408 c 0.50399995 0.012 1.008 0.024 1.6439999 0.024 c 0.55200016 0 0.88800013 -0.012 1.4040002 -0.024 c 0.07199979 0.072 0.07199979 0.336 0 0.408 c -0.5040002 0.048000008 -0.6240001 0.08399999 -0.6240001 1.0799999 Z "/>
        </symbol>
        <symbol id="a" overflow="visible">
            <path d="M 0 0m 5.916 3.876 h -5.2079997 v -0.684 h 5.2079997 Z m 0 -1.5 h -5.2079997 v -0.67199993 h 5.2079997 Z "/>
        </symbol>
        <symbol id="b" overflow="visible">
            <path d="M 0 0m 4.404 1.464 v 4.332 c 0 0.63600016 0.096000195 1.3200002 0.096000195 1.3200002 c 0 0.15599966 -0.096000195 0.204 -0.204 0.204 c -0.119999886 0 -0.32399988 -0.048000336 -0.5999999 -0.1800003 c -0.7320001 -0.33599997 -1.5480001 -0.6239996 -2.592 -1.0559998 c 0.012000084 -0.204 0.096000075 -0.3959999 0.26400006 -0.5160003 c 0.648 0.27600002 1.0799999 0.3000002 1.2479999 0.3000002 c 0.15600014 0 0.22800016 -0.04799986 0.22800016 -0.64799976 v -3.7560003 c 0 -0.996 -0.576 -1.0439999 -1.2360001 -1.0799999 c -0.120000005 -0.072 -0.120000005 -0.336 0 -0.408 c 0.98399997 0.012 1.5480001 0.024 2.0279999 0.024 c 0.48000026 0 1.0200002 -0.012 2.004 -0.024 c 0.12000036 0.072 0.12000036 0.336 0 0.408 c -0.65999985 0.036000013 -1.2360001 0.08399999 -1.2360001 1.0799999 Z "/>
        </symbol>
        <symbol id="c" overflow="visible">
            <path d="M 0 0m 3.06 -0.120000005 c 1.1880002 0 2.7480001 0.948 2.7480001 3.804 c 0 2.8320003 -1.4759998 3.6360002 -2.688 3.6360002 c -1.5480001 0 -2.7600002 -1.3440003 -2.7600002 -3.7440002 c 0 -1.9679999 0.94799995 -3.696 2.6999998 -3.696 Z m 0.06000018 6.936 c 0.46799994 0 0.98399997 -0.7680001 0.98399997 -2.892 c 0 -2.88 -0.55200005 -3.54 -1.0320001 -3.54 c -0.98399997 0 -0.99600005 2.04 -0.99600005 3.06 c 0 2.9160001 0.5640001 3.372 1.0440001 3.372 Z "/>
        </symbol>
        <symbol id="d" overflow="visible">
            <path d="M 0 0m 3.348 3.012 c 0 0.53999996 -0.059999943 3.2399998 -2.784 5.592 l -0.36 -0.38399982 c 0.384 -0.43200016 1.764 -2.0400004 1.764 -5.208 c 0 -3.168 -1.404 -4.776 -1.764 -5.196 l 0.33600003 -0.408 c 1.572 1.356 2.808 3.42 2.808 5.604 Z "/>
        </symbol>
        <symbol id="e" overflow="visible">
            <path d="M 0 0m 2.1 1.464 v 3.2159998 h 1.1160002 c 0.10800004 0 0.27600002 0.048000336 0.27600002 0.15600014 v 0.24000025 c 0 0.04799986 -0.036000013 0.07200003 -0.095999956 0.07200003 h -1.2960002 v 0.684 c 0 1.848 0.55200005 2.1359997 0.9480002 2.1359997 c 0.3599999 0 0.55200005 -0.14400005 0.72 -0.56399965 c 0.095999956 -0.21600008 0.22799993 -0.3840003 0.48000002 -0.3840003 c 0.204 0 0.4920001 0.25199986 0.4920001 0.4920001 c 0 0.204 -0.13200045 0.42000008 -0.3840003 0.6119995 c -0.3119998 0.21600056 -0.62399983 0.2520008 -1.0799999 0.2520008 c -1.0079999 0 -2.124 -0.8760004 -2.124 -2.7480001 v -0.48000002 h -0.6119999 c -0.21600002 0 -0.27600002 -0.14400005 -0.27600002 -0.24000025 v -0.15600014 c 0 -0.059999943 0.0119999945 -0.07200003 0.060000002 -0.07200003 h 0.82799995 v -3.2159998 c 0 -0.996 -0.19199991 -1.0439999 -0.8399999 -1.092 c -0.072 -0.072 -0.072 -0.324 0 -0.396 c 0.42 0.012 0.8399999 0.024 1.3199999 0.024 c 0.48000002 0 1.056 -0.012 1.4760001 -0.024 c 0.07200003 0.072 0.07200003 0.324 0 0.396 c -0.9360001 0.048000008 -1.0080001 0.095999986 -1.0080001 1.092 Z "/>
        </symbol>
        <symbol id="f" overflow="visible">
            <path d="M 0 0m 0.528 3.024 c 0 -0.53999996 0.047999978 -3.3119998 2.5440001 -5.472 c 0.119999886 0.02399993 0.21600008 0.10800004 0.2520001 0.204 c -0.39600015 0.45599997 -1.8000001 2.112 -1.8000001 5.2679996 c 0 3.156 1.416 4.8120003 1.8000001 5.2439995 c -0.036000013 0.12000084 -0.120000124 0.20400047 -0.2520001 0.21600056 c -1.428 -1.224 -2.5440001 -3.2280002 -2.5440001 -5.46 Z "/>
        </symbol>
        <symbol id="10" overflow="visible">
            <path d="M 0 0m 2.208 4.296 c -0.07200003 -0.08400011 -0.14399981 -0.1079998 -0.14399981 0 c -0.012000084 0.32399988 -0.036000013 0.7919998 -0.096000075 0.9120002 c -0.024000049 0.059999943 -0.047999978 0.09599972 -0.14400005 0.09599972 c -0.33599997 -0.13199997 -0.648 -0.23999977 -1.4760001 -0.34800005 c -0.023999989 -0.07200003 0 -0.26399994 0.024000019 -0.33599997 c 0.648 -0.059999943 0.78 -0.119999886 0.78 -0.81599975 v -2.3400002 c 0 -0.98399997 -0.119999886 -1.032 -0.8399999 -1.092 c -0.072 -0.072 -0.072 -0.324 0 -0.396 c 0.35999998 0.012 0.8399999 0.024 1.3199999 0.024 c 0.48000002 0 0.84000015 -0.012 1.2 -0.024 c 0.07200003 0.072 0.07200003 0.324 0 0.396 c -0.612 0.060000002 -0.7320001 0.10800001 -0.7320001 1.092 v 1.9679999 c 0 0.2520001 0.10800004 0.39600015 0.204 0.5040002 c 0.4560001 0.444 0.99600005 0.70799994 1.4640002 0.70799994 c 0.23999977 0 0.4920001 -0.15600014 0.6359997 -0.43200016 c 0.12000036 -0.23999977 0.14400005 -0.5639999 0.14400005 -0.9239998 v -1.8240001 c 0 -0.98399997 -0.119999886 -1.032 -0.7439997 -1.092 c -0.06000018 -0.072 -0.06000018 -0.324 0 -0.396 c 0.3599999 0.012 0.7439997 0.024 1.2239997 0.024 c 0.48000002 0 0.9120002 -0.012 1.2720003 -0.024 c 0.059999943 0.072 0.059999943 0.324 0 0.396 c -0.67199993 0.060000002 -0.8040004 0.10800001 -0.8040004 1.092 v 1.7880001 c 0 0.65999985 -0.04799986 1.2359998 -0.32399988 1.608 c -0.204 0.26399994 -0.57599974 0.408 -0.9959998 0.408 c -0.58800006 0 -1.26 -0.15600014 -1.9680002 -0.9720001 Z "/>
        </symbol>
        <symbol id="11" overflow="visible">
            <path d="M 0 0m 5.568 3.708 c 0.15600014 0 0.32400036 0.27600002 0.32400036 0.39600015 c 0 0.09599972 -0.048000336 0.204 -0.16800022 0.204 h -4.704 c -0.144 0 -0.29999995 -0.22800016 -0.29999995 -0.408 c 0 -0.095999956 0.07199997 -0.19200015 0.18 -0.19200015 Z m 0 -1.992 c 0.15600014 0 0.32400036 0.27600002 0.32400036 0.39600003 c 0 0.095999956 -0.048000336 0.204 -0.16800022 0.204 h -4.704 c -0.144 0 -0.29999995 -0.22799993 -0.29999995 -0.408 c 0 -0.095999956 0.07199997 -0.19200003 0.18 -0.19200003 Z "/>
        </symbol>
        <symbol id="12" overflow="visible">
            <path d="M 0 0m 1.728 4.116 c 0.324 1.092 1.0919999 2.304 2.6879997 2.9039998 c 0 0.14400005 -0.04799986 0.25199986 -0.14400005 0.31200027 c -1.2119999 -0.36000013 -1.9559999 -0.8640003 -2.6279998 -1.644 c -0.744 -0.8640003 -1.116 -1.9560001 -1.116 -2.9040003 c 0 -2.4359999 1.38 -2.916 2.304 -2.916 c 1.5719998 0 2.22 1.5239999 2.22 2.556 c 0 1.0320001 -0.55200005 1.9560001 -2.184 1.9560001 c -0.31200004 0 -0.78 -0.096000195 -1.14 -0.26399994 Z m -0.10800004 -0.43200016 c 0.39600003 0.26399994 0.79199994 0.27600002 0.99599993 0.27600002 c 1.1760001 0 1.4400003 -1.152 1.4400003 -1.7520001 c 0 -1.3199999 -0.5040002 -1.92 -1.0920002 -1.92 c -0.75600004 0 -1.4399999 0.408 -1.4399999 2.46 c 0 0.27600002 0.02399993 0.58800006 0.095999956 0.9360001 Z "/>
        </symbol>
        <symbol id="13" overflow="visible">
            <path d="M 0 0m 3.048 3.024 c 0 0.5400002 -0.048000097 3.312 -2.5440001 5.472 c -0.120000005 -0.024000168 -0.21600002 -0.1079998 -0.252 -0.20400047 c 0.396 -0.45599985 1.8000001 -2.112 1.8000001 -5.2679996 c 0 -3.156 -1.4160001 -4.812 -1.8000001 -5.244 c 0.035999984 -0.119999886 0.120000005 -0.204 0.252 -0.21600008 c 1.428 1.2240001 2.5440001 3.2280002 2.5440001 5.46 Z "/>
        </symbol>
        <symbol id="14" overflow="visible">
            <path d="M 0 0m 2.04 4.296 c -0.0119998455 0.36000013 -0.036000013 0.7919998 -0.095999956 0.9120002 c -0.02399993 0.059999943 -0.047999978 0.09599972 -0.14399993 0.09599972 c -0.33600008 -0.13199997 -0.6480001 -0.23999977 -1.4760001 -0.34800005 c -0.023999989 -0.07200003 0 -0.26399994 0.023999989 -0.33599997 c 0.648 -0.059999943 0.78000003 -0.119999886 0.78000003 -0.81599975 v -2.3400002 c 0 -0.98399997 -0.15600002 -1.0439999 -0.816 -1.092 c -0.072 -0.072 -0.072 -0.324 0 -0.396 c 0.35999998 0.012 0.816 0.024 1.296 0.024 c 0.48000002 0 0.852 -0.012 1.2119999 -0.024 c 0.07200003 0.072 0.07200003 0.324 0 0.396 c -0.612 0.060000002 -0.74399996 0.10800001 -0.74399996 1.092 v 1.9679999 c 0 0.2520001 0.10800004 0.39600015 0.204 0.5040002 c 0.48000002 0.4679997 0.924 0.70799994 1.296 0.70799994 c 0.4560001 0 0.79200006 -0.2880001 0.79200006 -1.092 v -2.088 c 0 -0.98399997 -0.096000195 -1.0439999 -0.74399996 -1.092 c -0.059999943 -0.072 -0.059999943 -0.324 0 -0.396 c 0.29999995 0.012 0.74399996 0.024 1.224 0.024 c 0.48000002 0 0.8759999 -0.012 1.1760001 -0.024 c 0.059999943 0.072 0.059999943 0.324 0 0.396 c -0.5999999 0.048000008 -0.7080002 0.10800001 -0.7080002 1.092 v 1.908 c 0 0.16799998 0 0.33599997 -0.012000084 0.48000002 c 0.5760002 0.6359999 1.1160002 0.79200006 1.5840001 0.79200006 c 0.45599985 0 0.72000027 -0.26399994 0.72000027 -1.0680001 v -2.112 c 0 -0.98399997 -0.12000036 -1.0439999 -0.74400043 -1.092 c -0.059999943 -0.072 -0.059999943 -0.324 0 -0.396 c 0.3000002 0.012 0.74400043 0.024 1.2240005 0.024 c 0.47999954 0 0.8999996 -0.012 1.2360001 -0.024 c 0.059999466 0.072 0.059999466 0.324 0 0.396 c -0.65999985 0.048000008 -0.7680006 0.10800001 -0.7680006 1.092 v 1.8960001 c 0 1.0679998 -0.17999935 1.908 -1.2359996 1.908 c -0.612 0 -1.356 -0.22800016 -1.98 -0.888 c -0.03600025 -0.03600025 -0.10800028 -0.096000195 -0.13199997 0.012000084 c -0.10800028 0.49199963 -0.5760002 0.8759999 -1.2000003 0.8759999 c -0.69599986 0 -1.3199999 -0.408 -1.8239999 -0.9720001 c -0.059999943 -0.059999943 -0.13199997 -0.14400005 -0.14400005 0 Z "/>
        </symbol>
        <symbol id="15" overflow="visible">
            <path d="M 0 0m 5.16 2.628 h -0.9959998 v 3.504 c 0 0.5999999 0 1.0680003 0.024000168 1.164 l -0.024000168 0.024000168 h -0.38400006 c -0.08399987 0 -0.14400005 -0.07200003 -0.19199991 -0.13199997 c -0.75600004 -0.92400026 -2.148 -2.9040003 -3.252 -4.62 c 0.036000013 -0.18000007 0.10800001 -0.50399995 0.46800002 -0.50399995 h 2.448 v -1.1040001 c 0 -0.55200005 -0.4560001 -0.55200005 -0.9720001 -0.58800006 c -0.07200003 -0.072 -0.07200003 -0.324 0 -0.396 c 0.38400006 0.012 0.8640001 0.024 1.4160001 0.024 c 0.46799994 0 0.9239998 -0.012 1.3080001 -0.024 c 0.07200003 0.072 0.07200003 0.324 0 0.396 c -0.5880003 0.048000008 -0.84000015 0.023999989 -0.84000015 0.58800006 v 1.1040001 h 0.82800007 c 0.16799974 0 0.34800005 0.22799993 0.34800005 0.37199998 c 0 0.119999886 -0.048000336 0.19199991 -0.1800003 0.19199991 Z m -1.9079998 3.456 v -3.456 h -2.292 c 0.612 0.98399997 1.464 2.3279998 2.292 3.456 Z "/>
        </symbol>
        <symbol id="16" overflow="visible">
            <path d="M 0 0m 1.98 0.948 l 0.6359999 1.668 c 0.06000018 0.15600014 0.13199997 0.204 0.42000008 0.204 h 2.28 l 0.67199993 -1.9559999 c 0.14400005 -0.432 -0.204 -0.444 -0.65999985 -0.46800002 c -0.07200003 0 -0.15600014 -0.0119999945 -0.22800016 -0.0119999945 c -0.07200003 -0.072 -0.07200003 -0.336 0 -0.408 c 0.44400024 0.012 1.5840001 0.024 2.052 0.024 c 0.4920001 0 1.164 -0.012 1.6080003 -0.024 c 0.07199955 0.072 0.07199955 0.336 0 0.408 c -0.4680004 0.048000008 -0.8640003 0.036000013 -1.0799999 0.64800006 l -2.4720001 6.864 c -0.1800003 -0.1079998 -0.9000001 -0.5279999 -1.3200002 -0.5279999 l -2.604 -6.144 c -0.31200004 -0.74399996 -0.67200005 -0.80399996 -1.2 -0.84 c -0.072 -0.072 -0.072 -0.336 0 -0.408 c 0.444 0.012 0.66 0.024 1.128 0.024 c 0.49199998 0 1.1520001 -0.012 1.5960001 -0.024 c 0.07200003 0.072 0.07200003 0.336 0 0.408 c -0.4560001 0.036000013 -1.0200001 0.072 -0.82800007 0.564 Z m 1.296 2.4480002 c -0.26399994 0 -0.34800005 0.035999775 -0.29999995 0.1559999 l 1.056 2.6880002 h 0.08400011 l 0.9839997 -2.844 Z "/>
        </symbol>
        <symbol id="17" overflow="visible">
            <path d="M 0 0m 5.604 4.728 c 0.33599997 0 0.5279999 0.14400005 0.5279999 0.5879998 c 0 0.22800016 -0.3119998 0.5760002 -0.7680001 0.5760002 c -0.5279999 0 -1.224 -0.3960004 -1.5719998 -0.7080002 c -0.21600008 0.119999886 -0.46799994 0.14400005 -1.0080001 0.14400005 c -0.5159998 0 -1.0199999 -0.119999886 -1.4159999 -0.38399982 c -0.49200004 -0.31200027 -0.81600004 -0.7800002 -0.81600004 -1.3920002 c 0 -0.58800006 0.34800005 -1.224 0.9240001 -1.536 c -0.3720001 -0.324 -0.9480001 -0.96000004 -0.9480001 -1.2 c 0 -0.22799999 0.036000013 -0.37199998 0.15600002 -0.552 c 0.10799998 -0.168 0.25199997 -0.264 0.49199998 -0.336 c -0.516 -0.312 -1.044 -0.99599993 -1.044 -1.1999999 c 0 -0.444 0.144 -0.96000016 0.46800002 -1.1880001 c 0.46799994 -0.32399988 1.26 -0.3959999 1.8360001 -0.3959999 c 1.668 0 3.576 0.8759999 3.576 2.1959999 c 0 0.25200003 -0.119999886 0.768 -0.5999999 1.092 c -0.46799994 0.312 -2.2680001 0.396 -3.1560001 0.396 c -0.21600008 0 -0.5400001 0.023999989 -0.5400001 0.504 c 0 0.19200003 0.120000005 0.36 0.18000007 0.50399995 c 0.25199997 -0.120000005 0.50400007 -0.13199997 0.87600005 -0.13199997 c 0.612 0 1.1759999 0.15600002 1.5839999 0.51600003 c 0.34800005 0.31200004 0.5880003 0.7320001 0.5880003 1.2720001 c 0 0.67199993 -0.33600044 1.1159997 -0.74400043 1.4520001 c 0.096000195 0.119999886 0.4920001 0.33599997 0.61200047 0.33599997 c 0.1079998 0 0.19199991 -0.07200003 0.22799969 -0.14400005 c 0.04799986 -0.15600014 0.26399994 -0.408 0.5640001 -0.408 Z m -3.5040002 -5.0280004 c 0.924 0 2.7000003 -0.035999984 2.7000003 -0.672 c 0 -0.43200004 -0.19200039 -0.924 -0.5880003 -1.14 c -0.37199974 -0.21600008 -0.98399997 -0.24000001 -1.4399998 -0.24000001 c -0.79200006 0 -1.332 0.58799994 -1.332 1.2 c 0 0.40799993 0 0.68399996 0.13199997 0.92399997 c 0.120000005 -0.047999993 0.27600002 -0.07200001 0.5279999 -0.07200001 Z m 1.3800001 3.756 c 0 -1.1520002 -0.33599997 -1.296 -0.648 -1.296 c -0.74399996 0 -0.84000003 0.888 -0.84000003 1.5 c 0 0.8879998 0.21599996 1.2120001 0.68400013 1.2120001 c 0.5639999 0 0.8039999 -0.4680004 0.8039999 -1.4160001 Z "/>
        </symbol>
        <symbol id="18" overflow="visible">
            <path d="M 0 0m 2.904 -2.016 c 0.19199991 0.33599997 0.37199998 0.768 0.51600003 1.128 c 0.96000004 2.316 1.5479999 3.612 2.184 4.956 c 0.16799974 0.34800005 0.5279999 0.72000027 0.9720001 0.75600004 c 0.07200003 0.07200003 0.07200003 0.33599997 0 0.408 c -0.3000002 -0.011999607 -0.5160003 -0.023999691 -0.85200024 -0.023999691 c -0.42000008 0 -0.82800007 0.012000084 -1.2719998 0.023999691 c -0.07200003 -0.07200003 -0.07200003 -0.33599997 0 -0.408 c 0.38399982 -0.035999775 0.7680001 -0.09599972 0.57599974 -0.5279999 l -1.2359998 -2.7719998 c 0 -0.012000084 0 -0.012000084 -0.012000084 -0.024000049 c 0 0.011999965 0 0.024000049 -0.0119998455 0.047999978 l -1.1160002 2.5080004 c -0.0119998455 0.011999607 -0.0119998455 0.023999691 -0.0119998455 0.035999775 c -0.21600008 0.46799994 -0.3000002 0.67199993 0.408 0.7319999 c 0.07200003 0.07200003 0.07200003 0.33599997 0 0.408 c -0.444 -0.011999607 -1.164 -0.023999691 -1.5960001 -0.023999691 c -0.408 0 -1.092 0.012000084 -1.332 0.023999691 c -0.072000004 -0.07200003 -0.072000004 -0.33599997 0 -0.408 c 0.528 -0.04799986 0.624 -0.13199997 0.94799995 -0.8879998 l 1.548 -3.552 c 0.036000013 -0.060000002 0.08400011 -0.10800001 0.120000124 -0.156 c 0.1559999 -0.216 0.28799987 -0.396 0.21600008 -0.564 l -0.2880001 -0.65999997 c -0.1559999 -0.37200004 -0.29999995 -0.588 -0.6359999 -0.588 c -0.21600008 0 -0.2520001 0.047999978 -0.42000008 0.047999978 c -0.4560001 0 -0.72 -0.31200004 -0.72 -0.55200005 c 0 -0.1559999 0.036000013 -0.34800005 0.14400005 -0.48000002 c 0.10799992 -0.13199997 0.31199992 -0.21599984 0.46799994 -0.21599984 c 0.15600002 0 0.51600003 0.04799986 0.684 0.119999886 c 0.2520001 0.120000124 0.58800006 0.408 0.72 0.648 Z "/>
        </symbol>
        <symbol id="19" overflow="visible">
            <path d="M 0 0m 2.736 3.216 c 0 0.43199992 0.13199997 0.612 0.28799987 0.7919998 c 0.096000195 0.12000036 0.204 0.204 0.38400006 0.204 c 0.10800004 0 0.24000001 -0.1079998 0.33599997 -0.22799993 c 0.08400011 -0.095999956 0.2880001 -0.19199991 0.5640001 -0.19199991 c 0.34800005 0 0.684 0.3599999 0.684 0.8640001 c 0 0.3119998 -0.36000013 0.67199993 -0.7920003 0.67199993 c -0.41999984 0 -0.8759997 -0.36000013 -1.4279997 -1.152 h -0.048000097 c -0.02399993 0.36000013 -0.08399987 0.94799995 -0.08399987 0.94799995 c -0.012000084 0.1079998 -0.10800004 0.204 -0.27600002 0.204 c -0.564 -0.14400005 -1.2 -0.3119998 -1.9920001 -0.3959999 c -0.024000019 -0.07200003 0 -0.3000002 0.023999989 -0.37200022 c 0.65999997 -0.059999943 0.78 -0.16799974 0.78 -0.852 v -2.244 c 0 -0.996 -0.13199997 -1.02 -0.86399996 -1.0799999 c -0.072 -0.072 -0.072 -0.336 0 -0.408 c 0.50399995 0.012 1.008 0.024 1.6439999 0.024 c 0.63600004 0 1.1280001 -0.012 1.6440002 -0.024 c 0.07199979 0.072 0.07199979 0.336 0 0.408 c -0.7320001 0.048000008 -0.8640001 0.08399999 -0.8640001 1.0799999 Z "/>
        </symbol>
        <symbol id="1a" overflow="visible">
            <path d="M 0 0m 0.576 1.752 c 0.048000038 -0.58799994 0.10800004 -1.152 0.20400006 -1.608 c 0.22799999 -0.072 0.996 -0.264 1.668 -0.264 c 0.924 0 2.0760002 0.504 2.0760002 1.548 c 0 0.408 -0.096000195 0.7320001 -0.37200022 1.0320001 c -0.33599997 0.38400006 -0.8399999 0.684 -1.392 0.924 c -0.48000002 0.204 -0.648 0.58800006 -0.648 0.9360001 c 0 0.27600002 0.22799993 0.5039997 0.576 0.5039997 c 0.42000008 0 0.82800007 -0.38399982 1.128 -1.1159999 c 0.21600008 -0.036000013 0.34800005 -0.02399993 0.46799994 0.06000018 c 0 0.43199968 -0.04799986 0.888 -0.15599966 1.2719998 c -0.3840003 0.16800022 -0.68400025 0.2880001 -1.3440003 0.2880001 c -0.6359999 0 -1.236 -0.24000025 -1.6199999 -0.6240001 c -0.27600002 -0.27600002 -0.40800005 -0.612 -0.40800005 -0.9359999 c 0 -0.36000013 0.14400005 -0.648 0.37200004 -0.9000001 c 0.37199998 -0.408 1.0320001 -0.82800007 1.392 -0.99600005 c 0.48000002 -0.21599996 0.612 -0.648 0.612 -0.936 c 0 -0.384 -0.38400006 -0.588 -0.70799994 -0.588 c -0.53999996 0 -1.116 0.55200005 -1.368 1.428 c -0.19199997 0.036000013 -0.288 0.024000049 -0.48000002 -0.024000049 Z "/>
        </symbol>
        <symbol id="1b" overflow="visible">
            <path d="M 0 0m 7.956 1.392 c 0.059999943 -0.97199994 0.012000084 -0.98399997 -0.76799965 -1.02 c -0.07200003 -0.072 -0.07200003 -0.324 0 -0.396 c 0.44399977 0.012 0.92400026 0.024 1.2839999 0.024 c 0.35999966 0 0.9119997 -0.012 1.3079996 -0.024 c 0.0720005 0.072 0.0720005 0.324 0 0.396 c -0.816 0.035999984 -0.8519993 0.08399999 -0.9239998 1.08 l -0.35999966 5.052 c -0.048000336 0.64799976 0.012000084 0.816 0.82800007 0.86399984 c 0.07199955 0.07200003 0.07199955 0.32399988 0 0.3959999 l -1.5720005 -0.023999691 l -2.5439997 -6.084 c -0.048000336 -0.120000005 -0.08400011 -0.16799998 -0.10800028 -0.16799998 c -0.023999691 0 -0.059999943 0.059999943 -0.09599972 0.15600002 l -2.4600003 6.096 l -1.7399999 0.023999691 c -0.07200003 -0.07200003 -0.07200003 -0.32399988 0 -0.3959999 c 0.82799995 -0.04799986 0.9 -0.07200003 0.816 -0.9720001 l -0.48000002 -4.944 c -0.07200003 -0.72 -0.21599996 -1.02 -0.9 -1.08 c -0.07200001 -0.072 -0.07200001 -0.324 0 -0.396 c 0.36 0.012 0.744 0.024 1.032 0.024 c 0.2880001 0 0.768 -0.012 1.1280001 -0.024 c 0.07200003 0.072 0.07200003 0.324 0 0.396 c -0.79200006 0.060000002 -0.8520001 0.432 -0.79200006 1.1040001 l 0.4560001 4.8120003 h 0.02399993 l 2.484 -6.228 c 0.035999775 -0.08400001 0.1079998 -0.18 0.17999983 -0.18 c 0.07200003 0 0.12000036 0.08400001 0.16800022 0.18 l 2.6999998 6.348 h 0.024000168 Z "/>
        </symbol>
        <symbol id="1c" overflow="visible">
            <path d="M 0 0m 4.632 1.116 c -0.44399977 -0.45600003 -0.7919998 -0.64800006 -1.4879999 -0.64800006 c -0.43199992 0 -0.9360001 0.25200003 -1.3080001 0.864 c -0.24000001 0.39600003 -0.38399994 0.94799995 -0.38399994 1.644 l 3.192 -0.02399993 c 0.14400005 0 0.22800016 0.07199979 0.22800016 0.204 c 0 1.0079999 -0.36000013 2.0879998 -2.028 2.0879998 c -1.044 0 -2.4 -0.9959998 -2.4 -2.82 c 0 -0.67200005 0.16799998 -1.32 0.564 -1.776 c 0.408 -0.48000002 0.972 -0.768 1.8360001 -0.768 c 0.91199994 0 1.5599997 0.42000002 2.0399997 1.044 c -0.035999775 0.120000005 -0.1079998 0.17999995 -0.25199986 0.19200003 Z m -3.144 2.2680001 c 0.22799993 1.3560002 1.068 1.464 1.3560001 1.464 c 0.45599985 0 0.99600005 -0.25199986 0.99600005 -1.26 c 0 -0.10800004 -0.048000097 -0.16799998 -0.18000007 -0.16799998 Z "/>
        </symbol>
        <symbol id="1d" overflow="visible">
            <path d="M 0 0m 3.516 0.576 c 0.07200003 -0.37199998 0.204 -0.696 0.80400014 -0.696 c 0.45599985 0 0.888 0.204 1.1399999 0.444 c -0.024000168 0.144 -0.07200003 0.25199997 -0.204 0.324 c -0.08400011 -0.07200003 -0.2880001 -0.192 -0.44399977 -0.192 c -0.34800005 0 -0.36000013 0.46800002 -0.36000013 1.0200001 v 1.7639999 c 0 1.7040002 -0.9360001 2.028 -1.812 2.028 c -0.9840001 0 -1.98 -0.64800024 -1.98 -1.332 c 0 -0.2880001 0.144 -0.43200016 0.42000002 -0.43200016 c 0.34799993 0 0.564 0.2520001 0.564 0.408 c 0 0.08400011 -0.012000084 0.16799998 -0.036000013 0.21600032 c -0.012000084 0.035999775 -0.024000049 0.1079998 -0.024000049 0.23999977 c 0 0.37200022 0.50400007 0.5040002 0.9599999 0.5040002 c 0.40800023 0 0.9720001 -0.204 0.9720001 -1.5600002 c 0 -0.08400011 -0.036000013 -0.13199997 -0.07200003 -0.14400005 l -1.0320001 -0.25199986 c -1.152 -0.2880001 -1.9799999 -0.92400014 -1.9799999 -1.7400001 c 0 -0.98399997 0.67199993 -1.296 1.512 -1.296 c 0.42000008 0 0.78 0.096 1.3080001 0.504 l 0.24000001 0.19199997 Z m 0 2.22 v -1.584 c 0 -0.15600002 -0.07200003 -0.24000001 -0.16799998 -0.31199998 c -0.31200004 -0.25200003 -0.72 -0.528 -1.056 -0.528 c -0.6 0 -0.8640001 0.48 -0.8640001 0.852 c 0 0.5400001 0.2520001 1.092 1.1400001 1.3199999 Z "/>
        </symbol>
        <symbol id="1e" overflow="visible">
            <path d="M 0 0m 4.7400002 7.572 c -0.6960001 0.096000195 -0.6720004 0.32399988 -1.8480003 0.32399988 c -1.2119999 0 -2.28 -0.8039999 -2.28 -2.0759997 c 0 -1.2600002 1.044 -1.8360002 2.1000001 -2.2440002 c 0.7199998 -0.27600002 1.608 -0.612 1.608 -1.788 c 0 -0.972 -0.5400002 -1.476 -1.5000002 -1.476 c -1.1159999 0 -1.836 0.51600003 -2.1 1.704 c -0.15600002 0.048000097 -0.27600002 0.02399993 -0.39600003 -0.036000013 c 0.048000008 -0.924 0.096000016 -1.2360001 0.24000001 -1.824 c 0.75600004 0 1.092 -0.27600002 2.1599998 -0.27600002 c 0.53999996 0 1.056 0.132 1.4759998 0.396 c 0.6960001 0.432 1.1280003 1.164 1.1280003 1.9319999 c 0 1.2720001 -0.96000004 1.8360002 -1.944 2.208 c -0.72 0.26399994 -1.9200001 0.72000027 -1.9200001 1.7280002 c 0 0.67199993 0.612 1.3439999 1.3199999 1.3439999 c 1.164 0 1.5360003 -0.74399996 1.776 -1.5359998 c 0.13199997 -0.024000168 0.2880001 -0.012000084 0.3959999 0.07200003 c -0.04799986 0.57599974 -0.09599972 0.9119997 -0.2159996 1.5479999 Z "/>
        </symbol>
        <symbol id="1f" overflow="visible">
            <path d="M 0 0m 1.776 7.7400002 c -0.43200004 0 -1.0680001 0.011999607 -1.548 0.023999691 c -0.072 -0.07200003 -0.072 -0.32399988 0 -0.3959999 c 0.84 -0.035999775 1.0439999 -0.096000195 1.0439999 -1.092 v -4.8120003 c 0 -0.996 -0.204 -1.056 -1.0439999 -1.092 c -0.072 -0.072 -0.072 -0.324 0 -0.396 c 0.468 0.012 1.104 0.024 1.56 0.024 c 0.44400012 0 0.9480001 -0.024 2.184 -0.024 c 1.6919999 0 3.9239998 0.768 3.9239998 3.72 c 0 2.2319999 -1.836 4.068 -4.14 4.068 c -0.852 0 -1.5120001 -0.023999691 -1.98 -0.023999691 Z m 0.51600003 -6.7320004 v 5.76 c 0 0.42000008 0.42000008 0.5879998 1.0079999 0.5879998 c 2.5920002 0 3.444 -2.1 3.444 -3.948 c 0 -2.424 -1.4520001 -3.024 -3.1439998 -3.024 c -1.1760001 0 -1.3080001 0.24000001 -1.3080001 0.624 Z "/>
        </symbol>
        <symbol id="20" overflow="visible">
            <path d="M 0 0m 3.828 2.2680001 c 0 -1.1400001 -0.60000014 -1.9800001 -1.3199999 -1.9800001 c -0.4560001 0 -0.6120001 0.3 -0.7920002 0.54 c -0.1559999 0.20400006 -0.3599999 0.384 -0.612 0.384 c -0.22799999 0 -0.45599997 -0.204 -0.45599997 -0.444 c 0 -0.492 1.02 -0.9 1.704 -0.9 c 1.4880002 0 2.544 1.104 2.544 2.616 c 0 1.164 -0.8039999 2.208 -2.148 2.208 c -0.5159998 0 -0.9599999 -0.1079998 -1.1759999 -0.19199991 l 0.24000001 2.0040002 c 0.444 -0.048000336 0.82800007 -0.10800028 1.404 -0.10800028 c 0.3599999 0 0.7679999 0.024000168 1.2599998 0.07200003 l 0.19200039 0.816 l -0.08400011 0.048000336 c -0.684 -0.07200003 -1.332 -0.13199997 -1.9680002 -0.13199997 c -0.444 0 -0.8759999 0.023999691 -1.2959999 0.059999943 l -0.40800005 -3.456 c 0.636 0.24000001 1.092 0.28799987 1.5240002 0.28799987 c 0.78 0 1.392 -0.51600003 1.392 -1.8239999 Z "/>
        </symbol>
        <symbol id="21" overflow="visible">
            <path d="M 0 0m 0.684 0.51600003 c 0 -0.34800005 0.288 -0.63600004 0.63600004 -0.63600004 c 0.34799993 0 0.6359999 0.288 0.6359999 0.63600004 c 0 0.348 -0.288 0.6359999 -0.6359999 0.6359999 c -0.34800005 0 -0.63600004 -0.28799993 -0.63600004 -0.6359999 Z "/>
        </symbol>
        <symbol id="22" overflow="visible">
            <path d="M 0 0m 0.732 5.616 c 0 -0.25200033 0.22800004 -0.46799994 0.48000002 -0.46799994 c 0.204 0 0.564 0.2159996 0.564 0.48000002 c 0 0.09599972 -0.024000049 0.16799974 -0.047999978 0.25199986 c -0.024000049 0.08400011 -0.096000075 0.19199991 -0.096000075 0.2880001 c 0 0.2999997 0.31200004 0.7319999 1.188 0.7319999 c 0.43200016 0 1.0440001 -0.3000002 1.0440001 -1.4520001 c 0 -0.7680001 -0.27600002 -1.3919997 -0.98399997 -2.112 l -0.88800013 -0.8759999 c -1.176 -1.2 -1.368 -1.776 -1.368 -2.484 c 0 0 0.61200005 0.024 0.996 0.024 h 2.1 c 0.38400006 0 0.9360001 -0.024 0.9360001 -0.024 c 0.15600014 0.636 0.27600002 1.536 0.2880001 1.896 c -0.07200003 0.060000062 -0.22800016 0.08399999 -0.34800005 0.060000062 c -0.204 -0.852 -0.408 -1.152 -0.84000015 -1.152 h -2.1360002 c 0 0.57600003 0.82799995 1.392 0.88800013 1.4520001 l 1.2119999 1.164 c 0.6839998 0.6600001 1.2 1.188 1.2 2.0999997 c 0 1.2960005 -1.056 1.8240004 -2.028 1.8240004 c -1.3319999 0 -2.1599998 -0.9840002 -2.1599998 -1.704 Z "/>
        </symbol>
        <symbol id="23" overflow="visible">
            <path d="M 0 0m 2.736 -0.120000005 c 0.924 0 2.328 0.936 2.328 3.756 c 0 1.188 -0.2880001 2.208 -0.816 2.904 c -0.31200004 0.42000008 -0.8160002 0.7800002 -1.4640002 0.7800002 c -1.188 0 -2.316 -1.4159999 -2.316 -3.792 c 0 -1.2840002 0.39600003 -2.4840002 1.056 -3.144 c 0.33599997 -0.336 0.7440001 -0.504 1.212 -0.504 Z m 0.04799986 7.02 c 0.204 0 0.39600015 -0.07200003 0.5400002 -0.204 c 0.37199998 -0.31200027 0.69599986 -1.224 0.69599986 -2.832 c 0 -1.1040001 -0.036000013 -1.8600001 -0.204 -2.4720001 c -0.26399994 -0.98399997 -0.852 -1.092 -1.0680001 -1.092 c -1.1159999 0 -1.236 2.052 -1.236 3.0960002 c 0 2.952 0.732 3.504 1.272 3.504 Z "/>
        </symbol>
        <symbol id="24" overflow="visible">
            <path d="M 0 0m 2.04 6.42 h 2.1480002 c -0.9360001 -2.328 -1.8840003 -4.668 -2.7000003 -6.492 l 0.095999956 -0.08400001 l 0.8160001 0.036 c 0.684 2.04 1.3439999 4.032 2.6879997 7.308 l -0.19199991 0.14400005 c -0.204 -0.06000042 -0.46799994 -0.13199997 -0.9239998 -0.13199997 h -2.4720001 c -0.408 0 -0.38399994 0.119999886 -0.59999996 0.16799974 c -0.036000013 0 -0.048000038 0 -0.048000038 -0.035999775 c -0.011999965 -0.5760002 -0.144 -1.296 -0.24000001 -1.9200001 c 0.13200003 -0.03600025 0.25200003 -0.048000336 0.384 -0.03600025 c 0.264 0.96000004 0.66 1.0440001 1.0439999 1.0440001 Z "/>
        </symbol>
        <symbol id="25" overflow="visible">
            <path d="M 0 0m 3.456 1.464 v 4.1640005 c 0 0.7199998 0.0119998455 1.4519997 0.036000013 1.6079998 c 0 0.059999943 -0.024000168 0.059999943 -0.07200003 0.059999943 c -0.6600001 -0.408 -1.296 -0.7080002 -2.3520002 -1.1999998 c 0.024000049 -0.13199997 0.07200003 -0.25200033 0.18000007 -0.32400036 c 0.55200005 0.22800016 0.8160001 0.3000002 1.044 0.3000002 c 0.204 0 0.24000001 -0.2880001 0.24000001 -0.6960001 v -3.912 c 0 -0.996 -0.32400012 -1.056 -1.164 -1.092 c -0.07200003 -0.072 -0.07200003 -0.324 0 -0.396 c 0.58799994 0.012 1.02 0.024 1.668 0.024 c 0.576 0 0.8640001 -0.012 1.464 -0.024 c 0.07200003 0.072 0.07200003 0.324 0 0.396 c -0.8399999 0.035999984 -1.0439999 0.095999986 -1.0439999 1.092 Z "/>
        </symbol>
        <symbol id="26" overflow="visible">
            <path d="M 0 0m 3.924 3.072 c -0.32399988 -1.092 -1.092 -2.304 -2.688 -2.904 c 0 -0.144 0.047999978 -0.252 0.14399993 -0.31199998 c 1.212 0.36 1.956 0.864 2.6279998 1.644 c 0.74399996 0.8640001 1.1160002 1.9560001 1.1160002 2.9039998 c 0 2.4360003 -1.3800001 2.9160004 -2.3040001 2.9160004 c -1.5719999 0 -2.2199998 -1.5240002 -2.2199998 -2.5560002 c 0 -1.0319998 0.5519999 -1.9559999 2.184 -1.9559999 c 0.31200004 0 0.7800002 0.095999956 1.1400001 0.26399994 Z m 0.10800004 0.43199992 c -0.39600015 -0.26399994 -0.79200006 -0.27600002 -0.99600005 -0.27600002 c -1.176 0 -1.44 1.1520002 -1.44 1.7520001 c 0 1.3200002 0.50399995 1.9200001 1.092 1.9200001 c 0.75600004 0 1.4400003 -0.408 1.4400003 -2.46 c 0 -0.26399994 -0.024000168 -0.58800006 -0.096000195 -0.9360001 Z "/>
        </symbol>
        <symbol id="27" overflow="visible">
            <path d="M 0 0m 4.716 5.82 c 0 0.86399984 -0.67199993 1.5 -1.848 1.5 c -1.224 0 -2.016 -0.73200035 -2.016 -1.6560001 c 0 -0.67199993 0.324 -1.164 1.056 -1.6199999 l 0.31200004 -0.19200015 c -0.34800005 -0.18000007 -0.67200005 -0.3959999 -0.972 -0.6600001 c -0.49200004 -0.43199992 -0.69600004 -0.9719999 -0.69600004 -1.4399999 c 0 -1.224 0.864 -1.872 2.136 -1.872 c 1.5720003 0 2.34 1.1520001 2.34 2.0640001 c 0 0.6960001 -0.2999997 1.3080001 -0.9359999 1.6919999 l -0.852 0.51600003 c 0.5640001 0.27600002 1.4760001 0.9000001 1.4760001 1.6680002 Z m -2.004 -5.52 c -0.5400002 0 -1.3560001 0.37199998 -1.3560001 1.4519999 c 0 0.36 0.1559999 1.2000002 1.1879998 1.884 l 0.5640001 -0.33599997 c 0.74399996 -0.45599985 1.0439999 -1.02 1.0439999 -1.596 c 0 -1.2 -0.89999986 -1.404 -1.4399998 -1.404 Z m 0.095999956 6.6 c 0.78 0 1.0679998 -0.5160003 1.0679998 -1.0679998 c 0 -0.64800024 -0.6359999 -1.1880002 -0.9599998 -1.4280005 l -0.37200022 0.22800016 c -0.7559999 0.4920001 -0.8399999 0.888 -0.8399999 1.2600002 c 0 0.55200005 0.38400006 1.0079999 1.1040001 1.0079999 Z "/>
        </symbol>
        <symbol id="28" overflow="visible">
            <path d="M 0 0m 4.008 0.6 c 0.059999943 0.047999978 0.16800022 0.07199997 0.1800003 -0.012000024 c 0.035999775 -0.288 0.13199997 -0.708 0.13199997 -0.708 c 0.09599972 -0.036 0.15599966 -0.023999989 0.22799969 0 c 0.26400042 0.216 0.684 0.396 1.4160004 0.48000002 c 0.07200003 0.072 0.07200003 0.25199997 0 0.324 c -0.7680001 0.060000002 -0.8760004 0.288 -0.8760004 0.87600005 v 5.4360003 c 0 0.77999973 0.048000336 1.2600002 0.048000336 1.2600002 c 0 0.083999634 -0.048000336 0.119999886 -0.15600014 0.119999886 c -0.3000002 -0.119999886 -1.2 -0.2880001 -1.6800001 -0.32400036 c -0.02399993 -0.096000195 0 -0.2880001 0.07200003 -0.36000013 c 0.036000013 0 0.07200003 0 0.10800004 0 c 0.5279999 -0.035999775 0.65999985 -0.035999775 0.65999985 -0.9839997 v -1.5360003 c 0 -0.08400011 -0.023999691 -0.1079998 -0.1079998 -0.1079998 c -0.048000097 0 -0.53999996 0.204 -0.9360001 0.204 c -0.79200006 0 -1.3199999 -0.26399994 -1.8 -0.72000027 c -0.516 -0.5159998 -0.828 -1.2239997 -0.828 -2.1119998 c 0 -1.4760001 0.744 -2.5560002 2.0400002 -2.5560002 c 0.46799994 0 0.91199994 0.24000001 1.4999998 0.72 Z m 0.13199997 0.888 c 0 -0.22800004 -0.023999691 -0.324 -0.19199991 -0.46800005 c -0.444 -0.384 -0.82799983 -0.576 -1.128 -0.576 c -0.648 0 -1.3199999 0.70799994 -1.3199999 2.208 c 0 0.8640001 0.16799998 1.3440001 0.34800005 1.5960002 c 0.37199998 0.5640001 0.8759999 0.5999999 1.1159999 0.5999999 c 0.43200016 0 0.7320001 -0.15600014 0.9720001 -0.43200016 c 0.16799998 -0.19199991 0.20399976 -0.27600002 0.20399976 -0.64799976 Z "/>
        </symbol>
        <symbol id="29" overflow="visible">
            <path d="M 0 0m 2.172 1.464 v 2.388 c 0 0.60000014 0.048000097 1.3680003 0.048000097 1.3680003 c 0 0.04799986 -0.059999943 0.083999634 -0.1559999 0.083999634 c -0.33600008 -0.13199997 -0.8160001 -0.23999977 -1.644 -0.34800005 c -0.024000019 -0.07200003 0 -0.26399994 0.023999989 -0.33599997 c 0.65999997 -0.059999943 0.78 -0.13199997 0.78 -0.81599975 v -2.3400002 c 0 -0.996 -0.13199997 -1.032 -0.86399996 -1.092 c -0.07200003 -0.072 -0.07200003 -0.324 0 -0.396 c 0.39599997 0.012 0.86399996 0.024 1.344 0.024 c 0.48000002 0 0.9360001 -0.012 1.332 -0.024 c 0.07200003 0.072 0.07200003 0.324 0 0.396 c -0.7320001 0.048000008 -0.8640001 0.095999986 -0.8640001 1.092 Z m -1.0919999 5.724 c 0 -0.31200027 0.288 -0.6240001 0.576 -0.6240001 c 0.33599997 0 0.62399995 0.32399988 0.62399995 0.57599974 c 0 0.2880001 -0.25199986 0.6240001 -0.576 0.6240001 c -0.288 0 -0.62399995 -0.2880001 -0.62399995 -0.57599974 Z "/>
        </symbol>
        <symbol id="2a" overflow="visible">
            <path d="M 0 0m 1.296 -2.316 h 2.5440001 c 0.07199979 0.07200003 0.07199979 0.28799987 0 0.36 c -1.6560001 0.13199997 -1.7400002 0.31199992 -1.7400002 1.356 v 7.332 c 0 1.0440001 0.096000195 1.224 1.7400002 1.3440003 c 0.07199979 0.07199955 0.07199979 0.2880001 0 0.35999966 h -2.5440001 Z "/>
        </symbol>
        <symbol id="2b" overflow="visible">
            <path d="M 0 0m 1.248 1.14 c -0.37200004 0 -0.63600004 -0.25199997 -0.63600004 -0.588 c 0 -0.37199998 0.31200004 -0.49199998 0.528 -0.528 c 0.22800004 -0.024 0.43200004 -0.096 0.43200004 -0.37199998 c 0 -0.25200003 -0.43200004 -0.80399996 -1.056 -0.96 c 0 -0.120000005 0.023999989 -0.204 0.10799998 -0.288 c 0.71999997 0.13199997 1.4159999 0.70799994 1.4159999 1.548 c 0 0.71999997 -0.31199992 1.188 -0.79199994 1.188 Z "/>
        </symbol>
        <symbol id="2c" overflow="visible">
            <path d="M 0 0m 2.184 4.296 c -0.27600002 0.408 -0.19200003 0.42000008 0.34800005 0.48000002 c 0.07200003 0.07200003 0.07200003 0.32399988 0 0.3959999 c -0.32400012 -0.012000084 -0.852 -0.023999691 -1.212 -0.023999691 c -0.36 0 -0.72 0.011999607 -1.0320001 0.023999691 c -0.07199998 -0.07200003 -0.07199998 -0.32399988 0 -0.3959999 c 0.408 -0.035999775 0.7440001 -0.23999977 1.08 -0.7319999 l 1.0439999 -1.5240002 c 0.06000018 -0.08399987 0.06000018 -0.119999886 0.012000084 -0.18000007 l -1.008 -1.2959999 c -0.48000002 -0.612 -0.744 -0.648 -1.164 -0.67200005 c -0.072 -0.072 -0.072 -0.324 0 -0.396 c 0.24000001 0.012 0.50399995 0.024 0.8640001 0.024 c 0.36 0 0.696 -0.012 1.008 -0.024 c 0.07200003 0.072 0.07200003 0.324 0 0.396 c -0.43200004 0.048000008 -0.5280001 0.095999986 -0.26400006 0.48 l 0.7559999 1.092 c 0.096000195 0.14400005 0.14400005 0.13199997 0.21600008 0.024000049 l 0.6960001 -0.96000004 c 0.41999984 -0.576 0.22799993 -0.6 -0.15600014 -0.63600004 c -0.07200003 -0.072 -0.07200003 -0.324 0 -0.396 c 0.36000013 0.012 0.7560003 0.024 1.188 0.024 c 0.45600033 0 0.7800002 -0.012 1.0680003 -0.024 c 0.07200003 0.072 0.07200003 0.324 0 0.396 c -0.54000044 0.035999984 -0.72000027 0.072 -1.2000003 0.75600004 l -1.0799999 1.5239999 c -0.048000097 0.07200003 -0.059999943 0.10800004 0 0.18000007 l 1.0079999 1.2840002 c 0.44400024 0.56399965 0.7319999 0.6240001 1.164 0.65999985 c 0.07200003 0.07200003 0.07200003 0.32399988 0 0.3959999 c -0.23999977 -0.012000084 -0.5159998 -0.023999691 -0.8759999 -0.023999691 c -0.36000013 0 -0.6960001 0.011999607 -1.0080001 0.023999691 c -0.07199979 -0.07200003 -0.07199979 -0.32399988 0 -0.3959999 c 0.444 -0.04799986 0.576 -0.08400011 0.2880001 -0.4920001 l -0.78 -1.092 c -0.08400011 -0.119999886 -0.13199997 -0.1079998 -0.22799993 0.024000168 Z "/>
        </symbol>
        <symbol id="2d" overflow="visible">
            <path d="M 0 0m 2.976 8.448 h -2.5440001 c -0.072 -0.07199955 -0.072 -0.2880001 0 -0.35999966 c 1.656 -0.13200045 1.7399999 -0.31200027 1.7399999 -1.3560004 v -7.332 c 0 -1.044 -0.095999956 -1.224 -1.7399999 -1.344 c -0.072 -0.07200003 -0.072 -0.2880001 0 -0.3599999 h 2.5440001 Z "/>
        </symbol>
        <symbol id="2e" overflow="visible">
            <path d="M 0 0m 2.58 6.9 c 0.51600003 0 0.99600005 -0.31200027 0.99600005 -1.0799999 c 0 -0.5999999 -0.69599986 -1.5240002 -1.884 -1.6919999 l 0.059999943 -0.3840003 c 0.204 0.024000168 0.41999996 0.024000168 0.5760001 0.024000168 c 0.684 0 1.572 -0.19200015 1.572 -1.5480001 c 0 -1.596 -1.0680001 -1.9200001 -1.4880002 -1.9200001 c -0.61199987 0 -0.7199999 0.27599996 -0.86399996 0.49199998 c -0.120000005 0.16800004 -0.27600002 0.31199998 -0.5159999 0.31199998 c -0.25200003 0 -0.50400007 -0.22799999 -0.50400007 -0.41999996 c 0 -0.48000002 1.008 -0.804 1.728 -0.804 c 1.428 0 2.6999998 0.924 2.6999998 2.508 c 0 1.3080001 -0.9839997 1.776 -1.6919999 1.8959999 l -0.0119998455 0.024000168 c 0.98399997 0.46799994 1.26 0.96000004 1.26 1.5960002 c 0 0.35999966 -0.08400011 0.64799976 -0.37200022 0.94799995 c -0.26399994 0.26399994 -0.6839998 0.46799994 -1.3079998 0.46799994 c -1.764 0 -2.2680001 -1.152 -2.2680001 -1.5480003 c 0 -0.16799974 0.120000005 -0.408 0.408 -0.408 c 0.41999996 0 0.46800005 0.3960004 0.46800005 0.6240001 c 0 0.7680001 0.82800007 0.9120002 1.1399999 0.9120002 Z "/>
        </symbol>
        <symbol id="2f" overflow="visible">
            <path d="M 0 0m 2.076 7.7400002 c -0.48000002 0 -1.8479999 0.023999691 -1.8479999 0.023999691 c -0.12 -0.07200003 -0.12 -0.33599997 0 -0.408 c 0.66 -0.035999775 0.996 -0.08400011 0.996 -1.0799999 v -4.8120003 c 0 -0.996 -0.33599997 -1.0439999 -0.996 -1.0799999 c -0.12 -0.072 -0.12 -0.336 0 -0.408 c 0 0 1.3679999 0.024 1.8479999 0.024 c 0.48000002 0 1.2480001 -0.024 1.9680002 -0.024 c 2.46 0 3.2519999 1.0320001 3.2519999 2.256 c 0 1.056 -0.5279999 1.74 -1.8000002 2.076 v 0.024000168 c 0.64800024 0.28799963 1.1520004 0.94799995 1.1520004 1.56 c 0 0.82800007 -0.44400024 1.8719997 -2.8680003 1.8719997 c -0.5999999 0 -1.3199999 -0.023999691 -1.704 -0.023999691 Z m 0.82800007 -3.7320004 h 0.852 c 1.2360001 0 1.776 -0.7319999 1.776 -1.7639999 c 0 -0.7199999 -0.25199986 -1.7639999 -1.836 -1.7639999 c -0.72 0 -0.79200006 0.18 -0.79200006 0.528 Z m 0 2.736 c 0 0.34800005 0.059999943 0.5160003 0.8399999 0.5160003 c 0.55200005 0 1.224 -0.21600008 1.224 -1.3920002 c 0 -0.96000004 -0.53999996 -1.356 -1.392 -1.356 h -0.67199993 Z "/>
        </symbol>
        <symbol id="30" overflow="visible">
            <path d="M 0 0m 4.26 0.576 c 0.023999691 -0.288 0.04799986 -0.49199998 0.04799986 -0.49199998 c 0.012000084 -0.144 0.1079998 -0.204 0.27600002 -0.204 c 0.44399977 0.120000005 1.164 0.288 1.9920001 0.396 c 0.023999691 0.072 0 0.312 -0.024000168 0.38400003 c -0.64799976 0.060000002 -0.7800002 0.25199997 -0.7800002 0.93599993 v 5.4000006 c 0 0.77999973 0.03600025 1.224 0.03600025 1.224 c 0 0.1079998 -0.08400011 0.15600014 -0.19199991 0.15600014 c -0.44400024 -0.14400005 -1.4040003 -0.27600002 -2.256 -0.31200027 c -0.036000013 -0.14400005 -0.024000168 -0.3000002 0.036000013 -0.408 c 0.7559998 -0.059999943 0.81599975 -0.07200003 0.81599975 -0.9000001 v -1.56 c -0.22799993 0.07200003 -0.5159998 0.13199997 -0.86399984 0.13199997 c -1.548 0 -2.904 -1.356 -2.904 -2.9520001 c 0 -0.70799994 0.25199997 -1.5359999 0.84000003 -1.9919999 c 0.43199992 -0.336 0.732 -0.504 1.4039999 -0.504 c 0.32400012 0 1.2120001 0.528 1.464 0.696 Z m -0.03600025 0.564 c -0.25199986 -0.204 -0.888 -0.468 -1.0320001 -0.468 c -0.5999999 0 -1.0679998 0.672 -1.0679998 2.076 c 0 0.63600016 0.07200003 1.1880002 0.29999995 1.5600002 c 0.204 0.32399988 0.5280001 0.5159998 0.888 0.5159998 c 0.31200004 0 0.612 -0.035999775 0.89999986 -0.43199968 v -2.9520001 c 0 -0.096000075 0 -0.204 0.012000084 -0.30000007 Z "/>
        </symbol>
        <symbol id="31" overflow="visible">
            <path d="M 0 0m 1.14 3.708 v -5.028 c 0 -0.99599993 -0.13199997 -1.0199999 -0.86399996 -1.08 c -0.072 -0.07200003 -0.072 -0.33599997 0 -0.408 c 0.50400007 0.012000084 1.008 0.024000168 1.644 0.024000168 c 0.6359999 0 1.128 -0.012000084 1.644 -0.024000168 c 0.07199979 0.07200003 0.07199979 0.33599997 0 0.408 c -0.7320001 0.048000097 -0.8640001 0.08400011 -0.8640001 1.08 v 1.404 c 0.26399994 -0.132 0.51600003 -0.204 0.8039999 -0.204 c 1.8240001 0 3.0120003 1.2 3.0120003 2.9640002 c 0 0.67199993 -0.25200033 1.4160001 -0.72000027 1.8840001 c -0.42000008 0.42000008 -1.02 0.5999999 -1.644 0.5999999 c -0.3479998 0 -0.9959998 -0.42000008 -1.4159999 -0.8039999 h -0.07200003 c -0.02399993 0.33599997 -0.059999943 0.5999999 -0.059999943 0.5999999 c -0.012000084 0.14400005 -0.10800004 0.204 -0.27600002 0.204 c -0.444 -0.119999886 -1.164 -0.2880001 -1.9920001 -0.3959999 c -0.023999989 -0.07200003 0 -0.31200027 0.024000019 -0.3840003 c 0.65999997 -0.059999943 0.78 -0.15599966 0.78 -0.8399999 Z m 1.5600001 -2.928 v 3.072 c 0 0.07200003 0 0.13199997 0 0.20400023 c 0.34800005 0.3119998 0.79200006 0.46799994 1.0680001 0.46799994 c 0.4920001 0 1.0679998 -0.60000014 1.0679998 -2.0040002 c 0 -1.008 -0.36000013 -2.136 -1.404 -2.136 c -0.13199997 0 -0.43199992 0.072 -0.7319999 0.39600003 Z "/>
        </symbol>
        <symbol id="32" overflow="visible">
            <path d="M 0 0m 4.368 6.252 c -0.21600008 0 -0.6359999 0 -1.2839999 0.3000002 c -0.120000124 0.14400005 -0.46800017 0.3000002 -0.80400014 0.3000002 c -0.86399996 0 -1.596 -0.85200024 -1.596 -1.908 c 0 -0.612 0.36 -1.3080003 1.104 -1.3080003 c 1.008 0 1.5360001 1.3560002 1.5360001 2.1240003 c 0 0.1079998 -0.012000084 0.2159996 -0.036000013 0.2999997 c 0.22799993 -0.13199997 0.684 -0.25199986 0.96000004 -0.25199986 c 0.35999966 0 0.82800007 0.04799986 1.2839999 0.22800016 l -4.308 -6.0000005 l 0.408 -0.17999999 l 4.92 6.852 l -0.38399982 0.19199991 c -0.37200022 -0.5040002 -1.296 -0.64800024 -1.8000002 -0.64800024 Z m 0.16800022 -5.0759997 c 0 -0.636 0.38399982 -1.3199999 1.1159997 -1.3199999 c 0.9960003 0 1.5240002 1.3199999 1.5240002 2.124 c 0 0.8759999 -0.55200005 1.092 -1.0320001 1.092 c -0.888 0 -1.6079998 -0.91199994 -1.6079998 -1.896 Z m -3.2040002 3.6 c 0 0.6960001 0.49199998 1.704 1.0799999 1.704 c 0.21600008 0 0.51600003 -0.13199997 0.51600003 -0.7319999 c 0 -0.6960001 -0.408 -1.7400002 -1.068 -1.7400002 c -0.21599996 0 -0.528 0.14400005 -0.528 0.7680001 Z m 3.864 -3.78 c 0 0.69600004 0.4920001 1.704 1.0799999 1.704 c 0.16800022 0 0.5040002 -0.10800004 0.5040002 -0.732 c 0 -0.67200005 -0.3960004 -1.74 -1.0560002 -1.74 c -0.22800016 0 -0.5279999 0.14400001 -0.5279999 0.768 Z "/>
        </symbol>
        <symbol id="33" overflow="visible">
            <path d="M 0 0m 1.86 0.948 l 0.65999997 1.74 c 0.059999943 0.15600014 0.13199997 0.204 0.42000008 0.204 h 2.532 l 0.6960001 -2.0279999 c 0.14400005 -0.40800002 -0.31200027 -0.45600003 -0.888 -0.492 c -0.07200003 -0.072 -0.07200003 -0.324 0 -0.396 c 0.44399977 0.012 1.1039996 0.024 1.572 0.024 c 0.49199963 0 0.94799995 -0.012 1.368 -0.024 c 0.07199955 0.072 0.07199955 0.324 0 0.396 c -0.4680004 0.048000008 -0.8760004 0.08399999 -1.0800004 0.6600001 l -2.4719996 6.864 c -0.1800003 -0.1079998 -0.5040002 -0.23999977 -0.6600003 -0.23999977 l -2.724 -6.432 c -0.31200004 -0.74399996 -0.67200005 -0.816 -1.2 -0.852 c -0.072 -0.072 -0.072 -0.324 0 -0.396 c 0.312 0.012 0.708 0.024 1.068 0.024 c 0.4920001 0 1.092 -0.012 1.536 -0.024 c 0.07200003 0.072 0.07200003 0.324 0 0.396 c -0.45599985 0.035999984 -1.02 0.08399999 -0.82799995 0.576 Z m 1.2960001 2.4480002 c -0.26400018 0 -0.34800005 0.035999775 -0.3000002 0.1559999 l 1.224 3.1079998 h 0.07200003 l 1.1280003 -3.2639997 Z "/>
        </symbol>
        <symbol id="34" overflow="visible">
            <path d="M 0 0m 1.776 7.7400002 c -0.43200004 0 -1.08 0.011999607 -1.548 0.023999691 c -0.072 -0.07200003 -0.072 -0.32399988 0 -0.3959999 c 0.84 -0.035999775 1.0439999 -0.096000195 1.0439999 -1.092 v -4.8120003 c 0 -0.996 -0.204 -1.056 -1.0439999 -1.092 c -0.072 -0.072 -0.072 -0.324 0 -0.396 c 0.468 0.012 1.1159999 0.024 1.56 0.024 c 0.43200004 0 0.7440001 -0.024 1.752 -0.024 c 2.388 0 3.0240002 1.2 3.0240002 2.2319999 c 0 1.1520002 -0.8039999 1.812 -1.848 2.1120002 v 0.023999691 c 0.5999999 0.3000002 1.1399999 0.92400026 1.1399999 1.572 c 0 0.8040004 -0.34800005 1.848 -2.58 1.848 c -0.42000008 0 -1.0680001 -0.023999691 -1.5 -0.023999691 Z m 0.51600003 -3.7560003 h 0.82800007 c 1.6439998 0 2.3279998 -0.924 2.3279998 -2.004 c 0 -0.87600005 -0.33599997 -1.608 -2.1599998 -1.608 c -0.84000015 0 -0.99600005 0.312 -0.99600005 1.044 Z m 0 2.616 c 0 0.63600016 0 0.75600004 1.0439999 0.75600004 c 0.67199993 0 1.5479999 -0.35999966 1.5479999 -1.5840001 c 0 -1.02 -0.7079997 -1.3799996 -1.7039998 -1.3799996 h -0.888 Z "/>
        </symbol>
        <symbol id="35" overflow="visible">
            <path d="M 0 0m 2.736 1.464 v 2.388 c 0 0.059999943 0 0.120000124 0 0.18000007 c 0.46799994 0.2880001 0.888 0.408 1.092 0.408 c 0.48000002 0 0.84000015 -0.21600008 0.84000015 -0.9000001 v -2.004 c 0 -1.008 -0.19200039 -1.1159999 -0.68400025 -1.152 c -0.07200003 -0.072 -0.07200003 -0.336 0 -0.408 c 0.50399995 0.012 0.88800025 0.024 1.464 0.024 c 0.5760002 0 0.94799995 -0.012 1.4640002 -0.024 c 0.07200003 0.072 0.07200003 0.336 0 0.408 c -0.48000002 0.036000013 -0.684 0.144 -0.684 1.152 v 1.872 c 0 0.29999995 -0.012000084 0.53999996 -0.048000336 0.65999985 c 0.45600033 0.22800016 0.9720001 0.37200022 1.164 0.37200022 c 0.48000002 0 0.816 -0.21600008 0.816 -0.9000001 v -2.004 c 0 -1.008 -0.19199991 -1.1159999 -0.684 -1.152 c -0.07199955 -0.072 -0.07199955 -0.336 0 -0.408 c 0.5040002 0.012 0.8880005 0.024 1.4640007 0.024 c 0.65999985 0 1.1879997 -0.012 1.7039995 -0.024 c 0.0720005 0.072 0.0720005 0.336 0 0.408 c -0.73200035 0.036000013 -0.9239998 0.144 -0.9239998 1.152 v 1.872 c 0 1.3200002 -0.4800005 1.9200001 -1.5120001 1.9200001 c -0.44400024 0 -1.4520001 -0.48000002 -2.1480002 -0.86399984 c -0.17999983 0.5159998 -0.65999985 0.86399984 -1.368 0.86399984 c -0.43199968 0 -1.2959998 -0.45599985 -1.9799998 -0.84000015 c -0.036000013 0.36000013 -0.07200003 0.63600016 -0.07200003 0.63600016 c -0.012000084 0.14400005 -0.10800004 0.204 -0.27600002 0.204 c -0.444 -0.119999886 -1.164 -0.2880001 -1.9920001 -0.3959999 c -0.024000019 -0.07200003 0 -0.31200027 0.023999989 -0.3840003 c 0.65999997 -0.059999943 0.78 -0.15599966 0.78 -0.8399999 v -2.244 c 0 -0.996 -0.13199997 -1.02 -0.86399996 -1.0799999 c -0.072 -0.072 -0.072 -0.336 0 -0.408 c 0.50399995 0.012 1.008 0.024 1.6439999 0.024 c 0.55200016 0 0.88800013 -0.012 1.4040002 -0.024 c 0.07199979 0.072 0.07199979 0.336 0 0.408 c -0.5040002 0.048000008 -0.6240001 0.08399999 -0.6240001 1.0799999 Z "/>
        </symbol>
        <symbol id="36" overflow="visible">
            <path d="M 0 0m 1.2 1.524 c 0 -0.99600005 -0.19200003 -1.1040001 -0.924 -1.1400001 c -0.072 -0.072 -0.072 -0.336 0 -0.408 c 0.50400007 0.012 1.044 0.024 1.704 0.024 c 0.5280001 0 1.056 -0.012 1.3440001 -0.024 c 0.07200003 0.072 0.07200003 0.336 0 0.408 c -0.36000013 0.048000008 -0.5640001 0.144 -0.5640001 1.1400001 v 0.9840001 c 0.33599997 0 0.70799994 -0.036000013 0.82800007 -0.22800016 c 0.27600002 -0.408 0.61199975 -0.9 0.81599975 -1.344 c 0.15600014 -0.33599997 0.19200039 -0.44399998 0.19200039 -0.62399995 v -0.312 l 0.023999691 -0.024 c 0 0 0.53999996 0.024 0.96000004 0.024 c 0.4920001 0 1.164 -0.012 1.6080003 -0.024 c 0.07200003 0.072 0.07200003 0.336 0 0.408 c -0.46799994 0.048000008 -0.73200035 0.0119999945 -1.092 0.552 l -1.3920002 2.052 c -0.059999943 0.08400011 -0.08400011 0.18000007 -0.035999775 0.24000001 l 0.5999999 0.6600001 c 0.38399982 0.42000008 0.7079997 0.84000015 1.6199999 0.9359999 c 0.07200003 0.07200003 0.07200003 0.33599997 0 0.408 c -0.26399994 -0.011999607 -1.02 -0.023999691 -1.3319998 -0.023999691 c -0.44400024 0 -1.0080004 0.012000084 -1.4520001 0.023999691 c -0.07200003 -0.07200003 -0.07200003 -0.33599997 0 -0.408 c 0.64799976 -0.04799986 0.84000015 -0.15599966 0.4920001 -0.6359997 c -0.26399994 -0.36000013 -0.52800035 -0.64800024 -0.7680001 -0.8640001 c -0.15600014 -0.13200021 -0.70799994 -0.3360002 -1.0680001 -0.3360002 v 4.0080004 c 0 0.77999973 0.036000013 1.224 0.036000013 1.224 c 0 0.1079998 -0.08399987 0.15600014 -0.19199991 0.15600014 c -0.444 -0.14400005 -1.404 -0.27600002 -2.256 -0.31200027 c -0.035999984 -0.14400005 -0.023999989 -0.27600002 0.036000013 -0.38399982 c 0.756 -0.06000042 0.81600004 -0.07200003 0.81600004 -0.9000001 Z "/>
        </symbol>
        <symbol id="37" overflow="visible">
            <path d="M 0 0m 1.14 1.464 c 0 -0.996 -0.13199997 -1.056 -0.86399996 -1.092 c -0.072 -0.072 -0.072 -0.324 0 -0.396 c 0.42 0.012 0.86399996 0.024 1.344 0.024 c 0.4799999 0 0.936 -0.012 1.3320001 -0.024 c 0.07199979 0.072 0.07199979 0.324 0 0.396 c -0.7320001 0.035999984 -0.8640001 0.095999986 -0.8640001 1.092 v 5.5320005 c 0 0.77999973 0.04799986 1.2600002 0.04799986 1.2600002 c 0 0.083999634 -0.04799986 0.119999886 -0.1559999 0.119999886 c -0.29999995 -0.119999886 -1.2 -0.2880001 -1.6800001 -0.32400036 c -0.024000019 -0.096000195 0 -0.2880001 0.072 -0.36000013 c 0.696 -0.04799986 0.768 -0.083999634 0.768 -0.9839997 Z "/>
        </symbol>
        <symbol id="38" overflow="visible">
            <path d="M 0 0m 0.576 1.656 c 0.048000038 -0.58800006 0.08400005 -1.152 0.08400005 -1.656 c 0.120000005 0.024 0.24000001 0.036 0.3 0.036 c 0.08399999 0 0.15600002 0 0.24000001 -0.023999998 c 0.324 -0.084 0.648 -0.132 1.092 -0.132 c 0.67199993 0 1.9079998 0.324 1.9079998 1.512 c 0 0.816 -0.5879998 1.296 -1.4039998 1.596 c -0.72 0.27600002 -1.2 0.4560001 -1.2 1.1160002 c 0 0.4920001 0.43200016 0.7680001 0.84000015 0.7680001 c 0.26399994 0 0.96000004 -0.096000195 1.1159999 -1.1160002 c 0.07200003 -0.07200003 0.31200004 -0.059999943 0.38400006 0.012000084 c 0.036000013 0.43199968 0.059999943 0.8759999 0.07199979 1.2719998 c -0.37199998 0.059999943 -0.94799995 0.22800016 -1.5719998 0.22800016 c -0.88800013 0 -1.6920002 -0.5760002 -1.6920002 -1.3440001 c 0 -0.8759999 0.39599997 -1.2479999 1.3200002 -1.632 c 0.9959998 -0.408 1.224 -0.6600001 1.224 -1.176 c 0 -0.58800006 -0.576 -0.84000003 -1.02 -0.84000003 c -0.46800005 0 -0.7320001 0.15600002 -0.8520001 0.28800002 c -0.26400006 0.27600002 -0.39600003 0.804 -0.468 1.104 c -0.07200003 0.07200003 -0.3 0.060000062 -0.37200004 -0.011999965 Z "/>
        </symbol>
        <symbol id="39" overflow="visible">
            <path d="M 0 0m 0.51600003 5.1480002 c -0.16800004 0 -0.21600002 -0.14400005 -0.21600002 -0.24000025 v -0.15600014 c 0 -0.059999943 0.0119999945 -0.07200003 0.060000002 -0.07200003 h 0.70799994 v -3.612 c 0 -0.85199994 0.3720001 -1.188 0.924 -1.188 c 0.5519999 0 1.1520001 0.264 1.62 0.792 c -0.02399993 0.120000005 -0.095999956 0.19200003 -0.21599984 0.204 c -0.31200004 -0.24000001 -0.67200017 -0.33599997 -0.9840002 -0.33599997 c -0.32399988 0 -0.3959999 0.36 -0.3959999 1.1040001 v 3.0359998 h 1.2479999 c 0.120000124 0 0.2880001 0.048000336 0.2880001 0.15600014 v 0.24000025 c 0 0.04799986 -0.036000013 0.07200003 -0.095999956 0.07200003 h -1.44 v 0.46799994 c 0 0.77999973 0.048000097 1.2599998 0.048000097 1.2599998 c 0 0.07200003 -0.036000013 0.10800028 -0.096000075 0.10800028 c -0.047999978 0 -0.15600002 -0.048000336 -0.26400006 -0.10800028 c -0.13199997 -0.07200003 -0.25199997 -0.13199997 -0.408 -0.16799974 c -0.14400005 -0.048000336 -0.26399994 -0.08400011 -0.26399994 -0.16800022 c 0 -0.14400005 0.035999894 -0.059999943 0.035999894 -1.3919997 Z "/>
        </symbol>
        <symbol id="3a" overflow="visible">
            <path d="M 0 0m 2.112 4.296 c -0.02399993 0.48000002 -0.036000013 0.7919998 -0.095999956 0.9120002 c -0.024000049 0.059999943 -0.047999978 0.09599972 -0.14400005 0.09599972 c -0.33599997 -0.13199997 -0.648 -0.23999977 -1.476 -0.34800005 c -0.023999989 -0.07200003 0 -0.26399994 0.024000019 -0.33599997 c 0.64799994 -0.059999943 0.78000003 -0.119999886 0.78000003 -0.81599975 v -2.3400002 c 0 -0.996 -0.14400005 -1.0439999 -0.888 -1.092 c -0.072 -0.072 -0.072 -0.324 0 -0.396 c 0.42 0.012 0.888 0.024 1.368 0.024 c 0.48000002 0 1.0320001 -0.012 1.4519999 -0.024 c 0.07200003 0.072 0.07200003 0.324 0 0.396 c -0.8399999 0.060000002 -0.98399997 0.095999986 -0.98399997 1.092 v 1.668 c 0 0.31200004 0.14400005 0.58800006 0.2880001 0.80400014 c 0.13199997 0.19200015 0.408 0.58800006 0.5519998 0.58800006 c 0.10800004 0 0.21600008 -0.024000168 0.31200004 -0.15600014 c 0.08400011 -0.119999886 0.22800016 -0.27600002 0.43200016 -0.27600002 c 0.28799987 0 0.5639999 0.3000002 0.5639999 0.5999999 c 0 0.22800016 -0.21600008 0.5760002 -0.72 0.5760002 c -0.5639999 0 -1.056 -0.5279999 -1.332 -0.9960003 c -0.07200003 -0.13199997 -0.13199997 -0.035999775 -0.13199997 0.024000168 Z "/>
        </symbol>
        <symbol id="3b" overflow="visible">
            <path d="M 0 0m 2.604 -0.120000005 c 0.46799994 0 1.0319998 0.24000001 1.6199999 0.72 c 0.059999943 0.047999978 0.16800022 0.07199997 0.17999983 -0.012000024 c 0.03600025 -0.3 0.13200045 -0.708 0.13200045 -0.708 c 0.09599972 -0.036 0.15599966 -0.023999989 0.22799969 0 c 0.26399994 0.216 0.684 0.396 1.4159999 0.48000002 c 0.07200003 0.072 0.07200003 0.25199997 0 0.324 c -0.76799965 0.060000002 -0.8759999 0.288 -0.8759999 0.87600005 v 2.304 c 0 0.3599999 0.048000336 1.2359998 0.048000336 1.2359998 c 0 0.03600025 -0.03600025 0.07200003 -0.096000195 0.07200003 c -0.059999943 -0.012000084 -0.23999977 -0.023999691 -0.42000008 -0.023999691 c -0.38399982 0 -0.816 0.011999607 -1.224 0.023999691 c -0.07200003 -0.07200003 -0.07200003 -0.32399988 0 -0.3959999 c 0.5879998 -0.035999775 0.74399996 -0.17999983 0.74399996 -0.9719999 v -2.316 c 0 -0.22800004 -0.023999691 -0.324 -0.19199991 -0.46800005 c -0.444 -0.384 -0.9000001 -0.576 -1.2 -0.576 c -0.3599999 0 -0.96000004 0.16799998 -0.96000004 1.2360001 v 2.184 c 0 0.3599999 0.048000097 1.2359998 0.048000097 1.2359998 c 0 0.03600025 -0.036000013 0.07200003 -0.096000075 0.07200003 c -0.059999943 -0.012000084 -0.24000001 -0.023999691 -0.41999996 -0.023999691 c -0.38400006 0 -0.816 0.011999607 -1.224 0.023999691 c -0.072 -0.07200003 -0.072 -0.32399988 0 -0.3959999 c 0.576 -0.04799986 0.74399996 -0.17999983 0.74399996 -0.96000004 v -2.304 c 0 -0.82799995 0.36 -1.632 1.5480001 -1.632 Z "/>
        </symbol>
    </defs>
</svg>
