<svg viewBox="0 0 314.164 238.336" width="314.164pt" height="238.336pt" xmlns="http://www.w3.org/2000/svg" xmlns:xlink="http://www.w3.org/1999/xlink" xmlns:h5="http://www.w3.org/1999/xhtml"><path fill="#ffffff" fill-rule="nonzero" d="M 0 0v 238.336h 314.164v -238.336Z "/><path fill="none" stroke="#000000" stroke-width="0.75" stroke-linecap="butt" stroke-linejoin="miter" stroke-miterlimit="4" transform="translate(112.829 20.74)" d="M 0 0h 198.71"/><path fill="none" stroke="#000000" stroke-width="0.75" stroke-linecap="butt" stroke-linejoin="miter" stroke-miterlimit="4" transform="translate(2.625 56.376)" d="M 0 0h 308.914"/><path fill="none" stroke="#000000" stroke-width="1" stroke-linecap="butt" stroke-linejoin="miter" stroke-miterlimit="4" transform="translate(2.5 3)" d="M 0 0h 309.164"/><path fill="none" stroke="#000000" stroke-width="1" stroke-linecap="butt" stroke-linejoin="miter" stroke-miterlimit="4" transform="translate(2.5 235.336)" d="M 0 0h 309.164"/><g transform="matrix(1 0 0 -1 186.444 15.74)"><use xlink:href="#0" x="0" y="0" fill="#000000" fill-rule="nonzero"/><use xlink:href="#1" x="7.824" y="0" fill="#000000" fill-rule="nonzero"/><use xlink:href="#2" x="11.688" y="0" fill="#000000" fill-rule="nonzero"/><use xlink:href="#3" x="22.548" y="0" fill="#000000" fill-rule="nonzero"/><use xlink:href="#4" x="31.416" y="0" fill="#000000" fill-rule="nonzero"/><use xlink:href="#5" x="35.34" y="0" fill="#000000" fill-rule="nonzero"/><use xlink:href="#6" x="42.768" y="0" fill="#000000" fill-rule="nonzero"/><use xlink:href="#7" x="47.7" y="0" fill="#000000" fill-rule="nonzero"/></g><g transform="matrix(1 0 0 -1 127.894 33.636)"><use xlink:href="#8" x="0" y="0" fill="#000000" fill-rule="nonzero"/></g><g transform="matrix(1 0 0 -1 161.744 33.636)"><use xlink:href="#8" x="0" y="0" fill="#000000" fill-rule="nonzero"/><use xlink:href="#9" x="5.58" y="0" fill="#000000" fill-rule="nonzero"/><use xlink:href="#a" x="8.22" y="0" fill="#000000" fill-rule="nonzero"/></g><g transform="matrix(1 0 0 -1 203.814 33.636)"><use xlink:href="#b" x="0" y="0" fill="#000000" fill-rule="nonzero"/></g><g transform="matrix(1 0 0 -1 244.564 33.636)"><use xlink:href="#c" x="0" y="0" fill="#000000" fill-rule="nonzero"/></g><g transform="matrix(1 0 0 -1 288.104 33.636)"><use xlink:href="#d" x="0" y="0" fill="#000000" fill-rule="nonzero"/></g><g transform="matrix(1 0 0 -1 8 51.376)"><use xlink:href="#e" x="0" y="0" fill="#000000" fill-rule="nonzero"/><use xlink:href="#f" x="8.808" y="0" fill="#000000" fill-rule="nonzero"/><use xlink:href="#10" x="15.42" y="0" fill="#000000" fill-rule="nonzero"/><use xlink:href="#3" x="20.544" y="0" fill="#000000" fill-rule="nonzero"/><use xlink:href="#4" x="29.412" y="0" fill="#000000" fill-rule="nonzero"/><use xlink:href="#2" x="33.192" y="0" fill="#000000" fill-rule="nonzero"/><use xlink:href="#11" x="44.052" y="0" fill="#000000" fill-rule="nonzero"/><use xlink:href="#7" x="50.304" y="0" fill="#000000" fill-rule="nonzero"/></g><g transform="matrix(1 0 0 -1 75.084 51.376)"><use xlink:href="#12" x="0" y="0" fill="#000000" fill-rule="nonzero"/><use xlink:href="#e" x="4.404" y="0" fill="#000000" fill-rule="nonzero"/></g><g transform="matrix(1 0 0 -1 149.856 51.376)"><use xlink:href="#13" x="0" y="0" fill="#000000" fill-rule="nonzero"/><use xlink:href="#f" x="8.472" y="0" fill="#000000" fill-rule="nonzero"/><use xlink:href="#14" x="15.084" y="0" fill="#000000" fill-rule="nonzero"/><use xlink:href="#15" x="22.476" y="0" fill="#000000" fill-rule="nonzero"/><use xlink:href="#3" x="27.948" y="0" fill="#000000" fill-rule="nonzero"/><use xlink:href="#14" x="33.816" y="0" fill="#000000" fill-rule="nonzero"/><use xlink:href="#16" x="41.208" y="0" fill="#000000" fill-rule="nonzero"/><use xlink:href="#6" x="45.504" y="0" fill="#000000" fill-rule="nonzero"/><use xlink:href="#17" x="50.64" y="0" fill="#000000" fill-rule="nonzero"/><use xlink:href="#16" x="56.712" y="0" fill="#000000" fill-rule="nonzero"/><use xlink:href="#1" x="61.008" y="0" fill="#000000" fill-rule="nonzero"/><use xlink:href="#f" x="64.872" y="0" fill="#000000" fill-rule="nonzero"/><use xlink:href="#14" x="71.484" y="0" fill="#000000" fill-rule="nonzero"/><use xlink:href="#4" x="81.876" y="0" fill="#000000" fill-rule="nonzero"/><use xlink:href="#14" x="85.656" y="0" fill="#000000" fill-rule="nonzero"/><use xlink:href="#11" x="93.048" y="0" fill="#000000" fill-rule="nonzero"/><use xlink:href="#18" x="99.3" y="0" fill="#000000" fill-rule="nonzero"/><use xlink:href="#2" x="103.092" y="0" fill="#000000" fill-rule="nonzero"/><use xlink:href="#19" x="113.952" y="0" fill="#000000" fill-rule="nonzero"/><use xlink:href="#7" x="120.876" y="0" fill="#000000" fill-rule="nonzero"/></g><g transform="matrix(1 0 0 -1 75.084 69.272)"><use xlink:href="#b" x="0" y="0" fill="#000000" fill-rule="nonzero"/></g><g transform="matrix(1 0 0 -1 123.784 69.272)"><use xlink:href="#b" x="0" y="0" fill="#000000" fill-rule="nonzero"/><use xlink:href="#9" x="5.58" y="0" fill="#000000" fill-rule="nonzero"/><use xlink:href="#c" x="8.22" y="0" fill="#000000" fill-rule="nonzero"/></g><g transform="matrix(1 0 0 -1 161.744 69.272)"><use xlink:href="#1a" x="0" y="0" fill="#000000" fill-rule="nonzero"/><use xlink:href="#9" x="5.58" y="0" fill="#000000" fill-rule="nonzero"/><use xlink:href="#a" x="8.22" y="0" fill="#000000" fill-rule="nonzero"/></g><g transform="matrix(1 0 0 -1 203.814 69.272)"><use xlink:href="#c" x="0" y="0" fill="#000000" fill-rule="nonzero"/></g><g transform="matrix(1 0 0 -1 240.454 69.272)"><use xlink:href="#b" x="0" y="0" fill="#000000" fill-rule="nonzero"/><use xlink:href="#9" x="5.58" y="0" fill="#000000" fill-rule="nonzero"/><use xlink:href="#a" x="8.22" y="0" fill="#000000" fill-rule="nonzero"/></g><g transform="matrix(1 0 0 -1 283.994 69.272)"><use xlink:href="#8" x="0" y="0" fill="#000000" fill-rule="nonzero"/><use xlink:href="#9" x="5.58" y="0" fill="#000000" fill-rule="nonzero"/><use xlink:href="#b" x="8.22" y="0" fill="#000000" fill-rule="nonzero"/></g><g transform="matrix(1 0 0 -1 8 69.272)"><use xlink:href="#b" x="0" y="0" fill="#000000" fill-rule="nonzero"/><use xlink:href="#8" x="5.58" y="0" fill="#000000" fill-rule="nonzero"/><use xlink:href="#8" x="11.16" y="0" fill="#000000" fill-rule="nonzero"/></g><g transform="matrix(1 0 0 -1 75.084 87.168)"><use xlink:href="#c" x="0" y="0" fill="#000000" fill-rule="nonzero"/></g><g transform="matrix(1 0 0 -1 123.784 87.168)"><use xlink:href="#b" x="0" y="0" fill="#000000" fill-rule="nonzero"/><use xlink:href="#9" x="5.58" y="0" fill="#000000" fill-rule="nonzero"/><use xlink:href="#1b" x="8.22" y="0" fill="#000000" fill-rule="nonzero"/></g><g transform="matrix(1 0 0 -1 161.744 87.168)"><use xlink:href="#d" x="0" y="0" fill="#000000" fill-rule="nonzero"/><use xlink:href="#9" x="5.58" y="0" fill="#000000" fill-rule="nonzero"/><use xlink:href="#c" x="8.22" y="0" fill="#000000" fill-rule="nonzero"/></g><g transform="matrix(1 0 0 -1 199.704 87.168)"><use xlink:href="#b" x="0" y="0" fill="#000000" fill-rule="nonzero"/><use xlink:href="#9" x="5.58" y="0" fill="#000000" fill-rule="nonzero"/><use xlink:href="#1b" x="8.22" y="0" fill="#000000" fill-rule="nonzero"/></g><g transform="matrix(1 0 0 -1 240.454 87.168)"><use xlink:href="#b" x="0" y="0" fill="#000000" fill-rule="nonzero"/><use xlink:href="#9" x="5.58" y="0" fill="#000000" fill-rule="nonzero"/><use xlink:href="#c" x="8.22" y="0" fill="#000000" fill-rule="nonzero"/></g><g transform="matrix(1 0 0 -1 283.994 87.168)"><use xlink:href="#8" x="0" y="0" fill="#000000" fill-rule="nonzero"/><use xlink:href="#9" x="5.58" y="0" fill="#000000" fill-rule="nonzero"/><use xlink:href="#c" x="8.22" y="0" fill="#000000" fill-rule="nonzero"/></g><g transform="matrix(1 0 0 -1 75.084 104.908)"><use xlink:href="#1c" x="0" y="0" fill="#000000" fill-rule="nonzero"/></g><g transform="matrix(1 0 0 -1 127.894 105.064)"><use xlink:href="#c" x="0" y="0" fill="#000000" fill-rule="nonzero"/></g><g transform="matrix(1 0 0 -1 165.854 105.064)"><use xlink:href="#c" x="0" y="0" fill="#000000" fill-rule="nonzero"/></g><g transform="matrix(1 0 0 -1 203.814 105.064)"><use xlink:href="#c" x="0" y="0" fill="#000000" fill-rule="nonzero"/></g><g transform="matrix(1 0 0 -1 244.564 105.064)"><use xlink:href="#c" x="0" y="0" fill="#000000" fill-rule="nonzero"/></g><g transform="matrix(1 0 0 -1 288.104 105.064)"><use xlink:href="#c" x="0" y="0" fill="#000000" fill-rule="nonzero"/></g><g transform="matrix(1 0 0 -1 75.084 122.804)"><use xlink:href="#1d" x="0" y="0" fill="#000000" fill-rule="nonzero"/><use xlink:href="#3" x="10.788" y="0" fill="#000000" fill-rule="nonzero"/><use xlink:href="#17" x="16.656" y="0" fill="#000000" fill-rule="nonzero"/><use xlink:href="#14" x="22.728" y="0" fill="#000000" fill-rule="nonzero"/></g><g transform="matrix(1 0 0 -1 123.784 122.96)"><use xlink:href="#b" x="0" y="0" fill="#000000" fill-rule="nonzero"/><use xlink:href="#9" x="5.58" y="0" fill="#000000" fill-rule="nonzero"/><use xlink:href="#a" x="8.22" y="0" fill="#000000" fill-rule="nonzero"/></g><g transform="matrix(1 0 0 -1 158.954 122.96)"><use xlink:href="#d" x="0" y="0" fill="#000000" fill-rule="nonzero"/><use xlink:href="#9" x="5.58" y="0" fill="#000000" fill-rule="nonzero"/><use xlink:href="#1b" x="8.22" y="0" fill="#000000" fill-rule="nonzero"/><use xlink:href="#a" x="13.8" y="0" fill="#000000" fill-rule="nonzero"/></g><g transform="matrix(1 0 0 -1 199.704 122.96)"><use xlink:href="#b" x="0" y="0" fill="#000000" fill-rule="nonzero"/><use xlink:href="#9" x="5.58" y="0" fill="#000000" fill-rule="nonzero"/><use xlink:href="#1e" x="8.22" y="0" fill="#000000" fill-rule="nonzero"/></g><g transform="matrix(1 0 0 -1 237.664 122.96)"><use xlink:href="#b" x="0" y="0" fill="#000000" fill-rule="nonzero"/><use xlink:href="#9" x="5.58" y="0" fill="#000000" fill-rule="nonzero"/><use xlink:href="#d" x="8.22" y="0" fill="#000000" fill-rule="nonzero"/><use xlink:href="#a" x="13.8" y="0" fill="#000000" fill-rule="nonzero"/></g><g transform="matrix(1 0 0 -1 281.204 122.96)"><use xlink:href="#8" x="0" y="0" fill="#000000" fill-rule="nonzero"/><use xlink:href="#9" x="5.58" y="0" fill="#000000" fill-rule="nonzero"/><use xlink:href="#b" x="8.22" y="0" fill="#000000" fill-rule="nonzero"/><use xlink:href="#a" x="13.8" y="0" fill="#000000" fill-rule="nonzero"/></g><g transform="matrix(1 0 0 -1 75.084 140.7)"><use xlink:href="#1f" x="0" y="0" fill="#000000" fill-rule="nonzero"/><use xlink:href="#e" x="6.048" y="0" fill="#000000" fill-rule="nonzero"/></g><g transform="matrix(1 0 0 -1 118.204 140.856)"><use xlink:href="#8" x="0" y="0" fill="#000000" fill-rule="nonzero"/><use xlink:href="#9" x="5.58" y="0" fill="#000000" fill-rule="nonzero"/><use xlink:href="#1a" x="8.22" y="0" fill="#000000" fill-rule="nonzero"/><use xlink:href="#c" x="13.8" y="0" fill="#000000" fill-rule="nonzero"/><use xlink:href="#1a" x="19.38" y="0" fill="#000000" fill-rule="nonzero"/></g><g transform="matrix(1 0 0 -1 156.164 140.856)"><use xlink:href="#8" x="0" y="0" fill="#000000" fill-rule="nonzero"/><use xlink:href="#9" x="5.58" y="0" fill="#000000" fill-rule="nonzero"/><use xlink:href="#1e" x="8.22" y="0" fill="#000000" fill-rule="nonzero"/><use xlink:href="#b" x="13.8" y="0" fill="#000000" fill-rule="nonzero"/><use xlink:href="#1e" x="19.38" y="0" fill="#000000" fill-rule="nonzero"/></g><g transform="matrix(1 0 0 -1 194.124 140.856)"><use xlink:href="#8" x="0" y="0" fill="#000000" fill-rule="nonzero"/><use xlink:href="#9" x="5.58" y="0" fill="#000000" fill-rule="nonzero"/><use xlink:href="#b" x="8.22" y="0" fill="#000000" fill-rule="nonzero"/><use xlink:href="#1a" x="13.8" y="0" fill="#000000" fill-rule="nonzero"/><use xlink:href="#b" x="19.38" y="0" fill="#000000" fill-rule="nonzero"/></g><g transform="matrix(1 0 0 -1 234.874 140.856)"><use xlink:href="#8" x="0" y="0" fill="#000000" fill-rule="nonzero"/><use xlink:href="#9" x="5.58" y="0" fill="#000000" fill-rule="nonzero"/><use xlink:href="#c" x="8.22" y="0" fill="#000000" fill-rule="nonzero"/><use xlink:href="#b" x="13.8" y="0" fill="#000000" fill-rule="nonzero"/><use xlink:href="#c" x="19.38" y="0" fill="#000000" fill-rule="nonzero"/></g><g transform="matrix(1 0 0 -1 275.624 140.856)"><use xlink:href="#8" x="0" y="0" fill="#000000" fill-rule="nonzero"/><use xlink:href="#9" x="5.58" y="0" fill="#000000" fill-rule="nonzero"/><use xlink:href="#8" x="8.22" y="0" fill="#000000" fill-rule="nonzero"/><use xlink:href="#20" x="13.8" y="0" fill="#000000" fill-rule="nonzero"/><use xlink:href="#8" x="19.38" y="0" fill="#000000" fill-rule="nonzero"/><use xlink:href="#20" x="24.96" y="0" fill="#000000" fill-rule="nonzero"/></g><g transform="matrix(1 0 0 -1 75.084 158.752)"><use xlink:href="#d" x="0" y="0" fill="#000000" fill-rule="nonzero"/></g><g transform="matrix(1 0 0 -1 123.784 158.752)"><use xlink:href="#b" x="0" y="0" fill="#000000" fill-rule="nonzero"/><use xlink:href="#9" x="5.58" y="0" fill="#000000" fill-rule="nonzero"/><use xlink:href="#20" x="8.22" y="0" fill="#000000" fill-rule="nonzero"/></g><g transform="matrix(1 0 0 -1 161.744 158.752)"><use xlink:href="#1a" x="0" y="0" fill="#000000" fill-rule="nonzero"/><use xlink:href="#9" x="5.58" y="0" fill="#000000" fill-rule="nonzero"/><use xlink:href="#c" x="8.22" y="0" fill="#000000" fill-rule="nonzero"/></g><g transform="matrix(1 0 0 -1 203.814 158.752)"><use xlink:href="#b" x="0" y="0" fill="#000000" fill-rule="nonzero"/></g><g transform="matrix(1 0 0 -1 240.454 158.752)"><use xlink:href="#8" x="0" y="0" fill="#000000" fill-rule="nonzero"/><use xlink:href="#9" x="5.58" y="0" fill="#000000" fill-rule="nonzero"/><use xlink:href="#1e" x="8.22" y="0" fill="#000000" fill-rule="nonzero"/></g><g transform="matrix(1 0 0 -1 283.994 158.752)"><use xlink:href="#8" x="0" y="0" fill="#000000" fill-rule="nonzero"/><use xlink:href="#9" x="5.58" y="0" fill="#000000" fill-rule="nonzero"/><use xlink:href="#d" x="8.22" y="0" fill="#000000" fill-rule="nonzero"/></g><g transform="matrix(1 0 0 -1 8 158.752)"><use xlink:href="#c" x="0" y="0" fill="#000000" fill-rule="nonzero"/><use xlink:href="#8" x="5.58" y="0" fill="#000000" fill-rule="nonzero"/><use xlink:href="#8" x="11.16" y="0" fill="#000000" fill-rule="nonzero"/></g><g transform="matrix(1 0 0 -1 75.084 176.648)"><use xlink:href="#1a" x="0" y="0" fill="#000000" fill-rule="nonzero"/></g><g transform="matrix(1 0 0 -1 123.784 176.648)"><use xlink:href="#b" x="0" y="0" fill="#000000" fill-rule="nonzero"/><use xlink:href="#9" x="5.58" y="0" fill="#000000" fill-rule="nonzero"/><use xlink:href="#20" x="8.22" y="0" fill="#000000" fill-rule="nonzero"/></g><g transform="matrix(1 0 0 -1 161.744 176.648)"><use xlink:href="#d" x="0" y="0" fill="#000000" fill-rule="nonzero"/><use xlink:href="#9" x="5.58" y="0" fill="#000000" fill-rule="nonzero"/><use xlink:href="#20" x="8.22" y="0" fill="#000000" fill-rule="nonzero"/></g><g transform="matrix(1 0 0 -1 199.704 176.648)"><use xlink:href="#b" x="0" y="0" fill="#000000" fill-rule="nonzero"/><use xlink:href="#9" x="5.58" y="0" fill="#000000" fill-rule="nonzero"/><use xlink:href="#c" x="8.22" y="0" fill="#000000" fill-rule="nonzero"/></g><g transform="matrix(1 0 0 -1 244.564 176.648)"><use xlink:href="#b" x="0" y="0" fill="#000000" fill-rule="nonzero"/></g><g transform="matrix(1 0 0 -1 283.994 176.648)"><use xlink:href="#8" x="0" y="0" fill="#000000" fill-rule="nonzero"/><use xlink:href="#9" x="5.58" y="0" fill="#000000" fill-rule="nonzero"/><use xlink:href="#c" x="8.22" y="0" fill="#000000" fill-rule="nonzero"/></g><g transform="matrix(1 0 0 -1 75.084 194.388)"><use xlink:href="#1c" x="0" y="0" fill="#000000" fill-rule="nonzero"/></g><g transform="matrix(1 0 0 -1 127.894 194.544)"><use xlink:href="#c" x="0" y="0" fill="#000000" fill-rule="nonzero"/></g><g transform="matrix(1 0 0 -1 165.854 194.544)"><use xlink:href="#c" x="0" y="0" fill="#000000" fill-rule="nonzero"/></g><g transform="matrix(1 0 0 -1 203.814 194.544)"><use xlink:href="#c" x="0" y="0" fill="#000000" fill-rule="nonzero"/></g><g transform="matrix(1 0 0 -1 244.564 194.544)"><use xlink:href="#c" x="0" y="0" fill="#000000" fill-rule="nonzero"/></g><g transform="matrix(1 0 0 -1 288.104 194.544)"><use xlink:href="#c" x="0" y="0" fill="#000000" fill-rule="nonzero"/></g><g transform="matrix(1 0 0 -1 75.084 212.284)"><use xlink:href="#1d" x="0" y="0" fill="#000000" fill-rule="nonzero"/><use xlink:href="#3" x="10.788" y="0" fill="#000000" fill-rule="nonzero"/><use xlink:href="#17" x="16.656" y="0" fill="#000000" fill-rule="nonzero"/><use xlink:href="#14" x="22.728" y="0" fill="#000000" fill-rule="nonzero"/></g><g transform="matrix(1 0 0 -1 123.784 212.44)"><use xlink:href="#b" x="0" y="0" fill="#000000" fill-rule="nonzero"/><use xlink:href="#9" x="5.58" y="0" fill="#000000" fill-rule="nonzero"/><use xlink:href="#20" x="8.22" y="0" fill="#000000" fill-rule="nonzero"/></g><g transform="matrix(1 0 0 -1 158.954 212.44)"><use xlink:href="#d" x="0" y="0" fill="#000000" fill-rule="nonzero"/><use xlink:href="#9" x="5.58" y="0" fill="#000000" fill-rule="nonzero"/><use xlink:href="#1e" x="8.22" y="0" fill="#000000" fill-rule="nonzero"/><use xlink:href="#a" x="13.8" y="0" fill="#000000" fill-rule="nonzero"/></g><g transform="matrix(1 0 0 -1 199.704 212.44)"><use xlink:href="#b" x="0" y="0" fill="#000000" fill-rule="nonzero"/><use xlink:href="#9" x="5.58" y="0" fill="#000000" fill-rule="nonzero"/><use xlink:href="#b" x="8.22" y="0" fill="#000000" fill-rule="nonzero"/></g><g transform="matrix(1 0 0 -1 237.664 212.44)"><use xlink:href="#8" x="0" y="0" fill="#000000" fill-rule="nonzero"/><use xlink:href="#9" x="5.58" y="0" fill="#000000" fill-rule="nonzero"/><use xlink:href="#1e" x="8.22" y="0" fill="#000000" fill-rule="nonzero"/><use xlink:href="#a" x="13.8" y="0" fill="#000000" fill-rule="nonzero"/></g><g transform="matrix(1 0 0 -1 281.204 212.44)"><use xlink:href="#8" x="0" y="0" fill="#000000" fill-rule="nonzero"/><use xlink:href="#9" x="5.58" y="0" fill="#000000" fill-rule="nonzero"/><use xlink:href="#c" x="8.22" y="0" fill="#000000" fill-rule="nonzero"/><use xlink:href="#a" x="13.8" y="0" fill="#000000" fill-rule="nonzero"/></g><g transform="matrix(1 0 0 -1 75.084 230.18)"><use xlink:href="#1f" x="0" y="0" fill="#000000" fill-rule="nonzero"/><use xlink:href="#e" x="6.048" y="0" fill="#000000" fill-rule="nonzero"/></g><g transform="matrix(1 0 0 -1 127.894 230.336)"><use xlink:href="#8" x="0" y="0" fill="#000000" fill-rule="nonzero"/></g><g transform="matrix(1 0 0 -1 156.164 230.336)"><use xlink:href="#8" x="0" y="0" fill="#000000" fill-rule="nonzero"/><use xlink:href="#9" x="5.58" y="0" fill="#000000" fill-rule="nonzero"/><use xlink:href="#d" x="8.22" y="0" fill="#000000" fill-rule="nonzero"/><use xlink:href="#a" x="13.8" y="0" fill="#000000" fill-rule="nonzero"/><use xlink:href="#1a" x="19.38" y="0" fill="#000000" fill-rule="nonzero"/></g><g transform="matrix(1 0 0 -1 194.124 230.336)"><use xlink:href="#8" x="0" y="0" fill="#000000" fill-rule="nonzero"/><use xlink:href="#9" x="5.58" y="0" fill="#000000" fill-rule="nonzero"/><use xlink:href="#b" x="8.22" y="0" fill="#000000" fill-rule="nonzero"/><use xlink:href="#1a" x="13.8" y="0" fill="#000000" fill-rule="nonzero"/><use xlink:href="#b" x="19.38" y="0" fill="#000000" fill-rule="nonzero"/></g><g transform="matrix(1 0 0 -1 232.084 230.336)"><use xlink:href="#8" x="0" y="0" fill="#000000" fill-rule="nonzero"/><use xlink:href="#9" x="5.58" y="0" fill="#000000" fill-rule="nonzero"/><use xlink:href="#8" x="8.22" y="0" fill="#000000" fill-rule="nonzero"/><use xlink:href="#20" x="13.8" y="0" fill="#000000" fill-rule="nonzero"/><use xlink:href="#8" x="19.38" y="0" fill="#000000" fill-rule="nonzero"/><use xlink:href="#20" x="24.96" y="0" fill="#000000" fill-rule="nonzero"/></g><g transform="matrix(1 0 0 -1 275.624 230.336)"><use xlink:href="#8" x="0" y="0" fill="#000000" fill-rule="nonzero"/><use xlink:href="#9" x="5.58" y="0" fill="#000000" fill-rule="nonzero"/><use xlink:href="#8" x="8.22" y="0" fill="#000000" fill-rule="nonzero"/><use xlink:href="#20" x="13.8" y="0" fill="#000000" fill-rule="nonzero"/><use xlink:href="#8" x="19.38" y="0" fill="#000000" fill-rule="nonzero"/><use xlink:href="#20" x="24.96" y="0" fill="#000000" fill-rule="nonzero"/></g><defs><symbol id="0" overflow="visible"><path d="M 0 0m 4.86 1.476v 4.56c 0 0.768 0.12 1.212 0.552 1.212h 0.264c 0.9 0 1.404 -0.3 1.608 -1.224c 0.132 0 0.36 0.012 0.468 0.06c -0.084 0.552 -0.144 1.176 -0.156 1.716c 0 0.012 -0.024 0.036 -0.036 0.036c -0.408 -0.036 -1.74 -0.096 -2.688 -0.096h -1.692c -0.924 0 -2.34 0.06 -2.796 0.096c -0.024 0 -0.048 -0.024 -0.048 -0.036c -0.048 -0.54 -0.168 -1.176 -0.3 -1.752c 0.12 -0.048 0.324 -0.06 0.468 -0.06c 0.24 0.96 0.732 1.26 1.524 1.26h 0.588c 0.444 0 0.564 -0.444 0.564 -1.176v -4.596c 0 -0.996 -0.204 -1.056 -1.164 -1.092c -0.072 -0.072 -0.072 -0.336 0 -0.408c 0.588 0.012 1.212 0.024 1.98 0.024c 0.792 0 1.428 -0.012 2.028 -0.024c 0.072 0.072 0.072 0.336 0 0.408c -0.96 0.036 -1.164 0.096 -1.164 1.092Z "/></symbol><symbol id="1" overflow="visible"><path d="M 0 0m 2.784 1.464v 2.388c 0 0.6 0.048 1.272 0.048 1.272c 0 0.132 -0.108 0.204 -0.276 0.204c -0.336 -0.132 -1.308 -0.228 -2.136 -0.336c -0.024 -0.072 0 -0.312 0.024 -0.384c 0.66 -0.06 0.78 -0.156 0.78 -0.84v -2.304c 0 -0.996 -0.132 -1.02 -0.864 -1.08c -0.072 -0.072 -0.072 -0.336 0 -0.408c 0.504 0.012 1.008 0.024 1.644 0.024c 0.636 0 1.128 -0.012 1.644 -0.024c 0.072 0.072 0.072 0.336 0 0.408c -0.732 0.048 -0.864 0.084 -0.864 1.08Z m -1.62 5.688c 0 -0.396 0.288 -0.792 0.768 -0.792c 0.54 0 0.852 0.432 0.852 0.744c 0 0.36 -0.276 0.792 -0.78 0.792c -0.564 0 -0.84 -0.384 -0.84 -0.744Z "/></symbol><symbol id="2" overflow="visible"><path d="M 0 0m 2.736 1.464v 2.388c 0 0.06 0 0.12 0 0.18c 0.468 0.288 0.888 0.408 1.092 0.408c 0.48 0 0.84 -0.216 0.84 -0.9v -2.004c 0 -1.008 -0.192 -1.116 -0.684 -1.152c -0.072 -0.072 -0.072 -0.336 0 -0.408c 0.504 0.012 0.888 0.024 1.464 0.024c 0.576 0 0.948 -0.012 1.464 -0.024c 0.072 0.072 0.072 0.336 0 0.408c -0.48 0.036 -0.684 0.144 -0.684 1.152v 1.872c 0 0.3 -0.012 0.54 -0.048 0.66c 0.456 0.228 0.972 0.372 1.164 0.372c 0.48 0 0.816 -0.216 0.816 -0.9v -2.004c 0 -1.008 -0.192 -1.116 -0.684 -1.152c -0.072 -0.072 -0.072 -0.336 0 -0.408c 0.504 0.012 0.888 0.024 1.464 0.024c 0.66 0 1.188 -0.012 1.704 -0.024c 0.072 0.072 0.072 0.336 0 0.408c -0.732 0.036 -0.924 0.144 -0.924 1.152v 1.872c 0 1.32 -0.48 1.92 -1.512 1.92c -0.444 0 -1.452 -0.48 -2.148 -0.864c -0.18 0.516 -0.66 0.864 -1.368 0.864c -0.432 0 -1.296 -0.456 -1.98 -0.84c -0.036 0.36 -0.072 0.636 -0.072 0.636c -0.012 0.144 -0.108 0.204 -0.276 0.204c -0.444 -0.12 -1.164 -0.288 -1.992 -0.396c -0.024 -0.072 0 -0.312 0.024 -0.384c 0.66 -0.06 0.78 -0.156 0.78 -0.84v -2.244c 0 -0.996 -0.132 -1.02 -0.864 -1.08c -0.072 -0.072 -0.072 -0.336 0 -0.408c 0.504 0.012 1.008 0.024 1.644 0.024c 0.552 0 0.888 -0.012 1.404 -0.024c 0.072 0.072 0.072 0.336 0 0.408c -0.504 0.048 -0.624 0.084 -0.624 1.08Z "/></symbol><symbol id="3" overflow="visible"><path d="M 0 0m 5.172 1.548c -0.492 -0.504 -1.14 -0.636 -1.596 -0.636c -0.936 0 -1.512 0.54 -1.512 1.716c 0 0.084 0.012 0.132 0.012 0.192h 2.88c 0.288 0 0.348 0.204 0.348 0.372c 0 1.02 -0.396 2.136 -2.16 2.136c -1.26 0 -2.7 -1.116 -2.7 -2.952c 0 -0.696 0.252 -1.428 0.768 -1.896c 0.456 -0.408 1.044 -0.6 1.896 -0.6c 0.828 0 1.644 0.42 2.244 1.296c 0 0.156 -0.06 0.372 -0.18 0.372Z m -3.048 1.752c 0.012 0.42 0.072 0.876 0.24 1.116c 0.192 0.288 0.516 0.408 0.648 0.408c 0.324 0 0.768 -0.312 0.768 -1.272c 0 -0.072 0 -0.228 -0.024 -0.252Z "/></symbol><symbol id="4" overflow="visible"><path d="M 0 0m 0.432 3.036c 0 -0.54 0.06 -3.24 2.784 -5.592l 0.36 0.384c -0.384 0.432 -1.764 2.04 -1.764 5.208c 0 3.168 1.404 4.776 1.764 5.196l -0.336 0.408c -1.572 -1.356 -2.808 -3.42 -2.808 -5.604Z "/></symbol><symbol id="5" overflow="visible"><path d="M 0 0m 6.336 1.536v 1.872c 0 1.32 -0.564 1.92 -1.596 1.92c -0.444 0 -1.296 -0.444 -1.98 -0.864v 2.532c 0 0.78 0.036 1.224 0.036 1.224c 0 0.108 -0.084 0.156 -0.192 0.156c -0.444 -0.144 -1.404 -0.276 -2.256 -0.312c -0.036 -0.144 -0.024 -0.276 0.036 -0.384c 0.756 -0.06 0.816 -0.072 0.816 -0.9v -5.256c 0 -0.996 -0.192 -1.104 -0.924 -1.14c -0.072 -0.072 -0.072 -0.336 0 -0.408c 0.504 0.012 1.044 0.024 1.704 0.024c 0.576 0 0.948 -0.012 1.464 -0.024c 0.072 0.072 0.072 0.336 0 0.408c -0.504 0.036 -0.684 0.144 -0.684 1.14v 2.46c 0.504 0.312 0.9 0.456 1.116 0.456c 0.48 0 0.9 -0.216 0.9 -0.9v -2.004c 0 -1.008 -0.192 -1.116 -0.684 -1.152c -0.072 -0.072 -0.072 -0.336 0 -0.408c 0.504 0.012 0.888 0.024 1.464 0.024c 0.66 0 1.188 -0.012 1.704 -0.024c 0.072 0.072 0.072 0.336 0 0.408c -0.732 0.036 -0.924 0.144 -0.924 1.152Z "/></symbol><symbol id="6" overflow="visible"><path d="M 0 0m 2.736 3.216c 0 0.432 0.132 0.612 0.288 0.792c 0.096 0.12 0.204 0.204 0.384 0.204c 0.108 0 0.24 -0.108 0.336 -0.228c 0.084 -0.096 0.288 -0.192 0.564 -0.192c 0.348 0 0.684 0.36 0.684 0.864c 0 0.312 -0.36 0.672 -0.792 0.672c -0.42 0 -0.876 -0.36 -1.428 -1.152h -0.048c -0.024 0.36 -0.084 0.948 -0.084 0.948c -0.012 0.108 -0.108 0.204 -0.276 0.204c -0.564 -0.144 -1.2 -0.312 -1.992 -0.396c -0.024 -0.072 0 -0.3 0.024 -0.372c 0.66 -0.06 0.78 -0.168 0.78 -0.852v -2.244c 0 -0.996 -0.132 -1.02 -0.864 -1.08c -0.072 -0.072 -0.072 -0.336 0 -0.408c 0.504 0.012 1.008 0.024 1.644 0.024c 0.636 0 1.128 -0.012 1.644 -0.024c 0.072 0.072 0.072 0.336 0 0.408c -0.732 0.048 -0.864 0.084 -0.864 1.08Z "/></symbol><symbol id="7" overflow="visible"><path d="M 0 0m 3.348 3.012c 0 0.54 -0.06 3.24 -2.784 5.592l -0.36 -0.384c 0.384 -0.432 1.764 -2.04 1.764 -5.208c 0 -3.168 -1.404 -4.776 -1.764 -5.196l 0.336 -0.408c 1.572 1.356 2.808 3.42 2.808 5.604Z "/></symbol><symbol id="8" overflow="visible"><path d="M 0 0m 2.736 -0.12c 0.924 0 2.328 0.936 2.328 3.756c 0 1.188 -0.288 2.208 -0.816 2.904c -0.312 0.42 -0.816 0.78 -1.464 0.78c -1.188 0 -2.316 -1.416 -2.316 -3.792c 0 -1.284 0.396 -2.484 1.056 -3.144c 0.336 -0.336 0.744 -0.504 1.212 -0.504Z m 0.048 7.02c 0.204 0 0.396 -0.072 0.54 -0.204c 0.372 -0.312 0.696 -1.224 0.696 -2.832c 0 -1.104 -0.036 -1.86 -0.204 -2.472c -0.264 -0.984 -0.852 -1.092 -1.068 -1.092c -1.116 0 -1.236 2.052 -1.236 3.096c 0 2.952 0.732 3.504 1.272 3.504Z "/></symbol><symbol id="9" overflow="visible"><path d="M 0 0m 0.684 0.516c 0 -0.348 0.288 -0.636 0.636 -0.636c 0.348 0 0.636 0.288 0.636 0.636c 0 0.348 -0.288 0.636 -0.636 0.636c -0.348 0 -0.636 -0.288 -0.636 -0.636Z "/></symbol><symbol id="a" overflow="visible"><path d="M 0 0m 3.828 2.268c 0 -1.14 -0.6 -1.98 -1.32 -1.98c -0.456 0 -0.612 0.3 -0.792 0.54c -0.156 0.204 -0.36 0.384 -0.612 0.384c -0.228 0 -0.456 -0.204 -0.456 -0.444c 0 -0.492 1.02 -0.9 1.704 -0.9c 1.488 0 2.544 1.104 2.544 2.616c 0 1.164 -0.804 2.208 -2.148 2.208c -0.516 0 -0.96 -0.108 -1.176 -0.192l 0.24 2.004c 0.444 -0.048 0.828 -0.108 1.404 -0.108c 0.36 0 0.768 0.024 1.26 0.072l 0.192 0.816l -0.084 0.048c -0.684 -0.072 -1.332 -0.132 -1.968 -0.132c -0.444 0 -0.876 0.024 -1.296 0.06l -0.408 -3.456c 0.636 0.24 1.092 0.288 1.524 0.288c 0.78 0 1.392 -0.516 1.392 -1.824Z "/></symbol><symbol id="b" overflow="visible"><path d="M 0 0m 3.456 1.464v 4.164c 0 0.72 0.012 1.452 0.036 1.608c 0 0.06 -0.024 0.06 -0.072 0.06c -0.66 -0.408 -1.296 -0.708 -2.352 -1.2c 0.024 -0.132 0.072 -0.252 0.18 -0.324c 0.552 0.228 0.816 0.3 1.044 0.3c 0.204 0 0.24 -0.288 0.24 -0.696v -3.912c 0 -0.996 -0.324 -1.056 -1.164 -1.092c -0.072 -0.072 -0.072 -0.324 0 -0.396c 0.588 0.012 1.02 0.024 1.668 0.024c 0.576 0 0.864 -0.012 1.464 -0.024c 0.072 0.072 0.072 0.324 0 0.396c -0.84 0.036 -1.044 0.096 -1.044 1.092Z "/></symbol><symbol id="c" overflow="visible"><path d="M 0 0m 0.732 5.616c 0 -0.252 0.228 -0.468 0.48 -0.468c 0.204 0 0.564 0.216 0.564 0.48c 0 0.096 -0.024 0.168 -0.048 0.252c -0.024 0.084 -0.096 0.192 -0.096 0.288c 0 0.3 0.312 0.732 1.188 0.732c 0.432 0 1.044 -0.3 1.044 -1.452c 0 -0.768 -0.276 -1.392 -0.984 -2.112l -0.888 -0.876c -1.176 -1.2 -1.368 -1.776 -1.368 -2.484c 0 0 0.612 0.024 0.996 0.024h 2.1c 0.384 0 0.936 -0.024 0.936 -0.024c 0.156 0.636 0.276 1.536 0.288 1.896c -0.072 0.06 -0.228 0.084 -0.348 0.06c -0.204 -0.852 -0.408 -1.152 -0.84 -1.152h -2.136c 0 0.576 0.828 1.392 0.888 1.452l 1.212 1.164c 0.684 0.66 1.2 1.188 1.2 2.1c 0 1.296 -1.056 1.824 -2.028 1.824c -1.332 0 -2.16 -0.984 -2.16 -1.704Z "/></symbol><symbol id="d" overflow="visible"><path d="M 0 0m 2.58 6.9c 0.516 0 0.996 -0.312 0.996 -1.08c 0 -0.6 -0.696 -1.524 -1.884 -1.692l 0.06 -0.384c 0.204 0.024 0.42 0.024 0.576 0.024c 0.684 0 1.572 -0.192 1.572 -1.548c 0 -1.596 -1.068 -1.92 -1.488 -1.92c -0.612 0 -0.72 0.276 -0.864 0.492c -0.12 0.168 -0.276 0.312 -0.516 0.312c -0.252 0 -0.504 -0.228 -0.504 -0.42c 0 -0.48 1.008 -0.804 1.728 -0.804c 1.428 0 2.7 0.924 2.7 2.508c 0 1.308 -0.984 1.776 -1.692 1.896l -0.012 0.024c 0.984 0.468 1.26 0.96 1.26 1.596c 0 0.36 -0.084 0.648 -0.372 0.948c -0.264 0.264 -0.684 0.468 -1.308 0.468c -1.764 0 -2.268 -1.152 -2.268 -1.548c 0 -0.168 0.12 -0.408 0.408 -0.408c 0.42 0 0.468 0.396 0.468 0.624c 0 0.768 0.828 0.912 1.14 0.912Z "/></symbol><symbol id="e" overflow="visible"><path d="M 0 0m 2.22 0c 0.48 0 1.464 -0.024 1.944 -0.024c 1.056 0 2.244 0.264 3.096 1.008c 0.576 0.504 0.972 1.5 0.972 2.724c 0 2.22 -1.44 4.044 -4.392 4.044c -0.636 0 -1.14 -0.012 -1.62 -0.012c -0.48 0 -1.848 0.024 -1.848 0.024c -0.12 -0.072 -0.12 -0.336 0 -0.408c 0.66 -0.036 0.996 -0.084 0.996 -1.08v -4.812c 0 -0.996 -0.336 -1.044 -0.996 -1.08c -0.12 -0.072 -0.12 -0.336 0 -0.408c 0 0 1.368 0.024 1.848 0.024Z m 0.828 1.428v 4.92c 0 0.66 0.312 0.9 0.744 0.9c 2.364 0 2.628 -2.028 2.628 -3.84c 0 -2.184 -1.308 -2.928 -2.22 -2.928c -0.84 0 -1.152 0.144 -1.152 0.948Z "/></symbol><symbol id="f" overflow="visible"><path d="M 0 0m 0.444 2.484c 0 -1.572 1.248 -2.604 2.856 -2.604c 0.852 0 1.56 0.24 2.052 0.684c 0.612 0.54 0.816 1.356 0.816 2.028c 0 1.572 -1.068 2.736 -2.856 2.736c -0.996 0 -1.74 -0.348 -2.208 -0.888c -0.456 -0.528 -0.66 -1.248 -0.66 -1.956Z m 2.676 2.34c 0.816 0 1.368 -0.972 1.368 -2.616c 0 -1.44 -0.564 -1.824 -0.996 -1.824c -0.984 0 -1.368 1.476 -1.368 2.364c 0 1.104 0.192 2.076 0.996 2.076Z "/></symbol><symbol id="10" overflow="visible"><path d="M 0 0m 0.576 1.752c 0.048 -0.588 0.108 -1.152 0.204 -1.608c 0.228 -0.072 0.996 -0.264 1.668 -0.264c 0.924 0 2.076 0.504 2.076 1.548c 0 0.408 -0.096 0.732 -0.372 1.032c -0.336 0.384 -0.84 0.684 -1.392 0.924c -0.48 0.204 -0.648 0.588 -0.648 0.936c 0 0.276 0.228 0.504 0.576 0.504c 0.42 0 0.828 -0.384 1.128 -1.116c 0.216 -0.036 0.348 -0.024 0.468 0.06c 0 0.432 -0.048 0.888 -0.156 1.272c -0.384 0.168 -0.684 0.288 -1.344 0.288c -0.636 0 -1.236 -0.24 -1.62 -0.624c -0.276 -0.276 -0.408 -0.612 -0.408 -0.936c 0 -0.36 0.144 -0.648 0.372 -0.9c 0.372 -0.408 1.032 -0.828 1.392 -0.996c 0.48 -0.216 0.612 -0.648 0.612 -0.936c 0 -0.384 -0.384 -0.588 -0.708 -0.588c -0.54 0 -1.116 0.552 -1.368 1.428c -0.192 0.036 -0.288 0.024 -0.48 -0.024Z "/></symbol><symbol id="11" overflow="visible"><path d="M 0 0m 5.604 4.728c 0.336 0 0.528 0.144 0.528 0.588c 0 0.228 -0.312 0.576 -0.768 0.576c -0.528 0 -1.224 -0.396 -1.572 -0.708c -0.216 0.12 -0.468 0.144 -1.008 0.144c -0.516 0 -1.02 -0.12 -1.416 -0.384c -0.492 -0.312 -0.816 -0.78 -0.816 -1.392c 0 -0.588 0.348 -1.224 0.924 -1.536c -0.372 -0.324 -0.948 -0.96 -0.948 -1.2c 0 -0.228 0.036 -0.372 0.156 -0.552c 0.108 -0.168 0.252 -0.264 0.492 -0.336c -0.516 -0.312 -1.044 -0.996 -1.044 -1.2c 0 -0.444 0.144 -0.96 0.468 -1.188c 0.468 -0.324 1.26 -0.396 1.836 -0.396c 1.668 0 3.576 0.876 3.576 2.196c 0 0.252 -0.12 0.768 -0.6 1.092c -0.468 0.312 -2.268 0.396 -3.156 0.396c -0.216 0 -0.54 0.024 -0.54 0.504c 0 0.192 0.12 0.36 0.18 0.504c 0.252 -0.12 0.504 -0.132 0.876 -0.132c 0.612 0 1.176 0.156 1.584 0.516c 0.348 0.312 0.588 0.732 0.588 1.272c 0 0.672 -0.336 1.116 -0.744 1.452c 0.096 0.12 0.492 0.336 0.612 0.336c 0.108 0 0.192 -0.072 0.228 -0.144c 0.048 -0.156 0.264 -0.408 0.564 -0.408Z m -3.504 -5.028c 0.924 0 2.7 -0.036 2.7 -0.672c 0 -0.432 -0.192 -0.924 -0.588 -1.14c -0.372 -0.216 -0.984 -0.24 -1.44 -0.24c -0.792 0 -1.332 0.588 -1.332 1.2c 0 0.408 0 0.684 0.132 0.924c 0.12 -0.048 0.276 -0.072 0.528 -0.072Z m 1.38 3.756c 0 -1.152 -0.336 -1.296 -0.648 -1.296c -0.744 0 -0.84 0.888 -0.84 1.5c 0 0.888 0.216 1.212 0.684 1.212c 0.564 0 0.804 -0.468 0.804 -1.416Z "/></symbol><symbol id="12" overflow="visible"><path d="M 0 0m 1.368 6.276v -4.812c 0 -0.996 -0.336 -1.044 -0.996 -1.08c -0.12 -0.072 -0.12 -0.336 0 -0.408c 0.48 0.012 1.368 0.024 1.848 0.024c 0.48 0 1.344 -0.012 1.824 -0.024c 0.12 0.072 0.12 0.336 0 0.408c -0.66 0.036 -0.996 0.084 -0.996 1.08v 4.812c 0 0.996 0.336 1.044 0.996 1.08c 0.12 0.072 0.12 0.336 0 0.408c -0.48 -0.012 -1.344 -0.024 -1.824 -0.024c -0.48 0 -1.368 0.012 -1.848 0.024c -0.12 -0.072 -0.12 -0.336 0 -0.408c 0.66 -0.036 0.996 -0.084 0.996 -1.08Z "/></symbol><symbol id="13" overflow="visible"><path d="M 0 0m 4.764 -0.12c 1.164 0 2.232 0.552 3.048 1.62c -0.06 0.108 -0.264 0.252 -0.396 0.252c -0.852 -0.936 -1.824 -1.248 -2.664 -1.248c -1.392 0 -2.496 1.632 -2.496 3.504c 0 1.86 0.96 3.396 2.388 3.396c 1.656 0 2.196 -0.936 2.508 -1.968c 0.144 -0.048 0.384 -0.012 0.516 0.06c -0.06 0.624 -0.156 1.2 -0.264 1.86c -0.612 0.06 -1.152 0.54 -2.628 0.54c -2.352 0 -4.332 -1.476 -4.332 -4.116c 0 -1.128 0.492 -2.448 1.452 -3.144c 0.768 -0.552 1.704 -0.756 2.868 -0.756Z "/></symbol><symbol id="14" overflow="visible"><path d="M 0 0m 2.736 1.464v 2.412c 0.48 0.324 0.96 0.564 1.176 0.564c 0.48 0 0.84 -0.216 0.84 -0.9v -2.004c 0 -1.008 -0.192 -1.116 -0.684 -1.152c -0.072 -0.072 -0.072 -0.336 0 -0.408c 0.504 0.012 0.888 0.024 1.464 0.024c 0.66 0 1.188 -0.012 1.704 -0.024c 0.072 0.072 0.072 0.336 0 0.408c -0.732 0.036 -0.924 0.144 -0.924 1.152v 1.872c 0 1.32 -0.564 1.92 -1.596 1.92c -0.48 0 -1.332 -0.528 -1.992 -0.984c -0.036 0.42 -0.084 0.78 -0.084 0.78c -0.012 0.144 -0.108 0.204 -0.276 0.204c -0.444 -0.12 -1.164 -0.288 -1.992 -0.396c -0.024 -0.072 0 -0.312 0.024 -0.384c 0.66 -0.06 0.78 -0.156 0.78 -0.84v -2.244c 0 -0.996 -0.132 -1.02 -0.864 -1.08c -0.072 -0.072 -0.072 -0.336 0 -0.408c 0.504 0.012 1.008 0.024 1.644 0.024c 0.552 0 0.888 -0.012 1.404 -0.024c 0.072 0.072 0.072 0.336 0 0.408c -0.504 0.048 -0.624 0.084 -0.624 1.08Z "/></symbol><symbol id="15" overflow="visible"><path d="M 0 0m 5.064 1.044c 0 0.144 -0.024 0.372 -0.156 0.372c -0.48 -0.444 -0.888 -0.672 -1.236 -0.672c -0.9 0 -1.608 0.648 -1.608 2.088c 0 1.332 0.3 1.992 0.936 1.992c 0.444 0 0.624 -0.468 0.66 -0.852c 0.036 -0.324 0.36 -0.564 0.744 -0.564c 0.384 0 0.66 0.3 0.66 0.672c 0 0.54 -0.648 1.248 -1.956 1.248c -1.416 0 -2.664 -1.14 -2.664 -2.916c 0 -0.78 0.276 -1.464 0.744 -1.908c 0.468 -0.444 1.02 -0.624 1.872 -0.624c 0.72 0 1.548 0.504 2.004 1.164Z "/></symbol><symbol id="16" overflow="visible"><path d="M 0 0m 0.756 5.208c -0.168 0 -0.348 -0.048 -0.504 -0.18v -0.348c 0 -0.06 0.012 -0.072 0.06 -0.072h 0.78c -0.024 -1.212 -0.036 -2.748 -0.036 -3.348c 0 -0.42 0.108 -0.828 0.36 -1.044c 0.276 -0.228 0.708 -0.336 0.996 -0.336c 0.66 0 1.392 0.336 1.632 0.672c 0 0.144 -0.072 0.216 -0.216 0.336c -0.156 -0.12 -0.456 -0.168 -0.684 -0.168c -0.264 0 -0.528 0.204 -0.528 0.804c 0 0.6 -0.012 1.884 -0.012 3.084h 1.212c 0.12 0 0.288 0.048 0.288 0.156v 0.372c 0 0.048 -0.036 0.072 -0.096 0.072h -1.404l 0.012 0.408c 0.024 0.804 0.06 1.356 0.06 1.356c 0 0.072 -0.036 0.108 -0.096 0.108c -0.084 0 -0.528 -0.132 -0.72 -0.216c -0.204 -0.084 -0.552 -0.156 -0.636 -0.264c -0.084 -0.108 -0.132 -0.432 -0.132 -1.392Z "/></symbol><symbol id="17" overflow="visible"><path d="M 0 0m 3.54 0.588c 0.084 -0.492 0.408 -0.708 0.936 -0.708c 0.66 0 1.128 0.252 1.572 0.672c -0.024 0.144 -0.072 0.24 -0.216 0.336c -0.156 -0.12 -0.276 -0.168 -0.504 -0.168c -0.264 0 -0.336 0.216 -0.336 0.804l 0.024 1.728c 0 1.728 -1.068 2.076 -2.052 2.076c -0.876 0 -2.22 -0.504 -2.22 -1.296c 0 -0.336 0.144 -0.6 0.612 -0.6c 0.432 0 0.744 0.264 0.744 0.552c 0 0.06 -0.012 0.132 -0.024 0.204c -0.024 0.12 -0.048 0.24 -0.024 0.36c 0.012 0.132 0.108 0.276 0.504 0.276c 0.504 0 0.924 -0.216 0.924 -1.74l -0.804 -0.252c -1.26 -0.396 -2.148 -0.744 -2.148 -1.692c 0 -0.828 0.456 -1.26 1.5 -1.26c 0.348 0 1.044 0.384 1.44 0.696Z m -0.06 2.028v -1.584c -0.3 -0.24 -0.6 -0.432 -0.816 -0.432c -0.516 0 -0.696 0.348 -0.696 0.72c 0 0.444 0.036 0.816 0.888 1.092Z "/></symbol><symbol id="18" overflow="visible"><path d="M 0 0m 3.624 8.184h -0.756l -2.844 -8.436h 0.756Z "/></symbol><symbol id="19" overflow="visible"><path d="M 0 0m 4.188 0.504h -0.72c -0.252 0 -0.42 0.228 -0.42 0.948v 4.824c 0 0.996 0.336 1.044 0.996 1.08c 0.12 0.072 0.12 0.336 0 0.408c -0.984 -0.012 -1.344 -0.024 -1.824 -0.024c -0.48 0 -1.848 0.024 -1.848 0.024c -0.12 -0.072 -0.12 -0.336 0 -0.408c 0.66 -0.036 0.996 -0.084 0.996 -1.08v -4.812c 0 -0.996 -0.336 -1.044 -0.996 -1.08c -0.12 -0.072 -0.12 -0.336 0 -0.408c 0 0 1.38 0.024 1.848 0.024h 2.676c 0.348 0 1.44 -0.024 1.44 -0.024c 0.12 0.6 0.24 1.38 0.312 2.004c -0.12 0.06 -0.372 0.084 -0.516 0.06c -0.24 -0.864 -0.684 -1.536 -1.944 -1.536Z "/></symbol><symbol id="1a" overflow="visible"><path d="M 0 0m 5.16 2.628h -0.996v 3.504c 0 0.6 0 1.068 0.024 1.164l -0.024 0.024h -0.384c -0.084 0 -0.144 -0.072 -0.192 -0.132c -0.756 -0.924 -2.148 -2.904 -3.252 -4.62c 0.036 -0.18 0.108 -0.504 0.468 -0.504h 2.448v -1.104c 0 -0.552 -0.456 -0.552 -0.972 -0.588c -0.072 -0.072 -0.072 -0.324 0 -0.396c 0.384 0.012 0.864 0.024 1.416 0.024c 0.468 0 0.924 -0.012 1.308 -0.024c 0.072 0.072 0.072 0.324 0 0.396c -0.588 0.048 -0.84 0.024 -0.84 0.588v 1.104h 0.828c 0.168 0 0.348 0.228 0.348 0.372c 0 0.12 -0.048 0.192 -0.18 0.192Z m -1.908 3.456v -3.456h -2.292c 0.612 0.984 1.464 2.328 2.292 3.456Z "/></symbol><symbol id="1b" overflow="visible"><path d="M 0 0m 4.716 5.82c 0 0.864 -0.672 1.5 -1.848 1.5c -1.224 0 -2.016 -0.732 -2.016 -1.656c 0 -0.672 0.324 -1.164 1.056 -1.62l 0.312 -0.192c -0.348 -0.18 -0.672 -0.396 -0.972 -0.66c -0.492 -0.432 -0.696 -0.972 -0.696 -1.44c 0 -1.224 0.864 -1.872 2.136 -1.872c 1.572 0 2.34 1.152 2.34 2.064c 0 0.696 -0.3 1.308 -0.936 1.692l -0.852 0.516c 0.564 0.276 1.476 0.9 1.476 1.668Z m -2.004 -5.52c -0.54 0 -1.356 0.372 -1.356 1.452c 0 0.36 0.156 1.2 1.188 1.884l 0.564 -0.336c 0.744 -0.456 1.044 -1.02 1.044 -1.596c 0 -1.2 -0.9 -1.404 -1.44 -1.404Z m 0.096 6.6c 0.78 0 1.068 -0.516 1.068 -1.068c 0 -0.648 -0.636 -1.188 -0.96 -1.428l -0.372 0.228c -0.756 0.492 -0.84 0.888 -0.84 1.26c 0 0.552 0.384 1.008 1.104 1.008Z "/></symbol><symbol id="1c" overflow="visible"><path d="M 0 0m 7.572 0c 0 0 -0.06 0.852 -0.06 1.224v 4.92c 0 1.068 0.204 1.128 1.044 1.212c 0.072 0.072 0.072 0.336 0 0.408c -0.588 -0.012 -0.792 -0.024 -1.296 -0.024c -0.54 0 -0.792 0.012 -1.392 0.024c -0.072 -0.072 -0.072 -0.336 0 -0.408c 0.84 -0.084 1.044 -0.12 1.044 -1.212v -3.372c 0 -0.3 -0.156 -0.24 -0.324 -0.036l -3.18 3.744l -1.068 1.26l -1.956 0.024c -0.072 -0.072 -0.072 -0.336 0 -0.408c 0.516 -0.036 0.876 -0.444 0.948 -0.756v -5.004c 0 -1.068 -0.204 -1.128 -1.044 -1.212c -0.072 -0.072 -0.072 -0.336 0 -0.408c 0.588 0.012 0.816 0.024 1.344 0.024c 0.528 0 0.744 -0.012 1.344 -0.024c 0.072 0.072 0.072 0.336 0 0.408c -0.84 0.084 -1.044 0.12 -1.044 1.212v 3.564c 0 0.12 0.024 0.24 0.096 0.24c 0.06 0 0.156 -0.084 0.288 -0.24l 4.02 -4.776c 0.24 -0.3 0.48 -0.528 0.48 -0.528c 0.42 0 0.54 0.036 0.756 0.144Z "/></symbol><symbol id="1d" overflow="visible"><path d="M 0 0m 7.956 1.392c 0.06 -0.972 0.012 -0.972 -0.768 -1.008c -0.072 -0.072 -0.072 -0.336 0 -0.408c 0.564 0.012 1.644 0.024 2.004 0.024c 0.36 0 0.912 -0.012 1.308 -0.024c 0.072 0.072 0.072 0.336 0 0.408c -0.816 0.036 -0.852 0.072 -0.924 1.068l -0.36 5.052c -0.048 0.648 0.012 0.804 0.828 0.852c 0.072 0.072 0.072 0.336 0 0.408l -2.412 -0.024l -2.28 -5.328h -0.06l -2.148 5.328l -2.46 0.024c -0.072 -0.072 -0.072 -0.336 0 -0.408c 0.828 -0.048 0.9 -0.06 0.816 -0.96l -0.48 -4.944c -0.072 -0.72 -0.216 -1.008 -0.9 -1.068c -0.072 -0.072 -0.072 -0.336 0 -0.408c 0.36 0.012 0.744 0.024 1.032 0.024c 0.288 0 1.008 -0.012 1.368 -0.024c 0.072 0.072 0.072 0.336 0 0.408c -0.792 0.06 -0.852 0.42 -0.792 1.092l 0.312 4.5h 0.048l 2.364 -5.916c 0.036 -0.084 0.168 -0.156 0.24 -0.156c 0.072 0 0.18 0.048 0.228 0.156l 2.7 6.348h 0.024Z "/></symbol><symbol id="1e" overflow="visible"><path d="M 0 0m 3.924 3.072c -0.324 -1.092 -1.092 -2.304 -2.688 -2.904c 0 -0.144 0.048 -0.252 0.144 -0.312c 1.212 0.36 1.956 0.864 2.628 1.644c 0.744 0.864 1.116 1.956 1.116 2.904c 0 2.436 -1.38 2.916 -2.304 2.916c -1.572 0 -2.22 -1.524 -2.22 -2.556c 0 -1.032 0.552 -1.956 2.184 -1.956c 0.312 0 0.78 0.096 1.14 0.264Z m 0.108 0.432c -0.396 -0.264 -0.792 -0.276 -0.996 -0.276c -1.176 0 -1.44 1.152 -1.44 1.752c 0 1.32 0.504 1.92 1.092 1.92c 0.756 0 1.44 -0.408 1.44 -2.46c 0 -0.264 -0.024 -0.588 -0.096 -0.936Z "/></symbol><symbol id="1f" overflow="visible"><path d="M 0 0m 5.052 7.572c -0.66 0.096 -0.912 0.324 -2.028 0.324c -0.54 0 -1.248 -0.168 -1.752 -0.576c -0.444 -0.36 -0.78 -0.912 -0.78 -1.5c 0 -0.456 0.12 -1.032 0.396 -1.392c 0.552 -0.744 1.548 -1.152 2.064 -1.512c 0.552 -0.384 1.092 -0.864 1.092 -1.536c 0 -0.588 -0.516 -0.996 -1.248 -0.996c -0.804 0 -1.632 0.66 -1.872 1.752c -0.192 0.072 -0.384 0.024 -0.564 -0.024c -0.012 0 -0.024 -0.012 -0.036 -0.012c 0 -0.9 0.096 -1.536 0.228 -1.98c 0.684 0 0.72 -0.24 2.376 -0.24c 0.732 0 1.32 0.216 1.812 0.66c 0.432 0.372 0.816 0.924 0.816 1.668c 0 0.624 -0.264 1.044 -0.624 1.44c -0.468 0.516 -1.14 0.888 -1.608 1.128c -0.48 0.24 -1.332 0.864 -1.332 1.548c 0 0.672 0.408 1.08 1.02 1.08c 1.02 0 1.356 -0.924 1.572 -1.716c 0.168 -0.048 0.468 -0.048 0.6 0.06c 0 0.636 -0.048 1.128 -0.132 1.824Z "/></symbol><symbol id="20" overflow="visible"><path d="M 0 0m 2.04 6.42h 2.148c -0.936 -2.328 -1.884 -4.668 -2.7 -6.492l 0.096 -0.084l 0.816 0.036c 0.684 2.04 1.344 4.032 2.688 7.308l -0.192 0.144c -0.204 -0.06 -0.468 -0.132 -0.924 -0.132h -2.472c -0.408 0 -0.384 0.12 -0.6 0.168c -0.036 0 -0.048 0 -0.048 -0.036c -0.012 -0.576 -0.144 -1.296 -0.24 -1.92c 0.132 -0.036 0.252 -0.048 0.384 -0.036c 0.264 0.96 0.66 1.044 1.044 1.044Z "/></symbol></defs></svg>